ISO-10303-21;
HEADER;
/* Generated by software containing ST-Developer
 * from STEP Tools, Inc. (www.steptools.com) 
 */
/* OPTION: using custom renumber hook */

FILE_DESCRIPTION(
/* description */ ('STEP AP242',
'CAx-IF Rec.Pracs.---Representation and Presentation of Product Manufa
cturing Information (PMI)---4.0---2014-10-13',
'CAx-IF Rec.Pracs.---3D Tessellated Geometry---0.4---2014-09-14','2;1'),

/* implementation_level */ '2;1');

FILE_NAME(
/* name */ '66789d35b9c7367681b24093',
/* time_stamp */ '2024-06-23T22:09:57Z',
/* author */ (''),
/* organization */ (''),
/* preprocessor_version */ 'ST-DEVELOPER v20',
/* originating_system */ '  ',
/* authorisation */ '  ');

FILE_SCHEMA (('AP242_MANAGED_MODEL_BASED_3D_ENGINEERING_MIM_LF { 1 0 10303 442 1 1 4 }'));
ENDSEC;

DATA;
#10=SHAPE_REPRESENTATION_RELATIONSHIP('','',#1273,#11);
#11=ADVANCED_BREP_SHAPE_REPRESENTATION('',(#1271),#2147);
#12=CONICAL_SURFACE('',#1337,0.00186335697399527,0.785398163397447);
#13=CONICAL_SURFACE('',#1344,0.00186335697399527,0.785398163397449);
#14=CONICAL_SURFACE('',#1346,0.00186335697399527,0.785398163397449);
#15=CONICAL_SURFACE('',#1359,0.00186335697399527,0.785398163397447);
#16=CONICAL_SURFACE('',#1363,0.00186335697399527,0.785398163397448);
#17=CONICAL_SURFACE('',#1364,0.00186335697399527,0.785398163397448);
#18=ELLIPSE('',#1300,0.00376454957738087,0.00266193853427896);
#19=ELLIPSE('',#1301,0.00376454957738087,0.00266193853427896);
#20=CYLINDRICAL_SURFACE('',#1286,0.003);
#21=CYLINDRICAL_SURFACE('',#1289,0.003);
#22=CYLINDRICAL_SURFACE('',#1292,0.00266193853427896);
#23=CYLINDRICAL_SURFACE('',#1295,0.00266193853427896);
#24=CYLINDRICAL_SURFACE('',#1302,0.00266193853427896);
#25=CYLINDRICAL_SURFACE('',#1306,0.00266193853427896);
#26=CYLINDRICAL_SURFACE('',#1310,0.00266193853427896);
#27=CYLINDRICAL_SURFACE('',#1313,0.00266193853427896);
#28=CYLINDRICAL_SURFACE('',#1316,0.020591702732099);
#29=CYLINDRICAL_SURFACE('',#1320,0.00465839243498818);
#30=CYLINDRICAL_SURFACE('',#1325,0.0219609929078014);
#31=CYLINDRICAL_SURFACE('',#1330,0.00199645390070922);
#32=CYLINDRICAL_SURFACE('',#1371,0.002);
#33=CYLINDRICAL_SURFACE('',#1374,0.002);
#34=CYLINDRICAL_SURFACE('',#1385,0.00266666666666666);
#35=CYLINDRICAL_SURFACE('',#1386,0.00266666666666666);
#36=CYLINDRICAL_SURFACE('',#1388,0.00266666666666666);
#37=CYLINDRICAL_SURFACE('',#1389,0.033333333333331);
#38=CYLINDRICAL_SURFACE('',#1390,0.0072820100607042);
#39=CYLINDRICAL_SURFACE('',#1391,0.0333333333333208);
#40=CYLINDRICAL_SURFACE('',#1392,0.00266666666666667);
#41=CYLINDRICAL_SURFACE('',#1394,0.003);
#42=CYLINDRICAL_SURFACE('',#1395,0.003);
#43=CYLINDRICAL_SURFACE('',#1402,0.0378279480538775);
#44=CYLINDRICAL_SURFACE('',#1403,0.003);
#45=CYLINDRICAL_SURFACE('',#1404,0.003);
#46=CIRCLE('',#1276,0.003);
#47=CIRCLE('',#1277,0.0378279480538775);
#48=CIRCLE('',#1278,0.003);
#49=CIRCLE('',#1279,0.00266666666666666);
#50=CIRCLE('',#1280,0.00266666666666666);
#51=CIRCLE('',#1281,0.033333333333331);
#52=CIRCLE('',#1282,0.0072820100607042);
#53=CIRCLE('',#1283,0.0333333333333208);
#54=CIRCLE('',#1284,0.00266666666666667);
#55=CIRCLE('',#1285,0.00266666666666666);
#56=CIRCLE('',#1287,0.003);
#57=CIRCLE('',#1288,0.003);
#58=CIRCLE('',#1290,0.003);
#59=CIRCLE('',#1291,0.003);
#60=CIRCLE('',#1293,0.00266193853427896);
#61=CIRCLE('',#1294,0.00266193853427896);
#62=CIRCLE('',#1296,0.00266193853427896);
#63=CIRCLE('',#1297,0.00266193853427896);
#64=CIRCLE('',#1303,0.00266193853427896);
#65=CIRCLE('',#1304,0.00266193853427896);
#66=CIRCLE('',#1305,0.00266193853427896);
#67=CIRCLE('',#1307,0.00266193853427896);
#68=CIRCLE('',#1308,0.00266193853427896);
#69=CIRCLE('',#1309,0.00266193853427896);
#70=CIRCLE('',#1311,0.00266193853427896);
#71=CIRCLE('',#1312,0.00266193853427896);
#72=CIRCLE('',#1314,0.00266193853427896);
#73=CIRCLE('',#1315,0.00266193853427896);
#74=CIRCLE('',#1317,0.020591702732099);
#75=CIRCLE('',#1318,0.020591702732099);
#76=CIRCLE('',#1321,0.00465839243498818);
#77=CIRCLE('',#1322,0.00465839243498818);
#78=CIRCLE('',#1326,0.0219609929078014);
#79=CIRCLE('',#1327,0.0219609929078014);
#80=CIRCLE('',#1331,0.00199645390070922);
#81=CIRCLE('',#1332,0.00199645390070922);
#82=CIRCLE('',#1338,0.00106477541371158);
#83=CIRCLE('',#1342,0.00106477541371158);
#84=CIRCLE('',#1343,0.00106477541371158);
#85=CIRCLE('',#1348,0.003);
#86=CIRCLE('',#1349,0.003);
#87=CIRCLE('',#1350,0.002);
#88=CIRCLE('',#1351,0.002);
#89=CIRCLE('',#1352,0.00266666666666666);
#90=CIRCLE('',#1353,0.00266666666666667);
#91=CIRCLE('',#1354,0.0333333333333208);
#92=CIRCLE('',#1355,0.0072820100607042);
#93=CIRCLE('',#1356,0.033333333333331);
#94=CIRCLE('',#1357,0.00266666666666666);
#95=CIRCLE('',#1358,0.00266666666666666);
#96=CIRCLE('',#1360,0.00106477541371158);
#97=CIRCLE('',#1362,0.00106477541371158);
#98=CIRCLE('',#1365,0.00106477541371158);
#99=CIRCLE('',#1372,0.002);
#100=CIRCLE('',#1375,0.002);
#101=CIRCLE('',#1378,0.003);
#102=CIRCLE('',#1379,0.0378279480538775);
#103=CIRCLE('',#1380,0.003);
#104=CIRCLE('',#1381,0.00266666666666666);
#105=CIRCLE('',#1382,0.00266666666666666);
#106=CIRCLE('',#1383,0.003);
#107=CIRCLE('',#1384,0.003);
#108=ORIENTED_EDGE('',*,*,#464,.F.);
#109=ORIENTED_EDGE('',*,*,#465,.T.);
#110=ORIENTED_EDGE('',*,*,#466,.T.);
#111=ORIENTED_EDGE('',*,*,#467,.T.);
#112=ORIENTED_EDGE('',*,*,#468,.T.);
#113=ORIENTED_EDGE('',*,*,#469,.F.);
#114=ORIENTED_EDGE('',*,*,#470,.T.);
#115=ORIENTED_EDGE('',*,*,#471,.F.);
#116=ORIENTED_EDGE('',*,*,#472,.F.);
#117=ORIENTED_EDGE('',*,*,#473,.T.);
#118=ORIENTED_EDGE('',*,*,#474,.F.);
#119=ORIENTED_EDGE('',*,*,#475,.F.);
#120=ORIENTED_EDGE('',*,*,#476,.F.);
#121=ORIENTED_EDGE('',*,*,#477,.F.);
#122=ORIENTED_EDGE('',*,*,#478,.F.);
#123=ORIENTED_EDGE('',*,*,#479,.T.);
#124=ORIENTED_EDGE('',*,*,#480,.F.);
#125=ORIENTED_EDGE('',*,*,#481,.T.);
#126=ORIENTED_EDGE('',*,*,#482,.F.);
#127=ORIENTED_EDGE('',*,*,#483,.T.);
#128=ORIENTED_EDGE('',*,*,#484,.F.);
#129=ORIENTED_EDGE('',*,*,#485,.T.);
#130=ORIENTED_EDGE('',*,*,#486,.F.);
#131=ORIENTED_EDGE('',*,*,#487,.T.);
#132=ORIENTED_EDGE('',*,*,#488,.T.);
#133=ORIENTED_EDGE('',*,*,#489,.F.);
#134=ORIENTED_EDGE('',*,*,#490,.T.);
#135=ORIENTED_EDGE('',*,*,#491,.F.);
#136=ORIENTED_EDGE('',*,*,#492,.F.);
#137=ORIENTED_EDGE('',*,*,#493,.T.);
#138=ORIENTED_EDGE('',*,*,#494,.F.);
#139=ORIENTED_EDGE('',*,*,#495,.F.);
#140=ORIENTED_EDGE('',*,*,#496,.T.);
#141=ORIENTED_EDGE('',*,*,#497,.F.);
#142=ORIENTED_EDGE('',*,*,#498,.T.);
#143=ORIENTED_EDGE('',*,*,#499,.T.);
#144=ORIENTED_EDGE('',*,*,#500,.T.);
#145=ORIENTED_EDGE('',*,*,#501,.T.);
#146=ORIENTED_EDGE('',*,*,#500,.F.);
#147=ORIENTED_EDGE('',*,*,#502,.T.);
#148=ORIENTED_EDGE('',*,*,#503,.T.);
#149=ORIENTED_EDGE('',*,*,#504,.T.);
#150=ORIENTED_EDGE('',*,*,#505,.T.);
#151=ORIENTED_EDGE('',*,*,#506,.F.);
#152=ORIENTED_EDGE('',*,*,#507,.F.);
#153=ORIENTED_EDGE('',*,*,#508,.T.);
#154=ORIENTED_EDGE('',*,*,#509,.T.);
#155=ORIENTED_EDGE('',*,*,#498,.F.);
#156=ORIENTED_EDGE('',*,*,#510,.F.);
#157=ORIENTED_EDGE('',*,*,#511,.F.);
#158=ORIENTED_EDGE('',*,*,#512,.T.);
#159=ORIENTED_EDGE('',*,*,#513,.T.);
#160=ORIENTED_EDGE('',*,*,#514,.F.);
#161=ORIENTED_EDGE('',*,*,#515,.T.);
#162=ORIENTED_EDGE('',*,*,#516,.T.);
#163=ORIENTED_EDGE('',*,*,#517,.F.);
#164=ORIENTED_EDGE('',*,*,#518,.T.);
#165=ORIENTED_EDGE('',*,*,#519,.F.);
#166=ORIENTED_EDGE('',*,*,#520,.F.);
#167=ORIENTED_EDGE('',*,*,#521,.T.);
#168=ORIENTED_EDGE('',*,*,#522,.F.);
#169=ORIENTED_EDGE('',*,*,#523,.T.);
#170=ORIENTED_EDGE('',*,*,#524,.T.);
#171=ORIENTED_EDGE('',*,*,#525,.F.);
#172=ORIENTED_EDGE('',*,*,#526,.T.);
#173=ORIENTED_EDGE('',*,*,#527,.F.);
#174=ORIENTED_EDGE('',*,*,#528,.T.);
#175=ORIENTED_EDGE('',*,*,#508,.F.);
#176=ORIENTED_EDGE('',*,*,#529,.T.);
#177=ORIENTED_EDGE('',*,*,#530,.T.);
#178=ORIENTED_EDGE('',*,*,#496,.F.);
#179=ORIENTED_EDGE('',*,*,#531,.F.);
#180=ORIENTED_EDGE('',*,*,#532,.T.);
#181=ORIENTED_EDGE('',*,*,#533,.F.);
#182=ORIENTED_EDGE('',*,*,#534,.T.);
#183=ORIENTED_EDGE('',*,*,#522,.T.);
#184=ORIENTED_EDGE('',*,*,#535,.T.);
#185=ORIENTED_EDGE('',*,*,#536,.T.);
#186=ORIENTED_EDGE('',*,*,#537,.F.);
#187=ORIENTED_EDGE('',*,*,#538,.F.);
#188=ORIENTED_EDGE('',*,*,#539,.T.);
#189=ORIENTED_EDGE('',*,*,#540,.F.);
#190=ORIENTED_EDGE('',*,*,#541,.T.);
#191=ORIENTED_EDGE('',*,*,#524,.F.);
#192=ORIENTED_EDGE('',*,*,#542,.F.);
#193=ORIENTED_EDGE('',*,*,#543,.T.);
#194=ORIENTED_EDGE('',*,*,#544,.F.);
#195=ORIENTED_EDGE('',*,*,#532,.F.);
#196=ORIENTED_EDGE('',*,*,#545,.F.);
#197=ORIENTED_EDGE('',*,*,#546,.T.);
#198=ORIENTED_EDGE('',*,*,#546,.F.);
#199=ORIENTED_EDGE('',*,*,#529,.F.);
#200=ORIENTED_EDGE('',*,*,#547,.T.);
#201=ORIENTED_EDGE('',*,*,#527,.T.);
#202=ORIENTED_EDGE('',*,*,#548,.T.);
#203=ORIENTED_EDGE('',*,*,#514,.T.);
#204=ORIENTED_EDGE('',*,*,#549,.F.);
#205=ORIENTED_EDGE('',*,*,#519,.T.);
#206=ORIENTED_EDGE('',*,*,#550,.T.);
#207=ORIENTED_EDGE('',*,*,#551,.T.);
#208=ORIENTED_EDGE('',*,*,#552,.F.);
#209=ORIENTED_EDGE('',*,*,#510,.T.);
#210=ORIENTED_EDGE('',*,*,#501,.F.);
#211=ORIENTED_EDGE('',*,*,#507,.T.);
#212=ORIENTED_EDGE('',*,*,#553,.T.);
#213=ORIENTED_EDGE('',*,*,#486,.T.);
#214=ORIENTED_EDGE('',*,*,#554,.F.);
#215=ORIENTED_EDGE('',*,*,#491,.T.);
#216=ORIENTED_EDGE('',*,*,#555,.F.);
#217=ORIENTED_EDGE('',*,*,#556,.T.);
#218=ORIENTED_EDGE('',*,*,#557,.T.);
#219=ORIENTED_EDGE('',*,*,#558,.F.);
#220=ORIENTED_EDGE('',*,*,#559,.T.);
#221=ORIENTED_EDGE('',*,*,#560,.T.);
#222=ORIENTED_EDGE('',*,*,#561,.F.);
#223=ORIENTED_EDGE('',*,*,#506,.T.);
#224=ORIENTED_EDGE('',*,*,#561,.T.);
#225=ORIENTED_EDGE('',*,*,#562,.T.);
#226=ORIENTED_EDGE('',*,*,#563,.F.);
#227=ORIENTED_EDGE('',*,*,#552,.T.);
#228=ORIENTED_EDGE('',*,*,#564,.T.);
#229=ORIENTED_EDGE('',*,*,#565,.T.);
#230=ORIENTED_EDGE('',*,*,#566,.F.);
#231=ORIENTED_EDGE('',*,*,#549,.T.);
#232=ORIENTED_EDGE('',*,*,#567,.T.);
#233=ORIENTED_EDGE('',*,*,#568,.F.);
#234=ORIENTED_EDGE('',*,*,#569,.F.);
#235=ORIENTED_EDGE('',*,*,#570,.F.);
#236=ORIENTED_EDGE('',*,*,#571,.T.);
#237=ORIENTED_EDGE('',*,*,#570,.T.);
#238=ORIENTED_EDGE('',*,*,#572,.F.);
#239=ORIENTED_EDGE('',*,*,#489,.T.);
#240=ORIENTED_EDGE('',*,*,#572,.T.);
#241=ORIENTED_EDGE('',*,*,#569,.T.);
#242=ORIENTED_EDGE('',*,*,#573,.F.);
#243=ORIENTED_EDGE('',*,*,#554,.T.);
#244=ORIENTED_EDGE('',*,*,#574,.T.);
#245=ORIENTED_EDGE('',*,*,#492,.T.);
#246=ORIENTED_EDGE('',*,*,#573,.T.);
#247=ORIENTED_EDGE('',*,*,#568,.T.);
#248=ORIENTED_EDGE('',*,*,#481,.F.);
#249=ORIENTED_EDGE('',*,*,#575,.F.);
#250=ORIENTED_EDGE('',*,*,#485,.F.);
#251=ORIENTED_EDGE('',*,*,#576,.F.);
#252=ORIENTED_EDGE('',*,*,#577,.F.);
#253=ORIENTED_EDGE('',*,*,#578,.F.);
#254=ORIENTED_EDGE('',*,*,#515,.F.);
#255=ORIENTED_EDGE('',*,*,#548,.F.);
#256=ORIENTED_EDGE('',*,*,#526,.F.);
#257=ORIENTED_EDGE('',*,*,#513,.F.);
#258=ORIENTED_EDGE('',*,*,#579,.F.);
#259=ORIENTED_EDGE('',*,*,#504,.F.);
#260=ORIENTED_EDGE('',*,*,#580,.F.);
#261=ORIENTED_EDGE('',*,*,#555,.T.);
#262=ORIENTED_EDGE('',*,*,#490,.F.);
#263=ORIENTED_EDGE('',*,*,#581,.F.);
#264=ORIENTED_EDGE('',*,*,#487,.F.);
#265=ORIENTED_EDGE('',*,*,#553,.F.);
#266=ORIENTED_EDGE('',*,*,#582,.T.);
#267=ORIENTED_EDGE('',*,*,#583,.T.);
#268=ORIENTED_EDGE('',*,*,#584,.T.);
#269=ORIENTED_EDGE('',*,*,#535,.F.);
#270=ORIENTED_EDGE('',*,*,#525,.T.);
#271=ORIENTED_EDGE('',*,*,#541,.F.);
#272=ORIENTED_EDGE('',*,*,#585,.F.);
#273=ORIENTED_EDGE('',*,*,#586,.T.);
#274=ORIENTED_EDGE('',*,*,#587,.F.);
#275=ORIENTED_EDGE('',*,*,#550,.F.);
#276=ORIENTED_EDGE('',*,*,#518,.F.);
#277=ORIENTED_EDGE('',*,*,#588,.F.);
#278=ORIENTED_EDGE('',*,*,#544,.T.);
#279=ORIENTED_EDGE('',*,*,#589,.T.);
#280=ORIENTED_EDGE('',*,*,#590,.T.);
#281=ORIENTED_EDGE('',*,*,#591,.T.);
#282=ORIENTED_EDGE('',*,*,#592,.T.);
#283=ORIENTED_EDGE('',*,*,#593,.F.);
#284=ORIENTED_EDGE('',*,*,#594,.T.);
#285=ORIENTED_EDGE('',*,*,#595,.T.);
#286=ORIENTED_EDGE('',*,*,#596,.F.);
#287=ORIENTED_EDGE('',*,*,#597,.T.);
#288=ORIENTED_EDGE('',*,*,#497,.T.);
#289=ORIENTED_EDGE('',*,*,#533,.T.);
#290=ORIENTED_EDGE('',*,*,#530,.F.);
#291=ORIENTED_EDGE('',*,*,#538,.T.);
#292=ORIENTED_EDGE('',*,*,#598,.T.);
#293=ORIENTED_EDGE('',*,*,#520,.T.);
#294=ORIENTED_EDGE('',*,*,#566,.T.);
#295=ORIENTED_EDGE('',*,*,#599,.T.);
#296=ORIENTED_EDGE('',*,*,#600,.T.);
#297=ORIENTED_EDGE('',*,*,#599,.F.);
#298=ORIENTED_EDGE('',*,*,#565,.F.);
#299=ORIENTED_EDGE('',*,*,#601,.F.);
#300=ORIENTED_EDGE('',*,*,#602,.T.);
#301=ORIENTED_EDGE('',*,*,#601,.T.);
#302=ORIENTED_EDGE('',*,*,#564,.F.);
#303=ORIENTED_EDGE('',*,*,#517,.T.);
#304=ORIENTED_EDGE('',*,*,#603,.T.);
#305=ORIENTED_EDGE('',*,*,#511,.T.);
#306=ORIENTED_EDGE('',*,*,#563,.T.);
#307=ORIENTED_EDGE('',*,*,#604,.T.);
#308=ORIENTED_EDGE('',*,*,#605,.T.);
#309=ORIENTED_EDGE('',*,*,#604,.F.);
#310=ORIENTED_EDGE('',*,*,#562,.F.);
#311=ORIENTED_EDGE('',*,*,#560,.F.);
#312=ORIENTED_EDGE('',*,*,#559,.F.);
#313=ORIENTED_EDGE('',*,*,#505,.F.);
#314=ORIENTED_EDGE('',*,*,#579,.T.);
#315=ORIENTED_EDGE('',*,*,#512,.F.);
#316=ORIENTED_EDGE('',*,*,#603,.F.);
#317=ORIENTED_EDGE('',*,*,#605,.F.);
#318=ORIENTED_EDGE('',*,*,#516,.F.);
#319=ORIENTED_EDGE('',*,*,#588,.T.);
#320=ORIENTED_EDGE('',*,*,#521,.F.);
#321=ORIENTED_EDGE('',*,*,#598,.F.);
#322=ORIENTED_EDGE('',*,*,#600,.F.);
#323=ORIENTED_EDGE('',*,*,#602,.F.);
#324=ORIENTED_EDGE('',*,*,#574,.F.);
#325=ORIENTED_EDGE('',*,*,#567,.F.);
#326=ORIENTED_EDGE('',*,*,#571,.F.);
#327=ORIENTED_EDGE('',*,*,#488,.F.);
#328=ORIENTED_EDGE('',*,*,#581,.T.);
#329=ORIENTED_EDGE('',*,*,#493,.F.);
#330=ORIENTED_EDGE('',*,*,#540,.T.);
#331=ORIENTED_EDGE('',*,*,#606,.T.);
#332=ORIENTED_EDGE('',*,*,#607,.F.);
#333=ORIENTED_EDGE('',*,*,#585,.T.);
#334=ORIENTED_EDGE('',*,*,#608,.F.);
#335=ORIENTED_EDGE('',*,*,#609,.F.);
#336=ORIENTED_EDGE('',*,*,#586,.F.);
#337=ORIENTED_EDGE('',*,*,#607,.T.);
#338=ORIENTED_EDGE('',*,*,#503,.F.);
#339=ORIENTED_EDGE('',*,*,#610,.T.);
#340=ORIENTED_EDGE('',*,*,#556,.F.);
#341=ORIENTED_EDGE('',*,*,#580,.T.);
#342=ORIENTED_EDGE('',*,*,#611,.F.);
#343=ORIENTED_EDGE('',*,*,#612,.F.);
#344=ORIENTED_EDGE('',*,*,#583,.F.);
#345=ORIENTED_EDGE('',*,*,#613,.T.);
#346=ORIENTED_EDGE('',*,*,#614,.F.);
#347=ORIENTED_EDGE('',*,*,#536,.F.);
#348=ORIENTED_EDGE('',*,*,#584,.F.);
#349=ORIENTED_EDGE('',*,*,#612,.T.);
#350=ORIENTED_EDGE('',*,*,#615,.F.);
#351=ORIENTED_EDGE('',*,*,#616,.T.);
#352=ORIENTED_EDGE('',*,*,#617,.T.);
#353=ORIENTED_EDGE('',*,*,#618,.T.);
#354=ORIENTED_EDGE('',*,*,#619,.T.);
#355=ORIENTED_EDGE('',*,*,#620,.F.);
#356=ORIENTED_EDGE('',*,*,#542,.T.);
#357=ORIENTED_EDGE('',*,*,#531,.T.);
#358=ORIENTED_EDGE('',*,*,#495,.T.);
#359=ORIENTED_EDGE('',*,*,#621,.F.);
#360=ORIENTED_EDGE('',*,*,#509,.F.);
#361=ORIENTED_EDGE('',*,*,#528,.F.);
#362=ORIENTED_EDGE('',*,*,#547,.F.);
#363=ORIENTED_EDGE('',*,*,#622,.T.);
#364=ORIENTED_EDGE('',*,*,#608,.T.);
#365=ORIENTED_EDGE('',*,*,#606,.F.);
#366=ORIENTED_EDGE('',*,*,#539,.F.);
#367=ORIENTED_EDGE('',*,*,#523,.F.);
#368=ORIENTED_EDGE('',*,*,#534,.F.);
#369=ORIENTED_EDGE('',*,*,#614,.T.);
#370=ORIENTED_EDGE('',*,*,#611,.T.);
#371=ORIENTED_EDGE('',*,*,#623,.F.);
#372=ORIENTED_EDGE('',*,*,#557,.F.);
#373=ORIENTED_EDGE('',*,*,#610,.F.);
#374=ORIENTED_EDGE('',*,*,#502,.F.);
#375=ORIENTED_EDGE('',*,*,#499,.F.);
#376=ORIENTED_EDGE('',*,*,#479,.F.);
#377=ORIENTED_EDGE('',*,*,#624,.T.);
#378=ORIENTED_EDGE('',*,*,#483,.F.);
#379=ORIENTED_EDGE('',*,*,#625,.T.);
#380=ORIENTED_EDGE('',*,*,#537,.T.);
#381=ORIENTED_EDGE('',*,*,#545,.T.);
#382=ORIENTED_EDGE('',*,*,#626,.F.);
#383=ORIENTED_EDGE('',*,*,#627,.F.);
#384=ORIENTED_EDGE('',*,*,#543,.F.);
#385=ORIENTED_EDGE('',*,*,#620,.T.);
#386=ORIENTED_EDGE('',*,*,#628,.T.);
#387=ORIENTED_EDGE('',*,*,#477,.T.);
#388=ORIENTED_EDGE('',*,*,#629,.T.);
#389=ORIENTED_EDGE('',*,*,#589,.F.);
#390=ORIENTED_EDGE('',*,*,#630,.F.);
#391=ORIENTED_EDGE('',*,*,#621,.T.);
#392=ORIENTED_EDGE('',*,*,#494,.T.);
#393=ORIENTED_EDGE('',*,*,#597,.F.);
#394=ORIENTED_EDGE('',*,*,#631,.F.);
#395=ORIENTED_EDGE('',*,*,#469,.T.);
#396=ORIENTED_EDGE('',*,*,#596,.T.);
#397=ORIENTED_EDGE('',*,*,#632,.F.);
#398=ORIENTED_EDGE('',*,*,#470,.F.);
#399=ORIENTED_EDGE('',*,*,#631,.T.);
#400=ORIENTED_EDGE('',*,*,#595,.F.);
#401=ORIENTED_EDGE('',*,*,#633,.F.);
#402=ORIENTED_EDGE('',*,*,#471,.T.);
#403=ORIENTED_EDGE('',*,*,#632,.T.);
#404=ORIENTED_EDGE('',*,*,#594,.F.);
#405=ORIENTED_EDGE('',*,*,#634,.F.);
#406=ORIENTED_EDGE('',*,*,#472,.T.);
#407=ORIENTED_EDGE('',*,*,#633,.T.);
#408=ORIENTED_EDGE('',*,*,#593,.T.);
#409=ORIENTED_EDGE('',*,*,#635,.F.);
#410=ORIENTED_EDGE('',*,*,#473,.F.);
#411=ORIENTED_EDGE('',*,*,#634,.T.);
#412=ORIENTED_EDGE('',*,*,#592,.F.);
#413=ORIENTED_EDGE('',*,*,#636,.F.);
#414=ORIENTED_EDGE('',*,*,#474,.T.);
#415=ORIENTED_EDGE('',*,*,#635,.T.);
#416=ORIENTED_EDGE('',*,*,#591,.F.);
#417=ORIENTED_EDGE('',*,*,#637,.F.);
#418=ORIENTED_EDGE('',*,*,#475,.T.);
#419=ORIENTED_EDGE('',*,*,#636,.T.);
#420=ORIENTED_EDGE('',*,*,#590,.F.);
#421=ORIENTED_EDGE('',*,*,#629,.F.);
#422=ORIENTED_EDGE('',*,*,#476,.T.);
#423=ORIENTED_EDGE('',*,*,#637,.T.);
#424=ORIENTED_EDGE('',*,*,#626,.T.);
#425=ORIENTED_EDGE('',*,*,#578,.T.);
#426=ORIENTED_EDGE('',*,*,#627,.T.);
#427=ORIENTED_EDGE('',*,*,#577,.T.);
#428=ORIENTED_EDGE('',*,*,#582,.F.);
#429=ORIENTED_EDGE('',*,*,#558,.T.);
#430=ORIENTED_EDGE('',*,*,#623,.T.);
#431=ORIENTED_EDGE('',*,*,#613,.F.);
#432=ORIENTED_EDGE('',*,*,#551,.F.);
#433=ORIENTED_EDGE('',*,*,#587,.T.);
#434=ORIENTED_EDGE('',*,*,#609,.T.);
#435=ORIENTED_EDGE('',*,*,#622,.F.);
#436=ORIENTED_EDGE('',*,*,#625,.F.);
#437=ORIENTED_EDGE('',*,*,#482,.T.);
#438=ORIENTED_EDGE('',*,*,#576,.T.);
#439=ORIENTED_EDGE('',*,*,#484,.T.);
#440=ORIENTED_EDGE('',*,*,#624,.F.);
#441=ORIENTED_EDGE('',*,*,#478,.T.);
#442=ORIENTED_EDGE('',*,*,#575,.T.);
#443=ORIENTED_EDGE('',*,*,#480,.T.);
#444=ORIENTED_EDGE('',*,*,#619,.F.);
#445=ORIENTED_EDGE('',*,*,#638,.T.);
#446=ORIENTED_EDGE('',*,*,#464,.T.);
#447=ORIENTED_EDGE('',*,*,#628,.F.);
#448=ORIENTED_EDGE('',*,*,#468,.F.);
#449=ORIENTED_EDGE('',*,*,#639,.T.);
#450=ORIENTED_EDGE('',*,*,#615,.T.);
#451=ORIENTED_EDGE('',*,*,#630,.T.);
#452=ORIENTED_EDGE('',*,*,#617,.F.);
#453=ORIENTED_EDGE('',*,*,#640,.T.);
#454=ORIENTED_EDGE('',*,*,#466,.F.);
#455=ORIENTED_EDGE('',*,*,#641,.T.);
#456=ORIENTED_EDGE('',*,*,#616,.F.);
#457=ORIENTED_EDGE('',*,*,#639,.F.);
#458=ORIENTED_EDGE('',*,*,#467,.F.);
#459=ORIENTED_EDGE('',*,*,#640,.F.);
#460=ORIENTED_EDGE('',*,*,#618,.F.);
#461=ORIENTED_EDGE('',*,*,#641,.F.);
#462=ORIENTED_EDGE('',*,*,#465,.F.);
#463=ORIENTED_EDGE('',*,*,#638,.F.);
#464=EDGE_CURVE('',#642,#643,#762,.T.);
#465=EDGE_CURVE('',#642,#644,#46,.F.);
#466=EDGE_CURVE('',#644,#645,#47,.T.);
#467=EDGE_CURVE('',#645,#646,#48,.F.);
#468=EDGE_CURVE('',#646,#647,#763,.T.);
#469=EDGE_CURVE('',#648,#647,#49,.T.);
#470=EDGE_CURVE('',#648,#649,#764,.T.);
#471=EDGE_CURVE('',#650,#649,#50,.T.);
#472=EDGE_CURVE('',#651,#650,#51,.T.);
#473=EDGE_CURVE('',#651,#652,#52,.T.);
#474=EDGE_CURVE('',#653,#652,#53,.T.);
#475=EDGE_CURVE('',#654,#653,#54,.T.);
#476=EDGE_CURVE('',#655,#654,#765,.T.);
#477=EDGE_CURVE('',#643,#655,#55,.T.);
#478=EDGE_CURVE('',#656,#657,#766,.F.);
#479=EDGE_CURVE('',#656,#658,#56,.T.);
#480=EDGE_CURVE('',#659,#658,#767,.T.);
#481=EDGE_CURVE('',#659,#657,#57,.F.);
#482=EDGE_CURVE('',#660,#661,#768,.F.);
#483=EDGE_CURVE('',#660,#662,#58,.T.);
#484=EDGE_CURVE('',#663,#662,#769,.T.);
#485=EDGE_CURVE('',#663,#661,#59,.F.);
#486=EDGE_CURVE('',#664,#665,#770,.T.);
#487=EDGE_CURVE('',#664,#666,#60,.F.);
#488=EDGE_CURVE('',#666,#667,#771,.T.);
#489=EDGE_CURVE('',#665,#667,#61,.T.);
#490=EDGE_CURVE('',#668,#669,#62,.F.);
#491=EDGE_CURVE('',#670,#669,#772,.T.);
#492=EDGE_CURVE('',#671,#670,#63,.T.);
#493=EDGE_CURVE('',#671,#668,#773,.T.);
#494=EDGE_CURVE('',#672,#673,#774,.T.);
#495=EDGE_CURVE('',#674,#672,#775,.T.);
#496=EDGE_CURVE('',#674,#675,#776,.T.);
#497=EDGE_CURVE('',#673,#675,#777,.T.);
#498=EDGE_CURVE('',#676,#677,#18,.T.);
#499=EDGE_CURVE('',#677,#678,#778,.T.);
#500=EDGE_CURVE('',#678,#679,#19,.T.);
#501=EDGE_CURVE('',#679,#676,#779,.T.);
#502=EDGE_CURVE('',#678,#680,#64,.T.);
#503=EDGE_CURVE('',#680,#681,#780,.T.);
#504=EDGE_CURVE('',#681,#682,#65,.F.);
#505=EDGE_CURVE('',#682,#683,#781,.T.);
#506=EDGE_CURVE('',#684,#683,#66,.T.);
#507=EDGE_CURVE('',#679,#684,#782,.T.);
#508=EDGE_CURVE('',#685,#686,#783,.F.);
#509=EDGE_CURVE('',#686,#677,#67,.T.);
#510=EDGE_CURVE('',#687,#676,#784,.T.);
#511=EDGE_CURVE('',#688,#687,#68,.T.);
#512=EDGE_CURVE('',#688,#689,#785,.T.);
#513=EDGE_CURVE('',#689,#685,#69,.F.);
#514=EDGE_CURVE('',#690,#691,#786,.T.);
#515=EDGE_CURVE('',#690,#692,#70,.F.);
#516=EDGE_CURVE('',#692,#693,#787,.T.);
#517=EDGE_CURVE('',#691,#693,#71,.T.);
#518=EDGE_CURVE('',#694,#695,#72,.F.);
#519=EDGE_CURVE('',#696,#695,#788,.T.);
#520=EDGE_CURVE('',#697,#696,#73,.T.);
#521=EDGE_CURVE('',#697,#694,#789,.T.);
#522=EDGE_CURVE('',#698,#699,#790,.T.);
#523=EDGE_CURVE('',#698,#700,#74,.T.);
#524=EDGE_CURVE('',#700,#701,#791,.T.);
#525=EDGE_CURVE('',#699,#701,#75,.T.);
#526=EDGE_CURVE('',#685,#702,#792,.T.);
#527=EDGE_CURVE('',#703,#702,#793,.T.);
#528=EDGE_CURVE('',#703,#686,#794,.T.);
#529=EDGE_CURVE('',#704,#704,#76,.T.);
#530=EDGE_CURVE('',#705,#705,#77,.F.);
#531=EDGE_CURVE('',#706,#674,#795,.T.);
#532=EDGE_CURVE('',#706,#707,#796,.T.);
#533=EDGE_CURVE('',#675,#707,#797,.T.);
#534=EDGE_CURVE('',#708,#698,#798,.T.);
#535=EDGE_CURVE('',#699,#709,#799,.T.);
#536=EDGE_CURVE('',#709,#708,#800,.T.);
#537=EDGE_CURVE('',#710,#710,#78,.T.);
#538=EDGE_CURVE('',#711,#711,#79,.T.);
#539=EDGE_CURVE('',#700,#712,#801,.F.);
#540=EDGE_CURVE('',#713,#712,#802,.T.);
#541=EDGE_CURVE('',#713,#701,#803,.T.);
#542=EDGE_CURVE('',#714,#706,#804,.F.);
#543=EDGE_CURVE('',#714,#715,#805,.T.);
#544=EDGE_CURVE('',#707,#715,#806,.T.);
#545=EDGE_CURVE('',#716,#716,#80,.T.);
#546=EDGE_CURVE('',#717,#717,#81,.T.);
#547=EDGE_CURVE('',#718,#703,#807,.T.);
#548=EDGE_CURVE('',#702,#690,#808,.T.);
#549=EDGE_CURVE('',#696,#691,#809,.T.);
#550=EDGE_CURVE('',#695,#719,#810,.T.);
#551=EDGE_CURVE('',#719,#718,#811,.T.);
#552=EDGE_CURVE('',#687,#684,#812,.T.);
#553=EDGE_CURVE('',#720,#664,#813,.T.);
#554=EDGE_CURVE('',#670,#665,#814,.T.);
#555=EDGE_CURVE('',#721,#669,#815,.T.);
#556=EDGE_CURVE('',#721,#722,#816,.T.);
#557=EDGE_CURVE('',#722,#723,#817,.T.);
#558=EDGE_CURVE('',#720,#723,#818,.T.);
#559=EDGE_CURVE('',#683,#724,#819,.T.);
#560=EDGE_CURVE('',#724,#725,#82,.T.);
#561=EDGE_CURVE('',#684,#725,#820,.T.);
#562=EDGE_CURVE('',#725,#726,#821,.T.);
#563=EDGE_CURVE('',#687,#726,#822,.T.);
#564=EDGE_CURVE('',#691,#727,#823,.T.);
#565=EDGE_CURVE('',#727,#728,#824,.T.);
#566=EDGE_CURVE('',#696,#728,#825,.T.);
#567=EDGE_CURVE('',#729,#730,#826,.T.);
#568=EDGE_CURVE('',#731,#730,#83,.T.);
#569=EDGE_CURVE('',#732,#731,#827,.T.);
#570=EDGE_CURVE('',#729,#732,#84,.T.);
#571=EDGE_CURVE('',#667,#729,#828,.T.);
#572=EDGE_CURVE('',#665,#732,#829,.T.);
#573=EDGE_CURVE('',#670,#731,#830,.T.);
#574=EDGE_CURVE('',#730,#671,#831,.T.);
#575=EDGE_CURVE('',#657,#659,#832,.T.);
#576=EDGE_CURVE('',#661,#663,#833,.T.);
#577=EDGE_CURVE('',#733,#733,#85,.F.);
#578=EDGE_CURVE('',#734,#734,#86,.F.);
#579=EDGE_CURVE('',#682,#689,#834,.T.);
#580=EDGE_CURVE('',#721,#681,#835,.T.);
#581=EDGE_CURVE('',#666,#668,#836,.T.);
#582=EDGE_CURVE('',#720,#735,#837,.T.);
#583=EDGE_CURVE('',#735,#736,#87,.F.);
#584=EDGE_CURVE('',#736,#709,#838,.T.);
#585=EDGE_CURVE('',#737,#713,#839,.T.);
#586=EDGE_CURVE('',#737,#738,#88,.F.);
#587=EDGE_CURVE('',#719,#738,#840,.T.);
#588=EDGE_CURVE('',#692,#694,#841,.T.);
#589=EDGE_CURVE('',#715,#739,#89,.T.);
#590=EDGE_CURVE('',#739,#740,#842,.T.);
#591=EDGE_CURVE('',#740,#741,#90,.T.);
#592=EDGE_CURVE('',#741,#742,#91,.T.);
#593=EDGE_CURVE('',#743,#742,#92,.T.);
#594=EDGE_CURVE('',#743,#744,#93,.T.);
#595=EDGE_CURVE('',#744,#745,#94,.T.);
#596=EDGE_CURVE('',#746,#745,#843,.T.);
#597=EDGE_CURVE('',#746,#673,#95,.T.);
#598=EDGE_CURVE('',#747,#697,#844,.T.);
#599=EDGE_CURVE('',#728,#747,#96,.T.);
#600=EDGE_CURVE('',#748,#747,#845,.T.);
#601=EDGE_CURVE('',#748,#727,#97,.T.);
#602=EDGE_CURVE('',#693,#748,#846,.T.);
#603=EDGE_CURVE('',#749,#688,#847,.T.);
#604=EDGE_CURVE('',#726,#749,#98,.T.);
#605=EDGE_CURVE('',#724,#749,#848,.T.);
#606=EDGE_CURVE('',#712,#750,#849,.F.);
#607=EDGE_CURVE('',#737,#750,#850,.T.);
#608=EDGE_CURVE('',#751,#750,#99,.T.);
#609=EDGE_CURVE('',#738,#751,#851,.T.);
#610=EDGE_CURVE('',#680,#722,#852,.T.);
#611=EDGE_CURVE('',#752,#753,#100,.T.);
#612=EDGE_CURVE('',#736,#752,#853,.T.);
#613=EDGE_CURVE('',#735,#753,#854,.T.);
#614=EDGE_CURVE('',#708,#752,#855,.T.);
#615=EDGE_CURVE('',#754,#755,#856,.T.);
#616=EDGE_CURVE('',#754,#756,#101,.T.);
#617=EDGE_CURVE('',#756,#757,#102,.F.);
#618=EDGE_CURVE('',#757,#758,#103,.T.);
#619=EDGE_CURVE('',#758,#759,#857,.T.);
#620=EDGE_CURVE('',#714,#759,#104,.F.);
#621=EDGE_CURVE('',#755,#672,#105,.F.);
#622=EDGE_CURVE('',#718,#751,#858,.T.);
#623=EDGE_CURVE('',#723,#753,#859,.T.);
#624=EDGE_CURVE('',#656,#658,#860,.T.);
#625=EDGE_CURVE('',#660,#662,#861,.T.);
#626=EDGE_CURVE('',#760,#760,#106,.T.);
#627=EDGE_CURVE('',#761,#761,#107,.T.);
#628=EDGE_CURVE('',#759,#643,#862,.T.);
#629=EDGE_CURVE('',#655,#739,#863,.T.);
#630=EDGE_CURVE('',#755,#647,#864,.T.);
#631=EDGE_CURVE('',#648,#746,#865,.T.);
#632=EDGE_CURVE('',#649,#745,#866,.T.);
#633=EDGE_CURVE('',#650,#744,#867,.T.);
#634=EDGE_CURVE('',#651,#743,#868,.T.);
#635=EDGE_CURVE('',#652,#742,#869,.T.);
#636=EDGE_CURVE('',#653,#741,#870,.T.);
#637=EDGE_CURVE('',#654,#740,#871,.T.);
#638=EDGE_CURVE('',#758,#642,#872,.F.);
#639=EDGE_CURVE('',#646,#754,#873,.F.);
#640=EDGE_CURVE('',#756,#645,#874,.T.);
#641=EDGE_CURVE('',#644,#757,#875,.F.);
#642=VERTEX_POINT('',#1784);
#643=VERTEX_POINT('',#1785);
#644=VERTEX_POINT('',#1787);
#645=VERTEX_POINT('',#1789);
#646=VERTEX_POINT('',#1791);
#647=VERTEX_POINT('',#1793);
#648=VERTEX_POINT('',#1795);
#649=VERTEX_POINT('',#1797);
#650=VERTEX_POINT('',#1799);
#651=VERTEX_POINT('',#1801);
#652=VERTEX_POINT('',#1803);
#653=VERTEX_POINT('',#1805);
#654=VERTEX_POINT('',#1807);
#655=VERTEX_POINT('',#1809);
#656=VERTEX_POINT('',#1813);
#657=VERTEX_POINT('',#1814);
#658=VERTEX_POINT('',#1816);
#659=VERTEX_POINT('',#1818);
#660=VERTEX_POINT('',#1822);
#661=VERTEX_POINT('',#1823);
#662=VERTEX_POINT('',#1825);
#663=VERTEX_POINT('',#1827);
#664=VERTEX_POINT('',#1831);
#665=VERTEX_POINT('',#1832);
#666=VERTEX_POINT('',#1834);
#667=VERTEX_POINT('',#1836);
#668=VERTEX_POINT('',#1840);
#669=VERTEX_POINT('',#1841);
#670=VERTEX_POINT('',#1843);
#671=VERTEX_POINT('',#1845);
#672=VERTEX_POINT('',#1849);
#673=VERTEX_POINT('',#1850);
#674=VERTEX_POINT('',#1852);
#675=VERTEX_POINT('',#1854);
#676=VERTEX_POINT('',#1858);
#677=VERTEX_POINT('',#1859);
#678=VERTEX_POINT('',#1861);
#679=VERTEX_POINT('',#1863);
#680=VERTEX_POINT('',#1867);
#681=VERTEX_POINT('',#1869);
#682=VERTEX_POINT('',#1871);
#683=VERTEX_POINT('',#1873);
#684=VERTEX_POINT('',#1875);
#685=VERTEX_POINT('',#1879);
#686=VERTEX_POINT('',#1880);
#687=VERTEX_POINT('',#1883);
#688=VERTEX_POINT('',#1885);
#689=VERTEX_POINT('',#1887);
#690=VERTEX_POINT('',#1891);
#691=VERTEX_POINT('',#1892);
#692=VERTEX_POINT('',#1894);
#693=VERTEX_POINT('',#1896);
#694=VERTEX_POINT('',#1900);
#695=VERTEX_POINT('',#1901);
#696=VERTEX_POINT('',#1903);
#697=VERTEX_POINT('',#1905);
#698=VERTEX_POINT('',#1909);
#699=VERTEX_POINT('',#1910);
#700=VERTEX_POINT('',#1912);
#701=VERTEX_POINT('',#1914);
#702=VERTEX_POINT('',#1918);
#703=VERTEX_POINT('',#1920);
#704=VERTEX_POINT('',#1924);
#705=VERTEX_POINT('',#1926);
#706=VERTEX_POINT('',#1929);
#707=VERTEX_POINT('',#1931);
#708=VERTEX_POINT('',#1935);
#709=VERTEX_POINT('',#1937);
#710=VERTEX_POINT('',#1941);
#711=VERTEX_POINT('',#1943);
#712=VERTEX_POINT('',#1946);
#713=VERTEX_POINT('',#1948);
#714=VERTEX_POINT('',#1952);
#715=VERTEX_POINT('',#1954);
#716=VERTEX_POINT('',#1958);
#717=VERTEX_POINT('',#1960);
#718=VERTEX_POINT('',#1964);
#719=VERTEX_POINT('',#1968);
#720=VERTEX_POINT('',#1974);
#721=VERTEX_POINT('',#1977);
#722=VERTEX_POINT('',#1979);
#723=VERTEX_POINT('',#1981);
#724=VERTEX_POINT('',#1985);
#725=VERTEX_POINT('',#1987);
#726=VERTEX_POINT('',#1991);
#727=VERTEX_POINT('',#1995);
#728=VERTEX_POINT('',#1997);
#729=VERTEX_POINT('',#2001);
#730=VERTEX_POINT('',#2002);
#731=VERTEX_POINT('',#2004);
#732=VERTEX_POINT('',#2006);
#733=VERTEX_POINT('',#2019);
#734=VERTEX_POINT('',#2021);
#735=VERTEX_POINT('',#2026);
#736=VERTEX_POINT('',#2028);
#737=VERTEX_POINT('',#2031);
#738=VERTEX_POINT('',#2033);
#739=VERTEX_POINT('',#2037);
#740=VERTEX_POINT('',#2039);
#741=VERTEX_POINT('',#2041);
#742=VERTEX_POINT('',#2043);
#743=VERTEX_POINT('',#2045);
#744=VERTEX_POINT('',#2047);
#745=VERTEX_POINT('',#2049);
#746=VERTEX_POINT('',#2051);
#747=VERTEX_POINT('',#2055);
#748=VERTEX_POINT('',#2059);
#749=VERTEX_POINT('',#2065);
#750=VERTEX_POINT('',#2074);
#751=VERTEX_POINT('',#2078);
#752=VERTEX_POINT('',#2084);
#753=VERTEX_POINT('',#2085);
#754=VERTEX_POINT('',#2092);
#755=VERTEX_POINT('',#2093);
#756=VERTEX_POINT('',#2095);
#757=VERTEX_POINT('',#2097);
#758=VERTEX_POINT('',#2099);
#759=VERTEX_POINT('',#2101);
#760=VERTEX_POINT('',#2109);
#761=VERTEX_POINT('',#2111);
#762=LINE('',#1783,#876);
#763=LINE('',#1792,#877);
#764=LINE('',#1796,#878);
#765=LINE('',#1808,#879);
#766=LINE('',#1812,#880);
#767=LINE('',#1817,#881);
#768=LINE('',#1821,#882);
#769=LINE('',#1826,#883);
#770=LINE('',#1830,#884);
#771=LINE('',#1835,#885);
#772=LINE('',#1842,#886);
#773=LINE('',#1846,#887);
#774=LINE('',#1848,#888);
#775=LINE('',#1851,#889);
#776=LINE('',#1853,#890);
#777=LINE('',#1855,#891);
#778=LINE('',#1860,#892);
#779=LINE('',#1864,#893);
#780=LINE('',#1868,#894);
#781=LINE('',#1872,#895);
#782=LINE('',#1876,#896);
#783=LINE('',#1878,#897);
#784=LINE('',#1882,#898);
#785=LINE('',#1886,#899);
#786=LINE('',#1890,#900);
#787=LINE('',#1895,#901);
#788=LINE('',#1902,#902);
#789=LINE('',#1906,#903);
#790=LINE('',#1908,#904);
#791=LINE('',#1913,#905);
#792=LINE('',#1917,#906);
#793=LINE('',#1919,#907);
#794=LINE('',#1921,#908);
#795=LINE('',#1928,#909);
#796=LINE('',#1930,#910);
#797=LINE('',#1932,#911);
#798=LINE('',#1934,#912);
#799=LINE('',#1936,#913);
#800=LINE('',#1938,#914);
#801=LINE('',#1945,#915);
#802=LINE('',#1947,#916);
#803=LINE('',#1949,#917);
#804=LINE('',#1951,#918);
#805=LINE('',#1953,#919);
#806=LINE('',#1955,#920);
#807=LINE('',#1963,#921);
#808=LINE('',#1965,#922);
#809=LINE('',#1966,#923);
#810=LINE('',#1967,#924);
#811=LINE('',#1969,#925);
#812=LINE('',#1971,#926);
#813=LINE('',#1973,#927);
#814=LINE('',#1975,#928);
#815=LINE('',#1976,#929);
#816=LINE('',#1978,#930);
#817=LINE('',#1980,#931);
#818=LINE('',#1982,#932);
#819=LINE('',#1984,#933);
#820=LINE('',#1988,#934);
#821=LINE('',#1990,#935);
#822=LINE('',#1992,#936);
#823=LINE('',#1994,#937);
#824=LINE('',#1996,#938);
#825=LINE('',#1998,#939);
#826=LINE('',#2000,#940);
#827=LINE('',#2005,#941);
#828=LINE('',#2009,#942);
#829=LINE('',#2010,#943);
#830=LINE('',#2012,#944);
#831=LINE('',#2014,#945);
#832=LINE('',#2016,#946);
#833=LINE('',#2017,#947);
#834=LINE('',#2022,#948);
#835=LINE('',#2023,#949);
#836=LINE('',#2024,#950);
#837=LINE('',#2025,#951);
#838=LINE('',#2029,#952);
#839=LINE('',#2030,#953);
#840=LINE('',#2034,#954);
#841=LINE('',#2035,#955);
#842=LINE('',#2038,#956);
#843=LINE('',#2050,#957);
#844=LINE('',#2054,#958);
#845=LINE('',#2058,#959);
#846=LINE('',#2062,#960);
#847=LINE('',#2064,#961);
#848=LINE('',#2068,#962);
#849=LINE('',#2073,#963);
#850=LINE('',#2075,#964);
#851=LINE('',#2079,#965);
#852=LINE('',#2081,#966);
#853=LINE('',#2086,#967);
#854=LINE('',#2087,#968);
#855=LINE('',#2089,#969);
#856=LINE('',#2091,#970);
#857=LINE('',#2100,#971);
#858=LINE('',#2104,#972);
#859=LINE('',#2105,#973);
#860=LINE('',#2106,#974);
#861=LINE('',#2107,#975);
#862=LINE('',#2113,#976);
#863=LINE('',#2114,#977);
#864=LINE('',#2116,#978);
#865=LINE('',#2117,#979);
#866=LINE('',#2119,#980);
#867=LINE('',#2121,#981);
#868=LINE('',#2123,#982);
#869=LINE('',#2125,#983);
#870=LINE('',#2127,#984);
#871=LINE('',#2129,#985);
#872=LINE('',#2138,#986);
#873=LINE('',#2140,#987);
#874=LINE('',#2142,#988);
#875=LINE('',#2143,#989);
#876=VECTOR('',#1409,1.);
#877=VECTOR('',#1416,1.);
#878=VECTOR('',#1419,1.);
#879=VECTOR('',#1430,1.);
#880=VECTOR('',#1435,1.);
#881=VECTOR('',#1438,1.);
#882=VECTOR('',#1443,1.);
#883=VECTOR('',#1446,1.);
#884=VECTOR('',#1451,1.);
#885=VECTOR('',#1454,1.);
#886=VECTOR('',#1461,1.);
#887=VECTOR('',#1464,1.);
#888=VECTOR('',#1467,1.);
#889=VECTOR('',#1468,1.);
#890=VECTOR('',#1469,1.);
#891=VECTOR('',#1470,1.);
#892=VECTOR('',#1475,1.);
#893=VECTOR('',#1478,1.);
#894=VECTOR('',#1483,1.);
#895=VECTOR('',#1486,1.);
#896=VECTOR('',#1489,1.);
#897=VECTOR('',#1492,1.);
#898=VECTOR('',#1495,1.);
#899=VECTOR('',#1498,1.);
#900=VECTOR('',#1503,1.);
#901=VECTOR('',#1506,1.);
#902=VECTOR('',#1513,1.);
#903=VECTOR('',#1516,1.);
#904=VECTOR('',#1519,1.);
#905=VECTOR('',#1522,1.);
#906=VECTOR('',#1527,1.);
#907=VECTOR('',#1528,1.);
#908=VECTOR('',#1529,1.);
#909=VECTOR('',#1538,1.);
#910=VECTOR('',#1539,1.);
#911=VECTOR('',#1540,1.);
#912=VECTOR('',#1543,1.);
#913=VECTOR('',#1544,1.);
#914=VECTOR('',#1545,1.);
#915=VECTOR('',#1554,1.);
#916=VECTOR('',#1555,1.);
#917=VECTOR('',#1556,1.);
#918=VECTOR('',#1559,1.);
#919=VECTOR('',#1560,1.);
#920=VECTOR('',#1561,1.);
#921=VECTOR('',#1572,1.);
#922=VECTOR('',#1573,1.);
#923=VECTOR('',#1574,1.);
#924=VECTOR('',#1575,1.);
#925=VECTOR('',#1576,1.);
#926=VECTOR('',#1579,1.);
#927=VECTOR('',#1582,1.);
#928=VECTOR('',#1583,1.);
#929=VECTOR('',#1584,1.);
#930=VECTOR('',#1585,1.);
#931=VECTOR('',#1586,1.);
#932=VECTOR('',#1587,1.);
#933=VECTOR('',#1590,1.);
#934=VECTOR('',#1593,1.);
#935=VECTOR('',#1596,1.);
#936=VECTOR('',#1597,1.);
#937=VECTOR('',#1600,1.);
#938=VECTOR('',#1601,1.);
#939=VECTOR('',#1602,1.);
#940=VECTOR('',#1605,1.);
#941=VECTOR('',#1608,1.);
#942=VECTOR('',#1613,1.);
#943=VECTOR('',#1614,1.);
#944=VECTOR('',#1617,1.);
#945=VECTOR('',#1620,1.);
#946=VECTOR('',#1623,1.);
#947=VECTOR('',#1624,1.);
#948=VECTOR('',#1629,1.);
#949=VECTOR('',#1630,1.);
#950=VECTOR('',#1631,1.);
#951=VECTOR('',#1632,1.);
#952=VECTOR('',#1635,1.);
#953=VECTOR('',#1636,1.);
#954=VECTOR('',#1639,1.);
#955=VECTOR('',#1640,1.);
#956=VECTOR('',#1643,1.);
#957=VECTOR('',#1654,1.);
#958=VECTOR('',#1659,1.);
#959=VECTOR('',#1664,1.);
#960=VECTOR('',#1669,1.);
#961=VECTOR('',#1672,1.);
#962=VECTOR('',#1677,1.);
#963=VECTOR('',#1686,1.);
#964=VECTOR('',#1687,1.);
#965=VECTOR('',#1692,1.);
#966=VECTOR('',#1695,1.);
#967=VECTOR('',#1700,1.);
#968=VECTOR('',#1701,1.);
#969=VECTOR('',#1704,1.);
#970=VECTOR('',#1707,1.);
#971=VECTOR('',#1714,1.);
#972=VECTOR('',#1719,1.);
#973=VECTOR('',#1720,1.);
#974=VECTOR('',#1721,1.);
#975=VECTOR('',#1722,1.);
#976=VECTOR('',#1729,1.);
#977=VECTOR('',#1730,1.);
#978=VECTOR('',#1733,1.);
#979=VECTOR('',#1734,1.);
#980=VECTOR('',#1737,1.);
#981=VECTOR('',#1740,1.);
#982=VECTOR('',#1743,1.);
#983=VECTOR('',#1746,1.);
#984=VECTOR('',#1749,1.);
#985=VECTOR('',#1752,1.);
#986=VECTOR('',#1769,1.);
#987=VECTOR('',#1772,1.);
#988=VECTOR('',#1775,1.);
#989=VECTOR('',#1776,1.);
#990=EDGE_LOOP('',(#108,#109,#110,#111,#112,#113,#114,#115,#116,#117,#118,
#119,#120,#121));
#991=EDGE_LOOP('',(#122,#123,#124,#125));
#992=EDGE_LOOP('',(#126,#127,#128,#129));
#993=EDGE_LOOP('',(#130,#131,#132,#133));
#994=EDGE_LOOP('',(#134,#135,#136,#137));
#995=EDGE_LOOP('',(#138,#139,#140,#141));
#996=EDGE_LOOP('',(#142,#143,#144,#145));
#997=EDGE_LOOP('',(#146,#147,#148,#149,#150,#151,#152));
#998=EDGE_LOOP('',(#153,#154,#155,#156,#157,#158,#159));
#999=EDGE_LOOP('',(#160,#161,#162,#163));
#1000=EDGE_LOOP('',(#164,#165,#166,#167));
#1001=EDGE_LOOP('',(#168,#169,#170,#171));
#1002=EDGE_LOOP('',(#172,#173,#174,#175));
#1003=EDGE_LOOP('',(#176));
#1004=EDGE_LOOP('',(#177));
#1005=EDGE_LOOP('',(#178,#179,#180,#181));
#1006=EDGE_LOOP('',(#182,#183,#184,#185));
#1007=EDGE_LOOP('',(#186));
#1008=EDGE_LOOP('',(#187));
#1009=EDGE_LOOP('',(#188,#189,#190,#191));
#1010=EDGE_LOOP('',(#192,#193,#194,#195));
#1011=EDGE_LOOP('',(#196));
#1012=EDGE_LOOP('',(#197));
#1013=EDGE_LOOP('',(#198));
#1014=EDGE_LOOP('',(#199));
#1015=EDGE_LOOP('',(#200,#201,#202,#203,#204,#205,#206,#207));
#1016=EDGE_LOOP('',(#208,#209,#210,#211));
#1017=EDGE_LOOP('',(#212,#213,#214,#215,#216,#217,#218,#219));
#1018=EDGE_LOOP('',(#220,#221,#222,#223));
#1019=EDGE_LOOP('',(#224,#225,#226,#227));
#1020=EDGE_LOOP('',(#228,#229,#230,#231));
#1021=EDGE_LOOP('',(#232,#233,#234,#235));
#1022=EDGE_LOOP('',(#236,#237,#238,#239));
#1023=EDGE_LOOP('',(#240,#241,#242,#243));
#1024=EDGE_LOOP('',(#244,#245,#246,#247));
#1025=EDGE_LOOP('',(#248,#249));
#1026=EDGE_LOOP('',(#250,#251));
#1027=EDGE_LOOP('',(#252));
#1028=EDGE_LOOP('',(#253));
#1029=EDGE_LOOP('',(#254,#255,#256,#257,#258,#259,#260,#261,#262,#263,#264,
#265,#266,#267,#268,#269,#270,#271,#272,#273,#274,#275,#276,#277));
#1030=EDGE_LOOP('',(#278,#279,#280,#281,#282,#283,#284,#285,#286,#287,#288,
#289));
#1031=EDGE_LOOP('',(#290));
#1032=EDGE_LOOP('',(#291));
#1033=EDGE_LOOP('',(#292,#293,#294,#295));
#1034=EDGE_LOOP('',(#296,#297,#298,#299));
#1035=EDGE_LOOP('',(#300,#301,#302,#303));
#1036=EDGE_LOOP('',(#304,#305,#306,#307));
#1037=EDGE_LOOP('',(#308,#309,#310,#311));
#1038=EDGE_LOOP('',(#312,#313,#314,#315,#316,#317));
#1039=EDGE_LOOP('',(#318,#319,#320,#321,#322,#323));
#1040=EDGE_LOOP('',(#324,#325,#326,#327,#328,#329));
#1041=EDGE_LOOP('',(#330,#331,#332,#333));
#1042=EDGE_LOOP('',(#334,#335,#336,#337));
#1043=EDGE_LOOP('',(#338,#339,#340,#341));
#1044=EDGE_LOOP('',(#342,#343,#344,#345));
#1045=EDGE_LOOP('',(#346,#347,#348,#349));
#1046=EDGE_LOOP('',(#350,#351,#352,#353,#354,#355,#356,#357,#358,#359));
#1047=EDGE_LOOP('',(#360,#361,#362,#363,#364,#365,#366,#367,#368,#369,#370,
#371,#372,#373,#374,#375));
#1048=EDGE_LOOP('',(#376,#377));
#1049=EDGE_LOOP('',(#378,#379));
#1050=EDGE_LOOP('',(#380));
#1051=EDGE_LOOP('',(#381));
#1052=EDGE_LOOP('',(#382));
#1053=EDGE_LOOP('',(#383));
#1054=EDGE_LOOP('',(#384,#385,#386,#387,#388,#389));
#1055=EDGE_LOOP('',(#390,#391,#392,#393,#394,#395));
#1056=EDGE_LOOP('',(#396,#397,#398,#399));
#1057=EDGE_LOOP('',(#400,#401,#402,#403));
#1058=EDGE_LOOP('',(#404,#405,#406,#407));
#1059=EDGE_LOOP('',(#408,#409,#410,#411));
#1060=EDGE_LOOP('',(#412,#413,#414,#415));
#1061=EDGE_LOOP('',(#416,#417,#418,#419));
#1062=EDGE_LOOP('',(#420,#421,#422,#423));
#1063=EDGE_LOOP('',(#424));
#1064=EDGE_LOOP('',(#425));
#1065=EDGE_LOOP('',(#426));
#1066=EDGE_LOOP('',(#427));
#1067=EDGE_LOOP('',(#428,#429,#430,#431));
#1068=EDGE_LOOP('',(#432,#433,#434,#435));
#1069=EDGE_LOOP('',(#436,#437,#438,#439));
#1070=EDGE_LOOP('',(#440,#441,#442,#443));
#1071=EDGE_LOOP('',(#444,#445,#446,#447));
#1072=EDGE_LOOP('',(#448,#449,#450,#451));
#1073=EDGE_LOOP('',(#452,#453,#454,#455));
#1074=EDGE_LOOP('',(#456,#457,#458,#459));
#1075=EDGE_LOOP('',(#460,#461,#462,#463));
#1076=FACE_BOUND('',#990,.T.);
#1077=FACE_BOUND('',#991,.T.);
#1078=FACE_BOUND('',#992,.T.);
#1079=FACE_BOUND('',#993,.T.);
#1080=FACE_BOUND('',#994,.T.);
#1081=FACE_BOUND('',#995,.T.);
#1082=FACE_BOUND('',#996,.T.);
#1083=FACE_BOUND('',#997,.T.);
#1084=FACE_BOUND('',#998,.T.);
#1085=FACE_BOUND('',#999,.T.);
#1086=FACE_BOUND('',#1000,.T.);
#1087=FACE_BOUND('',#1001,.T.);
#1088=FACE_BOUND('',#1002,.T.);
#1089=FACE_BOUND('',#1003,.T.);
#1090=FACE_BOUND('',#1004,.T.);
#1091=FACE_BOUND('',#1005,.T.);
#1092=FACE_BOUND('',#1006,.T.);
#1093=FACE_BOUND('',#1007,.T.);
#1094=FACE_BOUND('',#1008,.T.);
#1095=FACE_BOUND('',#1009,.T.);
#1096=FACE_BOUND('',#1010,.T.);
#1097=FACE_BOUND('',#1011,.T.);
#1098=FACE_BOUND('',#1012,.T.);
#1099=FACE_BOUND('',#1013,.T.);
#1100=FACE_BOUND('',#1014,.T.);
#1101=FACE_BOUND('',#1015,.T.);
#1102=FACE_BOUND('',#1016,.T.);
#1103=FACE_BOUND('',#1017,.T.);
#1104=FACE_BOUND('',#1018,.T.);
#1105=FACE_BOUND('',#1019,.T.);
#1106=FACE_BOUND('',#1020,.T.);
#1107=FACE_BOUND('',#1021,.T.);
#1108=FACE_BOUND('',#1022,.T.);
#1109=FACE_BOUND('',#1023,.T.);
#1110=FACE_BOUND('',#1024,.T.);
#1111=FACE_BOUND('',#1025,.T.);
#1112=FACE_BOUND('',#1026,.T.);
#1113=FACE_BOUND('',#1027,.T.);
#1114=FACE_BOUND('',#1028,.T.);
#1115=FACE_BOUND('',#1029,.T.);
#1116=FACE_BOUND('',#1030,.T.);
#1117=FACE_BOUND('',#1031,.T.);
#1118=FACE_BOUND('',#1032,.T.);
#1119=FACE_BOUND('',#1033,.T.);
#1120=FACE_BOUND('',#1034,.T.);
#1121=FACE_BOUND('',#1035,.T.);
#1122=FACE_BOUND('',#1036,.T.);
#1123=FACE_BOUND('',#1037,.T.);
#1124=FACE_BOUND('',#1038,.T.);
#1125=FACE_BOUND('',#1039,.T.);
#1126=FACE_BOUND('',#1040,.T.);
#1127=FACE_BOUND('',#1041,.T.);
#1128=FACE_BOUND('',#1042,.T.);
#1129=FACE_BOUND('',#1043,.T.);
#1130=FACE_BOUND('',#1044,.T.);
#1131=FACE_BOUND('',#1045,.T.);
#1132=FACE_BOUND('',#1046,.T.);
#1133=FACE_BOUND('',#1047,.T.);
#1134=FACE_BOUND('',#1048,.T.);
#1135=FACE_BOUND('',#1049,.T.);
#1136=FACE_BOUND('',#1050,.T.);
#1137=FACE_BOUND('',#1051,.T.);
#1138=FACE_BOUND('',#1052,.T.);
#1139=FACE_BOUND('',#1053,.T.);
#1140=FACE_BOUND('',#1054,.T.);
#1141=FACE_BOUND('',#1055,.T.);
#1142=FACE_BOUND('',#1056,.T.);
#1143=FACE_BOUND('',#1057,.T.);
#1144=FACE_BOUND('',#1058,.T.);
#1145=FACE_BOUND('',#1059,.T.);
#1146=FACE_BOUND('',#1060,.T.);
#1147=FACE_BOUND('',#1061,.T.);
#1148=FACE_BOUND('',#1062,.T.);
#1149=FACE_BOUND('',#1063,.T.);
#1150=FACE_BOUND('',#1064,.T.);
#1151=FACE_BOUND('',#1065,.T.);
#1152=FACE_BOUND('',#1066,.T.);
#1153=FACE_BOUND('',#1067,.T.);
#1154=FACE_BOUND('',#1068,.T.);
#1155=FACE_BOUND('',#1069,.T.);
#1156=FACE_BOUND('',#1070,.T.);
#1157=FACE_BOUND('',#1071,.T.);
#1158=FACE_BOUND('',#1072,.T.);
#1159=FACE_BOUND('',#1073,.T.);
#1160=FACE_BOUND('',#1074,.T.);
#1161=FACE_BOUND('',#1075,.T.);
#1162=PLANE('',#1275);
#1163=PLANE('',#1298);
#1164=PLANE('',#1299);
#1165=PLANE('',#1319);
#1166=PLANE('',#1323);
#1167=PLANE('',#1324);
#1168=PLANE('',#1328);
#1169=PLANE('',#1329);
#1170=PLANE('',#1333);
#1171=PLANE('',#1334);
#1172=PLANE('',#1335);
#1173=PLANE('',#1336);
#1174=PLANE('',#1339);
#1175=PLANE('',#1340);
#1176=PLANE('',#1341);
#1177=PLANE('',#1345);
#1178=PLANE('',#1347);
#1179=PLANE('',#1361);
#1180=PLANE('',#1366);
#1181=PLANE('',#1367);
#1182=PLANE('',#1368);
#1183=PLANE('',#1369);
#1184=PLANE('',#1370);
#1185=PLANE('',#1373);
#1186=PLANE('',#1376);
#1187=PLANE('',#1377);
#1188=PLANE('',#1387);
#1189=PLANE('',#1393);
#1190=PLANE('',#1396);
#1191=PLANE('',#1397);
#1192=PLANE('',#1398);
#1193=PLANE('',#1399);
#1194=PLANE('',#1400);
#1195=PLANE('',#1401);
#1196=ADVANCED_FACE('',(#1076),#1162,.T.);
#1197=ADVANCED_FACE('',(#1077),#20,.F.);
#1198=ADVANCED_FACE('',(#1078),#21,.F.);
#1199=ADVANCED_FACE('',(#1079),#22,.T.);
#1200=ADVANCED_FACE('',(#1080),#23,.T.);
#1201=ADVANCED_FACE('',(#1081),#1163,.F.);
#1202=ADVANCED_FACE('',(#1082),#1164,.T.);
#1203=ADVANCED_FACE('',(#1083),#24,.T.);
#1204=ADVANCED_FACE('',(#1084),#25,.T.);
#1205=ADVANCED_FACE('',(#1085),#26,.T.);
#1206=ADVANCED_FACE('',(#1086),#27,.T.);
#1207=ADVANCED_FACE('',(#1087),#28,.T.);
#1208=ADVANCED_FACE('',(#1088),#1165,.F.);
#1209=ADVANCED_FACE('',(#1089,#1090),#29,.F.);
#1210=ADVANCED_FACE('',(#1091),#1166,.F.);
#1211=ADVANCED_FACE('',(#1092),#1167,.T.);
#1212=ADVANCED_FACE('',(#1093,#1094),#30,.F.);
#1213=ADVANCED_FACE('',(#1095),#1168,.T.);
#1214=ADVANCED_FACE('',(#1096),#1169,.F.);
#1215=ADVANCED_FACE('',(#1097,#1098),#31,.F.);
#1216=ADVANCED_FACE('',(#1099,#1100),#1170,.F.);
#1217=ADVANCED_FACE('',(#1101),#1171,.T.);
#1218=ADVANCED_FACE('',(#1102),#1172,.T.);
#1219=ADVANCED_FACE('',(#1103),#1173,.T.);
#1220=ADVANCED_FACE('',(#1104),#12,.T.);
#1221=ADVANCED_FACE('',(#1105),#1174,.T.);
#1222=ADVANCED_FACE('',(#1106),#1175,.T.);
#1223=ADVANCED_FACE('',(#1107),#1176,.T.);
#1224=ADVANCED_FACE('',(#1108),#13,.T.);
#1225=ADVANCED_FACE('',(#1109),#1177,.T.);
#1226=ADVANCED_FACE('',(#1110),#14,.T.);
#1227=ADVANCED_FACE('',(#1111,#1112,#1113,#1114,#1115,#1116,#1117,#1118),
#1178,.F.);
#1228=ADVANCED_FACE('',(#1119),#15,.T.);
#1229=ADVANCED_FACE('',(#1120),#1179,.T.);
#1230=ADVANCED_FACE('',(#1121),#16,.T.);
#1231=ADVANCED_FACE('',(#1122),#17,.T.);
#1232=ADVANCED_FACE('',(#1123),#1180,.T.);
#1233=ADVANCED_FACE('',(#1124),#1181,.F.);
#1234=ADVANCED_FACE('',(#1125),#1182,.F.);
#1235=ADVANCED_FACE('',(#1126),#1183,.F.);
#1236=ADVANCED_FACE('',(#1127),#1184,.F.);
#1237=ADVANCED_FACE('',(#1128),#32,.T.);
#1238=ADVANCED_FACE('',(#1129),#1185,.F.);
#1239=ADVANCED_FACE('',(#1130),#33,.T.);
#1240=ADVANCED_FACE('',(#1131),#1186,.T.);
#1241=ADVANCED_FACE('',(#1132,#1133,#1134,#1135,#1136,#1137,#1138,#1139),
#1187,.F.);
#1242=ADVANCED_FACE('',(#1140),#34,.F.);
#1243=ADVANCED_FACE('',(#1141),#35,.F.);
#1244=ADVANCED_FACE('',(#1142),#1188,.F.);
#1245=ADVANCED_FACE('',(#1143),#36,.F.);
#1246=ADVANCED_FACE('',(#1144),#37,.F.);
#1247=ADVANCED_FACE('',(#1145),#38,.T.);
#1248=ADVANCED_FACE('',(#1146),#39,.F.);
#1249=ADVANCED_FACE('',(#1147),#40,.F.);
#1250=ADVANCED_FACE('',(#1148),#1189,.T.);
#1251=ADVANCED_FACE('',(#1149,#1150),#41,.F.);
#1252=ADVANCED_FACE('',(#1151,#1152),#42,.F.);
#1253=ADVANCED_FACE('',(#1153),#1190,.T.);
#1254=ADVANCED_FACE('',(#1154),#1191,.F.);
#1255=ADVANCED_FACE('',(#1155),#1192,.F.);
#1256=ADVANCED_FACE('',(#1156),#1193,.F.);
#1257=ADVANCED_FACE('',(#1157),#1194,.T.);
#1258=ADVANCED_FACE('',(#1158),#1195,.F.);
#1259=ADVANCED_FACE('',(#1159),#43,.T.);
#1260=ADVANCED_FACE('',(#1160),#44,.F.);
#1261=ADVANCED_FACE('',(#1161),#45,.F.);
#1262=CLOSED_SHELL('',(#1196,#1197,#1198,#1199,#1200,#1201,#1202,#1203,
#1204,#1205,#1206,#1207,#1208,#1209,#1210,#1211,#1212,#1213,#1214,#1215,
#1216,#1217,#1218,#1219,#1220,#1221,#1222,#1223,#1224,#1225,#1226,#1227,
#1228,#1229,#1230,#1231,#1232,#1233,#1234,#1235,#1236,#1237,#1238,#1239,
#1240,#1241,#1242,#1243,#1244,#1245,#1246,#1247,#1248,#1249,#1250,#1251,
#1252,#1253,#1254,#1255,#1256,#1257,#1258,#1259,#1260,#1261));
#1263=STYLED_ITEM('',(#1264),#1271);
#1264=PRESENTATION_STYLE_ASSIGNMENT((#1265));
#1265=SURFACE_STYLE_USAGE(.BOTH.,#1266);
#1266=SURFACE_SIDE_STYLE('',(#1267));
#1267=SURFACE_STYLE_FILL_AREA(#1268);
#1268=FILL_AREA_STYLE('',(#1269));
#1269=FILL_AREA_STYLE_COLOUR('',#1270);
#1270=COLOUR_RGB('',0.749019607843137,0.749019607843137,0.749019607843137);
#1271=MANIFOLD_SOLID_BREP('brace',#1262);
#1272=SHAPE_DEFINITION_REPRESENTATION(#2152,#1273);
#1273=SHAPE_REPRESENTATION('brace',(#1274),#2147);
#1274=AXIS2_PLACEMENT_3D('',#1781,#1405,#1406);
#1275=AXIS2_PLACEMENT_3D('',#1782,#1407,#1408);
#1276=AXIS2_PLACEMENT_3D('',#1786,#1410,#1411);
#1277=AXIS2_PLACEMENT_3D('',#1788,#1412,#1413);
#1278=AXIS2_PLACEMENT_3D('',#1790,#1414,#1415);
#1279=AXIS2_PLACEMENT_3D('',#1794,#1417,#1418);
#1280=AXIS2_PLACEMENT_3D('',#1798,#1420,#1421);
#1281=AXIS2_PLACEMENT_3D('',#1800,#1422,#1423);
#1282=AXIS2_PLACEMENT_3D('',#1802,#1424,#1425);
#1283=AXIS2_PLACEMENT_3D('',#1804,#1426,#1427);
#1284=AXIS2_PLACEMENT_3D('',#1806,#1428,#1429);
#1285=AXIS2_PLACEMENT_3D('',#1810,#1431,#1432);
#1286=AXIS2_PLACEMENT_3D('',#1811,#1433,#1434);
#1287=AXIS2_PLACEMENT_3D('',#1815,#1436,#1437);
#1288=AXIS2_PLACEMENT_3D('',#1819,#1439,#1440);
#1289=AXIS2_PLACEMENT_3D('',#1820,#1441,#1442);
#1290=AXIS2_PLACEMENT_3D('',#1824,#1444,#1445);
#1291=AXIS2_PLACEMENT_3D('',#1828,#1447,#1448);
#1292=AXIS2_PLACEMENT_3D('',#1829,#1449,#1450);
#1293=AXIS2_PLACEMENT_3D('',#1833,#1452,#1453);
#1294=AXIS2_PLACEMENT_3D('',#1837,#1455,#1456);
#1295=AXIS2_PLACEMENT_3D('',#1838,#1457,#1458);
#1296=AXIS2_PLACEMENT_3D('',#1839,#1459,#1460);
#1297=AXIS2_PLACEMENT_3D('',#1844,#1462,#1463);
#1298=AXIS2_PLACEMENT_3D('',#1847,#1465,#1466);
#1299=AXIS2_PLACEMENT_3D('',#1856,#1471,#1472);
#1300=AXIS2_PLACEMENT_3D('',#1857,#1473,#1474);
#1301=AXIS2_PLACEMENT_3D('',#1862,#1476,#1477);
#1302=AXIS2_PLACEMENT_3D('',#1865,#1479,#1480);
#1303=AXIS2_PLACEMENT_3D('',#1866,#1481,#1482);
#1304=AXIS2_PLACEMENT_3D('',#1870,#1484,#1485);
#1305=AXIS2_PLACEMENT_3D('',#1874,#1487,#1488);
#1306=AXIS2_PLACEMENT_3D('',#1877,#1490,#1491);
#1307=AXIS2_PLACEMENT_3D('',#1881,#1493,#1494);
#1308=AXIS2_PLACEMENT_3D('',#1884,#1496,#1497);
#1309=AXIS2_PLACEMENT_3D('',#1888,#1499,#1500);
#1310=AXIS2_PLACEMENT_3D('',#1889,#1501,#1502);
#1311=AXIS2_PLACEMENT_3D('',#1893,#1504,#1505);
#1312=AXIS2_PLACEMENT_3D('',#1897,#1507,#1508);
#1313=AXIS2_PLACEMENT_3D('',#1898,#1509,#1510);
#1314=AXIS2_PLACEMENT_3D('',#1899,#1511,#1512);
#1315=AXIS2_PLACEMENT_3D('',#1904,#1514,#1515);
#1316=AXIS2_PLACEMENT_3D('',#1907,#1517,#1518);
#1317=AXIS2_PLACEMENT_3D('',#1911,#1520,#1521);
#1318=AXIS2_PLACEMENT_3D('',#1915,#1523,#1524);
#1319=AXIS2_PLACEMENT_3D('',#1916,#1525,#1526);
#1320=AXIS2_PLACEMENT_3D('',#1922,#1530,#1531);
#1321=AXIS2_PLACEMENT_3D('',#1923,#1532,#1533);
#1322=AXIS2_PLACEMENT_3D('',#1925,#1534,#1535);
#1323=AXIS2_PLACEMENT_3D('',#1927,#1536,#1537);
#1324=AXIS2_PLACEMENT_3D('',#1933,#1541,#1542);
#1325=AXIS2_PLACEMENT_3D('',#1939,#1546,#1547);
#1326=AXIS2_PLACEMENT_3D('',#1940,#1548,#1549);
#1327=AXIS2_PLACEMENT_3D('',#1942,#1550,#1551);
#1328=AXIS2_PLACEMENT_3D('',#1944,#1552,#1553);
#1329=AXIS2_PLACEMENT_3D('',#1950,#1557,#1558);
#1330=AXIS2_PLACEMENT_3D('',#1956,#1562,#1563);
#1331=AXIS2_PLACEMENT_3D('',#1957,#1564,#1565);
#1332=AXIS2_PLACEMENT_3D('',#1959,#1566,#1567);
#1333=AXIS2_PLACEMENT_3D('',#1961,#1568,#1569);
#1334=AXIS2_PLACEMENT_3D('',#1962,#1570,#1571);
#1335=AXIS2_PLACEMENT_3D('',#1970,#1577,#1578);
#1336=AXIS2_PLACEMENT_3D('',#1972,#1580,#1581);
#1337=AXIS2_PLACEMENT_3D('',#1983,#1588,#1589);
#1338=AXIS2_PLACEMENT_3D('',#1986,#1591,#1592);
#1339=AXIS2_PLACEMENT_3D('',#1989,#1594,#1595);
#1340=AXIS2_PLACEMENT_3D('',#1993,#1598,#1599);
#1341=AXIS2_PLACEMENT_3D('',#1999,#1603,#1604);
#1342=AXIS2_PLACEMENT_3D('',#2003,#1606,#1607);
#1343=AXIS2_PLACEMENT_3D('',#2007,#1609,#1610);
#1344=AXIS2_PLACEMENT_3D('',#2008,#1611,#1612);
#1345=AXIS2_PLACEMENT_3D('',#2011,#1615,#1616);
#1346=AXIS2_PLACEMENT_3D('',#2013,#1618,#1619);
#1347=AXIS2_PLACEMENT_3D('',#2015,#1621,#1622);
#1348=AXIS2_PLACEMENT_3D('',#2018,#1625,#1626);
#1349=AXIS2_PLACEMENT_3D('',#2020,#1627,#1628);
#1350=AXIS2_PLACEMENT_3D('',#2027,#1633,#1634);
#1351=AXIS2_PLACEMENT_3D('',#2032,#1637,#1638);
#1352=AXIS2_PLACEMENT_3D('',#2036,#1641,#1642);
#1353=AXIS2_PLACEMENT_3D('',#2040,#1644,#1645);
#1354=AXIS2_PLACEMENT_3D('',#2042,#1646,#1647);
#1355=AXIS2_PLACEMENT_3D('',#2044,#1648,#1649);
#1356=AXIS2_PLACEMENT_3D('',#2046,#1650,#1651);
#1357=AXIS2_PLACEMENT_3D('',#2048,#1652,#1653);
#1358=AXIS2_PLACEMENT_3D('',#2052,#1655,#1656);
#1359=AXIS2_PLACEMENT_3D('',#2053,#1657,#1658);
#1360=AXIS2_PLACEMENT_3D('',#2056,#1660,#1661);
#1361=AXIS2_PLACEMENT_3D('',#2057,#1662,#1663);
#1362=AXIS2_PLACEMENT_3D('',#2060,#1665,#1666);
#1363=AXIS2_PLACEMENT_3D('',#2061,#1667,#1668);
#1364=AXIS2_PLACEMENT_3D('',#2063,#1670,#1671);
#1365=AXIS2_PLACEMENT_3D('',#2066,#1673,#1674);
#1366=AXIS2_PLACEMENT_3D('',#2067,#1675,#1676);
#1367=AXIS2_PLACEMENT_3D('',#2069,#1678,#1679);
#1368=AXIS2_PLACEMENT_3D('',#2070,#1680,#1681);
#1369=AXIS2_PLACEMENT_3D('',#2071,#1682,#1683);
#1370=AXIS2_PLACEMENT_3D('',#2072,#1684,#1685);
#1371=AXIS2_PLACEMENT_3D('',#2076,#1688,#1689);
#1372=AXIS2_PLACEMENT_3D('',#2077,#1690,#1691);
#1373=AXIS2_PLACEMENT_3D('',#2080,#1693,#1694);
#1374=AXIS2_PLACEMENT_3D('',#2082,#1696,#1697);
#1375=AXIS2_PLACEMENT_3D('',#2083,#1698,#1699);
#1376=AXIS2_PLACEMENT_3D('',#2088,#1702,#1703);
#1377=AXIS2_PLACEMENT_3D('',#2090,#1705,#1706);
#1378=AXIS2_PLACEMENT_3D('',#2094,#1708,#1709);
#1379=AXIS2_PLACEMENT_3D('',#2096,#1710,#1711);
#1380=AXIS2_PLACEMENT_3D('',#2098,#1712,#1713);
#1381=AXIS2_PLACEMENT_3D('',#2102,#1715,#1716);
#1382=AXIS2_PLACEMENT_3D('',#2103,#1717,#1718);
#1383=AXIS2_PLACEMENT_3D('',#2108,#1723,#1724);
#1384=AXIS2_PLACEMENT_3D('',#2110,#1725,#1726);
#1385=AXIS2_PLACEMENT_3D('',#2112,#1727,#1728);
#1386=AXIS2_PLACEMENT_3D('',#2115,#1731,#1732);
#1387=AXIS2_PLACEMENT_3D('',#2118,#1735,#1736);
#1388=AXIS2_PLACEMENT_3D('',#2120,#1738,#1739);
#1389=AXIS2_PLACEMENT_3D('',#2122,#1741,#1742);
#1390=AXIS2_PLACEMENT_3D('',#2124,#1744,#1745);
#1391=AXIS2_PLACEMENT_3D('',#2126,#1747,#1748);
#1392=AXIS2_PLACEMENT_3D('',#2128,#1750,#1751);
#1393=AXIS2_PLACEMENT_3D('',#2130,#1753,#1754);
#1394=AXIS2_PLACEMENT_3D('',#2131,#1755,#1756);
#1395=AXIS2_PLACEMENT_3D('',#2132,#1757,#1758);
#1396=AXIS2_PLACEMENT_3D('',#2133,#1759,#1760);
#1397=AXIS2_PLACEMENT_3D('',#2134,#1761,#1762);
#1398=AXIS2_PLACEMENT_3D('',#2135,#1763,#1764);
#1399=AXIS2_PLACEMENT_3D('',#2136,#1765,#1766);
#1400=AXIS2_PLACEMENT_3D('',#2137,#1767,#1768);
#1401=AXIS2_PLACEMENT_3D('',#2139,#1770,#1771);
#1402=AXIS2_PLACEMENT_3D('',#2141,#1773,#1774);
#1403=AXIS2_PLACEMENT_3D('',#2144,#1777,#1778);
#1404=AXIS2_PLACEMENT_3D('',#2145,#1779,#1780);
#1405=DIRECTION('',(0.,0.,1.));
#1406=DIRECTION('',(1.,0.,0.));
#1407=DIRECTION('',(0.,0.,-1.));
#1408=DIRECTION('',(1.,0.,0.));
#1409=DIRECTION('',(-0.143768647623379,0.989611325703452,0.));
#1410=DIRECTION('',(0.,0.,-1.));
#1411=DIRECTION('',(-1.,0.,0.));
#1412=DIRECTION('',(0.,0.,-1.));
#1413=DIRECTION('',(-1.,0.,0.));
#1414=DIRECTION('',(0.,0.,-1.));
#1415=DIRECTION('',(-1.,0.,0.));
#1416=DIRECTION('',(0.143892904792488,0.989593265918064,0.));
#1417=DIRECTION('',(0.,0.,-1.));
#1418=DIRECTION('',(-1.,0.,0.));
#1419=DIRECTION('',(-0.159356837412268,-0.987221048382762,0.));
#1420=DIRECTION('',(0.,0.,-1.));
#1421=DIRECTION('',(-1.,0.,0.));
#1422=DIRECTION('',(0.,0.,-1.));
#1423=DIRECTION('',(-1.,0.,0.));
#1424=DIRECTION('',(0.,0.,-1.));
#1425=DIRECTION('',(0.,-1.,0.));
#1426=DIRECTION('',(0.,0.,-1.));
#1427=DIRECTION('',(-1.,0.,0.));
#1428=DIRECTION('',(0.,0.,-1.));
#1429=DIRECTION('',(-1.,0.,0.));
#1430=DIRECTION('',(0.159232877984113,-0.987241049880371,0.));
#1431=DIRECTION('',(0.,0.,-1.));
#1432=DIRECTION('',(-1.,0.,0.));
#1433=DIRECTION('',(0.,0.,1.));
#1434=DIRECTION('',(0.,1.,0.));
#1435=DIRECTION('',(0.,0.,1.));
#1436=DIRECTION('',(0.,0.,1.));
#1437=DIRECTION('',(1.,0.,0.));
#1438=DIRECTION('',(0.,0.,1.));
#1439=DIRECTION('',(0.,0.,1.));
#1440=DIRECTION('',(1.,0.,0.));
#1441=DIRECTION('',(0.,0.,1.));
#1442=DIRECTION('',(0.,1.,0.));
#1443=DIRECTION('',(0.,0.,1.));
#1444=DIRECTION('',(0.,0.,1.));
#1445=DIRECTION('',(1.,0.,0.));
#1446=DIRECTION('',(0.,0.,1.));
#1447=DIRECTION('',(0.,0.,1.));
#1448=DIRECTION('',(1.,0.,0.));
#1449=DIRECTION('',(0.,0.,-1.));
#1450=DIRECTION('',(1.,0.,0.));
#1451=DIRECTION('',(0.,0.,-1.));
#1452=DIRECTION('',(0.,0.,1.));
#1453=DIRECTION('',(0.,1.,0.));
#1454=DIRECTION('',(0.,0.,-1.));
#1455=DIRECTION('',(0.,0.,-1.));
#1456=DIRECTION('',(1.,0.,0.));
#1457=DIRECTION('',(0.,0.,-1.));
#1458=DIRECTION('',(-0.249999999999981,0.968245836551859,0.));
#1459=DIRECTION('',(0.,0.,1.));
#1460=DIRECTION('',(0.,1.,0.));
#1461=DIRECTION('',(0.,0.,1.));
#1462=DIRECTION('',(0.,0.,-1.));
#1463=DIRECTION('',(-0.249999999999981,0.968245836551859,0.));
#1464=DIRECTION('',(0.,0.,1.));
#1465=DIRECTION('',(1.,0.,0.));
#1466=DIRECTION('',(0.,-1.,0.));
#1467=DIRECTION('',(0.,0.,-1.));
#1468=DIRECTION('',(0.,-1.,0.));
#1469=DIRECTION('',(0.,0.,-1.));
#1470=DIRECTION('',(0.,1.,0.));
#1471=DIRECTION('',(0.,0.707106781186547,0.707106781186548));
#1472=DIRECTION('',(-1.,0.,0.));
#1473=DIRECTION('',(0.,0.707106781186547,0.707106781186548));
#1474=DIRECTION('',(0.,-0.707106781186548,0.707106781186547));
#1475=DIRECTION('',(1.,0.,0.));
#1476=DIRECTION('',(0.,0.707106781186547,0.707106781186548));
#1477=DIRECTION('',(0.,0.707106781186548,-0.707106781186547));
#1478=DIRECTION('',(-1.,0.,0.));
#1479=DIRECTION('',(0.,0.,-1.));
#1480=DIRECTION('',(0.,1.,0.));
#1481=DIRECTION('',(0.,0.,-1.));
#1482=DIRECTION('',(0.,-1.,0.));
#1483=DIRECTION('',(0.,0.,-1.));
#1484=DIRECTION('',(0.,0.,1.));
#1485=DIRECTION('',(0.,1.,0.));
#1486=DIRECTION('',(0.,0.,-1.));
#1487=DIRECTION('',(0.,0.,-1.));
#1488=DIRECTION('',(0.,1.,0.));
#1489=DIRECTION('',(0.,0.,-1.));
#1490=DIRECTION('',(0.,0.,-1.));
#1491=DIRECTION('',(-0.968245836551856,-0.249999999999993,0.));
#1492=DIRECTION('',(0.,0.,-1.));
#1493=DIRECTION('',(0.,0.,-1.));
#1494=DIRECTION('',(0.,-1.,0.));
#1495=DIRECTION('',(0.,0.,1.));
#1496=DIRECTION('',(0.,0.,-1.));
#1497=DIRECTION('',(-0.968245836551856,-0.249999999999993,0.));
#1498=DIRECTION('',(0.,0.,1.));
#1499=DIRECTION('',(0.,0.,1.));
#1500=DIRECTION('',(0.,1.,0.));
#1501=DIRECTION('',(0.,0.,-1.));
#1502=DIRECTION('',(-1.,0.,0.));
#1503=DIRECTION('',(0.,0.,-1.));
#1504=DIRECTION('',(0.,0.,1.));
#1505=DIRECTION('',(0.,1.,0.));
#1506=DIRECTION('',(0.,0.,-1.));
#1507=DIRECTION('',(0.,0.,-1.));
#1508=DIRECTION('',(-1.,0.,0.));
#1509=DIRECTION('',(0.,0.,-1.));
#1510=DIRECTION('',(0.250000000000013,-0.968245836551851,0.));
#1511=DIRECTION('',(0.,0.,1.));
#1512=DIRECTION('',(0.,1.,0.));
#1513=DIRECTION('',(0.,0.,1.));
#1514=DIRECTION('',(0.,0.,-1.));
#1515=DIRECTION('',(0.250000000000012,-0.968245836551851,0.));
#1516=DIRECTION('',(0.,0.,1.));
#1517=DIRECTION('',(0.,0.,-1.));
#1518=DIRECTION('',(1.,0.,0.));
#1519=DIRECTION('',(0.,0.,-1.));
#1520=DIRECTION('',(0.,0.,-1.));
#1521=DIRECTION('',(0.,-1.,0.));
#1522=DIRECTION('',(0.,0.,-1.));
#1523=DIRECTION('',(0.,0.,-1.));
#1524=DIRECTION('',(0.,-1.,0.));
#1525=DIRECTION('',(0.,-1.,0.));
#1526=DIRECTION('',(1.,0.,0.));
#1527=DIRECTION('',(-1.,0.,0.));
#1528=DIRECTION('',(0.,0.,-1.));
#1529=DIRECTION('',(1.,0.,0.));
#1530=DIRECTION('',(0.,0.,1.));
#1531=DIRECTION('',(0.,1.,0.));
#1532=DIRECTION('',(0.,0.,1.));
#1533=DIRECTION('',(0.,1.,0.));
#1534=DIRECTION('',(0.,0.,1.));
#1535=DIRECTION('',(0.,1.,0.));
#1536=DIRECTION('',(0.,1.,0.));
#1537=DIRECTION('',(1.,0.,0.));
#1538=DIRECTION('',(1.,0.,0.));
#1539=DIRECTION('',(0.,0.,-1.));
#1540=DIRECTION('',(-1.,0.,0.));
#1541=DIRECTION('',(1.,0.,0.));
#1542=DIRECTION('',(0.,-1.,0.));
#1543=DIRECTION('',(0.,-1.,0.));
#1544=DIRECTION('',(0.,1.,0.));
#1545=DIRECTION('',(0.,0.,1.));
#1546=DIRECTION('',(0.,0.,1.));
#1547=DIRECTION('',(0.,1.,0.));
#1548=DIRECTION('',(0.,0.,-1.));
#1549=DIRECTION('',(0.,-1.,0.));
#1550=DIRECTION('',(0.,0.,1.));
#1551=DIRECTION('',(0.,1.,0.));
#1552=DIRECTION('',(-1.,0.,0.));
#1553=DIRECTION('',(0.,1.,0.));
#1554=DIRECTION('',(0.,-1.,0.));
#1555=DIRECTION('',(0.,0.,1.));
#1556=DIRECTION('',(0.,-1.,0.));
#1557=DIRECTION('',(-1.,0.,0.));
#1558=DIRECTION('',(0.,1.,0.));
#1559=DIRECTION('',(0.,-1.,0.));
#1560=DIRECTION('',(0.,0.,-1.));
#1561=DIRECTION('',(0.,-1.,0.));
#1562=DIRECTION('',(0.,0.,-1.));
#1563=DIRECTION('',(0.,1.,0.));
#1564=DIRECTION('',(0.,0.,-1.));
#1565=DIRECTION('',(0.,-1.,0.));
#1566=DIRECTION('',(0.,0.,-1.));
#1567=DIRECTION('',(0.,1.,0.));
#1568=DIRECTION('',(0.,0.,1.));
#1569=DIRECTION('',(-1.,0.,0.));
#1570=DIRECTION('',(-1.,0.,0.));
#1571=DIRECTION('',(0.,1.,0.));
#1572=DIRECTION('',(0.,1.,0.));
#1573=DIRECTION('',(0.,-1.,0.));
#1574=DIRECTION('',(0.,1.,0.));
#1575=DIRECTION('',(0.,-1.,0.));
#1576=DIRECTION('',(0.,0.,1.));
#1577=DIRECTION('',(0.,1.,0.));
#1578=DIRECTION('',(1.,0.,0.));
#1579=DIRECTION('',(1.,0.,0.));
#1580=DIRECTION('',(1.,0.,0.));
#1581=DIRECTION('',(0.,-1.,0.));
#1582=DIRECTION('',(0.,1.,0.));
#1583=DIRECTION('',(0.,-1.,0.));
#1584=DIRECTION('',(0.,-1.,0.));
#1585=DIRECTION('',(0.,0.,1.));
#1586=DIRECTION('',(0.,-1.,0.));
#1587=DIRECTION('',(0.,0.,1.));
#1588=DIRECTION('',(0.,0.,1.));
#1589=DIRECTION('',(0.,1.,0.));
#1590=DIRECTION('',(-0.707106781186548,0.,-0.707106781186547));
#1591=DIRECTION('',(0.,0.,1.));
#1592=DIRECTION('',(0.,1.,0.));
#1593=DIRECTION('',(0.,-0.707106781186548,-0.707106781186548));
#1594=DIRECTION('',(0.,0.707106781186548,-0.707106781186548));
#1595=DIRECTION('',(-1.,0.,0.));
#1596=DIRECTION('',(-1.,0.,0.));
#1597=DIRECTION('',(0.,-0.707106781186546,-0.707106781186549));
#1598=DIRECTION('',(-0.707106781186548,0.,-0.707106781186548));
#1599=DIRECTION('',(0.,-1.,0.));
#1600=DIRECTION('',(0.707106781186548,6.54205191118239E-16,-0.707106781186548));
#1601=DIRECTION('',(0.,-1.,0.));
#1602=DIRECTION('',(0.707106781186548,0.,-0.707106781186548));
#1603=DIRECTION('',(0.,0.,-1.));
#1604=DIRECTION('',(1.,0.,0.));
#1605=DIRECTION('',(0.,1.,0.));
#1606=DIRECTION('',(0.,0.,1.));
#1607=DIRECTION('',(1.,0.,0.));
#1608=DIRECTION('',(0.,1.,0.));
#1609=DIRECTION('',(0.,0.,1.));
#1610=DIRECTION('',(1.,0.,0.));
#1611=DIRECTION('',(0.,0.,1.));
#1612=DIRECTION('',(1.,0.,0.));
#1613=DIRECTION('',(0.,0.707106781186549,-0.707106781186546));
#1614=DIRECTION('',(-0.707106781186548,0.,-0.707106781186548));
#1615=DIRECTION('',(0.707106781186548,0.,-0.707106781186548));
#1616=DIRECTION('',(0.,1.,0.));
#1617=DIRECTION('',(-0.707106781186548,0.,-0.707106781186548));
#1618=DIRECTION('',(0.,0.,1.));
#1619=DIRECTION('',(-0.249999999999981,0.968245836551859,0.));
#1620=DIRECTION('',(0.,0.707106781186549,0.707106781186546));
#1621=DIRECTION('',(0.,0.,1.));
#1622=DIRECTION('',(-1.,0.,0.));
#1623=DIRECTION('',(1.,0.,0.));
#1624=DIRECTION('',(1.,0.,0.));
#1625=DIRECTION('',(0.,0.,1.));
#1626=DIRECTION('',(1.,0.,0.));
#1627=DIRECTION('',(0.,0.,1.));
#1628=DIRECTION('',(1.,0.,0.));
#1629=DIRECTION('',(-1.,-5.28677630773884E-17,0.));
#1630=DIRECTION('',(-1.,0.,0.));
#1631=DIRECTION('',(0.,1.,0.));
#1632=DIRECTION('',(-1.,0.,0.));
#1633=DIRECTION('',(0.,0.,1.));
#1634=DIRECTION('',(0.,1.,0.));
#1635=DIRECTION('',(-1.,0.,0.));
#1636=DIRECTION('',(1.,0.,0.));
#1637=DIRECTION('',(0.,0.,1.));
#1638=DIRECTION('',(0.,1.,0.));
#1639=DIRECTION('',(1.,0.,0.));
#1640=DIRECTION('',(-9.12568340172293E-17,-1.,0.));
#1641=DIRECTION('',(0.,0.,-1.));
#1642=DIRECTION('',(-1.,0.,0.));
#1643=DIRECTION('',(0.159232877984113,-0.987241049880371,0.));
#1644=DIRECTION('',(0.,0.,-1.));
#1645=DIRECTION('',(-1.,0.,0.));
#1646=DIRECTION('',(0.,0.,-1.));
#1647=DIRECTION('',(-1.,0.,0.));
#1648=DIRECTION('',(0.,0.,-1.));
#1649=DIRECTION('',(0.,-1.,0.));
#1650=DIRECTION('',(0.,0.,-1.));
#1651=DIRECTION('',(-1.,0.,0.));
#1652=DIRECTION('',(0.,0.,-1.));
#1653=DIRECTION('',(-1.,0.,0.));
#1654=DIRECTION('',(-0.159356837412268,-0.987221048382762,0.));
#1655=DIRECTION('',(0.,0.,-1.));
#1656=DIRECTION('',(-1.,0.,0.));
#1657=DIRECTION('',(0.,0.,1.));
#1658=DIRECTION('',(0.250000000000012,-0.968245836551851,0.));
#1659=DIRECTION('',(0.,-0.707106781186548,0.707106781186547));
#1660=DIRECTION('',(0.,0.,1.));
#1661=DIRECTION('',(1.,0.,0.));
#1662=DIRECTION('',(0.,0.,-1.));
#1663=DIRECTION('',(1.,0.,0.));
#1664=DIRECTION('',(-9.12568340172293E-17,-1.,0.));
#1665=DIRECTION('',(0.,0.,1.));
#1666=DIRECTION('',(1.,0.,0.));
#1667=DIRECTION('',(0.,0.,1.));
#1668=DIRECTION('',(-1.,0.,0.));
#1669=DIRECTION('',(2.24298922669111E-15,-0.707106781186548,-0.707106781186547));
#1670=DIRECTION('',(0.,0.,1.));
#1671=DIRECTION('',(-0.968245836551856,-0.249999999999993,0.));
#1672=DIRECTION('',(-0.707106781186548,0.,0.707106781186547));
#1673=DIRECTION('',(0.,0.,1.));
#1674=DIRECTION('',(-0.968245836551856,-0.249999999999993,0.));
#1675=DIRECTION('',(0.,0.,-1.));
#1676=DIRECTION('',(1.,0.,0.));
#1677=DIRECTION('',(-1.,-5.28677630773884E-17,0.));
#1678=DIRECTION('',(-5.28677630773884E-17,1.,0.));
#1679=DIRECTION('',(1.,5.28677630773884E-17,0.));
#1680=DIRECTION('',(-1.,9.12568340172293E-17,0.));
#1681=DIRECTION('',(9.12568340172293E-17,1.,0.));
#1682=DIRECTION('',(1.,0.,0.));
#1683=DIRECTION('',(0.,-1.,0.));
#1684=DIRECTION('',(0.,1.,0.));
#1685=DIRECTION('',(-1.,0.,0.));
#1686=DIRECTION('',(1.,0.,0.));
#1687=DIRECTION('',(0.,0.,1.));
#1688=DIRECTION('',(0.,0.,1.));
#1689=DIRECTION('',(0.,1.,0.));
#1690=DIRECTION('',(0.,0.,1.));
#1691=DIRECTION('',(0.,1.,0.));
#1692=DIRECTION('',(0.,0.,1.));
#1693=DIRECTION('',(0.,-1.,0.));
#1694=DIRECTION('',(1.,0.,0.));
#1695=DIRECTION('',(1.,0.,0.));
#1696=DIRECTION('',(0.,0.,1.));
#1697=DIRECTION('',(0.,1.,0.));
#1698=DIRECTION('',(0.,0.,1.));
#1699=DIRECTION('',(0.,1.,0.));
#1700=DIRECTION('',(0.,0.,1.));
#1701=DIRECTION('',(0.,0.,1.));
#1702=DIRECTION('',(0.,-1.,0.));
#1703=DIRECTION('',(1.,0.,0.));
#1704=DIRECTION('',(1.,0.,0.));
#1705=DIRECTION('',(0.,0.,-1.));
#1706=DIRECTION('',(1.,0.,0.));
#1707=DIRECTION('',(0.143892904792488,0.989593265918064,0.));
#1708=DIRECTION('',(0.,0.,-1.));
#1709=DIRECTION('',(-1.,0.,0.));
#1710=DIRECTION('',(0.,0.,-1.));
#1711=DIRECTION('',(-1.,0.,0.));
#1712=DIRECTION('',(0.,0.,-1.));
#1713=DIRECTION('',(-1.,0.,0.));
#1714=DIRECTION('',(-0.143768647623379,0.989611325703452,0.));
#1715=DIRECTION('',(0.,0.,-1.));
#1716=DIRECTION('',(-1.,0.,0.));
#1717=DIRECTION('',(0.,0.,-1.));
#1718=DIRECTION('',(-1.,0.,0.));
#1719=DIRECTION('',(1.,0.,0.));
#1720=DIRECTION('',(-1.,0.,0.));
#1721=DIRECTION('',(1.,0.,0.));
#1722=DIRECTION('',(1.,0.,0.));
#1723=DIRECTION('',(0.,0.,1.));
#1724=DIRECTION('',(1.,0.,0.));
#1725=DIRECTION('',(0.,0.,1.));
#1726=DIRECTION('',(1.,0.,0.));
#1727=DIRECTION('',(0.,0.,-1.));
#1728=DIRECTION('',(-1.,0.,0.));
#1729=DIRECTION('',(0.,0.,-1.));
#1730=DIRECTION('',(0.,0.,1.));
#1731=DIRECTION('',(0.,0.,-1.));
#1732=DIRECTION('',(-1.,0.,0.));
#1733=DIRECTION('',(0.,0.,-1.));
#1734=DIRECTION('',(0.,0.,1.));
#1735=DIRECTION('',(-0.987221048382762,0.159356837412268,0.));
#1736=DIRECTION('',(-0.159356837412268,-0.987221048382762,0.));
#1737=DIRECTION('',(0.,0.,1.));
#1738=DIRECTION('',(0.,0.,1.));
#1739=DIRECTION('',(1.,0.,0.));
#1740=DIRECTION('',(0.,0.,1.));
#1741=DIRECTION('',(0.,0.,1.));
#1742=DIRECTION('',(1.,0.,0.));
#1743=DIRECTION('',(0.,0.,1.));
#1744=DIRECTION('',(0.,0.,1.));
#1745=DIRECTION('',(1.,0.,0.));
#1746=DIRECTION('',(0.,0.,1.));
#1747=DIRECTION('',(0.,0.,1.));
#1748=DIRECTION('',(1.,0.,0.));
#1749=DIRECTION('',(0.,0.,1.));
#1750=DIRECTION('',(0.,0.,1.));
#1751=DIRECTION('',(1.,0.,0.));
#1752=DIRECTION('',(0.,0.,1.));
#1753=DIRECTION('',(-0.987241049880371,-0.159232877984113,0.));
#1754=DIRECTION('',(0.159232877984113,-0.987241049880371,0.));
#1755=DIRECTION('',(0.,0.,1.));
#1756=DIRECTION('',(0.,1.,0.));
#1757=DIRECTION('',(0.,0.,1.));
#1758=DIRECTION('',(0.,1.,0.));
#1759=DIRECTION('',(0.,-1.,0.));
#1760=DIRECTION('',(0.,0.,-1.));
#1761=DIRECTION('',(0.,1.,0.));
#1762=DIRECTION('',(0.,0.,1.));
#1763=DIRECTION('',(0.,1.,0.));
#1764=DIRECTION('',(0.,0.,1.));
#1765=DIRECTION('',(0.,1.,0.));
#1766=DIRECTION('',(0.,0.,1.));
#1767=DIRECTION('',(0.989611325703452,0.143768647623379,0.));
#1768=DIRECTION('',(0.,0.,-1.));
#1769=DIRECTION('',(0.,0.,1.));
#1770=DIRECTION('',(0.989593265918064,-0.143892904792488,0.));
#1771=DIRECTION('',(0.,0.,-1.));
#1772=DIRECTION('',(0.,0.,-1.));
#1773=DIRECTION('',(0.,0.,-1.));
#1774=DIRECTION('',(-1.,0.,0.));
#1775=DIRECTION('',(0.,0.,-1.));
#1776=DIRECTION('',(0.,0.,-1.));
#1777=DIRECTION('',(0.,0.,-1.));
#1778=DIRECTION('',(-1.,0.,0.));
#1779=DIRECTION('',(0.,0.,-1.));
#1780=DIRECTION('',(-1.,0.,0.));
#1781=CARTESIAN_POINT('',(0.,0.,0.));
#1782=CARTESIAN_POINT('',(-0.0172839025000542,-0.050378564264953,0.0148333333333333));
#1783=CARTESIAN_POINT('',(-0.0234462198843419,-0.0832988113305837,0.0148333333333333));
#1784=CARTESIAN_POINT('',(-0.0231428151607351,-0.0853872552000685,0.0148333333333333));
#1785=CARTESIAN_POINT('',(-0.0234462198843419,-0.0832988113305837,0.0148333333333333));
#1786=CARTESIAN_POINT('',(-0.0201739811836248,-0.0849559492571984,0.0148333333333333));
#1787=CARTESIAN_POINT('',(-0.0199619883496229,-0.087948449723085,0.0148333333333333));
#1788=CARTESIAN_POINT('',(-0.0172889037121516,-0.12568183378134,0.0148333333333333));
#1789=CARTESIAN_POINT('',(-0.014611081188933,-0.0879487856603493,0.0148333333333333));
#1790=CARTESIAN_POINT('',(-0.014398712610066,-0.0849563118364521,0.0148333333333333));
#1791=CARTESIAN_POINT('',(-0.0114299328123118,-0.0853879905508295,0.0148333333333333));
#1792=CARTESIAN_POINT('',(-0.0111262658603774,-0.0832995847941346,0.0148333333333333));
#1793=CARTESIAN_POINT('',(-0.0111262658603774,-0.0832995847941346,0.0148333333333333));
#1794=CARTESIAN_POINT('',(-0.0107425514475974,-0.0806606694183531,0.0148333333333333));
#1795=CARTESIAN_POINT('',(-0.00810996198524347,-0.0810856209847859,0.0148333333333333));
#1796=CARTESIAN_POINT('',(-0.00929164398693163,-0.0884061813291381,0.0148333333333333));
#1797=CARTESIAN_POINT('',(-0.0104733259886198,-0.0957267416734902,0.0148333333333333));
#1798=CARTESIAN_POINT('',(-0.0131059154509738,-0.0953017901070575,0.0148333333333333));
#1799=CARTESIAN_POINT('',(-0.0127421773413062,-0.092660047178859,0.0148333333333333));
#1800=CARTESIAN_POINT('',(-0.0172889037121513,-0.125681833781337,0.0148333333333333));
#1801=CARTESIAN_POINT('',(-0.0156326065368999,-0.0923896756840148,0.0148333333333333));
#1802=CARTESIAN_POINT('',(-0.0172839025000542,-0.0852973634964227,0.0148333333333333));
#1803=CARTESIAN_POINT('',(-0.0189369550361676,-0.0923892664735542,0.0148333333333333));
#1804=CARTESIAN_POINT('',(-0.0172889037121527,-0.125681833781327,0.0148333333333333));
#1805=CARTESIAN_POINT('',(-0.0218314837413764,-0.0926594765397799,0.0148333333333333));
#1806=CARTESIAN_POINT('',(-0.0214680773390383,-0.0953012651191047,0.0148333333333333));
#1807=CARTESIAN_POINT('',(-0.0241007201387194,-0.0957258861270623,0.0148333333333333));
#1808=CARTESIAN_POINT('',(-0.0252814829415356,-0.0884051774651975,0.0148333333333333));
#1809=CARTESIAN_POINT('',(-0.0264622457443518,-0.0810844688033326,0.0148333333333333));
#1810=CARTESIAN_POINT('',(-0.0238296029446709,-0.080659847795375,0.0148333333333333));
#1811=CARTESIAN_POINT('',(-0.0407839025000542,0.00573817578675118,0.0618313333333333));
#1812=CARTESIAN_POINT('',(-0.0422805654547638,0.00833817578675118,0.0618313333333333));
#1813=CARTESIAN_POINT('',(-0.0422805654547638,0.00833817578675118,0.0701430260047281));
#1814=CARTESIAN_POINT('',(-0.0422805654547638,0.00833817578675118,0.0618333333333333));
#1815=CARTESIAN_POINT('',(-0.0407839025000542,0.00573817578675118,0.0701430260047281));
#1816=CARTESIAN_POINT('',(-0.0392872395453447,0.00833817578675118,0.0701430260047281));
#1817=CARTESIAN_POINT('',(-0.0392872395453447,0.00833817578675118,0.0618313333333333));
#1818=CARTESIAN_POINT('',(-0.0392872395453447,0.00833817578675118,0.0618333333333333));
#1819=CARTESIAN_POINT('',(-0.0407839025000542,0.00573817578675118,0.0618333333333333));
#1820=CARTESIAN_POINT('',(0.00621609749994581,0.00573817578675117,0.0618313333333333));
#1821=CARTESIAN_POINT('',(0.00471943454523624,0.00833817578675118,0.0618313333333333));
#1822=CARTESIAN_POINT('',(0.00471943454523624,0.00833817578675118,0.0701430260047281));
#1823=CARTESIAN_POINT('',(0.00471943454523624,0.00833817578675118,0.0618333333333333));
#1824=CARTESIAN_POINT('',(0.00621609749994581,0.00573817578675117,0.0701430260047281));
#1825=CARTESIAN_POINT('',(0.00771276045465538,0.00833817578675118,0.0701430260047281));
#1826=CARTESIAN_POINT('',(0.00771276045465538,0.00833817578675118,0.0618313333333333));
#1827=CARTESIAN_POINT('',(0.00771276045465538,0.00833817578675118,0.0618333333333333));
#1828=CARTESIAN_POINT('',(0.00621609749994581,0.00573817578675117,0.0618333333333333));
#1829=CARTESIAN_POINT('',(0.0106664521098749,-0.0277440937167949,0.0618333333333333));
#1830=CARTESIAN_POINT('',(0.0133283906441539,-0.0277440937167949,0.0618333333333333));
#1831=CARTESIAN_POINT('',(0.0133283906441539,-0.0277440937167949,0.0618333333333333));
#1832=CARTESIAN_POINT('',(0.0133283906441539,-0.0277440937167949,0.0594375886524823));
#1833=CARTESIAN_POINT('',(0.0106664521098749,-0.0277440937167949,0.0618333333333333));
#1834=CARTESIAN_POINT('',(0.0106664521098749,-0.0304060322510738,0.0618333333333333));
#1835=CARTESIAN_POINT('',(0.0106664521098749,-0.0304060322510738,0.0618333333333333));
#1836=CARTESIAN_POINT('',(0.0106664521098749,-0.0304060322510738,0.0594375886524823));
#1837=CARTESIAN_POINT('',(0.0106664521098749,-0.0277440937167949,0.0594375886524823));
#1838=CARTESIAN_POINT('',(0.0106664521098749,-0.00777955470970268,0.0618333333333333));
#1839=CARTESIAN_POINT('',(0.0106664521098749,-0.00777955470970268,0.0618333333333333));
#1840=CARTESIAN_POINT('',(0.0106664521098749,-0.00511761617542372,0.0618333333333333));
#1841=CARTESIAN_POINT('',(0.0133283906441539,-0.00777955470970268,0.0618333333333333));
#1842=CARTESIAN_POINT('',(0.0133283906441539,-0.00777955470970268,0.0618333333333333));
#1843=CARTESIAN_POINT('',(0.0133283906441539,-0.00777955470970268,0.0594375886524823));
#1844=CARTESIAN_POINT('',(0.0106664521098749,-0.00777955470970268,0.0594375886524823));
#1845=CARTESIAN_POINT('',(0.0106664521098749,-0.00511761617542372,0.0594375886524823));
#1846=CARTESIAN_POINT('',(0.0106664521098749,-0.00511761617542372,0.0618333333333333));
#1847=CARTESIAN_POINT('',(-0.01000189243935,-0.0457121788231779,0.0711501182033097));
#1848=CARTESIAN_POINT('',(-0.01000189243935,-0.0832224140083958,0.0701450260047281));
#1849=CARTESIAN_POINT('',(-0.01000189243935,-0.0832224140083958,0.0701430260047281));
#1850=CARTESIAN_POINT('',(-0.01000189243935,-0.0832224140083958,0.0618333333333333));
#1851=CARTESIAN_POINT('',(-0.01000189243935,-0.0177618242132488,0.0701430260047281));
#1852=CARTESIAN_POINT('',(-0.01000189243935,-0.0457121788231779,0.0701430260047281));
#1853=CARTESIAN_POINT('',(-0.01000189243935,-0.0457121788231779,0.0711501182033097));
#1854=CARTESIAN_POINT('',(-0.01000189243935,-0.0457121788231779,0.0618333333333333));
#1855=CARTESIAN_POINT('',(-0.01000189243935,-0.0655047711598003,0.0618333333333333));
#1856=CARTESIAN_POINT('',(-0.0063888723242056,0.0111867573470349,0.0714828605200946));
#1857=CARTESIAN_POINT('',(-0.0272661720036003,0.0101885303966803,0.0724810874704492));
#1858=CARTESIAN_POINT('',(-0.0272661720036003,0.0128504689309593,0.0698191489361702));
#1859=CARTESIAN_POINT('',(-0.0285387227266717,0.0125265918624013,0.0701430260047281));
#1860=CARTESIAN_POINT('',(-0.0172839025000542,0.0125265918624013,0.0701430260047281));
#1861=CARTESIAN_POINT('',(-0.00602908227343662,0.0125265918624013,0.0701430260047281));
#1862=CARTESIAN_POINT('',(-0.00730163299650806,0.0101885303966803,0.0724810874704492));
#1863=CARTESIAN_POINT('',(-0.00730163299650806,0.0128504689309593,0.0698191489361702));
#1864=CARTESIAN_POINT('',(-0.0272661720036003,0.0128504689309593,0.0698191489361702));
#1865=CARTESIAN_POINT('',(-0.00730163299650806,0.0101885303966803,0.0618333333333333));
#1866=CARTESIAN_POINT('',(-0.00730163299650806,0.0101885303966803,0.0701430260047281));
#1867=CARTESIAN_POINT('',(-0.00464390407550995,0.0103381757867512,0.0701430260047281));
#1868=CARTESIAN_POINT('',(-0.00464390407550995,0.0103381757867512,0.0618333333333333));
#1869=CARTESIAN_POINT('',(-0.00464390407550995,0.0103381757867512,0.0618333333333333));
#1870=CARTESIAN_POINT('',(-0.00730163299650806,0.0101885303966803,0.0618333333333333));
#1871=CARTESIAN_POINT('',(-0.00463969446222909,0.0101885303966803,0.0618333333333333));
#1872=CARTESIAN_POINT('',(-0.0046396944622291,0.0101885303966803,0.0618333333333333));
#1873=CARTESIAN_POINT('',(-0.0046396944622291,0.0101885303966803,0.0594375886524823));
#1874=CARTESIAN_POINT('',(-0.00730163299650806,0.0101885303966803,0.0594375886524823));
#1875=CARTESIAN_POINT('',(-0.00730163299650806,0.0128504689309593,0.0594375886524823));
#1876=CARTESIAN_POINT('',(-0.00730163299650806,0.0128504689309593,0.0618333333333333));
#1877=CARTESIAN_POINT('',(-0.0272661720036003,0.0101885303966803,0.0618333333333333));
#1878=CARTESIAN_POINT('',(-0.0299239009245984,0.0103381757867512,0.0618333333333333));
#1879=CARTESIAN_POINT('',(-0.0299239009245984,0.0103381757867512,0.0618333333333333));
#1880=CARTESIAN_POINT('',(-0.0299239009245984,0.0103381757867512,0.0701430260047281));
#1881=CARTESIAN_POINT('',(-0.0272661720036003,0.0101885303966803,0.0701430260047281));
#1882=CARTESIAN_POINT('',(-0.0272661720036003,0.0128504689309593,0.0618333333333333));
#1883=CARTESIAN_POINT('',(-0.0272661720036003,0.0128504689309593,0.0594375886524823));
#1884=CARTESIAN_POINT('',(-0.0272661720036003,0.0101885303966803,0.0594375886524823));
#1885=CARTESIAN_POINT('',(-0.0299281105378792,0.0101885303966803,0.0594375886524823));
#1886=CARTESIAN_POINT('',(-0.0299281105378792,0.0101885303966803,0.0618333333333333));
#1887=CARTESIAN_POINT('',(-0.0299281105378792,0.0101885303966803,0.0618333333333333));
#1888=CARTESIAN_POINT('',(-0.0272661720036003,0.0101885303966803,0.0618333333333333));
#1889=CARTESIAN_POINT('',(-0.0452342571099832,-0.00777955470970268,0.0618333333333333));
#1890=CARTESIAN_POINT('',(-0.0478961956442622,-0.00777955470970268,0.0618333333333333));
#1891=CARTESIAN_POINT('',(-0.0478961956442622,-0.00777955470970268,0.0618333333333333));
#1892=CARTESIAN_POINT('',(-0.0478961956442622,-0.00777955470970268,0.0594375886524823));
#1893=CARTESIAN_POINT('',(-0.0452342571099832,-0.00777955470970268,0.0618333333333333));
#1894=CARTESIAN_POINT('',(-0.0452342571099832,-0.00511761617542372,0.0618333333333333));
#1895=CARTESIAN_POINT('',(-0.0452342571099832,-0.00511761617542372,0.0618333333333333));
#1896=CARTESIAN_POINT('',(-0.0452342571099832,-0.00511761617542372,0.0594375886524823));
#1897=CARTESIAN_POINT('',(-0.0452342571099832,-0.00777955470970268,0.0594375886524823));
#1898=CARTESIAN_POINT('',(-0.0452342571099832,-0.0277440937167949,0.0618333333333333));
#1899=CARTESIAN_POINT('',(-0.0452342571099832,-0.0277440937167949,0.0618333333333333));
#1900=CARTESIAN_POINT('',(-0.0452342571099832,-0.0304060322510738,0.0618333333333333));
#1901=CARTESIAN_POINT('',(-0.0478961956442622,-0.0277440937167949,0.0618333333333333));
#1902=CARTESIAN_POINT('',(-0.0478961956442622,-0.0277440937167949,0.0618333333333333));
#1903=CARTESIAN_POINT('',(-0.0478961956442622,-0.0277440937167949,0.0594375886524823));
#1904=CARTESIAN_POINT('',(-0.0452342571099832,-0.0277440937167949,0.0594375886524823));
#1905=CARTESIAN_POINT('',(-0.0452342571099832,-0.0304060322510738,0.0594375886524823));
#1906=CARTESIAN_POINT('',(-0.0452342571099832,-0.0304060322510738,0.0618333333333333));
#1907=CARTESIAN_POINT('',(-0.0172839025000542,-0.0852973634964048,0.0711501182033097));
#1908=CARTESIAN_POINT('',(0.00330780023204474,-0.0852973634964048,0.0711501182033097));
#1909=CARTESIAN_POINT('',(0.00330780023204478,-0.0852973634964048,0.0701430260047281));
#1910=CARTESIAN_POINT('',(0.00330780023204482,-0.0852973634964048,0.0618333333333333));
#1911=CARTESIAN_POINT('',(-0.0172839025000542,-0.0852973634964048,0.0701430260047281));
#1912=CARTESIAN_POINT('',(-0.0378756052321532,-0.0852973634964048,0.0701430260047281));
#1913=CARTESIAN_POINT('',(-0.0378756052321532,-0.0852973634964048,0.0711501182033097));
#1914=CARTESIAN_POINT('',(-0.0378756052321532,-0.0852973634964048,0.0618333333333333));
#1915=CARTESIAN_POINT('',(-0.0172839025000542,-0.0852973634964048,0.0618333333333333));
#1916=CARTESIAN_POINT('',(0.00478148570314801,0.0103381757867512,0.0618313333333333));
#1917=CARTESIAN_POINT('',(0.00478148570314801,0.0103381757867512,0.0618333333333333));
#1918=CARTESIAN_POINT('',(-0.0478961956442622,0.0103381757867512,0.0618333333333333));
#1919=CARTESIAN_POINT('',(-0.0478961956442622,0.0103381757867512,0.0618333333333333));
#1920=CARTESIAN_POINT('',(-0.0478961956442622,0.0103381757867512,0.0701430260047281));
#1921=CARTESIAN_POINT('',(-0.0172839025000542,0.0103381757867512,0.0701430260047281));
#1922=CARTESIAN_POINT('',(-0.0172839025000542,-0.0987888402995063,0.065160756501182));
#1923=CARTESIAN_POINT('',(-0.0172839025000542,-0.0987888402995063,0.0691536643026005));
#1924=CARTESIAN_POINT('',(-0.0172839025000542,-0.0941304478645181,0.0691536643026005));
#1925=CARTESIAN_POINT('',(-0.0172839025000542,-0.0987888402995063,0.0618333333333333));
#1926=CARTESIAN_POINT('',(-0.0172839025000542,-0.0941304478645181,0.0618333333333333));
#1927=CARTESIAN_POINT('',(-0.0245659125607584,-0.0457121788231779,0.0711501182033097));
#1928=CARTESIAN_POINT('',(-0.0172839025000542,-0.0457121788231779,0.0701430260047281));
#1929=CARTESIAN_POINT('',(-0.0245659125607584,-0.0457121788231779,0.0701430260047281));
#1930=CARTESIAN_POINT('',(-0.0245659125607584,-0.0457121788231779,0.0711501182033097));
#1931=CARTESIAN_POINT('',(-0.0245659125607584,-0.0457121788231779,0.0618333333333333));
#1932=CARTESIAN_POINT('',(-0.0281789326759028,-0.0457121788231779,0.0618333333333333));
#1933=CARTESIAN_POINT('',(0.00330780023204474,-0.035393408023353,0.0711501182033097));
#1934=CARTESIAN_POINT('',(0.00330780023204474,-0.0177618242132488,0.0701430260047281));
#1935=CARTESIAN_POINT('',(0.00330780023204474,-0.0458618242132488,0.0701430260047281));
#1936=CARTESIAN_POINT('',(0.00330780023204474,-0.0655047711597913,0.0618333333333333));
#1937=CARTESIAN_POINT('',(0.00330780023204474,-0.0458618242132488,0.0618333333333333));
#1938=CARTESIAN_POINT('',(0.00330780023204474,-0.0458618242132488,0.0618313333333333));
#1939=CARTESIAN_POINT('',(-0.0172839025000542,-0.0177618242132488,0.065160756501182));
#1940=CARTESIAN_POINT('',(-0.0172839025000542,-0.0177618242132488,0.0701430260047281));
#1941=CARTESIAN_POINT('',(-0.0172839025000542,-0.0397228171210502,0.0701430260047281));
#1942=CARTESIAN_POINT('',(-0.0172839025000542,-0.0177618242132488,0.0618333333333333));
#1943=CARTESIAN_POINT('',(-0.0172839025000542,0.00419916869455255,0.0618333333333333));
#1944=CARTESIAN_POINT('',(-0.0378756052321532,-0.0852973634964048,0.0711501182033097));
#1945=CARTESIAN_POINT('',(-0.0378756052321532,-0.0177618242132488,0.0701430260047281));
#1946=CARTESIAN_POINT('',(-0.0378756052321532,-0.0458618242132488,0.0701430260047281));
#1947=CARTESIAN_POINT('',(-0.0378756052321532,-0.0458618242132488,0.0618313333333333));
#1948=CARTESIAN_POINT('',(-0.0378756052321532,-0.0458618242132488,0.0618333333333333));
#1949=CARTESIAN_POINT('',(-0.0378756052321532,-0.0655047711597913,0.0618333333333333));
#1950=CARTESIAN_POINT('',(-0.0245659125607584,-0.0852973634964227,0.0711501182033097));
#1951=CARTESIAN_POINT('',(-0.0245659125607584,-0.0177618242132488,0.0701430260047281));
#1952=CARTESIAN_POINT('',(-0.0245659125607584,-0.083222845895329,0.0701430260047281));
#1953=CARTESIAN_POINT('',(-0.0245659125607584,-0.083222845895329,0.0701450260047281));
#1954=CARTESIAN_POINT('',(-0.0245659125607584,-0.083222845895329,0.0618333333333333));
#1955=CARTESIAN_POINT('',(-0.0245659125607584,-0.0655047711598003,0.0618333333333333));
#1956=CARTESIAN_POINT('',(-0.0172839025000542,-0.0987888402995063,0.0751430260047281));
#1957=CARTESIAN_POINT('',(-0.0172839025000542,-0.0987888402995063,0.0701430260047281));
#1958=CARTESIAN_POINT('',(-0.0172839025000542,-0.100785294200216,0.0701430260047281));
#1959=CARTESIAN_POINT('',(-0.0172839025000542,-0.0987888402995063,0.0691536643026005));
#1960=CARTESIAN_POINT('',(-0.0172839025000542,-0.0967923863987971,0.0691536643026005));
#1961=CARTESIAN_POINT('',(-0.0172839025000542,-0.0987888402995062,0.0691536643026005));
#1962=CARTESIAN_POINT('',(-0.0478961956442622,-0.0277440937167949,0.0618333333333333));
#1963=CARTESIAN_POINT('',(-0.0478961956442622,-0.0177618242132488,0.0701430260047281));
#1964=CARTESIAN_POINT('',(-0.0478961956442622,-0.0438618242132488,0.0701430260047281));
#1965=CARTESIAN_POINT('',(-0.0478961956442622,0.0103401757867512,0.0618333333333333));
#1966=CARTESIAN_POINT('',(-0.0478961956442622,-0.0227529589650218,0.0594375886524823));
#1967=CARTESIAN_POINT('',(-0.0478961956442622,0.00546317578675118,0.0618333333333333));
#1968=CARTESIAN_POINT('',(-0.0478961956442622,-0.0438618242132488,0.0618333333333333));
#1969=CARTESIAN_POINT('',(-0.0478961956442622,-0.0438618242132488,0.0618313333333333));
#1970=CARTESIAN_POINT('',(-0.0272661720036003,0.0128504689309593,0.0618333333333333));
#1971=CARTESIAN_POINT('',(-0.0222750372518272,0.0128504689309593,0.0594375886524823));
#1972=CARTESIAN_POINT('',(0.0133283906441539,-0.00777955470970268,0.0618333333333333));
#1973=CARTESIAN_POINT('',(0.0133283906441539,-0.0409868242132489,0.0618333333333333));
#1974=CARTESIAN_POINT('',(0.0133283906441539,-0.0438618242132489,0.0618333333333333));
#1975=CARTESIAN_POINT('',(0.0133283906441539,-0.0127706894614757,0.0594375886524823));
#1976=CARTESIAN_POINT('',(0.0133283906441539,0.0103401757867512,0.0618333333333333));
#1977=CARTESIAN_POINT('',(0.0133283906441539,0.0103381757867512,0.0618333333333333));
#1978=CARTESIAN_POINT('',(0.0133283906441539,0.0103381757867512,0.0618333333333333));
#1979=CARTESIAN_POINT('',(0.0133283906441539,0.0103381757867512,0.0701430260047281));
#1980=CARTESIAN_POINT('',(0.0133283906441539,-0.0177618242132488,0.0701430260047281));
#1981=CARTESIAN_POINT('',(0.0133283906441539,-0.0438618242132489,0.0701430260047281));
#1982=CARTESIAN_POINT('',(0.0133283906441539,-0.0438618242132489,0.0618313333333333));
#1983=CARTESIAN_POINT('',(-0.00730163299650806,0.0101885303966803,0.0586390070921986));
#1984=CARTESIAN_POINT('',(-0.00543827602251278,0.0101885303966803,0.0586390070921986));
#1985=CARTESIAN_POINT('',(-0.00623685758279647,0.0101885303966803,0.0578404255319149));
#1986=CARTESIAN_POINT('',(-0.00730163299650806,0.0101885303966803,0.0578404255319149));
#1987=CARTESIAN_POINT('',(-0.00730163299650806,0.0112533058103919,0.0578404255319149));
#1988=CARTESIAN_POINT('',(-0.00730163299650806,0.0128504689309593,0.0594375886524823));
#1989=CARTESIAN_POINT('',(-0.0222750372518272,0.0120518873706756,0.0586390070921986));
#1990=CARTESIAN_POINT('',(-0.0222750372518272,0.0112533058103919,0.0578404255319149));
#1991=CARTESIAN_POINT('',(-0.0272661720036003,0.0112533058103919,0.0578404255319149));
#1992=CARTESIAN_POINT('',(-0.0272661720036003,0.0128504689309593,0.0594375886524823));
#1993=CARTESIAN_POINT('',(-0.0470976140839785,-0.0227529589650218,0.0586390070921986));
#1994=CARTESIAN_POINT('',(-0.0478961956442622,-0.00777955470970268,0.0594375886524823));
#1995=CARTESIAN_POINT('',(-0.0462990325236948,-0.00777955470970268,0.0578404255319149));
#1996=CARTESIAN_POINT('',(-0.0462990325236948,-0.0227529589650218,0.0578404255319149));
#1997=CARTESIAN_POINT('',(-0.0462990325236948,-0.0277440937167949,0.0578404255319149));
#1998=CARTESIAN_POINT('',(-0.0478961956442622,-0.0277440937167949,0.0594375886524823));
#1999=CARTESIAN_POINT('',(-0.0172839025000542,0.011080716102267,0.0578404255319149));
#2000=CARTESIAN_POINT('',(0.0106664521098749,0.011080716102267,0.0578404255319149));
#2001=CARTESIAN_POINT('',(0.0106664521098749,-0.0288088691305065,0.0578404255319149));
#2002=CARTESIAN_POINT('',(0.0106664521098749,-0.00671477929599109,0.0578404255319149));
#2003=CARTESIAN_POINT('',(0.0106664521098749,-0.00777955470970268,0.0578404255319149));
#2004=CARTESIAN_POINT('',(0.0117312275235865,-0.00777955470970268,0.0578404255319149));
#2005=CARTESIAN_POINT('',(0.0117312275235865,-0.0127706894614757,0.0578404255319149));
#2006=CARTESIAN_POINT('',(0.0117312275235865,-0.0277440937167949,0.0578404255319149));
#2007=CARTESIAN_POINT('',(0.0106664521098749,-0.0277440937167949,0.0578404255319149));
#2008=CARTESIAN_POINT('',(0.0106664521098749,-0.0277440937167949,0.0586390070921986));
#2009=CARTESIAN_POINT('',(0.0106664521098749,-0.0296074506907902,0.0586390070921986));
#2010=CARTESIAN_POINT('',(0.0133283906441539,-0.0277440937167949,0.0594375886524823));
#2011=CARTESIAN_POINT('',(0.0125298090838702,-0.0127706894614757,0.0586390070921986));
#2012=CARTESIAN_POINT('',(0.0133283906441539,-0.00777955470970268,0.0594375886524823));
#2013=CARTESIAN_POINT('',(0.0106664521098749,-0.00777955470970268,0.0586390070921986));
#2014=CARTESIAN_POINT('',(0.0106664521098749,-0.00591619773570741,0.0586390070921986));
#2015=CARTESIAN_POINT('',(-0.0172839025000542,-0.0177618242132488,0.0618333333333333));
#2016=CARTESIAN_POINT('',(-0.0478981956442622,0.00833817578675118,0.0618333333333333));
#2017=CARTESIAN_POINT('',(-0.0478981956442622,0.00833817578675118,0.0618333333333333));
#2018=CARTESIAN_POINT('',(-0.0407839025000542,-0.0412618242132489,0.0618333333333333));
#2019=CARTESIAN_POINT('',(-0.0377839025000542,-0.0412618242132489,0.0618333333333333));
#2020=CARTESIAN_POINT('',(0.0062160974999458,-0.0412618242132489,0.0618333333333333));
#2021=CARTESIAN_POINT('',(0.0092160974999458,-0.0412618242132489,0.0618333333333333));
#2022=CARTESIAN_POINT('',(0.0106664521098749,0.0101885303966803,0.0618333333333333));
#2023=CARTESIAN_POINT('',(0.00478148570314801,0.0103381757867512,0.0618333333333333));
#2024=CARTESIAN_POINT('',(0.0106664521098749,-0.0457121788231779,0.0618333333333333));
#2025=CARTESIAN_POINT('',(0.0133303906441539,-0.0438618242132489,0.0618333333333333));
#2026=CARTESIAN_POINT('',(0.0108160974999458,-0.0438618242132489,0.0618333333333333));
#2027=CARTESIAN_POINT('',(0.00881609749994581,-0.0438618242132488,0.0618333333333333));
#2028=CARTESIAN_POINT('',(0.0088160974999458,-0.0458618242132488,0.0618333333333333));
#2029=CARTESIAN_POINT('',(0.00606194886599528,-0.0458618242132488,0.0618333333333333));
#2030=CARTESIAN_POINT('',(-0.0406297538661037,-0.0458618242132488,0.0618333333333333));
#2031=CARTESIAN_POINT('',(-0.0433839025000542,-0.0458618242132488,0.0618333333333333));
#2032=CARTESIAN_POINT('',(-0.0433839025000542,-0.0438618242132489,0.0618333333333333));
#2033=CARTESIAN_POINT('',(-0.0453839025000542,-0.0438618242132488,0.0618333333333333));
#2034=CARTESIAN_POINT('',(-0.0478981956442622,-0.0438618242132488,0.0618333333333333));
#2035=CARTESIAN_POINT('',(-0.0452342571099832,0.0101885303966803,0.0618333333333333));
#2036=CARTESIAN_POINT('',(-0.0238296029446709,-0.080659847795375,0.0618333333333333));
#2037=CARTESIAN_POINT('',(-0.0264622457443518,-0.0810844688033326,0.0618333333333333));
#2038=CARTESIAN_POINT('',(-0.0252814829415356,-0.0884051774651975,0.0618333333333333));
#2039=CARTESIAN_POINT('',(-0.0241007201387195,-0.0957258861270623,0.0618333333333333));
#2040=CARTESIAN_POINT('',(-0.0214680773390383,-0.0953012651191047,0.0618333333333333));
#2041=CARTESIAN_POINT('',(-0.0218314837413764,-0.0926594765397799,0.0618333333333333));
#2042=CARTESIAN_POINT('',(-0.0172889037121527,-0.125681833781327,0.0618333333333333));
#2043=CARTESIAN_POINT('',(-0.0189369550361676,-0.0923892664735542,0.0618333333333333));
#2044=CARTESIAN_POINT('',(-0.0172839025000542,-0.0852973634964227,0.0618333333333333));
#2045=CARTESIAN_POINT('',(-0.0156326065368999,-0.0923896756840148,0.0618333333333333));
#2046=CARTESIAN_POINT('',(-0.0172889037121513,-0.125681833781337,0.0618333333333333));
#2047=CARTESIAN_POINT('',(-0.0127421773413062,-0.092660047178859,0.0618333333333333));
#2048=CARTESIAN_POINT('',(-0.0131059154509738,-0.0953017901070575,0.0618333333333333));
#2049=CARTESIAN_POINT('',(-0.0104733259886198,-0.0957267416734902,0.0618333333333333));
#2050=CARTESIAN_POINT('',(-0.00929164398693163,-0.0884061813291381,0.0618333333333333));
#2051=CARTESIAN_POINT('',(-0.00810996198524347,-0.0810856209847859,0.0618333333333333));
#2052=CARTESIAN_POINT('',(-0.0107425514475974,-0.0806606694183531,0.0618333333333333));
#2053=CARTESIAN_POINT('',(-0.0452342571099832,-0.0277440937167949,0.0586390070921986));
#2054=CARTESIAN_POINT('',(-0.0452342571099832,-0.0296074506907902,0.0586390070921986));
#2055=CARTESIAN_POINT('',(-0.0452342571099832,-0.0288088691305065,0.0578404255319149));
#2056=CARTESIAN_POINT('',(-0.0452342571099832,-0.0277440937167949,0.0578404255319149));
#2057=CARTESIAN_POINT('',(-0.0172839025000542,0.011080716102267,0.0578404255319149));
#2058=CARTESIAN_POINT('',(-0.0452342571099832,0.011080716102267,0.0578404255319149));
#2059=CARTESIAN_POINT('',(-0.0452342571099832,-0.00671477929599109,0.0578404255319149));
#2060=CARTESIAN_POINT('',(-0.0452342571099832,-0.00777955470970268,0.0578404255319149));
#2061=CARTESIAN_POINT('',(-0.0452342571099832,-0.00777955470970268,0.0586390070921986));
#2062=CARTESIAN_POINT('',(-0.0452342571099832,-0.00591619773570741,0.0586390070921986));
#2063=CARTESIAN_POINT('',(-0.0272661720036003,0.0101885303966803,0.0586390070921986));
#2064=CARTESIAN_POINT('',(-0.0291295289775956,0.0101885303966803,0.0586390070921986));
#2065=CARTESIAN_POINT('',(-0.0283309474173119,0.0101885303966803,0.0578404255319149));
#2066=CARTESIAN_POINT('',(-0.0272661720036003,0.0101885303966803,0.0578404255319149));
#2067=CARTESIAN_POINT('',(-0.0172839025000542,0.011080716102267,0.0578404255319149));
#2068=CARTESIAN_POINT('',(-0.0312590798050187,0.0101885303966803,0.0578404255319149));
#2069=CARTESIAN_POINT('',(-0.0452342571099832,0.0101885303966803,0.0618333333333333));
#2070=CARTESIAN_POINT('',(-0.0452342571099832,-0.0535692847752549,0.0618333333333333));
#2071=CARTESIAN_POINT('',(0.0106664521098749,0.0101885303966803,0.0618333333333333));
#2072=CARTESIAN_POINT('',(-0.0406297538661037,-0.0458618242132488,0.0618313333333333));
#2073=CARTESIAN_POINT('',(-0.0172839025000542,-0.0458618242132488,0.0701430260047281));
#2074=CARTESIAN_POINT('',(-0.0433839025000542,-0.0458618242132488,0.0701430260047281));
#2075=CARTESIAN_POINT('',(-0.0433839025000542,-0.0458618242132488,0.0618313333333333));
#2076=CARTESIAN_POINT('',(-0.0433839025000542,-0.0438618242132489,0.0618313333333333));
#2077=CARTESIAN_POINT('',(-0.0433839025000542,-0.0438618242132489,0.0701430260047281));
#2078=CARTESIAN_POINT('',(-0.0453839025000542,-0.0438618242132488,0.0701430260047281));
#2079=CARTESIAN_POINT('',(-0.0453839025000542,-0.0438618242132488,0.0618313333333333));
#2080=CARTESIAN_POINT('',(0.00478148570314801,0.0103381757867512,0.0618313333333333));
#2081=CARTESIAN_POINT('',(-0.0172839025000542,0.0103381757867512,0.0701430260047281));
#2082=CARTESIAN_POINT('',(0.00881609749994581,-0.0438618242132488,0.0618313333333333));
#2083=CARTESIAN_POINT('',(0.00881609749994581,-0.0438618242132488,0.0701430260047281));
#2084=CARTESIAN_POINT('',(0.0088160974999458,-0.0458618242132488,0.0701430260047281));
#2085=CARTESIAN_POINT('',(0.0108160974999458,-0.0438618242132489,0.0701430260047281));
#2086=CARTESIAN_POINT('',(0.0088160974999458,-0.0458618242132488,0.0618313333333333));
#2087=CARTESIAN_POINT('',(0.0108160974999458,-0.0438618242132489,0.0618313333333333));
#2088=CARTESIAN_POINT('',(0.00606194886599528,-0.0458618242132488,0.0618313333333333));
#2089=CARTESIAN_POINT('',(-0.0172839025000542,-0.0458618242132488,0.0701430260047281));
#2090=CARTESIAN_POINT('',(-0.0172839025000542,-0.0177618242132488,0.0701430260047281));
#2091=CARTESIAN_POINT('',(-0.0111262658603774,-0.0832995847941346,0.0701430260047281));
#2092=CARTESIAN_POINT('',(-0.0114299328123118,-0.0853879905508295,0.0701430260047281));
#2093=CARTESIAN_POINT('',(-0.0111262658603774,-0.0832995847941346,0.0701430260047281));
#2094=CARTESIAN_POINT('',(-0.014398712610066,-0.0849563118364521,0.0701430260047281));
#2095=CARTESIAN_POINT('',(-0.014611081188933,-0.0879487856603493,0.0701430260047281));
#2096=CARTESIAN_POINT('',(-0.0172889037121516,-0.12568183378134,0.0701430260047281));
#2097=CARTESIAN_POINT('',(-0.0199619883496229,-0.087948449723085,0.0701430260047281));
#2098=CARTESIAN_POINT('',(-0.0201739811836248,-0.0849559492571984,0.0701430260047281));
#2099=CARTESIAN_POINT('',(-0.0231428151607351,-0.0853872552000685,0.0701430260047281));
#2100=CARTESIAN_POINT('',(-0.0234462198843419,-0.0832988113305837,0.0701430260047281));
#2101=CARTESIAN_POINT('',(-0.0234462198843419,-0.0832988113305837,0.0701430260047281));
#2102=CARTESIAN_POINT('',(-0.0238296029446709,-0.080659847795375,0.0701430260047281));
#2103=CARTESIAN_POINT('',(-0.0107425514475974,-0.0806606694183531,0.0701430260047281));
#2104=CARTESIAN_POINT('',(-0.0478981956442622,-0.0438618242132488,0.0701430260047281));
#2105=CARTESIAN_POINT('',(0.0133303906441539,-0.0438618242132489,0.0701430260047281));
#2106=CARTESIAN_POINT('',(-0.0478981956442622,0.00833817578675118,0.0701430260047281));
#2107=CARTESIAN_POINT('',(-0.0478981956442622,0.00833817578675118,0.0701430260047281));
#2108=CARTESIAN_POINT('',(0.0062160974999458,-0.0412618242132489,0.0701430260047281));
#2109=CARTESIAN_POINT('',(0.0092160974999458,-0.0412618242132489,0.0701430260047281));
#2110=CARTESIAN_POINT('',(-0.0407839025000542,-0.0412618242132489,0.0701430260047281));
#2111=CARTESIAN_POINT('',(-0.0377839025000542,-0.0412618242132489,0.0701430260047281));
#2112=CARTESIAN_POINT('',(-0.0238296029446709,-0.080659847795375,0.0701450260047281));
#2113=CARTESIAN_POINT('',(-0.0234462198843419,-0.0832988113305837,0.0701450260047281));
#2114=CARTESIAN_POINT('',(-0.0264622457443518,-0.0810844688033326,0.0148333333333333));
#2115=CARTESIAN_POINT('',(-0.0107425514475974,-0.0806606694183531,0.0701450260047281));
#2116=CARTESIAN_POINT('',(-0.0111262658603774,-0.0832995847941346,0.0701450260047281));
#2117=CARTESIAN_POINT('',(-0.00810996198524347,-0.0810856209847859,0.0148333333333333));
#2118=CARTESIAN_POINT('',(-0.00929164398693163,-0.0884061813291381,0.0148333333333333));
#2119=CARTESIAN_POINT('',(-0.0104733259886198,-0.0957267416734902,0.0148333333333333));
#2120=CARTESIAN_POINT('',(-0.0131059154509738,-0.0953017901070575,0.0148333333333333));
#2121=CARTESIAN_POINT('',(-0.0127421773413062,-0.092660047178859,0.0148333333333333));
#2122=CARTESIAN_POINT('',(-0.0172889037121513,-0.125681833781337,0.0148333333333333));
#2123=CARTESIAN_POINT('',(-0.0156326065368999,-0.0923896756840148,0.0148333333333333));
#2124=CARTESIAN_POINT('',(-0.0172839025000542,-0.0852973634964227,0.0148333333333333));
#2125=CARTESIAN_POINT('',(-0.0189369550361676,-0.0923892664735542,0.0148333333333333));
#2126=CARTESIAN_POINT('',(-0.0172889037121527,-0.125681833781327,0.0148333333333333));
#2127=CARTESIAN_POINT('',(-0.0218314837413764,-0.0926594765397799,0.0148333333333333));
#2128=CARTESIAN_POINT('',(-0.0214680773390383,-0.0953012651191047,0.0148333333333333));
#2129=CARTESIAN_POINT('',(-0.0241007201387194,-0.0957258861270623,0.0148333333333333));
#2130=CARTESIAN_POINT('',(-0.0252814829415356,-0.0884051774651975,0.0148333333333333));
#2131=CARTESIAN_POINT('',(0.0062160974999458,-0.0412618242132489,0.0618313333333333));
#2132=CARTESIAN_POINT('',(-0.0407839025000542,-0.0412618242132489,0.0618313333333333));
#2133=CARTESIAN_POINT('',(0.0133303906441539,-0.0438618242132489,0.0618313333333333));
#2134=CARTESIAN_POINT('',(-0.0478981956442622,-0.0438618242132488,0.0618313333333333));
#2135=CARTESIAN_POINT('',(-0.0478981956442622,0.00833817578675118,0.0618313333333333));
#2136=CARTESIAN_POINT('',(-0.0478981956442622,0.00833817578675118,0.0618313333333333));
#2137=CARTESIAN_POINT('',(-0.0234462198843419,-0.0832988113305837,0.0424881796690308));
#2138=CARTESIAN_POINT('',(-0.0231428151607351,-0.0853872552000685,0.0424881796690308));
#2139=CARTESIAN_POINT('',(-0.0111262658603774,-0.0832995847941346,0.0424881796690308));
#2140=CARTESIAN_POINT('',(-0.0114299328123118,-0.0853879905508295,0.0424881796690308));
#2141=CARTESIAN_POINT('',(-0.0172889037121516,-0.12568183378134,0.0701450260047281));
#2142=CARTESIAN_POINT('',(-0.014611081188933,-0.0879487856603493,0.0701450260047281));
#2143=CARTESIAN_POINT('',(-0.0199619883496229,-0.087948449723085,0.0701450260047281));
#2144=CARTESIAN_POINT('',(-0.014398712610066,-0.0849563118364521,0.0701450260047281));
#2145=CARTESIAN_POINT('',(-0.0201739811836248,-0.0849559492571984,0.0701450260047281));
#2146=MECHANICAL_DESIGN_GEOMETRIC_PRESENTATION_REPRESENTATION('',(#1263),
#2147);
#2147=(
GEOMETRIC_REPRESENTATION_CONTEXT(3)
GLOBAL_UNCERTAINTY_ASSIGNED_CONTEXT((#2148))
GLOBAL_UNIT_ASSIGNED_CONTEXT((#2151,#2150,#2149))
REPRESENTATION_CONTEXT('brace','TOP_LEVEL_ASSEMBLY_PART')
);
#2148=UNCERTAINTY_MEASURE_WITH_UNIT(LENGTH_MEASURE(5.E-6),#2151,
'DISTANCE_ACCURACY_VALUE','Maximum Tolerance applied to model');
#2149=(
NAMED_UNIT(*)
SI_UNIT($,.STERADIAN.)
SOLID_ANGLE_UNIT()
);
#2150=(
NAMED_UNIT(*)
PLANE_ANGLE_UNIT()
SI_UNIT($,.RADIAN.)
);
#2151=(
LENGTH_UNIT()
NAMED_UNIT(*)
SI_UNIT($,.METRE.)
);
#2152=PRODUCT_DEFINITION_SHAPE('','',#2153);
#2153=PRODUCT_DEFINITION('','',#2155,#2154);
#2154=PRODUCT_DEFINITION_CONTEXT('',#2161,'design');
#2155=PRODUCT_DEFINITION_FORMATION_WITH_SPECIFIED_SOURCE('','',#2157,
 .NOT_KNOWN.);
#2156=PRODUCT_RELATED_PRODUCT_CATEGORY('','',(#2157));
#2157=PRODUCT('brace','brace','brace',(#2159));
#2158=PRODUCT_CATEGORY('','');
#2159=PRODUCT_CONTEXT('',#2161,'mechanical');
#2160=APPLICATION_PROTOCOL_DEFINITION('international standard',
'ap242_managed_model_based_3d_engineering',2011,#2161);
#2161=APPLICATION_CONTEXT('managed model based 3d engineering');
ENDSEC;
END-ISO-10303-21;
