ISO-10303-21;
HEADER;
/* Generated by software containing ST-Developer
 * from STEP Tools, Inc. (www.steptools.com) 
 */
/* OPTION: using custom renumber hook */

FILE_DESCRIPTION(
/* description */ ('STEP AP242',
'CAx-IF Rec.Pracs.---Representation and Presentation of Product Manufa
cturing Information (PMI)---4.0---2014-10-13',
'CAx-IF Rec.Pracs.---3D Tessellated Geometry---0.4---2014-09-14','2;1'),

/* implementation_level */ '2;1');

FILE_NAME(
/* name */ '66789d82b9c7367681b24187',
/* time_stamp */ '2024-06-23T22:11:14Z',
/* author */ (''),
/* organization */ (''),
/* preprocessor_version */ 'ST-DEVELOPER v20',
/* originating_system */ '  ',
/* authorisation */ '  ');

FILE_SCHEMA (('AP242_MANAGED_MODEL_BASED_3D_ENGINEERING_MIM_LF { 1 0 10303 442 1 1 4 }'));
ENDSEC;

DATA;
#10=SHAPE_REPRESENTATION_RELATIONSHIP('','',#826,#11);
#11=ADVANCED_BREP_SHAPE_REPRESENTATION('',(#824),#1432);
#12=TOROIDAL_SURFACE('',#884,0.0134302196588998,0.001);
#13=TOROIDAL_SURFACE('',#887,0.002,0.001);
#14=TOROIDAL_SURFACE('',#890,0.0134410151713073,0.001);
#15=TOROIDAL_SURFACE('',#893,0.002,0.001);
#16=TOROIDAL_SURFACE('',#897,0.0144410151713073,0.001);
#17=TOROIDAL_SURFACE('',#899,0.0144302196588998,0.001);
#18=TOROIDAL_SURFACE('',#901,0.0144302196588998,0.001);
#19=TOROIDAL_SURFACE('',#903,0.0144410151713073,0.001);
#20=ELLIPSE('',#881,0.00100000000086909,0.001);
#21=CYLINDRICAL_SURFACE('',#836,0.0154410151713074);
#22=CYLINDRICAL_SURFACE('',#839,0.00165);
#23=CYLINDRICAL_SURFACE('',#841,0.0154302196588998);
#24=CYLINDRICAL_SURFACE('',#864,0.0124410151713073);
#25=CYLINDRICAL_SURFACE('',#866,0.0124302196588998);
#26=CYLINDRICAL_SURFACE('',#882,0.002);
#27=CYLINDRICAL_SURFACE('',#883,0.001);
#28=CYLINDRICAL_SURFACE('',#885,0.001);
#29=CYLINDRICAL_SURFACE('',#889,0.001);
#30=CYLINDRICAL_SURFACE('',#891,0.001);
#31=CYLINDRICAL_SURFACE('',#895,0.001);
#32=CYLINDRICAL_SURFACE('',#896,0.001);
#33=CYLINDRICAL_SURFACE('',#898,0.001);
#34=CYLINDRICAL_SURFACE('',#900,0.001);
#35=CYLINDRICAL_SURFACE('',#902,0.001);
#36=B_SPLINE_CURVE_WITH_KNOTS('',3,(#1169,#1170,#1171,#1172,#1173),
 .UNSPECIFIED.,.F.,.F.,(4,1,4),(0.,0.000816706299056683,0.00163341259811337),
 .UNSPECIFIED.);
#37=B_SPLINE_CURVE_WITH_KNOTS('',3,(#1177,#1178,#1179,#1180,#1181),
 .UNSPECIFIED.,.F.,.F.,(4,1,4),(0.,0.000816911624346523,0.00163382324869305),
 .UNSPECIFIED.);
#38=B_SPLINE_CURVE_WITH_KNOTS('',3,(#1185,#1186,#1187,#1188,#1189),
 .UNSPECIFIED.,.F.,.F.,(4,1,4),(0.,0.00081691682803482,0.00163383365606964),
 .UNSPECIFIED.);
#39=B_SPLINE_CURVE_WITH_KNOTS('',3,(#1193,#1194,#1195,#1196,#1197),
 .UNSPECIFIED.,.F.,.F.,(4,1,4),(0.,0.000830335106154748,0.0016606702123095),
 .UNSPECIFIED.);
#40=B_SPLINE_CURVE_WITH_KNOTS('',3,(#1205,#1206,#1207,#1208,#1209),
 .UNSPECIFIED.,.F.,.F.,(4,1,4),(1.38777878078145E-17,0.000829927257951289,
0.00165985451590256),.UNSPECIFIED.);
#41=B_SPLINE_CURVE_WITH_KNOTS('',3,(#1213,#1214,#1215,#1216,#1217),
 .UNSPECIFIED.,.F.,.F.,(4,1,4),(0.,0.0008167013722472,0.0016334027444944),
 .UNSPECIFIED.);
#42=B_SPLINE_CURVE_WITH_KNOTS('',3,(#1315,#1316,#1317,#1318,#1319),
 .UNSPECIFIED.,.F.,.F.,(4,1,4),(0.,0.0015762258665709,0.00315245173314181),
 .UNSPECIFIED.);
#43=B_SPLINE_CURVE_WITH_KNOTS('',3,(#1322,#1323,#1324,#1325,#1326),
 .UNSPECIFIED.,.F.,.F.,(4,1,4),(0.,0.00157638784445141,0.00315277568890281),
 .UNSPECIFIED.);
#44=B_SPLINE_CURVE_WITH_KNOTS('',3,(#1363,#1364,#1365,#1366,#1367),
 .UNSPECIFIED.,.F.,.F.,(4,1,4),(0.,0.0010237421166299,0.0020474842332598),
 .UNSPECIFIED.);
#45=B_SPLINE_CURVE_WITH_KNOTS('',3,(#1370,#1371,#1372,#1373,#1374),
 .UNSPECIFIED.,.F.,.F.,(4,1,4),(0.,0.00102374211662987,0.00204748423325973),
 .UNSPECIFIED.);
#46=B_SPLINE_CURVE_WITH_KNOTS('',3,(#1380,#1381,#1382,#1383,#1384,#1385),
 .UNSPECIFIED.,.F.,.F.,(4,1,1,4),(0.,0.000516049185032558,0.00103209837006512,
0.00206419674013023),.UNSPECIFIED.);
#47=B_SPLINE_CURVE_WITH_KNOTS('',3,(#1392,#1393,#1394,#1395,#1396,#1397),
 .UNSPECIFIED.,.F.,.F.,(4,1,1,4),(0.,0.0005158230403621,0.0010316460807242,
0.0020632921614484),.UNSPECIFIED.);
#48=B_SPLINE_CURVE_WITH_KNOTS('',3,(#1404,#1405,#1406,#1407,#1408),
 .UNSPECIFIED.,.F.,.F.,(4,1,4),(0.,0.000783626309874438,0.00156725261974888),
 .UNSPECIFIED.);
#49=B_SPLINE_CURVE_WITH_KNOTS('',3,(#1411,#1412,#1413,#1414,#1415),
 .UNSPECIFIED.,.F.,.F.,(4,1,4),(0.,0.0007836464044301,0.0015672928088602),
 .UNSPECIFIED.);
#50=B_SPLINE_CURVE_WITH_KNOTS('',3,(#1418,#1419,#1420,#1421,#1422),
 .UNSPECIFIED.,.F.,.F.,(4,1,4),(0.,0.000783646404430098,0.0015672928088602),
 .UNSPECIFIED.);
#51=B_SPLINE_CURVE_WITH_KNOTS('',3,(#1425,#1426,#1427,#1428,#1429),
 .UNSPECIFIED.,.F.,.F.,(4,1,4),(0.,0.000783626309874431,0.00156725261974886),
 .UNSPECIFIED.);
#52=CIRCLE('',#829,0.002);
#53=CIRCLE('',#830,0.002);
#54=CIRCLE('',#833,0.00165);
#55=CIRCLE('',#834,0.0124302196588998);
#56=CIRCLE('',#835,0.0124410151713073);
#57=CIRCLE('',#837,0.0154410151713074);
#58=CIRCLE('',#838,0.0154410151713074);
#59=CIRCLE('',#840,0.00165);
#60=CIRCLE('',#842,0.0154302196588998);
#61=CIRCLE('',#843,0.0154302196588998);
#62=CIRCLE('',#845,0.0124302196588998);
#63=CIRCLE('',#846,0.0124410151713073);
#64=CIRCLE('',#848,0.0144410151713073);
#65=CIRCLE('',#849,0.0144302196588998);
#66=CIRCLE('',#859,0.0144302196588998);
#67=CIRCLE('',#860,0.0134302196588998);
#68=CIRCLE('',#862,0.0144410151713073);
#69=CIRCLE('',#863,0.0134410151713073);
#70=CIRCLE('',#865,0.0124410151713073);
#71=CIRCLE('',#867,0.0124302196588998);
#72=CIRCLE('',#872,0.001);
#73=CIRCLE('',#873,0.001);
#74=CIRCLE('',#874,0.001);
#75=CIRCLE('',#875,0.001);
#76=CIRCLE('',#876,0.001);
#77=CIRCLE('',#877,0.001);
#78=CIRCLE('',#879,0.001);
#79=CIRCLE('',#886,0.001);
#80=CIRCLE('',#888,0.001);
#81=CIRCLE('',#892,0.001);
#82=CIRCLE('',#894,0.001);
#83=ORIENTED_EDGE('',*,*,#317,.T.);
#84=ORIENTED_EDGE('',*,*,#318,.T.);
#85=ORIENTED_EDGE('',*,*,#319,.F.);
#86=ORIENTED_EDGE('',*,*,#320,.T.);
#87=ORIENTED_EDGE('',*,*,#321,.T.);
#88=ORIENTED_EDGE('',*,*,#322,.F.);
#89=ORIENTED_EDGE('',*,*,#323,.T.);
#90=ORIENTED_EDGE('',*,*,#324,.F.);
#91=ORIENTED_EDGE('',*,*,#325,.T.);
#92=ORIENTED_EDGE('',*,*,#326,.T.);
#93=ORIENTED_EDGE('',*,*,#327,.F.);
#94=ORIENTED_EDGE('',*,*,#328,.T.);
#95=ORIENTED_EDGE('',*,*,#329,.F.);
#96=ORIENTED_EDGE('',*,*,#330,.F.);
#97=ORIENTED_EDGE('',*,*,#331,.F.);
#98=ORIENTED_EDGE('',*,*,#332,.T.);
#99=ORIENTED_EDGE('',*,*,#333,.T.);
#100=ORIENTED_EDGE('',*,*,#334,.T.);
#101=ORIENTED_EDGE('',*,*,#335,.F.);
#102=ORIENTED_EDGE('',*,*,#336,.T.);
#103=ORIENTED_EDGE('',*,*,#337,.T.);
#104=ORIENTED_EDGE('',*,*,#338,.T.);
#105=ORIENTED_EDGE('',*,*,#339,.T.);
#106=ORIENTED_EDGE('',*,*,#340,.T.);
#107=ORIENTED_EDGE('',*,*,#341,.F.);
#108=ORIENTED_EDGE('',*,*,#342,.T.);
#109=ORIENTED_EDGE('',*,*,#343,.T.);
#110=ORIENTED_EDGE('',*,*,#344,.F.);
#111=ORIENTED_EDGE('',*,*,#345,.F.);
#112=ORIENTED_EDGE('',*,*,#346,.T.);
#113=ORIENTED_EDGE('',*,*,#347,.F.);
#114=ORIENTED_EDGE('',*,*,#348,.T.);
#115=ORIENTED_EDGE('',*,*,#349,.T.);
#116=ORIENTED_EDGE('',*,*,#350,.T.);
#117=ORIENTED_EDGE('',*,*,#351,.T.);
#118=ORIENTED_EDGE('',*,*,#344,.T.);
#119=ORIENTED_EDGE('',*,*,#352,.F.);
#120=ORIENTED_EDGE('',*,*,#353,.T.);
#121=ORIENTED_EDGE('',*,*,#335,.T.);
#122=ORIENTED_EDGE('',*,*,#354,.T.);
#123=ORIENTED_EDGE('',*,*,#355,.T.);
#124=ORIENTED_EDGE('',*,*,#349,.F.);
#125=ORIENTED_EDGE('',*,*,#339,.F.);
#126=ORIENTED_EDGE('',*,*,#356,.T.);
#127=ORIENTED_EDGE('',*,*,#357,.T.);
#128=ORIENTED_EDGE('',*,*,#358,.T.);
#129=ORIENTED_EDGE('',*,*,#359,.T.);
#130=ORIENTED_EDGE('',*,*,#360,.T.);
#131=ORIENTED_EDGE('',*,*,#361,.T.);
#132=ORIENTED_EDGE('',*,*,#355,.F.);
#133=ORIENTED_EDGE('',*,*,#337,.F.);
#134=ORIENTED_EDGE('',*,*,#362,.T.);
#135=ORIENTED_EDGE('',*,*,#363,.T.);
#136=ORIENTED_EDGE('',*,*,#364,.T.);
#137=ORIENTED_EDGE('',*,*,#365,.T.);
#138=ORIENTED_EDGE('',*,*,#366,.T.);
#139=ORIENTED_EDGE('',*,*,#367,.T.);
#140=ORIENTED_EDGE('',*,*,#368,.F.);
#141=ORIENTED_EDGE('',*,*,#369,.F.);
#142=ORIENTED_EDGE('',*,*,#328,.F.);
#143=ORIENTED_EDGE('',*,*,#329,.T.);
#144=ORIENTED_EDGE('',*,*,#369,.T.);
#145=ORIENTED_EDGE('',*,*,#370,.T.);
#146=ORIENTED_EDGE('',*,*,#371,.F.);
#147=ORIENTED_EDGE('',*,*,#330,.T.);
#148=ORIENTED_EDGE('',*,*,#371,.T.);
#149=ORIENTED_EDGE('',*,*,#372,.T.);
#150=ORIENTED_EDGE('',*,*,#373,.F.);
#151=ORIENTED_EDGE('',*,*,#327,.T.);
#152=ORIENTED_EDGE('',*,*,#373,.T.);
#153=ORIENTED_EDGE('',*,*,#374,.F.);
#154=ORIENTED_EDGE('',*,*,#367,.F.);
#155=ORIENTED_EDGE('',*,*,#375,.T.);
#156=ORIENTED_EDGE('',*,*,#376,.F.);
#157=ORIENTED_EDGE('',*,*,#377,.F.);
#158=ORIENTED_EDGE('',*,*,#332,.F.);
#159=ORIENTED_EDGE('',*,*,#377,.T.);
#160=ORIENTED_EDGE('',*,*,#378,.F.);
#161=ORIENTED_EDGE('',*,*,#379,.F.);
#162=ORIENTED_EDGE('',*,*,#333,.F.);
#163=ORIENTED_EDGE('',*,*,#379,.T.);
#164=ORIENTED_EDGE('',*,*,#380,.F.);
#165=ORIENTED_EDGE('',*,*,#381,.F.);
#166=ORIENTED_EDGE('',*,*,#334,.F.);
#167=ORIENTED_EDGE('',*,*,#331,.T.);
#168=ORIENTED_EDGE('',*,*,#381,.T.);
#169=ORIENTED_EDGE('',*,*,#382,.T.);
#170=ORIENTED_EDGE('',*,*,#375,.F.);
#171=ORIENTED_EDGE('',*,*,#341,.T.);
#172=ORIENTED_EDGE('',*,*,#383,.T.);
#173=ORIENTED_EDGE('',*,*,#384,.T.);
#174=ORIENTED_EDGE('',*,*,#385,.F.);
#175=ORIENTED_EDGE('',*,*,#386,.T.);
#176=ORIENTED_EDGE('',*,*,#387,.T.);
#177=ORIENTED_EDGE('',*,*,#388,.T.);
#178=ORIENTED_EDGE('',*,*,#389,.T.);
#179=ORIENTED_EDGE('',*,*,#390,.T.);
#180=ORIENTED_EDGE('',*,*,#347,.T.);
#181=ORIENTED_EDGE('',*,*,#391,.T.);
#182=ORIENTED_EDGE('',*,*,#392,.T.);
#183=ORIENTED_EDGE('',*,*,#393,.T.);
#184=ORIENTED_EDGE('',*,*,#394,.T.);
#185=ORIENTED_EDGE('',*,*,#322,.T.);
#186=ORIENTED_EDGE('',*,*,#395,.T.);
#187=ORIENTED_EDGE('',*,*,#345,.T.);
#188=ORIENTED_EDGE('',*,*,#351,.F.);
#189=ORIENTED_EDGE('',*,*,#396,.F.);
#190=ORIENTED_EDGE('',*,*,#361,.F.);
#191=ORIENTED_EDGE('',*,*,#397,.T.);
#192=ORIENTED_EDGE('',*,*,#343,.F.);
#193=ORIENTED_EDGE('',*,*,#398,.T.);
#194=ORIENTED_EDGE('',*,*,#324,.T.);
#195=ORIENTED_EDGE('',*,*,#399,.T.);
#196=ORIENTED_EDGE('',*,*,#359,.F.);
#197=ORIENTED_EDGE('',*,*,#396,.T.);
#198=ORIENTED_EDGE('',*,*,#350,.F.);
#199=ORIENTED_EDGE('',*,*,#400,.F.);
#200=ORIENTED_EDGE('',*,*,#401,.T.);
#201=ORIENTED_EDGE('',*,*,#402,.F.);
#202=ORIENTED_EDGE('',*,*,#403,.F.);
#203=ORIENTED_EDGE('',*,*,#357,.F.);
#204=ORIENTED_EDGE('',*,*,#404,.T.);
#205=ORIENTED_EDGE('',*,*,#405,.T.);
#206=ORIENTED_EDGE('',*,*,#406,.T.);
#207=ORIENTED_EDGE('',*,*,#407,.F.);
#208=ORIENTED_EDGE('',*,*,#408,.T.);
#209=ORIENTED_EDGE('',*,*,#352,.T.);
#210=ORIENTED_EDGE('',*,*,#409,.T.);
#211=ORIENTED_EDGE('',*,*,#410,.F.);
#212=ORIENTED_EDGE('',*,*,#411,.T.);
#213=ORIENTED_EDGE('',*,*,#385,.T.);
#214=ORIENTED_EDGE('',*,*,#412,.T.);
#215=ORIENTED_EDGE('',*,*,#405,.F.);
#216=ORIENTED_EDGE('',*,*,#413,.T.);
#217=ORIENTED_EDGE('',*,*,#364,.F.);
#218=ORIENTED_EDGE('',*,*,#414,.T.);
#219=ORIENTED_EDGE('',*,*,#407,.T.);
#220=ORIENTED_EDGE('',*,*,#415,.T.);
#221=ORIENTED_EDGE('',*,*,#394,.F.);
#222=ORIENTED_EDGE('',*,*,#416,.T.);
#223=ORIENTED_EDGE('',*,*,#417,.T.);
#224=ORIENTED_EDGE('',*,*,#403,.T.);
#225=ORIENTED_EDGE('',*,*,#374,.T.);
#226=ORIENTED_EDGE('',*,*,#372,.F.);
#227=ORIENTED_EDGE('',*,*,#370,.F.);
#228=ORIENTED_EDGE('',*,*,#368,.T.);
#229=ORIENTED_EDGE('',*,*,#378,.T.);
#230=ORIENTED_EDGE('',*,*,#376,.T.);
#231=ORIENTED_EDGE('',*,*,#382,.F.);
#232=ORIENTED_EDGE('',*,*,#380,.T.);
#233=ORIENTED_EDGE('',*,*,#319,.T.);
#234=ORIENTED_EDGE('',*,*,#418,.T.);
#235=ORIENTED_EDGE('',*,*,#400,.T.);
#236=ORIENTED_EDGE('',*,*,#417,.F.);
#237=ORIENTED_EDGE('',*,*,#419,.T.);
#238=ORIENTED_EDGE('',*,*,#420,.T.);
#239=ORIENTED_EDGE('',*,*,#402,.T.);
#240=ORIENTED_EDGE('',*,*,#421,.T.);
#241=ORIENTED_EDGE('',*,*,#317,.F.);
#242=ORIENTED_EDGE('',*,*,#422,.T.);
#243=ORIENTED_EDGE('',*,*,#423,.T.);
#244=ORIENTED_EDGE('',*,*,#410,.T.);
#245=ORIENTED_EDGE('',*,*,#397,.F.);
#246=ORIENTED_EDGE('',*,*,#360,.F.);
#247=ORIENTED_EDGE('',*,*,#399,.F.);
#248=ORIENTED_EDGE('',*,*,#323,.F.);
#249=ORIENTED_EDGE('',*,*,#418,.F.);
#250=ORIENTED_EDGE('',*,*,#318,.F.);
#251=ORIENTED_EDGE('',*,*,#421,.F.);
#252=ORIENTED_EDGE('',*,*,#401,.F.);
#253=ORIENTED_EDGE('',*,*,#342,.F.);
#254=ORIENTED_EDGE('',*,*,#388,.F.);
#255=ORIENTED_EDGE('',*,*,#424,.F.);
#256=ORIENTED_EDGE('',*,*,#398,.F.);
#257=ORIENTED_EDGE('',*,*,#425,.F.);
#258=ORIENTED_EDGE('',*,*,#325,.F.);
#259=ORIENTED_EDGE('',*,*,#424,.T.);
#260=ORIENTED_EDGE('',*,*,#387,.F.);
#261=ORIENTED_EDGE('',*,*,#326,.F.);
#262=ORIENTED_EDGE('',*,*,#425,.T.);
#263=ORIENTED_EDGE('',*,*,#426,.F.);
#264=ORIENTED_EDGE('',*,*,#422,.F.);
#265=ORIENTED_EDGE('',*,*,#411,.F.);
#266=ORIENTED_EDGE('',*,*,#423,.F.);
#267=ORIENTED_EDGE('',*,*,#426,.T.);
#268=ORIENTED_EDGE('',*,*,#386,.F.);
#269=ORIENTED_EDGE('',*,*,#346,.F.);
#270=ORIENTED_EDGE('',*,*,#395,.F.);
#271=ORIENTED_EDGE('',*,*,#427,.F.);
#272=ORIENTED_EDGE('',*,*,#391,.F.);
#273=ORIENTED_EDGE('',*,*,#427,.T.);
#274=ORIENTED_EDGE('',*,*,#321,.F.);
#275=ORIENTED_EDGE('',*,*,#428,.F.);
#276=ORIENTED_EDGE('',*,*,#392,.F.);
#277=ORIENTED_EDGE('',*,*,#320,.F.);
#278=ORIENTED_EDGE('',*,*,#420,.F.);
#279=ORIENTED_EDGE('',*,*,#429,.F.);
#280=ORIENTED_EDGE('',*,*,#428,.T.);
#281=ORIENTED_EDGE('',*,*,#416,.F.);
#282=ORIENTED_EDGE('',*,*,#393,.F.);
#283=ORIENTED_EDGE('',*,*,#429,.T.);
#284=ORIENTED_EDGE('',*,*,#419,.F.);
#285=ORIENTED_EDGE('',*,*,#414,.F.);
#286=ORIENTED_EDGE('',*,*,#363,.F.);
#287=ORIENTED_EDGE('',*,*,#430,.F.);
#288=ORIENTED_EDGE('',*,*,#408,.F.);
#289=ORIENTED_EDGE('',*,*,#336,.F.);
#290=ORIENTED_EDGE('',*,*,#353,.F.);
#291=ORIENTED_EDGE('',*,*,#430,.T.);
#292=ORIENTED_EDGE('',*,*,#362,.F.);
#293=ORIENTED_EDGE('',*,*,#413,.F.);
#294=ORIENTED_EDGE('',*,*,#404,.F.);
#295=ORIENTED_EDGE('',*,*,#431,.F.);
#296=ORIENTED_EDGE('',*,*,#365,.F.);
#297=ORIENTED_EDGE('',*,*,#431,.T.);
#298=ORIENTED_EDGE('',*,*,#356,.F.);
#299=ORIENTED_EDGE('',*,*,#338,.F.);
#300=ORIENTED_EDGE('',*,*,#366,.F.);
#301=ORIENTED_EDGE('',*,*,#412,.F.);
#302=ORIENTED_EDGE('',*,*,#384,.F.);
#303=ORIENTED_EDGE('',*,*,#432,.F.);
#304=ORIENTED_EDGE('',*,*,#406,.F.);
#305=ORIENTED_EDGE('',*,*,#432,.T.);
#306=ORIENTED_EDGE('',*,*,#383,.F.);
#307=ORIENTED_EDGE('',*,*,#340,.F.);
#308=ORIENTED_EDGE('',*,*,#358,.F.);
#309=ORIENTED_EDGE('',*,*,#415,.F.);
#310=ORIENTED_EDGE('',*,*,#409,.F.);
#311=ORIENTED_EDGE('',*,*,#433,.F.);
#312=ORIENTED_EDGE('',*,*,#389,.F.);
#313=ORIENTED_EDGE('',*,*,#348,.F.);
#314=ORIENTED_EDGE('',*,*,#390,.F.);
#315=ORIENTED_EDGE('',*,*,#433,.T.);
#316=ORIENTED_EDGE('',*,*,#354,.F.);
#317=EDGE_CURVE('',#434,#435,#510,.T.);
#318=EDGE_CURVE('',#435,#436,#511,.F.);
#319=EDGE_CURVE('',#437,#436,#512,.T.);
#320=EDGE_CURVE('',#437,#438,#52,.T.);
#321=EDGE_CURVE('',#438,#439,#513,.T.);
#322=EDGE_CURVE('',#440,#439,#514,.F.);
#323=EDGE_CURVE('',#440,#441,#515,.T.);
#324=EDGE_CURVE('',#442,#441,#516,.T.);
#325=EDGE_CURVE('',#442,#443,#517,.F.);
#326=EDGE_CURVE('',#443,#434,#53,.T.);
#327=EDGE_CURVE('',#444,#445,#518,.T.);
#328=EDGE_CURVE('',#444,#446,#519,.T.);
#329=EDGE_CURVE('',#447,#446,#520,.T.);
#330=EDGE_CURVE('',#445,#447,#521,.T.);
#331=EDGE_CURVE('',#448,#449,#522,.T.);
#332=EDGE_CURVE('',#448,#450,#523,.T.);
#333=EDGE_CURVE('',#450,#451,#524,.T.);
#334=EDGE_CURVE('',#451,#449,#525,.T.);
#335=EDGE_CURVE('',#452,#453,#526,.T.);
#336=EDGE_CURVE('',#452,#454,#36,.T.);
#337=EDGE_CURVE('',#454,#455,#527,.T.);
#338=EDGE_CURVE('',#455,#456,#37,.T.);
#339=EDGE_CURVE('',#456,#457,#528,.T.);
#340=EDGE_CURVE('',#457,#458,#38,.T.);
#341=EDGE_CURVE('',#459,#458,#529,.T.);
#342=EDGE_CURVE('',#459,#460,#39,.T.);
#343=EDGE_CURVE('',#460,#461,#530,.T.);
#344=EDGE_CURVE('',#462,#461,#531,.T.);
#345=EDGE_CURVE('',#463,#462,#532,.T.);
#346=EDGE_CURVE('',#463,#464,#40,.T.);
#347=EDGE_CURVE('',#465,#464,#533,.T.);
#348=EDGE_CURVE('',#465,#453,#41,.T.);
#349=EDGE_CURVE('',#466,#466,#54,.T.);
#350=EDGE_CURVE('',#461,#467,#55,.T.);
#351=EDGE_CURVE('',#467,#462,#56,.T.);
#352=EDGE_CURVE('',#468,#469,#534,.T.);
#353=EDGE_CURVE('',#468,#452,#57,.F.);
#354=EDGE_CURVE('',#453,#469,#58,.F.);
#355=EDGE_CURVE('',#470,#470,#59,.T.);
#356=EDGE_CURVE('',#456,#471,#60,.F.);
#357=EDGE_CURVE('',#471,#472,#535,.T.);
#358=EDGE_CURVE('',#472,#457,#61,.F.);
#359=EDGE_CURVE('',#473,#474,#62,.T.);
#360=EDGE_CURVE('',#474,#475,#536,.F.);
#361=EDGE_CURVE('',#475,#473,#63,.T.);
#362=EDGE_CURVE('',#454,#476,#64,.T.);
#363=EDGE_CURVE('',#476,#477,#537,.F.);
#364=EDGE_CURVE('',#477,#478,#538,.T.);
#365=EDGE_CURVE('',#478,#479,#539,.T.);
#366=EDGE_CURVE('',#479,#455,#65,.T.);
#367=EDGE_CURVE('',#444,#480,#540,.T.);
#368=EDGE_CURVE('',#481,#480,#541,.T.);
#369=EDGE_CURVE('',#446,#481,#542,.T.);
#370=EDGE_CURVE('',#481,#482,#543,.T.);
#371=EDGE_CURVE('',#447,#482,#544,.T.);
#372=EDGE_CURVE('',#482,#483,#545,.T.);
#373=EDGE_CURVE('',#445,#483,#546,.T.);
#374=EDGE_CURVE('',#480,#483,#547,.T.);
#375=EDGE_CURVE('',#448,#484,#548,.T.);
#376=EDGE_CURVE('',#485,#484,#549,.T.);
#377=EDGE_CURVE('',#450,#485,#550,.T.);
#378=EDGE_CURVE('',#486,#485,#551,.T.);
#379=EDGE_CURVE('',#451,#486,#552,.T.);
#380=EDGE_CURVE('',#487,#486,#553,.T.);
#381=EDGE_CURVE('',#449,#487,#554,.T.);
#382=EDGE_CURVE('',#487,#484,#555,.T.);
#383=EDGE_CURVE('',#458,#488,#66,.T.);
#384=EDGE_CURVE('',#488,#489,#556,.F.);
#385=EDGE_CURVE('',#490,#489,#557,.T.);
#386=EDGE_CURVE('',#490,#491,#558,.T.);
#387=EDGE_CURVE('',#491,#492,#559,.T.);
#388=EDGE_CURVE('',#492,#459,#67,.F.);
#389=EDGE_CURVE('',#493,#494,#560,.T.);
#390=EDGE_CURVE('',#494,#465,#68,.T.);
#391=EDGE_CURVE('',#464,#495,#69,.F.);
#392=EDGE_CURVE('',#495,#496,#561,.F.);
#393=EDGE_CURVE('',#496,#497,#562,.F.);
#394=EDGE_CURVE('',#497,#493,#563,.T.);
#395=EDGE_CURVE('',#439,#463,#70,.T.);
#396=EDGE_CURVE('',#473,#467,#564,.T.);
#397=EDGE_CURVE('',#475,#440,#42,.T.);
#398=EDGE_CURVE('',#460,#442,#71,.T.);
#399=EDGE_CURVE('',#441,#474,#43,.T.);
#400=EDGE_CURVE('',#498,#499,#565,.T.);
#401=EDGE_CURVE('',#498,#500,#566,.T.);
#402=EDGE_CURVE('',#501,#500,#567,.T.);
#403=EDGE_CURVE('',#499,#501,#568,.T.);
#404=EDGE_CURVE('',#471,#502,#569,.F.);
#405=EDGE_CURVE('',#502,#503,#570,.T.);
#406=EDGE_CURVE('',#503,#472,#571,.T.);
#407=EDGE_CURVE('',#504,#505,#572,.T.);
#408=EDGE_CURVE('',#504,#468,#573,.T.);
#409=EDGE_CURVE('',#469,#505,#574,.F.);
#410=EDGE_CURVE('',#506,#501,#575,.T.);
#411=EDGE_CURVE('',#506,#490,#72,.T.);
#412=EDGE_CURVE('',#489,#503,#73,.T.);
#413=EDGE_CURVE('',#502,#478,#74,.T.);
#414=EDGE_CURVE('',#477,#504,#75,.T.);
#415=EDGE_CURVE('',#505,#493,#76,.T.);
#416=EDGE_CURVE('',#497,#507,#77,.T.);
#417=EDGE_CURVE('',#507,#499,#576,.T.);
#418=EDGE_CURVE('',#436,#498,#78,.F.);
#419=EDGE_CURVE('',#507,#508,#577,.T.);
#420=EDGE_CURVE('',#508,#437,#44,.F.);
#421=EDGE_CURVE('',#500,#435,#20,.T.);
#422=EDGE_CURVE('',#434,#509,#45,.T.);
#423=EDGE_CURVE('',#509,#506,#578,.F.);
#424=EDGE_CURVE('',#442,#492,#46,.T.);
#425=EDGE_CURVE('',#443,#491,#79,.T.);
#426=EDGE_CURVE('',#509,#491,#80,.F.);
#427=EDGE_CURVE('',#495,#439,#47,.F.);
#428=EDGE_CURVE('',#496,#438,#81,.T.);
#429=EDGE_CURVE('',#496,#508,#82,.F.);
#430=EDGE_CURVE('',#468,#476,#48,.T.);
#431=EDGE_CURVE('',#479,#471,#49,.F.);
#432=EDGE_CURVE('',#472,#488,#50,.T.);
#433=EDGE_CURVE('',#494,#469,#51,.F.);
#434=VERTEX_POINT('',#1130);
#435=VERTEX_POINT('',#1131);
#436=VERTEX_POINT('',#1133);
#437=VERTEX_POINT('',#1135);
#438=VERTEX_POINT('',#1137);
#439=VERTEX_POINT('',#1139);
#440=VERTEX_POINT('',#1141);
#441=VERTEX_POINT('',#1143);
#442=VERTEX_POINT('',#1145);
#443=VERTEX_POINT('',#1147);
#444=VERTEX_POINT('',#1151);
#445=VERTEX_POINT('',#1152);
#446=VERTEX_POINT('',#1154);
#447=VERTEX_POINT('',#1156);
#448=VERTEX_POINT('',#1159);
#449=VERTEX_POINT('',#1160);
#450=VERTEX_POINT('',#1162);
#451=VERTEX_POINT('',#1164);
#452=VERTEX_POINT('',#1167);
#453=VERTEX_POINT('',#1168);
#454=VERTEX_POINT('',#1174);
#455=VERTEX_POINT('',#1176);
#456=VERTEX_POINT('',#1182);
#457=VERTEX_POINT('',#1184);
#458=VERTEX_POINT('',#1190);
#459=VERTEX_POINT('',#1192);
#460=VERTEX_POINT('',#1198);
#461=VERTEX_POINT('',#1200);
#462=VERTEX_POINT('',#1202);
#463=VERTEX_POINT('',#1204);
#464=VERTEX_POINT('',#1210);
#465=VERTEX_POINT('',#1212);
#466=VERTEX_POINT('',#1220);
#467=VERTEX_POINT('',#1222);
#468=VERTEX_POINT('',#1226);
#469=VERTEX_POINT('',#1227);
#470=VERTEX_POINT('',#1232);
#471=VERTEX_POINT('',#1235);
#472=VERTEX_POINT('',#1237);
#473=VERTEX_POINT('',#1241);
#474=VERTEX_POINT('',#1242);
#475=VERTEX_POINT('',#1244);
#476=VERTEX_POINT('',#1248);
#477=VERTEX_POINT('',#1250);
#478=VERTEX_POINT('',#1252);
#479=VERTEX_POINT('',#1254);
#480=VERTEX_POINT('',#1258);
#481=VERTEX_POINT('',#1260);
#482=VERTEX_POINT('',#1264);
#483=VERTEX_POINT('',#1268);
#484=VERTEX_POINT('',#1274);
#485=VERTEX_POINT('',#1276);
#486=VERTEX_POINT('',#1280);
#487=VERTEX_POINT('',#1284);
#488=VERTEX_POINT('',#1290);
#489=VERTEX_POINT('',#1292);
#490=VERTEX_POINT('',#1294);
#491=VERTEX_POINT('',#1296);
#492=VERTEX_POINT('',#1298);
#493=VERTEX_POINT('',#1302);
#494=VERTEX_POINT('',#1303);
#495=VERTEX_POINT('',#1306);
#496=VERTEX_POINT('',#1308);
#497=VERTEX_POINT('',#1310);
#498=VERTEX_POINT('',#1329);
#499=VERTEX_POINT('',#1330);
#500=VERTEX_POINT('',#1332);
#501=VERTEX_POINT('',#1334);
#502=VERTEX_POINT('',#1338);
#503=VERTEX_POINT('',#1340);
#504=VERTEX_POINT('',#1344);
#505=VERTEX_POINT('',#1345);
#506=VERTEX_POINT('',#1350);
#507=VERTEX_POINT('',#1357);
#508=VERTEX_POINT('',#1362);
#509=VERTEX_POINT('',#1375);
#510=LINE('',#1129,#579);
#511=LINE('',#1132,#580);
#512=LINE('',#1134,#581);
#513=LINE('',#1138,#582);
#514=LINE('',#1140,#583);
#515=LINE('',#1142,#584);
#516=LINE('',#1144,#585);
#517=LINE('',#1146,#586);
#518=LINE('',#1150,#587);
#519=LINE('',#1153,#588);
#520=LINE('',#1155,#589);
#521=LINE('',#1157,#590);
#522=LINE('',#1158,#591);
#523=LINE('',#1161,#592);
#524=LINE('',#1163,#593);
#525=LINE('',#1165,#594);
#526=LINE('',#1166,#595);
#527=LINE('',#1175,#596);
#528=LINE('',#1183,#597);
#529=LINE('',#1191,#598);
#530=LINE('',#1199,#599);
#531=LINE('',#1201,#600);
#532=LINE('',#1203,#601);
#533=LINE('',#1211,#602);
#534=LINE('',#1225,#603);
#535=LINE('',#1236,#604);
#536=LINE('',#1243,#605);
#537=LINE('',#1249,#606);
#538=LINE('',#1251,#607);
#539=LINE('',#1253,#608);
#540=LINE('',#1257,#609);
#541=LINE('',#1259,#610);
#542=LINE('',#1261,#611);
#543=LINE('',#1263,#612);
#544=LINE('',#1265,#613);
#545=LINE('',#1267,#614);
#546=LINE('',#1269,#615);
#547=LINE('',#1271,#616);
#548=LINE('',#1273,#617);
#549=LINE('',#1275,#618);
#550=LINE('',#1277,#619);
#551=LINE('',#1279,#620);
#552=LINE('',#1281,#621);
#553=LINE('',#1283,#622);
#554=LINE('',#1285,#623);
#555=LINE('',#1287,#624);
#556=LINE('',#1291,#625);
#557=LINE('',#1293,#626);
#558=LINE('',#1295,#627);
#559=LINE('',#1297,#628);
#560=LINE('',#1301,#629);
#561=LINE('',#1307,#630);
#562=LINE('',#1309,#631);
#563=LINE('',#1311,#632);
#564=LINE('',#1314,#633);
#565=LINE('',#1328,#634);
#566=LINE('',#1331,#635);
#567=LINE('',#1333,#636);
#568=LINE('',#1335,#637);
#569=LINE('',#1337,#638);
#570=LINE('',#1339,#639);
#571=LINE('',#1341,#640);
#572=LINE('',#1343,#641);
#573=LINE('',#1346,#642);
#574=LINE('',#1347,#643);
#575=LINE('',#1349,#644);
#576=LINE('',#1358,#645);
#577=LINE('',#1361,#646);
#578=LINE('',#1376,#647);
#579=VECTOR('',#908,1.);
#580=VECTOR('',#909,1.);
#581=VECTOR('',#910,1.);
#582=VECTOR('',#913,1.);
#583=VECTOR('',#914,1.);
#584=VECTOR('',#915,1.);
#585=VECTOR('',#916,1.);
#586=VECTOR('',#917,1.);
#587=VECTOR('',#922,1.);
#588=VECTOR('',#923,1.);
#589=VECTOR('',#924,1.);
#590=VECTOR('',#925,1.);
#591=VECTOR('',#926,1.);
#592=VECTOR('',#927,1.);
#593=VECTOR('',#928,1.);
#594=VECTOR('',#929,1.);
#595=VECTOR('',#930,1.);
#596=VECTOR('',#931,1.);
#597=VECTOR('',#932,1.);
#598=VECTOR('',#933,1.);
#599=VECTOR('',#934,1.);
#600=VECTOR('',#935,1.);
#601=VECTOR('',#936,1.);
#602=VECTOR('',#937,1.);
#603=VECTOR('',#948,1.);
#604=VECTOR('',#961,1.);
#605=VECTOR('',#968,1.);
#606=VECTOR('',#975,1.);
#607=VECTOR('',#976,1.);
#608=VECTOR('',#977,1.);
#609=VECTOR('',#982,1.);
#610=VECTOR('',#983,1.);
#611=VECTOR('',#984,1.);
#612=VECTOR('',#987,1.);
#613=VECTOR('',#988,1.);
#614=VECTOR('',#991,1.);
#615=VECTOR('',#992,1.);
#616=VECTOR('',#995,1.);
#617=VECTOR('',#998,1.);
#618=VECTOR('',#999,1.);
#619=VECTOR('',#1000,1.);
#620=VECTOR('',#1003,1.);
#621=VECTOR('',#1004,1.);
#622=VECTOR('',#1007,1.);
#623=VECTOR('',#1008,1.);
#624=VECTOR('',#1011,1.);
#625=VECTOR('',#1016,1.);
#626=VECTOR('',#1017,1.);
#627=VECTOR('',#1018,1.);
#628=VECTOR('',#1019,1.);
#629=VECTOR('',#1024,1.);
#630=VECTOR('',#1029,1.);
#631=VECTOR('',#1030,1.);
#632=VECTOR('',#1031,1.);
#633=VECTOR('',#1036,1.);
#634=VECTOR('',#1043,1.);
#635=VECTOR('',#1044,1.);
#636=VECTOR('',#1045,1.);
#637=VECTOR('',#1046,1.);
#638=VECTOR('',#1049,1.);
#639=VECTOR('',#1050,1.);
#640=VECTOR('',#1051,1.);
#641=VECTOR('',#1054,1.);
#642=VECTOR('',#1055,1.);
#643=VECTOR('',#1056,1.);
#644=VECTOR('',#1059,1.);
#645=VECTOR('',#1072,1.);
#646=VECTOR('',#1077,1.);
#647=VECTOR('',#1082,1.);
#648=EDGE_LOOP('',(#83,#84,#85,#86,#87,#88,#89,#90,#91,#92));
#649=EDGE_LOOP('',(#93,#94,#95,#96));
#650=EDGE_LOOP('',(#97,#98,#99,#100));
#651=EDGE_LOOP('',(#101,#102,#103,#104,#105,#106,#107,#108,#109,#110,#111,
#112,#113,#114));
#652=EDGE_LOOP('',(#115));
#653=EDGE_LOOP('',(#116,#117,#118));
#654=EDGE_LOOP('',(#119,#120,#121,#122));
#655=EDGE_LOOP('',(#123));
#656=EDGE_LOOP('',(#124));
#657=EDGE_LOOP('',(#125,#126,#127,#128));
#658=EDGE_LOOP('',(#129,#130,#131));
#659=EDGE_LOOP('',(#132));
#660=EDGE_LOOP('',(#133,#134,#135,#136,#137,#138));
#661=EDGE_LOOP('',(#139,#140,#141,#142));
#662=EDGE_LOOP('',(#143,#144,#145,#146));
#663=EDGE_LOOP('',(#147,#148,#149,#150));
#664=EDGE_LOOP('',(#151,#152,#153,#154));
#665=EDGE_LOOP('',(#155,#156,#157,#158));
#666=EDGE_LOOP('',(#159,#160,#161,#162));
#667=EDGE_LOOP('',(#163,#164,#165,#166));
#668=EDGE_LOOP('',(#167,#168,#169,#170));
#669=EDGE_LOOP('',(#171,#172,#173,#174,#175,#176,#177));
#670=EDGE_LOOP('',(#178,#179,#180,#181,#182,#183,#184));
#671=EDGE_LOOP('',(#185,#186,#187,#188,#189,#190,#191));
#672=EDGE_LOOP('',(#192,#193,#194,#195,#196,#197,#198));
#673=EDGE_LOOP('',(#199,#200,#201,#202));
#674=EDGE_LOOP('',(#203,#204,#205,#206));
#675=EDGE_LOOP('',(#207,#208,#209,#210));
#676=EDGE_LOOP('',(#211,#212,#213,#214,#215,#216,#217,#218,#219,#220,#221,
#222,#223,#224));
#677=EDGE_LOOP('',(#225,#226,#227,#228));
#678=EDGE_LOOP('',(#229,#230,#231,#232));
#679=EDGE_LOOP('',(#233,#234,#235,#236,#237,#238));
#680=EDGE_LOOP('',(#239,#240,#241,#242,#243,#244));
#681=EDGE_LOOP('',(#245,#246,#247,#248));
#682=EDGE_LOOP('',(#249,#250,#251,#252));
#683=EDGE_LOOP('',(#253,#254,#255,#256));
#684=EDGE_LOOP('',(#257,#258,#259,#260));
#685=EDGE_LOOP('',(#261,#262,#263,#264));
#686=EDGE_LOOP('',(#265,#266,#267,#268));
#687=EDGE_LOOP('',(#269,#270,#271,#272));
#688=EDGE_LOOP('',(#273,#274,#275,#276));
#689=EDGE_LOOP('',(#277,#278,#279,#280));
#690=EDGE_LOOP('',(#281,#282,#283,#284));
#691=EDGE_LOOP('',(#285,#286,#287,#288));
#692=EDGE_LOOP('',(#289,#290,#291,#292));
#693=EDGE_LOOP('',(#293,#294,#295,#296));
#694=EDGE_LOOP('',(#297,#298,#299,#300));
#695=EDGE_LOOP('',(#301,#302,#303,#304));
#696=EDGE_LOOP('',(#305,#306,#307,#308));
#697=EDGE_LOOP('',(#309,#310,#311,#312));
#698=EDGE_LOOP('',(#313,#314,#315,#316));
#699=FACE_BOUND('',#648,.T.);
#700=FACE_BOUND('',#649,.T.);
#701=FACE_BOUND('',#650,.T.);
#702=FACE_BOUND('',#651,.T.);
#703=FACE_BOUND('',#652,.T.);
#704=FACE_BOUND('',#653,.T.);
#705=FACE_BOUND('',#654,.T.);
#706=FACE_BOUND('',#655,.T.);
#707=FACE_BOUND('',#656,.T.);
#708=FACE_BOUND('',#657,.T.);
#709=FACE_BOUND('',#658,.T.);
#710=FACE_BOUND('',#659,.T.);
#711=FACE_BOUND('',#660,.T.);
#712=FACE_BOUND('',#661,.T.);
#713=FACE_BOUND('',#662,.T.);
#714=FACE_BOUND('',#663,.T.);
#715=FACE_BOUND('',#664,.T.);
#716=FACE_BOUND('',#665,.T.);
#717=FACE_BOUND('',#666,.T.);
#718=FACE_BOUND('',#667,.T.);
#719=FACE_BOUND('',#668,.T.);
#720=FACE_BOUND('',#669,.T.);
#721=FACE_BOUND('',#670,.T.);
#722=FACE_BOUND('',#671,.T.);
#723=FACE_BOUND('',#672,.T.);
#724=FACE_BOUND('',#673,.T.);
#725=FACE_BOUND('',#674,.T.);
#726=FACE_BOUND('',#675,.T.);
#727=FACE_BOUND('',#676,.T.);
#728=FACE_BOUND('',#677,.T.);
#729=FACE_BOUND('',#678,.T.);
#730=FACE_BOUND('',#679,.T.);
#731=FACE_BOUND('',#680,.T.);
#732=FACE_BOUND('',#681,.T.);
#733=FACE_BOUND('',#682,.T.);
#734=FACE_BOUND('',#683,.T.);
#735=FACE_BOUND('',#684,.T.);
#736=FACE_BOUND('',#685,.T.);
#737=FACE_BOUND('',#686,.T.);
#738=FACE_BOUND('',#687,.T.);
#739=FACE_BOUND('',#688,.T.);
#740=FACE_BOUND('',#689,.T.);
#741=FACE_BOUND('',#690,.T.);
#742=FACE_BOUND('',#691,.T.);
#743=FACE_BOUND('',#692,.T.);
#744=FACE_BOUND('',#693,.T.);
#745=FACE_BOUND('',#694,.T.);
#746=FACE_BOUND('',#695,.T.);
#747=FACE_BOUND('',#696,.T.);
#748=FACE_BOUND('',#697,.T.);
#749=FACE_BOUND('',#698,.T.);
#750=PLANE('',#828);
#751=PLANE('',#831);
#752=PLANE('',#832);
#753=PLANE('',#844);
#754=PLANE('',#847);
#755=PLANE('',#850);
#756=PLANE('',#851);
#757=PLANE('',#852);
#758=PLANE('',#853);
#759=PLANE('',#854);
#760=PLANE('',#855);
#761=PLANE('',#856);
#762=PLANE('',#857);
#763=PLANE('',#858);
#764=PLANE('',#861);
#765=PLANE('',#868);
#766=PLANE('',#869);
#767=PLANE('',#870);
#768=PLANE('',#871);
#769=PLANE('',#878);
#770=PLANE('',#880);
#771=ADVANCED_FACE('',(#699),#750,.F.);
#772=ADVANCED_FACE('',(#700,#701,#702),#751,.T.);
#773=ADVANCED_FACE('',(#703,#704),#752,.F.);
#774=ADVANCED_FACE('',(#705),#21,.T.);
#775=ADVANCED_FACE('',(#706,#707),#22,.F.);
#776=ADVANCED_FACE('',(#708),#23,.T.);
#777=ADVANCED_FACE('',(#709,#710),#753,.T.);
#778=ADVANCED_FACE('',(#711),#754,.T.);
#779=ADVANCED_FACE('',(#712),#755,.T.);
#780=ADVANCED_FACE('',(#713),#756,.F.);
#781=ADVANCED_FACE('',(#714),#757,.F.);
#782=ADVANCED_FACE('',(#715),#758,.F.);
#783=ADVANCED_FACE('',(#716),#759,.T.);
#784=ADVANCED_FACE('',(#717),#760,.T.);
#785=ADVANCED_FACE('',(#718),#761,.T.);
#786=ADVANCED_FACE('',(#719),#762,.F.);
#787=ADVANCED_FACE('',(#720),#763,.T.);
#788=ADVANCED_FACE('',(#721),#764,.T.);
#789=ADVANCED_FACE('',(#722),#24,.T.);
#790=ADVANCED_FACE('',(#723),#25,.T.);
#791=ADVANCED_FACE('',(#724),#765,.F.);
#792=ADVANCED_FACE('',(#725),#766,.T.);
#793=ADVANCED_FACE('',(#726),#767,.F.);
#794=ADVANCED_FACE('',(#727,#728,#729),#768,.T.);
#795=ADVANCED_FACE('',(#730),#769,.F.);
#796=ADVANCED_FACE('',(#731),#770,.T.);
#797=ADVANCED_FACE('',(#732),#26,.F.);
#798=ADVANCED_FACE('',(#733),#27,.F.);
#799=ADVANCED_FACE('',(#734),#12,.F.);
#800=ADVANCED_FACE('',(#735),#28,.F.);
#801=ADVANCED_FACE('',(#736),#13,.F.);
#802=ADVANCED_FACE('',(#737),#29,.T.);
#803=ADVANCED_FACE('',(#738),#14,.F.);
#804=ADVANCED_FACE('',(#739),#30,.F.);
#805=ADVANCED_FACE('',(#740),#15,.F.);
#806=ADVANCED_FACE('',(#741),#31,.T.);
#807=ADVANCED_FACE('',(#742),#32,.T.);
#808=ADVANCED_FACE('',(#743),#16,.T.);
#809=ADVANCED_FACE('',(#744),#33,.T.);
#810=ADVANCED_FACE('',(#745),#17,.T.);
#811=ADVANCED_FACE('',(#746),#34,.T.);
#812=ADVANCED_FACE('',(#747),#18,.T.);
#813=ADVANCED_FACE('',(#748),#35,.T.);
#814=ADVANCED_FACE('',(#749),#19,.T.);
#815=CLOSED_SHELL('',(#771,#772,#773,#774,#775,#776,#777,#778,#779,#780,
#781,#782,#783,#784,#785,#786,#787,#788,#789,#790,#791,#792,#793,#794,#795,
#796,#797,#798,#799,#800,#801,#802,#803,#804,#805,#806,#807,#808,#809,#810,
#811,#812,#813,#814));
#816=STYLED_ITEM('',(#817),#824);
#817=PRESENTATION_STYLE_ASSIGNMENT((#818));
#818=SURFACE_STYLE_USAGE(.BOTH.,#819);
#819=SURFACE_SIDE_STYLE('',(#820));
#820=SURFACE_STYLE_FILL_AREA(#821);
#821=FILL_AREA_STYLE('',(#822));
#822=FILL_AREA_STYLE_COLOUR('',#823);
#823=COLOUR_RGB('',0.231372549019608,0.380392156862745,0.705882352941177);
#824=MANIFOLD_SOLID_BREP('pan  end stop mount',#815);
#825=SHAPE_DEFINITION_REPRESENTATION(#1437,#826);
#826=SHAPE_REPRESENTATION('pan  end stop mount',(#827),#1432);
#827=AXIS2_PLACEMENT_3D('',#1127,#904,#905);
#828=AXIS2_PLACEMENT_3D('',#1128,#906,#907);
#829=AXIS2_PLACEMENT_3D('',#1136,#911,#912);
#830=AXIS2_PLACEMENT_3D('',#1148,#918,#919);
#831=AXIS2_PLACEMENT_3D('',#1149,#920,#921);
#832=AXIS2_PLACEMENT_3D('',#1218,#938,#939);
#833=AXIS2_PLACEMENT_3D('',#1219,#940,#941);
#834=AXIS2_PLACEMENT_3D('',#1221,#942,#943);
#835=AXIS2_PLACEMENT_3D('',#1223,#944,#945);
#836=AXIS2_PLACEMENT_3D('',#1224,#946,#947);
#837=AXIS2_PLACEMENT_3D('',#1228,#949,#950);
#838=AXIS2_PLACEMENT_3D('',#1229,#951,#952);
#839=AXIS2_PLACEMENT_3D('',#1230,#953,#954);
#840=AXIS2_PLACEMENT_3D('',#1231,#955,#956);
#841=AXIS2_PLACEMENT_3D('',#1233,#957,#958);
#842=AXIS2_PLACEMENT_3D('',#1234,#959,#960);
#843=AXIS2_PLACEMENT_3D('',#1238,#962,#963);
#844=AXIS2_PLACEMENT_3D('',#1239,#964,#965);
#845=AXIS2_PLACEMENT_3D('',#1240,#966,#967);
#846=AXIS2_PLACEMENT_3D('',#1245,#969,#970);
#847=AXIS2_PLACEMENT_3D('',#1246,#971,#972);
#848=AXIS2_PLACEMENT_3D('',#1247,#973,#974);
#849=AXIS2_PLACEMENT_3D('',#1255,#978,#979);
#850=AXIS2_PLACEMENT_3D('',#1256,#980,#981);
#851=AXIS2_PLACEMENT_3D('',#1262,#985,#986);
#852=AXIS2_PLACEMENT_3D('',#1266,#989,#990);
#853=AXIS2_PLACEMENT_3D('',#1270,#993,#994);
#854=AXIS2_PLACEMENT_3D('',#1272,#996,#997);
#855=AXIS2_PLACEMENT_3D('',#1278,#1001,#1002);
#856=AXIS2_PLACEMENT_3D('',#1282,#1005,#1006);
#857=AXIS2_PLACEMENT_3D('',#1286,#1009,#1010);
#858=AXIS2_PLACEMENT_3D('',#1288,#1012,#1013);
#859=AXIS2_PLACEMENT_3D('',#1289,#1014,#1015);
#860=AXIS2_PLACEMENT_3D('',#1299,#1020,#1021);
#861=AXIS2_PLACEMENT_3D('',#1300,#1022,#1023);
#862=AXIS2_PLACEMENT_3D('',#1304,#1025,#1026);
#863=AXIS2_PLACEMENT_3D('',#1305,#1027,#1028);
#864=AXIS2_PLACEMENT_3D('',#1312,#1032,#1033);
#865=AXIS2_PLACEMENT_3D('',#1313,#1034,#1035);
#866=AXIS2_PLACEMENT_3D('',#1320,#1037,#1038);
#867=AXIS2_PLACEMENT_3D('',#1321,#1039,#1040);
#868=AXIS2_PLACEMENT_3D('',#1327,#1041,#1042);
#869=AXIS2_PLACEMENT_3D('',#1336,#1047,#1048);
#870=AXIS2_PLACEMENT_3D('',#1342,#1052,#1053);
#871=AXIS2_PLACEMENT_3D('',#1348,#1057,#1058);
#872=AXIS2_PLACEMENT_3D('',#1351,#1060,#1061);
#873=AXIS2_PLACEMENT_3D('',#1352,#1062,#1063);
#874=AXIS2_PLACEMENT_3D('',#1353,#1064,#1065);
#875=AXIS2_PLACEMENT_3D('',#1354,#1066,#1067);
#876=AXIS2_PLACEMENT_3D('',#1355,#1068,#1069);
#877=AXIS2_PLACEMENT_3D('',#1356,#1070,#1071);
#878=AXIS2_PLACEMENT_3D('',#1359,#1073,#1074);
#879=AXIS2_PLACEMENT_3D('',#1360,#1075,#1076);
#880=AXIS2_PLACEMENT_3D('',#1368,#1078,#1079);
#881=AXIS2_PLACEMENT_3D('',#1369,#1080,#1081);
#882=AXIS2_PLACEMENT_3D('',#1377,#1083,#1084);
#883=AXIS2_PLACEMENT_3D('',#1378,#1085,#1086);
#884=AXIS2_PLACEMENT_3D('',#1379,#1087,#1088);
#885=AXIS2_PLACEMENT_3D('',#1386,#1089,#1090);
#886=AXIS2_PLACEMENT_3D('',#1387,#1091,#1092);
#887=AXIS2_PLACEMENT_3D('',#1388,#1093,#1094);
#888=AXIS2_PLACEMENT_3D('',#1389,#1095,#1096);
#889=AXIS2_PLACEMENT_3D('',#1390,#1097,#1098);
#890=AXIS2_PLACEMENT_3D('',#1391,#1099,#1100);
#891=AXIS2_PLACEMENT_3D('',#1398,#1101,#1102);
#892=AXIS2_PLACEMENT_3D('',#1399,#1103,#1104);
#893=AXIS2_PLACEMENT_3D('',#1400,#1105,#1106);
#894=AXIS2_PLACEMENT_3D('',#1401,#1107,#1108);
#895=AXIS2_PLACEMENT_3D('',#1402,#1109,#1110);
#896=AXIS2_PLACEMENT_3D('',#1403,#1111,#1112);
#897=AXIS2_PLACEMENT_3D('',#1409,#1113,#1114);
#898=AXIS2_PLACEMENT_3D('',#1410,#1115,#1116);
#899=AXIS2_PLACEMENT_3D('',#1416,#1117,#1118);
#900=AXIS2_PLACEMENT_3D('',#1417,#1119,#1120);
#901=AXIS2_PLACEMENT_3D('',#1423,#1121,#1122);
#902=AXIS2_PLACEMENT_3D('',#1424,#1123,#1124);
#903=AXIS2_PLACEMENT_3D('',#1430,#1125,#1126);
#904=DIRECTION('',(0.,0.,1.));
#905=DIRECTION('',(1.,0.,0.));
#906=DIRECTION('',(-4.60880572864278E-16,1.,0.));
#907=DIRECTION('',(-1.,-4.60880572864278E-16,0.));
#908=DIRECTION('',(4.16914635203469E-5,1.92147855908076E-20,0.999999999130911));
#909=DIRECTION('',(1.,4.60880572864278E-16,0.));
#910=DIRECTION('',(-3.96508223080413E-16,-1.82742936998697E-31,1.));
#911=DIRECTION('',(-4.60880572864278E-16,1.,0.));
#912=DIRECTION('',(-1.,-4.60880572864278E-16,0.));
#913=DIRECTION('',(-1.,-4.60880572864278E-16,0.));
#914=DIRECTION('',(0.,0.,-1.));
#915=DIRECTION('',(1.,4.60880572864278E-16,0.));
#916=DIRECTION('',(0.,0.,-1.));
#917=DIRECTION('',(1.,4.60880572864278E-16,0.));
#918=DIRECTION('',(-4.60880572864278E-16,1.,0.));
#919=DIRECTION('',(-1.,-4.60880572864278E-16,0.));
#920=DIRECTION('',(0.,1.,0.));
#921=DIRECTION('',(0.,0.,1.));
#922=DIRECTION('',(1.,0.,0.));
#923=DIRECTION('',(1.73472347597681E-16,0.,-1.));
#924=DIRECTION('',(-1.,0.,0.));
#925=DIRECTION('',(8.67361737988404E-17,0.,-1.));
#926=DIRECTION('',(0.,0.,-1.));
#927=DIRECTION('',(-1.,0.,0.));
#928=DIRECTION('',(0.,0.,-1.));
#929=DIRECTION('',(1.,0.,0.));
#930=DIRECTION('',(0.,0.,-1.));
#931=DIRECTION('',(1.,0.,0.));
#932=DIRECTION('',(0.,0.,-1.));
#933=DIRECTION('',(1.,0.,0.));
#934=DIRECTION('',(0.,0.,-1.));
#935=DIRECTION('',(1.,0.,0.));
#936=DIRECTION('',(0.,0.,-1.));
#937=DIRECTION('',(1.,0.,0.));
#938=DIRECTION('',(0.,0.,1.));
#939=DIRECTION('',(1.,0.,0.));
#940=DIRECTION('',(0.,0.,1.));
#941=DIRECTION('',(1.,0.,0.));
#942=DIRECTION('',(0.,0.,-1.));
#943=DIRECTION('',(-1.,0.,0.));
#944=DIRECTION('',(0.,0.,-1.));
#945=DIRECTION('',(-1.,0.,0.));
#946=DIRECTION('',(0.,0.,-1.));
#947=DIRECTION('',(-1.,0.,0.));
#948=DIRECTION('',(0.,0.,-1.));
#949=DIRECTION('',(0.,0.,1.));
#950=DIRECTION('',(1.,0.,0.));
#951=DIRECTION('',(0.,0.,-1.));
#952=DIRECTION('',(-1.,0.,0.));
#953=DIRECTION('',(0.,0.,-1.));
#954=DIRECTION('',(-1.,0.,0.));
#955=DIRECTION('',(0.,0.,1.));
#956=DIRECTION('',(1.,0.,0.));
#957=DIRECTION('',(0.,0.,-1.));
#958=DIRECTION('',(-1.,0.,0.));
#959=DIRECTION('',(0.,0.,1.));
#960=DIRECTION('',(1.,0.,0.));
#961=DIRECTION('',(0.,0.,-1.));
#962=DIRECTION('',(0.,0.,-1.));
#963=DIRECTION('',(-1.,0.,0.));
#964=DIRECTION('',(0.,0.,1.));
#965=DIRECTION('',(1.,0.,0.));
#966=DIRECTION('',(0.,0.,1.));
#967=DIRECTION('',(1.,0.,0.));
#968=DIRECTION('',(1.,4.60880572864278E-16,0.));
#969=DIRECTION('',(0.,0.,1.));
#970=DIRECTION('',(1.,0.,0.));
#971=DIRECTION('',(0.,0.,1.));
#972=DIRECTION('',(1.,0.,0.));
#973=DIRECTION('',(0.,0.,1.));
#974=DIRECTION('',(1.,0.,0.));
#975=DIRECTION('',(-4.60880572864278E-16,1.,0.));
#976=DIRECTION('',(1.,4.60880572864278E-16,0.));
#977=DIRECTION('',(-4.60880572864278E-16,1.,0.));
#978=DIRECTION('',(0.,0.,1.));
#979=DIRECTION('',(1.,0.,0.));
#980=DIRECTION('',(1.,4.60880572864278E-16,1.73472347597681E-16));
#981=DIRECTION('',(-4.60880572864278E-16,1.,0.));
#982=DIRECTION('',(4.60880572864278E-16,-1.,0.));
#983=DIRECTION('',(-1.73472347597681E-16,-7.99500349369303E-32,1.));
#984=DIRECTION('',(4.60880572864278E-16,-1.,0.));
#985=DIRECTION('',(0.,0.,-1.));
#986=DIRECTION('',(-1.,0.,0.));
#987=DIRECTION('',(1.,4.60880572864278E-16,0.));
#988=DIRECTION('',(4.60880572864278E-16,-1.,0.));
#989=DIRECTION('',(1.,4.60880572864278E-16,8.67361737988404E-17));
#990=DIRECTION('',(-4.60880572864278E-16,1.,0.));
#991=DIRECTION('',(-8.67361737988404E-17,-3.99750174684651E-32,1.));
#992=DIRECTION('',(4.60880572864278E-16,-1.,0.));
#993=DIRECTION('',(0.,0.,1.));
#994=DIRECTION('',(1.,0.,0.));
#995=DIRECTION('',(1.,4.60880572864278E-16,0.));
#996=DIRECTION('',(0.,0.,-1.));
#997=DIRECTION('',(-1.,0.,0.));
#998=DIRECTION('',(4.60880572864278E-16,-1.,0.));
#999=DIRECTION('',(1.,4.60880572864278E-16,0.));
#1000=DIRECTION('',(4.60880572864278E-16,-1.,0.));
#1001=DIRECTION('',(1.,4.60880572864278E-16,0.));
#1002=DIRECTION('',(-4.60880572864278E-16,1.,0.));
#1003=DIRECTION('',(0.,0.,1.));
#1004=DIRECTION('',(4.60880572864278E-16,-1.,0.));
#1005=DIRECTION('',(0.,0.,1.));
#1006=DIRECTION('',(1.,0.,0.));
#1007=DIRECTION('',(-1.,-4.60880572864278E-16,0.));
#1008=DIRECTION('',(4.60880572864278E-16,-1.,0.));
#1009=DIRECTION('',(1.,4.60880572864278E-16,0.));
#1010=DIRECTION('',(-4.60880572864278E-16,1.,0.));
#1011=DIRECTION('',(0.,0.,1.));
#1012=DIRECTION('',(0.,0.,-1.));
#1013=DIRECTION('',(1.,0.,0.));
#1014=DIRECTION('',(0.,0.,-1.));
#1015=DIRECTION('',(-1.,0.,0.));
#1016=DIRECTION('',(-4.60880572864278E-16,1.,0.));
#1017=DIRECTION('',(1.,4.60880572864278E-16,0.));
#1018=DIRECTION('',(-4.60880572864278E-16,1.,0.));
#1019=DIRECTION('',(1.,4.60880572864278E-16,0.));
#1020=DIRECTION('',(0.,0.,-1.));
#1021=DIRECTION('',(-1.,0.,0.));
#1022=DIRECTION('',(0.,0.,-1.));
#1023=DIRECTION('',(1.,0.,0.));
#1024=DIRECTION('',(-4.60880572864278E-16,1.,0.));
#1025=DIRECTION('',(0.,0.,-1.));
#1026=DIRECTION('',(-1.,0.,0.));
#1027=DIRECTION('',(0.,0.,-1.));
#1028=DIRECTION('',(-1.,0.,0.));
#1029=DIRECTION('',(-1.,-4.60880572864278E-16,0.));
#1030=DIRECTION('',(-4.60880572864278E-16,1.,0.));
#1031=DIRECTION('',(-1.,-4.60880572864278E-16,0.));
#1032=DIRECTION('',(0.,0.,-1.));
#1033=DIRECTION('',(-1.,0.,0.));
#1034=DIRECTION('',(0.,0.,-1.));
#1035=DIRECTION('',(-1.,0.,0.));
#1036=DIRECTION('',(0.,0.,-1.));
#1037=DIRECTION('',(0.,0.,-1.));
#1038=DIRECTION('',(-1.,0.,0.));
#1039=DIRECTION('',(0.,0.,-1.));
#1040=DIRECTION('',(-1.,0.,0.));
#1041=DIRECTION('',(0.,0.,1.));
#1042=DIRECTION('',(1.,0.,0.));
#1043=DIRECTION('',(4.60880572864278E-16,-1.,0.));
#1044=DIRECTION('',(1.,4.60880572864278E-16,0.));
#1045=DIRECTION('',(-4.60880572864278E-16,1.,0.));
#1046=DIRECTION('',(1.,4.60880572864278E-16,0.));
#1047=DIRECTION('',(1.,4.60880572864278E-16,0.));
#1048=DIRECTION('',(-4.60880572864278E-16,1.,0.));
#1049=DIRECTION('',(-4.60880572864278E-16,1.,0.));
#1050=DIRECTION('',(0.,0.,-1.));
#1051=DIRECTION('',(-4.60880572864278E-16,1.,0.));
#1052=DIRECTION('',(1.,4.60880572864278E-16,0.));
#1053=DIRECTION('',(-4.60880572864278E-16,1.,0.));
#1054=DIRECTION('',(0.,0.,-1.));
#1055=DIRECTION('',(-4.60880572864278E-16,1.,0.));
#1056=DIRECTION('',(-4.60880572864278E-16,1.,0.));
#1057=DIRECTION('',(4.60880572864278E-16,-1.,0.));
#1058=DIRECTION('',(1.,4.60880572864278E-16,0.));
#1059=DIRECTION('',(4.16914635203469E-5,1.92147855908076E-20,0.999999999130911));
#1060=DIRECTION('',(4.60880572864278E-16,-1.,0.));
#1061=DIRECTION('',(1.,4.60880572864278E-16,0.));
#1062=DIRECTION('',(4.60880572864278E-16,-1.,0.));
#1063=DIRECTION('',(1.,4.60880572864278E-16,0.));
#1064=DIRECTION('',(4.60880572864278E-16,-1.,0.));
#1065=DIRECTION('',(1.,4.60880572864278E-16,0.));
#1066=DIRECTION('',(4.60880572864278E-16,-1.,0.));
#1067=DIRECTION('',(1.,4.60880572864278E-16,0.));
#1068=DIRECTION('',(4.60880572864278E-16,-1.,0.));
#1069=DIRECTION('',(1.,4.60880572864278E-16,0.));
#1070=DIRECTION('',(4.60880572864278E-16,-1.,0.));
#1071=DIRECTION('',(1.,4.60880572864278E-16,0.));
#1072=DIRECTION('',(-3.96508223080413E-16,-1.82742936998697E-31,1.));
#1073=DIRECTION('',(-1.,-4.60880572864278E-16,-3.96508223080413E-16));
#1074=DIRECTION('',(4.60880572864278E-16,-1.,0.));
#1075=DIRECTION('',(-1.,-4.60880572864278E-16,-3.96508223080413E-16));
#1076=DIRECTION('',(4.60880572864278E-16,-1.,0.));
#1077=DIRECTION('',(-4.60880572864278E-16,1.,0.));
#1078=DIRECTION('',(-0.999999999130911,-4.60880572463732E-16,4.16914635203469E-5));
#1079=DIRECTION('',(4.16914635203469E-5,0.,0.999999999130911));
#1080=DIRECTION('',(-0.999999999130911,-4.60880572463732E-16,4.16914635203469E-5));
#1081=DIRECTION('',(-4.16914635203469E-5,-1.92147879559828E-20,-0.999999999130911));
#1082=DIRECTION('',(-4.60880572864278E-16,1.,-6.01853107621011E-36));
#1083=DIRECTION('',(1.,4.60880572864278E-16,0.));
#1084=DIRECTION('',(-4.60880572864278E-16,1.,0.));
#1085=DIRECTION('',(-1.,-4.60880572864278E-16,0.));
#1086=DIRECTION('',(4.60880572864278E-16,-1.,0.));
#1087=DIRECTION('',(0.,0.,-1.));
#1088=DIRECTION('',(-1.,0.,0.));
#1089=DIRECTION('',(1.,4.60880572864278E-16,0.));
#1090=DIRECTION('',(-4.60880572864278E-16,1.,0.));
#1091=DIRECTION('',(1.,0.,0.));
#1092=DIRECTION('',(0.,0.,-1.));
#1093=DIRECTION('',(-4.60880572864278E-16,1.,0.));
#1094=DIRECTION('',(-1.,-4.60880572864278E-16,0.));
#1095=DIRECTION('',(-4.60880572864278E-16,1.,0.));
#1096=DIRECTION('',(-1.,-4.60880572864278E-16,0.));
#1097=DIRECTION('',(-4.60880572864278E-16,1.,0.));
#1098=DIRECTION('',(-1.,-4.60880572864278E-16,0.));
#1099=DIRECTION('',(0.,0.,-1.));
#1100=DIRECTION('',(-1.,0.,0.));
#1101=DIRECTION('',(-1.,-4.60880572864278E-16,0.));
#1102=DIRECTION('',(4.60880572864278E-16,-1.,0.));
#1103=DIRECTION('',(-1.,0.,0.));
#1104=DIRECTION('',(0.,0.,1.));
#1105=DIRECTION('',(-4.60880572864278E-16,1.,0.));
#1106=DIRECTION('',(-1.,-4.60880572864278E-16,0.));
#1107=DIRECTION('',(-4.60880572864278E-16,1.,0.));
#1108=DIRECTION('',(-1.,-4.60880572864278E-16,0.));
#1109=DIRECTION('',(4.60880572864278E-16,-1.,0.));
#1110=DIRECTION('',(1.,4.60880572864278E-16,0.));
#1111=DIRECTION('',(4.60880572864278E-16,-1.,0.));
#1112=DIRECTION('',(1.,4.60880572864278E-16,0.));
#1113=DIRECTION('',(0.,0.,1.));
#1114=DIRECTION('',(1.,0.,0.));
#1115=DIRECTION('',(-4.60880572864278E-16,1.,0.));
#1116=DIRECTION('',(-1.,-4.60880572864278E-16,0.));
#1117=DIRECTION('',(0.,0.,1.));
#1118=DIRECTION('',(1.,0.,0.));
#1119=DIRECTION('',(-4.60880572864278E-16,1.,0.));
#1120=DIRECTION('',(-1.,-4.60880572864278E-16,0.));
#1121=DIRECTION('',(0.,0.,-1.));
#1122=DIRECTION('',(-1.,0.,0.));
#1123=DIRECTION('',(4.60880572864278E-16,-1.,0.));
#1124=DIRECTION('',(1.,4.60880572864278E-16,0.));
#1125=DIRECTION('',(0.,0.,-1.));
#1126=DIRECTION('',(-1.,0.,0.));
#1127=CARTESIAN_POINT('',(0.,0.,0.));
#1128=CARTESIAN_POINT('',(-0.0172925475124841,-0.122270062726701,0.0843333333333333));
#1129=CARTESIAN_POINT('',(-0.0102429748438585,-0.122270062726701,0.0740833333333333));
#1130=CARTESIAN_POINT('',(-0.0102432257392298,-0.122270062726701,0.0680654258308604));
#1131=CARTESIAN_POINT('',(-0.0102426517350159,-0.122270062726701,0.0818333333333333));
#1132=CARTESIAN_POINT('',(-0.0243425475124841,-0.122270062726701,0.0818333333333333));
#1133=CARTESIAN_POINT('',(-0.0243425475124841,-0.122270062726701,0.0818333333333333));
#1134=CARTESIAN_POINT('',(-0.0243425475124841,-0.122270062726701,0.0740833333333333));
#1135=CARTESIAN_POINT('',(-0.0243425475124841,-0.122270062726701,0.0680653841409022));
#1136=CARTESIAN_POINT('',(-0.0253425475124841,-0.122270062726701,0.0663333333333333));
#1137=CARTESIAN_POINT('',(-0.0253425475124841,-0.122270062726701,0.0643333333333333));
#1138=CARTESIAN_POINT('',(-0.0172925475124841,-0.122270062726701,0.0643333333333333));
#1139=CARTESIAN_POINT('',(-0.0292529614169369,-0.122270062726701,0.0643333333333333));
#1140=CARTESIAN_POINT('',(-0.0292529614169369,-0.122270062726701,0.0653333333333333));
#1141=CARTESIAN_POINT('',(-0.0292529614169369,-0.122270062726701,0.0213333333333333));
#1142=CARTESIAN_POINT('',(-0.0172925475124841,-0.122270062726701,0.0213333333333333));
#1143=CARTESIAN_POINT('',(-0.00533292574583851,-0.122270062726701,0.0213333333333333));
#1144=CARTESIAN_POINT('',(-0.00533292574583851,-0.122270062726701,0.0653333333333333));
#1145=CARTESIAN_POINT('',(-0.00533292574583851,-0.122270062726701,0.0643333333333333));
#1146=CARTESIAN_POINT('',(-0.0172925475124841,-0.122270062726701,0.0643333333333333));
#1147=CARTESIAN_POINT('',(-0.00924329795183197,-0.122270062726701,0.0643333333333333));
#1148=CARTESIAN_POINT('',(-0.00924329795183197,-0.122270062726701,0.0663333333333333));
#1149=CARTESIAN_POINT('',(-0.0101591220014784,-0.119770062726701,0.0843333333333333));
#1150=CARTESIAN_POINT('',(-0.0101591220014784,-0.119770062726701,0.0828333333333333));
#1151=CARTESIAN_POINT('',(-0.00874254751248414,-0.119770062726701,0.0828333333333333));
#1152=CARTESIAN_POINT('',(-0.00584254751248413,-0.119770062726701,0.0828333333333333));
#1153=CARTESIAN_POINT('',(-0.00874254751248414,-0.119770062726701,0.0843333333333333));
#1154=CARTESIAN_POINT('',(-0.00874254751248413,-0.119770062726701,0.0728333333333334));
#1155=CARTESIAN_POINT('',(-0.0101591220014784,-0.119770062726701,0.0728333333333334));
#1156=CARTESIAN_POINT('',(-0.00584254751248413,-0.119770062726701,0.0728333333333334));
#1157=CARTESIAN_POINT('',(-0.00584254751248413,-0.119770062726701,0.0843333333333333));
#1158=CARTESIAN_POINT('',(-0.0258425475124841,-0.119770062726701,0.0843333333333333));
#1159=CARTESIAN_POINT('',(-0.0258425475124841,-0.119770062726701,0.0828333333333333));
#1160=CARTESIAN_POINT('',(-0.0258425475124841,-0.119770062726701,0.0728333333333334));
#1161=CARTESIAN_POINT('',(-0.0101591220014784,-0.119770062726701,0.0828333333333333));
#1162=CARTESIAN_POINT('',(-0.0287425475124841,-0.119770062726701,0.0828333333333333));
#1163=CARTESIAN_POINT('',(-0.0287425475124841,-0.119770062726701,0.0843333333333333));
#1164=CARTESIAN_POINT('',(-0.0287425475124841,-0.119770062726701,0.0728333333333334));
#1165=CARTESIAN_POINT('',(-0.0101591220014784,-0.119770062726701,0.0728333333333334));
#1166=CARTESIAN_POINT('',(-0.03155340203905,-0.119770062726701,0.0843333333333333));
#1167=CARTESIAN_POINT('',(-0.03155340203905,-0.119770062726701,0.0833333333333333));
#1168=CARTESIAN_POINT('',(-0.03155340203905,-0.119770062726701,0.0663333333333333));
#1169=CARTESIAN_POINT('',(-0.03155340203905,-0.119770062726701,0.0833333333333333));
#1170=CARTESIAN_POINT('',(-0.03155340203905,-0.119770062726701,0.0836096220503171));
#1171=CARTESIAN_POINT('',(-0.0312906455591963,-0.119770062726701,0.0841402507930503));
#1172=CARTESIAN_POINT('',(-0.0307400881194654,-0.119770062726701,0.0843333333333333));
#1173=CARTESIAN_POINT('',(-0.0304644068211593,-0.119770062726701,0.0843333333333333));
#1174=CARTESIAN_POINT('',(-0.0304644068211593,-0.119770062726701,0.0843333333333333));
#1175=CARTESIAN_POINT('',(-0.0101591220014784,-0.119770062726701,0.0843333333333333));
#1176=CARTESIAN_POINT('',(-0.00412385448788095,-0.119770062726701,0.0843333333333333));
#1177=CARTESIAN_POINT('',(-0.00412385448788095,-0.119770062726701,0.0843333333333333));
#1178=CARTESIAN_POINT('',(-0.00384775833375083,-0.119770062726701,0.0843333333333333));
#1179=CARTESIAN_POINT('',(-0.00329884975472793,-0.119770062726701,0.0841412752846007));
#1180=CARTESIAN_POINT('',(-0.00303434150290265,-0.119770062726701,0.0836102191449369));
#1181=CARTESIAN_POINT('',(-0.00303434150290265,-0.119770062726701,0.0833333333333333));
#1182=CARTESIAN_POINT('',(-0.00303434150290269,-0.119770062726701,0.0833333333333333));
#1183=CARTESIAN_POINT('',(-0.00303434150290269,-0.119770062726701,0.0843333333333333));
#1184=CARTESIAN_POINT('',(-0.00303434150290269,-0.119770062726701,0.0663333333333333));
#1185=CARTESIAN_POINT('',(-0.00303434150290269,-0.119770062726701,0.0663333333333333));
#1186=CARTESIAN_POINT('',(-0.00303434150290269,-0.119770062726701,0.0660569725894563));
#1187=CARTESIAN_POINT('',(-0.00329737206594583,-0.119770062726701,0.0655262761589133));
#1188=CARTESIAN_POINT('',(-0.00384810448856889,-0.119770062726701,0.0653333333333333));
#1189=CARTESIAN_POINT('',(-0.00412385448788095,-0.119770062726701,0.0653333333333333));
#1190=CARTESIAN_POINT('',(-0.00412385448788095,-0.119770062726701,0.0653333333333333));
#1191=CARTESIAN_POINT('',(-0.0172856555963246,-0.119770062726701,0.0653333333333333));
#1192=CARTESIAN_POINT('',(-0.00522887448143722,-0.119770062726701,0.0653333333333333));
#1193=CARTESIAN_POINT('',(-0.00522887448143722,-0.119770062726701,0.0653333333333333));
#1194=CARTESIAN_POINT('',(-0.00550956818852891,-0.119770062726701,0.0653333333333333));
#1195=CARTESIAN_POINT('',(-0.00606666366312735,-0.119770062726701,0.0651459344613527));
#1196=CARTESIAN_POINT('',(-0.00635410435187496,-0.119770062726701,0.0646151663565899));
#1197=CARTESIAN_POINT('',(-0.00635410435187496,-0.119770062726701,0.0643333333333333));
#1198=CARTESIAN_POINT('',(-0.00635410435187497,-0.119770062726701,0.0643333333333333));
#1199=CARTESIAN_POINT('',(-0.00635410435187497,-0.119770062726701,0.0653333333333333));
#1200=CARTESIAN_POINT('',(-0.00635410435187497,-0.119770062726701,0.0153333333333333));
#1201=CARTESIAN_POINT('',(-0.0172856555963246,-0.119770062726701,0.0153333333333333));
#1202=CARTESIAN_POINT('',(-0.0282355845556879,-0.119770062726701,0.0153333333333333));
#1203=CARTESIAN_POINT('',(-0.0282355845556879,-0.119770062726701,0.0653333333333333));
#1204=CARTESIAN_POINT('',(-0.0282355845556879,-0.119770062726701,0.0643333333333333));
#1205=CARTESIAN_POINT('',(-0.028235584555688,-0.119770062726701,0.0643333333333333));
#1206=CARTESIAN_POINT('',(-0.028235584555688,-0.119770062726701,0.0646142191097754));
#1207=CARTESIAN_POINT('',(-0.0285212889189663,-0.119770062726701,0.0651453270296069));
#1208=CARTESIAN_POINT('',(-0.0290799348666692,-0.119770062726701,0.0653333333333333));
#1209=CARTESIAN_POINT('',(-0.0293600201407534,-0.119770062726701,0.0653333333333333));
#1210=CARTESIAN_POINT('',(-0.0293600201407534,-0.119770062726701,0.0653333333333333));
#1211=CARTESIAN_POINT('',(-0.0172856555963246,-0.119770062726701,0.0653333333333333));
#1212=CARTESIAN_POINT('',(-0.0304644068211593,-0.119770062726701,0.0653333333333333));
#1213=CARTESIAN_POINT('',(-0.0304644068211593,-0.119770062726701,0.0653333333333333));
#1214=CARTESIAN_POINT('',(-0.0307404324090876,-0.119770062726701,0.0653333333333333));
#1215=CARTESIAN_POINT('',(-0.0312891725681231,-0.119770062726701,0.0655255316758943));
#1216=CARTESIAN_POINT('',(-0.03155340203905,-0.119770062726701,0.066056523373686));
#1217=CARTESIAN_POINT('',(-0.03155340203905,-0.119770062726701,0.0663333333333333));
#1218=CARTESIAN_POINT('',(-0.0172856555963246,-0.10823403028625,0.0153333333333333));
#1219=CARTESIAN_POINT('',(-0.0172826700177094,-0.133692630856833,0.0153333333333333));
#1220=CARTESIAN_POINT('',(-0.0156326700177094,-0.133692630856833,0.0153333333333333));
#1221=CARTESIAN_POINT('',(-0.0172826700177094,-0.125692630856833,0.0153333333333333));
#1222=CARTESIAN_POINT('',(-0.0172889037131754,-0.138122848952648,0.0153333333333333));
#1223=CARTESIAN_POINT('',(-0.0172889037121516,-0.125681833781339,0.0153333333333333));
#1224=CARTESIAN_POINT('',(-0.0172889037121516,-0.125681833781339,0.0193333333333334));
#1225=CARTESIAN_POINT('',(-0.0323482784598388,-0.122270062726701,0.0843333333333333));
#1226=CARTESIAN_POINT('',(-0.0323482784598388,-0.122270062726701,0.0833333333333333));
#1227=CARTESIAN_POINT('',(-0.0323482784598388,-0.122270062726701,0.0663333333333333));
#1228=CARTESIAN_POINT('',(-0.0172889037121516,-0.125681833781339,0.0833333333333333));
#1229=CARTESIAN_POINT('',(-0.0172889037121516,-0.125681833781339,0.0663333333333333));
#1230=CARTESIAN_POINT('',(-0.0172826700177094,-0.133692630856833,0.0193333333333334));
#1231=CARTESIAN_POINT('',(-0.0172826700177094,-0.133692630856833,0.0193333333333334));
#1232=CARTESIAN_POINT('',(-0.0156326700177094,-0.133692630856833,0.0193333333333334));
#1233=CARTESIAN_POINT('',(-0.0172826700177094,-0.125692630856833,0.0193333333333334));
#1234=CARTESIAN_POINT('',(-0.0172826700177094,-0.125692630856833,0.0833333333333333));
#1235=CARTESIAN_POINT('',(-0.00223681656512952,-0.122270062726701,0.0833333333333333));
#1236=CARTESIAN_POINT('',(-0.00223681656512952,-0.122270062726701,0.0843333333333333));
#1237=CARTESIAN_POINT('',(-0.00223681656512952,-0.122270062726701,0.0663333333333333));
#1238=CARTESIAN_POINT('',(-0.0172826700177094,-0.125692630856833,0.0663333333333333));
#1239=CARTESIAN_POINT('',(-0.0172856555963246,-0.10823403028625,0.0193333333333334));
#1240=CARTESIAN_POINT('',(-0.0172826700177094,-0.125692630856833,0.0193333333333334));
#1241=CARTESIAN_POINT('',(-0.0172889037131754,-0.138122848952648,0.0193333333333334));
#1242=CARTESIAN_POINT('',(-0.00493412108742469,-0.124270062726701,0.0193333333333334));
#1243=CARTESIAN_POINT('',(-0.0172856555963246,-0.124270062726701,0.0193333333333334));
#1244=CARTESIAN_POINT('',(-0.0296495574562699,-0.124270062726701,0.0193333333333334));
#1245=CARTESIAN_POINT('',(-0.0172889037121516,-0.125681833781339,0.0193333333333334));
#1246=CARTESIAN_POINT('',(-0.0172839025000542,-0.0998797233031004,0.0843333333333333));
#1247=CARTESIAN_POINT('',(-0.0172889037121516,-0.125681833781339,0.0843333333333333));
#1248=CARTESIAN_POINT('',(-0.0313482784598388,-0.122383819093376,0.0843333333333333));
#1249=CARTESIAN_POINT('',(-0.0313482784598388,-0.124270062726701,0.0843333333333333));
#1250=CARTESIAN_POINT('',(-0.0313482784598388,-0.124270062726701,0.0843333333333333));
#1251=CARTESIAN_POINT('',(-0.0172925475124841,-0.124270062726701,0.0843333333333333));
#1252=CARTESIAN_POINT('',(-0.00323681656512952,-0.124270062726701,0.0843333333333333));
#1253=CARTESIAN_POINT('',(-0.00323681656512953,-0.0998797233031004,0.0843333333333333));
#1254=CARTESIAN_POINT('',(-0.00323681656512952,-0.122384271717811,0.0843333333333333));
#1255=CARTESIAN_POINT('',(-0.0172826700177094,-0.125692630856833,0.0843333333333333));
#1256=CARTESIAN_POINT('',(-0.00874254751248414,-0.0972700627267015,0.0778333333333333));
#1257=CARTESIAN_POINT('',(-0.00874254751248414,-0.0972700627267015,0.0828333333333333));
#1258=CARTESIAN_POINT('',(-0.00874254751248413,-0.124270062726701,0.0828333333333333));
#1259=CARTESIAN_POINT('',(-0.00874254751248413,-0.124270062726701,0.0778333333333333));
#1260=CARTESIAN_POINT('',(-0.00874254751248413,-0.124270062726701,0.0728333333333334));
#1261=CARTESIAN_POINT('',(-0.00874254751248414,-0.0972700627267015,0.0728333333333334));
#1262=CARTESIAN_POINT('',(-0.00729254751248414,-0.0972700627267015,0.0728333333333334));
#1263=CARTESIAN_POINT('',(-0.00729254751248413,-0.124270062726701,0.0728333333333334));
#1264=CARTESIAN_POINT('',(-0.00584254751248413,-0.124270062726701,0.0728333333333334));
#1265=CARTESIAN_POINT('',(-0.00584254751248414,-0.0972700627267015,0.0728333333333334));
#1266=CARTESIAN_POINT('',(-0.00584254751248414,-0.0972700627267015,0.0778333333333333));
#1267=CARTESIAN_POINT('',(-0.00584254751248413,-0.124270062726701,0.0778333333333333));
#1268=CARTESIAN_POINT('',(-0.00584254751248413,-0.124270062726701,0.0828333333333333));
#1269=CARTESIAN_POINT('',(-0.00584254751248414,-0.0972700627267015,0.0828333333333333));
#1270=CARTESIAN_POINT('',(-0.00729254751248414,-0.0972700627267015,0.0828333333333333));
#1271=CARTESIAN_POINT('',(-0.0305454129861614,-0.124270062726701,0.0828333333333333));
#1272=CARTESIAN_POINT('',(-0.0272925475124841,-0.0972700627267015,0.0828333333333333));
#1273=CARTESIAN_POINT('',(-0.0258425475124841,-0.0972700627267015,0.0828333333333333));
#1274=CARTESIAN_POINT('',(-0.0258425475124841,-0.124270062726701,0.0828333333333333));
#1275=CARTESIAN_POINT('',(-0.0305454129861614,-0.124270062726701,0.0828333333333333));
#1276=CARTESIAN_POINT('',(-0.0287425475124841,-0.124270062726701,0.0828333333333333));
#1277=CARTESIAN_POINT('',(-0.0287425475124841,-0.0972700627267015,0.0828333333333333));
#1278=CARTESIAN_POINT('',(-0.0287425475124841,-0.0972700627267015,0.0778333333333333));
#1279=CARTESIAN_POINT('',(-0.0287425475124841,-0.124270062726701,0.0778333333333333));
#1280=CARTESIAN_POINT('',(-0.0287425475124841,-0.124270062726701,0.0728333333333334));
#1281=CARTESIAN_POINT('',(-0.0287425475124841,-0.0972700627267015,0.0728333333333334));
#1282=CARTESIAN_POINT('',(-0.0272925475124841,-0.0972700627267015,0.0728333333333334));
#1283=CARTESIAN_POINT('',(-0.0272925475124841,-0.124270062726701,0.0728333333333334));
#1284=CARTESIAN_POINT('',(-0.0258425475124841,-0.124270062726701,0.0728333333333334));
#1285=CARTESIAN_POINT('',(-0.0258425475124841,-0.0972700627267015,0.0728333333333334));
#1286=CARTESIAN_POINT('',(-0.0258425475124841,-0.0972700627267015,0.0778333333333333));
#1287=CARTESIAN_POINT('',(-0.0258425475124841,-0.124270062726701,0.0778333333333333));
#1288=CARTESIAN_POINT('',(-0.0172911846211342,-0.129661372969499,0.0653333333333333));
#1289=CARTESIAN_POINT('',(-0.0172826700177094,-0.125692630856833,0.0653333333333333));
#1290=CARTESIAN_POINT('',(-0.00323681656512953,-0.122384271717811,0.0653333333333333));
#1291=CARTESIAN_POINT('',(-0.00323681656512952,-0.129661372969499,0.0653333333333333));
#1292=CARTESIAN_POINT('',(-0.00323681656512952,-0.124270062726701,0.0653333333333333));
#1293=CARTESIAN_POINT('',(-0.00778813269500156,-0.124270062726701,0.0653333333333333));
#1294=CARTESIAN_POINT('',(-0.00924329795183196,-0.124270062726701,0.0653333333333333));
#1295=CARTESIAN_POINT('',(-0.00924329795183196,-0.129661372969499,0.0653333333333333));
#1296=CARTESIAN_POINT('',(-0.00924329795183197,-0.123270062726701,0.0653333333333333));
#1297=CARTESIAN_POINT('',(-0.0172911846211342,-0.123270062726701,0.0653333333333333));
#1298=CARTESIAN_POINT('',(-0.00407275087559603,-0.123270062726701,0.0653333333333333));
#1299=CARTESIAN_POINT('',(-0.0172826700177094,-0.125692630856833,0.0653333333333333));
#1300=CARTESIAN_POINT('',(-0.0172911846211342,-0.129661372969499,0.0653333333333333));
#1301=CARTESIAN_POINT('',(-0.0313482784598388,-0.122270062726701,0.0653333333333333));
#1302=CARTESIAN_POINT('',(-0.0313482784598388,-0.124270062726701,0.0653333333333333));
#1303=CARTESIAN_POINT('',(-0.0313482784598388,-0.122383819093376,0.0653333333333333));
#1304=CARTESIAN_POINT('',(-0.0172889037121516,-0.125681833781339,0.0653333333333333));
#1305=CARTESIAN_POINT('',(-0.0172889037121516,-0.125681833781339,0.0653333333333333));
#1306=CARTESIAN_POINT('',(-0.0305117721307409,-0.123270062726701,0.0653333333333333));
#1307=CARTESIAN_POINT('',(-0.0172911846211342,-0.123270062726701,0.0653333333333333));
#1308=CARTESIAN_POINT('',(-0.0253425475124841,-0.123270062726701,0.0653333333333333));
#1309=CARTESIAN_POINT('',(-0.0253425475124841,-0.124270062726701,0.0653333333333333));
#1310=CARTESIAN_POINT('',(-0.0253425475124841,-0.124270062726701,0.0653333333333333));
#1311=CARTESIAN_POINT('',(-0.0172925475124841,-0.124270062726701,0.0653333333333333));
#1312=CARTESIAN_POINT('',(-0.0172889037121516,-0.125681833781339,0.0653333333333333));
#1313=CARTESIAN_POINT('',(-0.0172889037121516,-0.125681833781339,0.0643333333333333));
#1314=CARTESIAN_POINT('',(-0.0172889037131754,-0.138122848952648,0.0653333333333333));
#1315=CARTESIAN_POINT('',(-0.0296495574562699,-0.124270062726701,0.0193333333333334));
#1316=CARTESIAN_POINT('',(-0.0295890618249513,-0.123740397842793,0.0193333333333334));
#1317=CARTESIAN_POINT('',(-0.0293902072199689,-0.122714218546865,0.0197638271838496));
#1318=CARTESIAN_POINT('',(-0.029252961416937,-0.122270062726701,0.0208000327370937));
#1319=CARTESIAN_POINT('',(-0.029252961416937,-0.122270062726701,0.0213333333333333));
#1320=CARTESIAN_POINT('',(-0.0172826700177094,-0.125692630856833,0.0653333333333333));
#1321=CARTESIAN_POINT('',(-0.0172826700177094,-0.125692630856833,0.0643333333333333));
#1322=CARTESIAN_POINT('',(-0.00533292574583851,-0.122270062726701,0.0213333333333333));
#1323=CARTESIAN_POINT('',(-0.00533292574583851,-0.122270062726701,0.0208001243250187));
#1324=CARTESIAN_POINT('',(-0.00519546134967813,-0.122712668914694,0.0197652287893903));
#1325=CARTESIAN_POINT('',(-0.00499511724154759,-0.123740587914359,0.0193333333333334));
#1326=CARTESIAN_POINT('',(-0.0049341210874247,-0.124270062726701,0.0193333333333334));
#1327=CARTESIAN_POINT('',(-0.0305454129861614,-0.124270062726701,0.0828333333333333));
#1328=CARTESIAN_POINT('',(-0.0243425475124841,-0.124270062726701,0.0828333333333333));
#1329=CARTESIAN_POINT('',(-0.0243425475124841,-0.123270062726701,0.0828333333333333));
#1330=CARTESIAN_POINT('',(-0.0243425475124841,-0.124270062726701,0.0828333333333333));
#1331=CARTESIAN_POINT('',(-0.0102426100435524,-0.123270062726701,0.0828333333333333));
#1332=CARTESIAN_POINT('',(-0.0102426100435524,-0.123270062726701,0.0828333333333333));
#1333=CARTESIAN_POINT('',(-0.0102426100435524,-0.124270062726701,0.0828333333333333));
#1334=CARTESIAN_POINT('',(-0.0102426100435524,-0.124270062726701,0.0828333333333333));
#1335=CARTESIAN_POINT('',(-0.0305454129861614,-0.124270062726701,0.0828333333333333));
#1336=CARTESIAN_POINT('',(-0.00223681656512952,-0.124270062726701,0.0843333333333333));
#1337=CARTESIAN_POINT('',(-0.00223681656512952,-0.124270062726701,0.0833333333333333));
#1338=CARTESIAN_POINT('',(-0.00223681656512952,-0.124270062726701,0.0833333333333333));
#1339=CARTESIAN_POINT('',(-0.00223681656512952,-0.124270062726701,0.0843333333333333));
#1340=CARTESIAN_POINT('',(-0.00223681656512952,-0.124270062726701,0.0663333333333333));
#1341=CARTESIAN_POINT('',(-0.00223681656512952,-0.124270062726701,0.0663333333333333));
#1342=CARTESIAN_POINT('',(-0.0323482784598388,-0.124270062726701,0.0843333333333333));
#1343=CARTESIAN_POINT('',(-0.0323482784598388,-0.124270062726701,0.0843333333333333));
#1344=CARTESIAN_POINT('',(-0.0323482784598388,-0.124270062726701,0.0833333333333333));
#1345=CARTESIAN_POINT('',(-0.0323482784598388,-0.124270062726701,0.0663333333333333));
#1346=CARTESIAN_POINT('',(-0.0323482784598388,-0.122270062726701,0.0833333333333333));
#1347=CARTESIAN_POINT('',(-0.0323482784598388,-0.124270062726701,0.0663333333333333));
#1348=CARTESIAN_POINT('',(-0.0172925475124841,-0.124270062726701,0.0518333333333333));
#1349=CARTESIAN_POINT('',(-0.0102429748438585,-0.124270062726701,0.0740833333333333));
#1350=CARTESIAN_POINT('',(-0.0102432979509629,-0.124270062726701,0.0663333750247969));
#1351=CARTESIAN_POINT('',(-0.00924329795183196,-0.124270062726701,0.0663333333333333));
#1352=CARTESIAN_POINT('',(-0.00323681656512952,-0.124270062726701,0.0663333333333333));
#1353=CARTESIAN_POINT('',(-0.00323681656512952,-0.124270062726701,0.0833333333333333));
#1354=CARTESIAN_POINT('',(-0.0313482784598388,-0.124270062726701,0.0833333333333333));
#1355=CARTESIAN_POINT('',(-0.0313482784598388,-0.124270062726701,0.0663333333333333));
#1356=CARTESIAN_POINT('',(-0.0253425475124841,-0.124270062726701,0.0663333333333333));
#1357=CARTESIAN_POINT('',(-0.0243425475124841,-0.124270062726701,0.0663333333333333));
#1358=CARTESIAN_POINT('',(-0.0243425475124841,-0.124270062726701,0.0740833333333333));
#1359=CARTESIAN_POINT('',(-0.0243425475124841,-0.124270062726701,0.0740833333333333));
#1360=CARTESIAN_POINT('',(-0.0243425475124841,-0.123270062726701,0.0818333333333333));
#1361=CARTESIAN_POINT('',(-0.0243425475124841,-0.122270062726701,0.0663333333333333));
#1362=CARTESIAN_POINT('',(-0.0243425475124841,-0.123270062726701,0.0663333333333333));
#1363=CARTESIAN_POINT('',(-0.0243425475124841,-0.122270062726701,0.0680653841409022));
#1364=CARTESIAN_POINT('',(-0.0243425475124842,-0.122270062726701,0.0677187300349521));
#1365=CARTESIAN_POINT('',(-0.0243425475124841,-0.122537217297464,0.0670654966911524));
#1366=CARTESIAN_POINT('',(-0.0243425475124842,-0.123028764999,0.0665746322675336));
#1367=CARTESIAN_POINT('',(-0.0243425475124841,-0.123270062726701,0.0663333333333333));
#1368=CARTESIAN_POINT('',(-0.0102429748438585,-0.124270062726701,0.0740833333333333));
#1369=CARTESIAN_POINT('',(-0.0102426517350159,-0.123270062726701,0.0818333333333333));
#1370=CARTESIAN_POINT('',(-0.0102432257392298,-0.122270062726701,0.0680654258308604));
#1371=CARTESIAN_POINT('',(-0.0102432401917468,-0.122270062726701,0.0677187717252116));
#1372=CARTESIAN_POINT('',(-0.010243267426001,-0.12253721729746,0.0670655383819759));
#1373=CARTESIAN_POINT('',(-0.0102432878908572,-0.123028764999007,0.066574673958795));
#1374=CARTESIAN_POINT('',(-0.0102432979509629,-0.123270062726701,0.0663333750247969));
#1375=CARTESIAN_POINT('',(-0.0102432979509629,-0.123270062726701,0.0663333750247969));
#1376=CARTESIAN_POINT('',(-0.0102432979509629,-0.124270062726701,0.0663333750247969));
#1377=CARTESIAN_POINT('',(-0.0172925475124841,-0.124270062726701,0.0213333333333333));
#1378=CARTESIAN_POINT('',(-0.0305454129861614,-0.123270062726701,0.0818333333333333));
#1379=CARTESIAN_POINT('',(-0.0172826700177094,-0.125692630856833,0.0643333333333333));
#1380=CARTESIAN_POINT('',(-0.00533292574583851,-0.122270062726701,0.0643333333333333));
#1381=CARTESIAN_POINT('',(-0.00533292574583851,-0.122270062726701,0.0645088352362922));
#1382=CARTESIAN_POINT('',(-0.00520335536639179,-0.12236743124884,0.0648361118224342));
#1383=CARTESIAN_POINT('',(-0.00474197171996082,-0.122723075565356,0.0652306650021574));
#1384=CARTESIAN_POINT('',(-0.00433707054369341,-0.123049849476258,0.0653333333333333));
#1385=CARTESIAN_POINT('',(-0.00407275087559603,-0.123270062726701,0.0653333333333333));
#1386=CARTESIAN_POINT('',(-0.0172911846211342,-0.123270062726701,0.0643333333333333));
#1387=CARTESIAN_POINT('',(-0.00924329795183197,-0.123270062726701,0.0643333333333333));
#1388=CARTESIAN_POINT('',(-0.00924329795183197,-0.123270062726701,0.0663333333333333));
#1389=CARTESIAN_POINT('',(-0.00924329795183197,-0.123270062726701,0.0663333333333333));
#1390=CARTESIAN_POINT('',(-0.00924329795183196,-0.129661372969499,0.0663333333333333));
#1391=CARTESIAN_POINT('',(-0.0172889037121516,-0.125681833781339,0.0643333333333333));
#1392=CARTESIAN_POINT('',(-0.0292529614169369,-0.122270062726701,0.0643333333333333));
#1393=CARTESIAN_POINT('',(-0.0292529614169369,-0.122270062726701,0.0645087558206987));
#1394=CARTESIAN_POINT('',(-0.0293822621039265,-0.122367345082806,0.0648359518663909));
#1395=CARTESIAN_POINT('',(-0.0298431134264704,-0.122722981053799,0.065230637598705));
#1396=CARTESIAN_POINT('',(-0.0302476744349691,-0.123049818639887,0.0653333333333333));
#1397=CARTESIAN_POINT('',(-0.0305117721307409,-0.123270062726701,0.0653333333333333));
#1398=CARTESIAN_POINT('',(-0.0172925475124841,-0.123270062726701,0.0643333333333333));
#1399=CARTESIAN_POINT('',(-0.0253425475124841,-0.123270062726701,0.0643333333333333));
#1400=CARTESIAN_POINT('',(-0.0253425475124841,-0.123270062726701,0.0663333333333333));
#1401=CARTESIAN_POINT('',(-0.0253425475124841,-0.123270062726701,0.0663333333333333));
#1402=CARTESIAN_POINT('',(-0.0253425475124841,-0.124270062726701,0.0663333333333333));
#1403=CARTESIAN_POINT('',(-0.0313482784598388,-0.124270062726701,0.0833333333333333));
#1404=CARTESIAN_POINT('',(-0.0323482784598388,-0.122270062726701,0.0833333333333333));
#1405=CARTESIAN_POINT('',(-0.0323482784598388,-0.122270062726701,0.0835983123258949));
#1406=CARTESIAN_POINT('',(-0.0321309125105879,-0.122294245846896,0.0841168927372819));
#1407=CARTESIAN_POINT('',(-0.0316077620374511,-0.122353799035179,0.0843333333333333));
#1408=CARTESIAN_POINT('',(-0.0313482784598388,-0.122383819093376,0.0843333333333333));
#1409=CARTESIAN_POINT('',(-0.0172889037121516,-0.125681833781339,0.0833333333333333));
#1410=CARTESIAN_POINT('',(-0.00323681656512953,-0.0998797233031004,0.0833333333333333));
#1411=CARTESIAN_POINT('',(-0.00223681656512953,-0.122270062726701,0.0833333333333333));
#1412=CARTESIAN_POINT('',(-0.00223681656512953,-0.122270062726701,0.0835983191951917));
#1413=CARTESIAN_POINT('',(-0.00245419734043502,-0.122294343305051,0.0841169076215918));
#1414=CARTESIAN_POINT('',(-0.00297734006908264,-0.122354132598583,0.0843333333333333));
#1415=CARTESIAN_POINT('',(-0.00323681656512953,-0.122384271717811,0.0843333333333333));
#1416=CARTESIAN_POINT('',(-0.0172826700177094,-0.125692630856833,0.0833333333333333));
#1417=CARTESIAN_POINT('',(-0.00323681656512952,-0.124270062726701,0.0663333333333333));
#1418=CARTESIAN_POINT('',(-0.00223681656512952,-0.122270062726701,0.0663333333333333));
#1419=CARTESIAN_POINT('',(-0.00223681656512952,-0.122270062726701,0.0660683474714749));
#1420=CARTESIAN_POINT('',(-0.00245419734043504,-0.122294343305051,0.0655497590450748));
#1421=CARTESIAN_POINT('',(-0.00297734006908263,-0.122354132598583,0.0653333333333333));
#1422=CARTESIAN_POINT('',(-0.00323681656512953,-0.122384271717811,0.0653333333333333));
#1423=CARTESIAN_POINT('',(-0.0172826700177094,-0.125692630856833,0.0663333333333333));
#1424=CARTESIAN_POINT('',(-0.0313482784598388,-0.129661372969499,0.0663333333333333));
#1425=CARTESIAN_POINT('',(-0.0323482784598388,-0.122270062726701,0.0663333333333333));
#1426=CARTESIAN_POINT('',(-0.0323482784598388,-0.122270062726701,0.0660683543407717));
#1427=CARTESIAN_POINT('',(-0.0321309125105879,-0.122294245846896,0.0655497739293847));
#1428=CARTESIAN_POINT('',(-0.0316077620374511,-0.122353799035179,0.0653333333333333));
#1429=CARTESIAN_POINT('',(-0.0313482784598388,-0.122383819093376,0.0653333333333333));
#1430=CARTESIAN_POINT('',(-0.0172889037121516,-0.125681833781339,0.0663333333333333));
#1431=MECHANICAL_DESIGN_GEOMETRIC_PRESENTATION_REPRESENTATION('',(#816),
#1432);
#1432=(
GEOMETRIC_REPRESENTATION_CONTEXT(3)
GLOBAL_UNCERTAINTY_ASSIGNED_CONTEXT((#1433))
GLOBAL_UNIT_ASSIGNED_CONTEXT((#1436,#1435,#1434))
REPRESENTATION_CONTEXT('pan  end stop mount','TOP_LEVEL_ASSEMBLY_PART')
);
#1433=UNCERTAINTY_MEASURE_WITH_UNIT(LENGTH_MEASURE(5.E-6),#1436,
'DISTANCE_ACCURACY_VALUE','Maximum Tolerance applied to model');
#1434=(
NAMED_UNIT(*)
SI_UNIT($,.STERADIAN.)
SOLID_ANGLE_UNIT()
);
#1435=(
NAMED_UNIT(*)
PLANE_ANGLE_UNIT()
SI_UNIT($,.RADIAN.)
);
#1436=(
LENGTH_UNIT()
NAMED_UNIT(*)
SI_UNIT($,.METRE.)
);
#1437=PRODUCT_DEFINITION_SHAPE('','',#1438);
#1438=PRODUCT_DEFINITION('','',#1440,#1439);
#1439=PRODUCT_DEFINITION_CONTEXT('',#1446,'design');
#1440=PRODUCT_DEFINITION_FORMATION_WITH_SPECIFIED_SOURCE('','',#1442,
 .NOT_KNOWN.);
#1441=PRODUCT_RELATED_PRODUCT_CATEGORY('','',(#1442));
#1442=PRODUCT('pan  end stop mount','pan  end stop mount',
'pan  end stop mount',(#1444));
#1443=PRODUCT_CATEGORY('','');
#1444=PRODUCT_CONTEXT('',#1446,'mechanical');
#1445=APPLICATION_PROTOCOL_DEFINITION('international standard',
'ap242_managed_model_based_3d_engineering',2011,#1446);
#1446=APPLICATION_CONTEXT('managed model based 3d engineering');
ENDSEC;
END-ISO-10303-21;
