ISO-10303-21;
HEADER;
/* Generated by software containing ST-Developer
 * from STEP Tools, Inc. (www.steptools.com) 
 */
/* OPTION: using custom renumber hook */

FILE_DESCRIPTION(
/* description */ ('STEP AP242',
'CAx-IF Rec.Pracs.---Representation and Presentation of Product Manufa
cturing Information (PMI)---4.0---2014-10-13',
'CAx-IF Rec.Pracs.---3D Tessellated Geometry---0.4---2014-09-14','2;1'),

/* implementation_level */ '2;1');

FILE_NAME(
/* name */ '66789d44b9c7367681b240c6',
/* time_stamp */ '2024-06-23T22:10:12Z',
/* author */ (''),
/* organization */ (''),
/* preprocessor_version */ 'ST-DEVELOPER v20',
/* originating_system */ '  ',
/* authorisation */ '  ');

FILE_SCHEMA (('AP242_MANAGED_MODEL_BASED_3D_ENGINEERING_MIM_LF { 1 0 10303 442 1 1 4 }'));
ENDSEC;

DATA;
#10=SHAPE_REPRESENTATION_RELATIONSHIP('','',#920,#11);
#11=ADVANCED_BREP_SHAPE_REPRESENTATION('',(#918),#1471);
#12=CONICAL_SURFACE('',#964,0.00929038,1.24904577239825);
#13=CONICAL_SURFACE('',#966,0.0092998668329805,0.321750554396642);
#14=CYLINDRICAL_SURFACE('',#944,0.01484065);
#15=CYLINDRICAL_SURFACE('',#946,0.01484065);
#16=CYLINDRICAL_SURFACE('',#969,0.0372715);
#17=CYLINDRICAL_SURFACE('',#975,0.0135175762387939);
#18=CYLINDRICAL_SURFACE('',#981,0.006963225);
#19=CYLINDRICAL_SURFACE('',#982,0.01005);
#20=CIRCLE('',#924,0.0135175762387939);
#21=CIRCLE('',#925,0.01484065);
#22=CIRCLE('',#926,0.01484065);
#23=CIRCLE('',#927,0.0372715);
#24=CIRCLE('',#929,0.006963225);
#25=CIRCLE('',#930,0.0372715);
#26=CIRCLE('',#931,0.01484065);
#27=CIRCLE('',#932,0.01484065);
#28=CIRCLE('',#942,0.006963225);
#29=CIRCLE('',#943,0.00929038);
#30=CIRCLE('',#965,0.0092998668329805);
#31=CIRCLE('',#967,0.00961575425886722);
#32=CIRCLE('',#976,0.0135175762387939);
#33=CIRCLE('',#978,0.01005);
#34=CIRCLE('',#980,0.01005);
#35=ORIENTED_EDGE('',*,*,#281,.F.);
#36=ORIENTED_EDGE('',*,*,#282,.T.);
#37=ORIENTED_EDGE('',*,*,#283,.F.);
#38=ORIENTED_EDGE('',*,*,#284,.F.);
#39=ORIENTED_EDGE('',*,*,#285,.F.);
#40=ORIENTED_EDGE('',*,*,#286,.F.);
#41=ORIENTED_EDGE('',*,*,#287,.F.);
#42=ORIENTED_EDGE('',*,*,#288,.T.);
#43=ORIENTED_EDGE('',*,*,#289,.T.);
#44=ORIENTED_EDGE('',*,*,#290,.T.);
#45=ORIENTED_EDGE('',*,*,#291,.T.);
#46=ORIENTED_EDGE('',*,*,#292,.T.);
#47=ORIENTED_EDGE('',*,*,#293,.T.);
#48=ORIENTED_EDGE('',*,*,#294,.T.);
#49=ORIENTED_EDGE('',*,*,#295,.T.);
#50=ORIENTED_EDGE('',*,*,#296,.T.);
#51=ORIENTED_EDGE('',*,*,#297,.F.);
#52=ORIENTED_EDGE('',*,*,#298,.F.);
#53=ORIENTED_EDGE('',*,*,#299,.T.);
#54=ORIENTED_EDGE('',*,*,#300,.T.);
#55=ORIENTED_EDGE('',*,*,#301,.F.);
#56=ORIENTED_EDGE('',*,*,#302,.T.);
#57=ORIENTED_EDGE('',*,*,#303,.F.);
#58=ORIENTED_EDGE('',*,*,#304,.T.);
#59=ORIENTED_EDGE('',*,*,#305,.T.);
#60=ORIENTED_EDGE('',*,*,#306,.T.);
#61=ORIENTED_EDGE('',*,*,#307,.F.);
#62=ORIENTED_EDGE('',*,*,#308,.F.);
#63=ORIENTED_EDGE('',*,*,#283,.T.);
#64=ORIENTED_EDGE('',*,*,#309,.F.);
#65=ORIENTED_EDGE('',*,*,#310,.T.);
#66=ORIENTED_EDGE('',*,*,#311,.F.);
#67=ORIENTED_EDGE('',*,*,#312,.T.);
#68=ORIENTED_EDGE('',*,*,#313,.F.);
#69=ORIENTED_EDGE('',*,*,#314,.T.);
#70=ORIENTED_EDGE('',*,*,#315,.T.);
#71=ORIENTED_EDGE('',*,*,#316,.T.);
#72=ORIENTED_EDGE('',*,*,#317,.F.);
#73=ORIENTED_EDGE('',*,*,#287,.T.);
#74=ORIENTED_EDGE('',*,*,#318,.T.);
#75=ORIENTED_EDGE('',*,*,#319,.F.);
#76=ORIENTED_EDGE('',*,*,#320,.F.);
#77=ORIENTED_EDGE('',*,*,#321,.T.);
#78=ORIENTED_EDGE('',*,*,#322,.T.);
#79=ORIENTED_EDGE('',*,*,#323,.F.);
#80=ORIENTED_EDGE('',*,*,#324,.F.);
#81=ORIENTED_EDGE('',*,*,#325,.F.);
#82=ORIENTED_EDGE('',*,*,#326,.F.);
#83=ORIENTED_EDGE('',*,*,#327,.F.);
#84=ORIENTED_EDGE('',*,*,#328,.F.);
#85=ORIENTED_EDGE('',*,*,#329,.F.);
#86=ORIENTED_EDGE('',*,*,#330,.T.);
#87=ORIENTED_EDGE('',*,*,#331,.T.);
#88=ORIENTED_EDGE('',*,*,#332,.F.);
#89=ORIENTED_EDGE('',*,*,#333,.T.);
#90=ORIENTED_EDGE('',*,*,#334,.T.);
#91=ORIENTED_EDGE('',*,*,#335,.T.);
#92=ORIENTED_EDGE('',*,*,#336,.F.);
#93=ORIENTED_EDGE('',*,*,#337,.T.);
#94=ORIENTED_EDGE('',*,*,#338,.F.);
#95=ORIENTED_EDGE('',*,*,#339,.F.);
#96=ORIENTED_EDGE('',*,*,#340,.T.);
#97=ORIENTED_EDGE('',*,*,#341,.T.);
#98=ORIENTED_EDGE('',*,*,#342,.T.);
#99=ORIENTED_EDGE('',*,*,#343,.F.);
#100=ORIENTED_EDGE('',*,*,#344,.F.);
#101=ORIENTED_EDGE('',*,*,#345,.F.);
#102=ORIENTED_EDGE('',*,*,#346,.F.);
#103=ORIENTED_EDGE('',*,*,#347,.F.);
#104=ORIENTED_EDGE('',*,*,#281,.T.);
#105=ORIENTED_EDGE('',*,*,#348,.F.);
#106=ORIENTED_EDGE('',*,*,#349,.T.);
#107=ORIENTED_EDGE('',*,*,#350,.T.);
#108=ORIENTED_EDGE('',*,*,#351,.T.);
#109=ORIENTED_EDGE('',*,*,#310,.F.);
#110=ORIENTED_EDGE('',*,*,#352,.T.);
#111=ORIENTED_EDGE('',*,*,#351,.F.);
#112=ORIENTED_EDGE('',*,*,#353,.T.);
#113=ORIENTED_EDGE('',*,*,#354,.F.);
#114=ORIENTED_EDGE('',*,*,#355,.T.);
#115=ORIENTED_EDGE('',*,*,#356,.T.);
#116=ORIENTED_EDGE('',*,*,#357,.T.);
#117=ORIENTED_EDGE('',*,*,#358,.F.);
#118=ORIENTED_EDGE('',*,*,#314,.F.);
#119=ORIENTED_EDGE('',*,*,#359,.F.);
#120=ORIENTED_EDGE('',*,*,#356,.F.);
#121=ORIENTED_EDGE('',*,*,#360,.T.);
#122=ORIENTED_EDGE('',*,*,#361,.F.);
#123=ORIENTED_EDGE('',*,*,#328,.T.);
#124=ORIENTED_EDGE('',*,*,#362,.F.);
#125=ORIENTED_EDGE('',*,*,#291,.F.);
#126=ORIENTED_EDGE('',*,*,#363,.T.);
#127=ORIENTED_EDGE('',*,*,#325,.T.);
#128=ORIENTED_EDGE('',*,*,#363,.F.);
#129=ORIENTED_EDGE('',*,*,#290,.F.);
#130=ORIENTED_EDGE('',*,*,#364,.T.);
#131=ORIENTED_EDGE('',*,*,#326,.T.);
#132=ORIENTED_EDGE('',*,*,#364,.F.);
#133=ORIENTED_EDGE('',*,*,#293,.F.);
#134=ORIENTED_EDGE('',*,*,#365,.T.);
#135=ORIENTED_EDGE('',*,*,#327,.T.);
#136=ORIENTED_EDGE('',*,*,#365,.F.);
#137=ORIENTED_EDGE('',*,*,#292,.F.);
#138=ORIENTED_EDGE('',*,*,#362,.T.);
#139=ORIENTED_EDGE('',*,*,#366,.F.);
#140=ORIENTED_EDGE('',*,*,#367,.F.);
#141=ORIENTED_EDGE('',*,*,#324,.T.);
#142=ORIENTED_EDGE('',*,*,#368,.T.);
#143=ORIENTED_EDGE('',*,*,#341,.F.);
#144=ORIENTED_EDGE('',*,*,#369,.T.);
#145=ORIENTED_EDGE('',*,*,#303,.T.);
#146=ORIENTED_EDGE('',*,*,#370,.F.);
#147=ORIENTED_EDGE('',*,*,#371,.T.);
#148=ORIENTED_EDGE('',*,*,#372,.T.);
#149=ORIENTED_EDGE('',*,*,#305,.F.);
#150=ORIENTED_EDGE('',*,*,#373,.F.);
#151=ORIENTED_EDGE('',*,*,#343,.T.);
#152=ORIENTED_EDGE('',*,*,#374,.F.);
#153=ORIENTED_EDGE('',*,*,#322,.F.);
#154=ORIENTED_EDGE('',*,*,#375,.T.);
#155=ORIENTED_EDGE('',*,*,#376,.F.);
#156=ORIENTED_EDGE('',*,*,#366,.T.);
#157=ORIENTED_EDGE('',*,*,#377,.T.);
#158=ORIENTED_EDGE('',*,*,#371,.F.);
#159=ORIENTED_EDGE('',*,*,#354,.T.);
#160=ORIENTED_EDGE('',*,*,#378,.T.);
#161=ORIENTED_EDGE('',*,*,#295,.F.);
#162=ORIENTED_EDGE('',*,*,#379,.F.);
#163=ORIENTED_EDGE('',*,*,#346,.T.);
#164=ORIENTED_EDGE('',*,*,#380,.F.);
#165=ORIENTED_EDGE('',*,*,#316,.F.);
#166=ORIENTED_EDGE('',*,*,#381,.T.);
#167=ORIENTED_EDGE('',*,*,#349,.F.);
#168=ORIENTED_EDGE('',*,*,#382,.F.);
#169=ORIENTED_EDGE('',*,*,#319,.T.);
#170=ORIENTED_EDGE('',*,*,#383,.T.);
#171=ORIENTED_EDGE('',*,*,#384,.F.);
#172=ORIENTED_EDGE('',*,*,#385,.T.);
#173=ORIENTED_EDGE('',*,*,#307,.T.);
#174=ORIENTED_EDGE('',*,*,#386,.F.);
#175=ORIENTED_EDGE('',*,*,#384,.T.);
#176=ORIENTED_EDGE('',*,*,#387,.T.);
#177=ORIENTED_EDGE('',*,*,#285,.T.);
#178=ORIENTED_EDGE('',*,*,#388,.T.);
#179=ORIENTED_EDGE('',*,*,#336,.T.);
#180=ORIENTED_EDGE('',*,*,#389,.T.);
#181=ORIENTED_EDGE('',*,*,#299,.F.);
#182=ORIENTED_EDGE('',*,*,#390,.F.);
#183=ORIENTED_EDGE('',*,*,#339,.T.);
#184=ORIENTED_EDGE('',*,*,#391,.F.);
#185=ORIENTED_EDGE('',*,*,#331,.F.);
#186=ORIENTED_EDGE('',*,*,#392,.T.);
#187=ORIENTED_EDGE('',*,*,#334,.F.);
#188=ORIENTED_EDGE('',*,*,#393,.F.);
#189=ORIENTED_EDGE('',*,*,#329,.T.);
#190=ORIENTED_EDGE('',*,*,#394,.T.);
#191=ORIENTED_EDGE('',*,*,#337,.F.);
#192=ORIENTED_EDGE('',*,*,#395,.T.);
#193=ORIENTED_EDGE('',*,*,#297,.T.);
#194=ORIENTED_EDGE('',*,*,#396,.F.);
#195=ORIENTED_EDGE('',*,*,#330,.F.);
#196=ORIENTED_EDGE('',*,*,#393,.T.);
#197=ORIENTED_EDGE('',*,*,#333,.F.);
#198=ORIENTED_EDGE('',*,*,#392,.F.);
#199=ORIENTED_EDGE('',*,*,#332,.T.);
#200=ORIENTED_EDGE('',*,*,#391,.T.);
#201=ORIENTED_EDGE('',*,*,#338,.T.);
#202=ORIENTED_EDGE('',*,*,#394,.F.);
#203=ORIENTED_EDGE('',*,*,#286,.T.);
#204=ORIENTED_EDGE('',*,*,#387,.F.);
#205=ORIENTED_EDGE('',*,*,#383,.F.);
#206=ORIENTED_EDGE('',*,*,#318,.F.);
#207=ORIENTED_EDGE('',*,*,#320,.T.);
#208=ORIENTED_EDGE('',*,*,#382,.T.);
#209=ORIENTED_EDGE('',*,*,#348,.T.);
#210=ORIENTED_EDGE('',*,*,#352,.F.);
#211=ORIENTED_EDGE('',*,*,#317,.T.);
#212=ORIENTED_EDGE('',*,*,#380,.T.);
#213=ORIENTED_EDGE('',*,*,#345,.T.);
#214=ORIENTED_EDGE('',*,*,#288,.F.);
#215=ORIENTED_EDGE('',*,*,#358,.T.);
#216=ORIENTED_EDGE('',*,*,#355,.F.);
#217=ORIENTED_EDGE('',*,*,#381,.F.);
#218=ORIENTED_EDGE('',*,*,#315,.F.);
#219=ORIENTED_EDGE('',*,*,#323,.T.);
#220=ORIENTED_EDGE('',*,*,#374,.T.);
#221=ORIENTED_EDGE('',*,*,#342,.F.);
#222=ORIENTED_EDGE('',*,*,#368,.F.);
#223=ORIENTED_EDGE('',*,*,#367,.T.);
#224=ORIENTED_EDGE('',*,*,#376,.T.);
#225=ORIENTED_EDGE('',*,*,#375,.F.);
#226=ORIENTED_EDGE('',*,*,#321,.F.);
#227=ORIENTED_EDGE('',*,*,#397,.F.);
#228=ORIENTED_EDGE('',*,*,#361,.T.);
#229=ORIENTED_EDGE('',*,*,#398,.F.);
#230=ORIENTED_EDGE('',*,*,#397,.T.);
#231=ORIENTED_EDGE('',*,*,#350,.F.);
#232=ORIENTED_EDGE('',*,*,#386,.T.);
#233=ORIENTED_EDGE('',*,*,#306,.F.);
#234=ORIENTED_EDGE('',*,*,#372,.F.);
#235=ORIENTED_EDGE('',*,*,#377,.F.);
#236=ORIENTED_EDGE('',*,*,#370,.T.);
#237=ORIENTED_EDGE('',*,*,#302,.F.);
#238=ORIENTED_EDGE('',*,*,#399,.T.);
#239=ORIENTED_EDGE('',*,*,#311,.T.);
#240=ORIENTED_EDGE('',*,*,#353,.F.);
#241=ORIENTED_EDGE('',*,*,#312,.F.);
#242=ORIENTED_EDGE('',*,*,#399,.F.);
#243=ORIENTED_EDGE('',*,*,#301,.T.);
#244=ORIENTED_EDGE('',*,*,#400,.F.);
#245=ORIENTED_EDGE('',*,*,#335,.F.);
#246=ORIENTED_EDGE('',*,*,#396,.T.);
#247=ORIENTED_EDGE('',*,*,#296,.F.);
#248=ORIENTED_EDGE('',*,*,#378,.F.);
#249=ORIENTED_EDGE('',*,*,#357,.F.);
#250=ORIENTED_EDGE('',*,*,#359,.T.);
#251=ORIENTED_EDGE('',*,*,#313,.T.);
#252=ORIENTED_EDGE('',*,*,#400,.T.);
#253=ORIENTED_EDGE('',*,*,#300,.F.);
#254=ORIENTED_EDGE('',*,*,#389,.F.);
#255=ORIENTED_EDGE('',*,*,#304,.F.);
#256=ORIENTED_EDGE('',*,*,#369,.F.);
#257=ORIENTED_EDGE('',*,*,#344,.T.);
#258=ORIENTED_EDGE('',*,*,#373,.T.);
#259=ORIENTED_EDGE('',*,*,#298,.T.);
#260=ORIENTED_EDGE('',*,*,#395,.F.);
#261=ORIENTED_EDGE('',*,*,#340,.F.);
#262=ORIENTED_EDGE('',*,*,#390,.T.);
#263=ORIENTED_EDGE('',*,*,#308,.T.);
#264=ORIENTED_EDGE('',*,*,#385,.F.);
#265=ORIENTED_EDGE('',*,*,#388,.F.);
#266=ORIENTED_EDGE('',*,*,#284,.T.);
#267=ORIENTED_EDGE('',*,*,#294,.F.);
#268=ORIENTED_EDGE('',*,*,#282,.F.);
#269=ORIENTED_EDGE('',*,*,#347,.T.);
#270=ORIENTED_EDGE('',*,*,#379,.T.);
#271=ORIENTED_EDGE('',*,*,#401,.T.);
#272=ORIENTED_EDGE('',*,*,#289,.F.);
#273=ORIENTED_EDGE('',*,*,#402,.T.);
#274=ORIENTED_EDGE('',*,*,#401,.F.);
#275=ORIENTED_EDGE('',*,*,#398,.T.);
#276=ORIENTED_EDGE('',*,*,#403,.T.);
#277=ORIENTED_EDGE('',*,*,#309,.T.);
#278=ORIENTED_EDGE('',*,*,#360,.F.);
#279=ORIENTED_EDGE('',*,*,#403,.F.);
#280=ORIENTED_EDGE('',*,*,#402,.F.);
#281=EDGE_CURVE('',#404,#405,#489,.T.);
#282=EDGE_CURVE('',#404,#406,#490,.T.);
#283=EDGE_CURVE('',#407,#406,#491,.T.);
#284=EDGE_CURVE('',#408,#407,#492,.T.);
#285=EDGE_CURVE('',#409,#408,#493,.T.);
#286=EDGE_CURVE('',#410,#409,#494,.T.);
#287=EDGE_CURVE('',#411,#410,#495,.T.);
#288=EDGE_CURVE('',#411,#405,#496,.T.);
#289=EDGE_CURVE('',#412,#412,#20,.F.);
#290=EDGE_CURVE('',#413,#414,#497,.T.);
#291=EDGE_CURVE('',#414,#415,#21,.T.);
#292=EDGE_CURVE('',#415,#416,#498,.T.);
#293=EDGE_CURVE('',#416,#413,#22,.T.);
#294=EDGE_CURVE('',#406,#417,#499,.T.);
#295=EDGE_CURVE('',#417,#418,#500,.T.);
#296=EDGE_CURVE('',#418,#419,#501,.F.);
#297=EDGE_CURVE('',#420,#419,#502,.T.);
#298=EDGE_CURVE('',#421,#420,#503,.T.);
#299=EDGE_CURVE('',#421,#422,#504,.T.);
#300=EDGE_CURVE('',#422,#423,#505,.F.);
#301=EDGE_CURVE('',#424,#423,#23,.T.);
#302=EDGE_CURVE('',#424,#425,#506,.F.);
#303=EDGE_CURVE('',#426,#425,#507,.T.);
#304=EDGE_CURVE('',#426,#427,#508,.T.);
#305=EDGE_CURVE('',#427,#428,#509,.T.);
#306=EDGE_CURVE('',#428,#429,#510,.F.);
#307=EDGE_CURVE('',#430,#429,#511,.T.);
#308=EDGE_CURVE('',#407,#430,#512,.T.);
#309=EDGE_CURVE('',#431,#431,#24,.T.);
#310=EDGE_CURVE('',#432,#433,#513,.T.);
#311=EDGE_CURVE('',#434,#433,#514,.F.);
#312=EDGE_CURVE('',#434,#435,#25,.T.);
#313=EDGE_CURVE('',#436,#435,#515,.F.);
#314=EDGE_CURVE('',#436,#437,#516,.T.);
#315=EDGE_CURVE('',#437,#438,#517,.T.);
#316=EDGE_CURVE('',#438,#439,#518,.T.);
#317=EDGE_CURVE('',#411,#439,#519,.T.);
#318=EDGE_CURVE('',#410,#440,#520,.T.);
#319=EDGE_CURVE('',#441,#440,#521,.T.);
#320=EDGE_CURVE('',#432,#441,#522,.T.);
#321=EDGE_CURVE('',#442,#443,#523,.T.);
#322=EDGE_CURVE('',#443,#444,#524,.T.);
#323=EDGE_CURVE('',#445,#444,#525,.T.);
#324=EDGE_CURVE('',#442,#445,#526,.T.);
#325=EDGE_CURVE('',#446,#447,#527,.T.);
#326=EDGE_CURVE('',#448,#446,#26,.T.);
#327=EDGE_CURVE('',#449,#448,#528,.T.);
#328=EDGE_CURVE('',#447,#449,#27,.T.);
#329=EDGE_CURVE('',#450,#451,#529,.T.);
#330=EDGE_CURVE('',#450,#452,#530,.T.);
#331=EDGE_CURVE('',#452,#453,#531,.T.);
#332=EDGE_CURVE('',#451,#453,#532,.T.);
#333=EDGE_CURVE('',#454,#455,#533,.T.);
#334=EDGE_CURVE('',#455,#456,#534,.T.);
#335=EDGE_CURVE('',#456,#457,#535,.F.);
#336=EDGE_CURVE('',#454,#457,#536,.T.);
#337=EDGE_CURVE('',#458,#459,#537,.T.);
#338=EDGE_CURVE('',#460,#459,#538,.T.);
#339=EDGE_CURVE('',#461,#460,#539,.T.);
#340=EDGE_CURVE('',#461,#458,#540,.T.);
#341=EDGE_CURVE('',#462,#463,#541,.T.);
#342=EDGE_CURVE('',#463,#464,#542,.T.);
#343=EDGE_CURVE('',#465,#464,#543,.T.);
#344=EDGE_CURVE('',#462,#465,#544,.T.);
#345=EDGE_CURVE('',#466,#405,#545,.T.);
#346=EDGE_CURVE('',#467,#466,#546,.T.);
#347=EDGE_CURVE('',#404,#467,#547,.T.);
#348=EDGE_CURVE('',#468,#469,#548,.T.);
#349=EDGE_CURVE('',#468,#470,#549,.T.);
#350=EDGE_CURVE('',#470,#471,#550,.F.);
#351=EDGE_CURVE('',#471,#469,#551,.T.);
#352=EDGE_CURVE('',#432,#469,#552,.T.);
#353=EDGE_CURVE('',#471,#433,#553,.T.);
#354=EDGE_CURVE('',#472,#473,#554,.T.);
#355=EDGE_CURVE('',#472,#474,#555,.T.);
#356=EDGE_CURVE('',#474,#475,#556,.T.);
#357=EDGE_CURVE('',#475,#473,#557,.F.);
#358=EDGE_CURVE('',#437,#474,#558,.T.);
#359=EDGE_CURVE('',#475,#436,#559,.T.);
#360=EDGE_CURVE('',#476,#476,#28,.T.);
#361=EDGE_CURVE('',#477,#477,#29,.T.);
#362=EDGE_CURVE('',#415,#449,#560,.T.);
#363=EDGE_CURVE('',#414,#447,#561,.T.);
#364=EDGE_CURVE('',#413,#446,#562,.T.);
#365=EDGE_CURVE('',#416,#448,#563,.T.);
#366=EDGE_CURVE('',#478,#479,#564,.T.);
#367=EDGE_CURVE('',#442,#478,#565,.T.);
#368=EDGE_CURVE('',#445,#463,#566,.T.);
#369=EDGE_CURVE('',#462,#426,#567,.T.);
#370=EDGE_CURVE('',#479,#425,#568,.F.);
#371=EDGE_CURVE('',#480,#481,#569,.T.);
#372=EDGE_CURVE('',#481,#428,#570,.F.);
#373=EDGE_CURVE('',#465,#427,#571,.T.);
#374=EDGE_CURVE('',#444,#464,#572,.T.);
#375=EDGE_CURVE('',#443,#480,#573,.T.);
#376=EDGE_CURVE('',#478,#480,#574,.T.);
#377=EDGE_CURVE('',#479,#481,#575,.F.);
#378=EDGE_CURVE('',#473,#418,#576,.F.);
#379=EDGE_CURVE('',#467,#417,#577,.T.);
#380=EDGE_CURVE('',#439,#466,#578,.T.);
#381=EDGE_CURVE('',#438,#472,#579,.T.);
#382=EDGE_CURVE('',#441,#468,#580,.T.);
#383=EDGE_CURVE('',#440,#482,#581,.T.);
#384=EDGE_CURVE('',#483,#482,#582,.T.);
#385=EDGE_CURVE('',#483,#430,#583,.T.);
#386=EDGE_CURVE('',#470,#429,#584,.F.);
#387=EDGE_CURVE('',#482,#409,#585,.T.);
#388=EDGE_CURVE('',#408,#483,#586,.T.);
#389=EDGE_CURVE('',#457,#422,#587,.F.);
#390=EDGE_CURVE('',#461,#421,#588,.T.);
#391=EDGE_CURVE('',#453,#460,#589,.T.);
#392=EDGE_CURVE('',#452,#454,#590,.T.);
#393=EDGE_CURVE('',#450,#455,#591,.T.);
#394=EDGE_CURVE('',#451,#459,#592,.T.);
#395=EDGE_CURVE('',#458,#420,#593,.T.);
#396=EDGE_CURVE('',#456,#419,#594,.F.);
#397=EDGE_CURVE('',#484,#484,#30,.T.);
#398=EDGE_CURVE('',#485,#485,#31,.F.);
#399=EDGE_CURVE('',#424,#434,#595,.T.);
#400=EDGE_CURVE('',#435,#423,#596,.F.);
#401=EDGE_CURVE('',#486,#486,#32,.F.);
#402=EDGE_CURVE('',#487,#487,#33,.F.);
#403=EDGE_CURVE('',#488,#488,#34,.T.);
#404=VERTEX_POINT('',#1218);
#405=VERTEX_POINT('',#1219);
#406=VERTEX_POINT('',#1221);
#407=VERTEX_POINT('',#1223);
#408=VERTEX_POINT('',#1225);
#409=VERTEX_POINT('',#1227);
#410=VERTEX_POINT('',#1229);
#411=VERTEX_POINT('',#1231);
#412=VERTEX_POINT('',#1235);
#413=VERTEX_POINT('',#1237);
#414=VERTEX_POINT('',#1238);
#415=VERTEX_POINT('',#1240);
#416=VERTEX_POINT('',#1242);
#417=VERTEX_POINT('',#1245);
#418=VERTEX_POINT('',#1247);
#419=VERTEX_POINT('',#1249);
#420=VERTEX_POINT('',#1251);
#421=VERTEX_POINT('',#1253);
#422=VERTEX_POINT('',#1255);
#423=VERTEX_POINT('',#1257);
#424=VERTEX_POINT('',#1259);
#425=VERTEX_POINT('',#1261);
#426=VERTEX_POINT('',#1263);
#427=VERTEX_POINT('',#1265);
#428=VERTEX_POINT('',#1267);
#429=VERTEX_POINT('',#1269);
#430=VERTEX_POINT('',#1271);
#431=VERTEX_POINT('',#1275);
#432=VERTEX_POINT('',#1277);
#433=VERTEX_POINT('',#1278);
#434=VERTEX_POINT('',#1280);
#435=VERTEX_POINT('',#1282);
#436=VERTEX_POINT('',#1284);
#437=VERTEX_POINT('',#1286);
#438=VERTEX_POINT('',#1288);
#439=VERTEX_POINT('',#1290);
#440=VERTEX_POINT('',#1293);
#441=VERTEX_POINT('',#1295);
#442=VERTEX_POINT('',#1298);
#443=VERTEX_POINT('',#1299);
#444=VERTEX_POINT('',#1301);
#445=VERTEX_POINT('',#1303);
#446=VERTEX_POINT('',#1306);
#447=VERTEX_POINT('',#1307);
#448=VERTEX_POINT('',#1309);
#449=VERTEX_POINT('',#1311);
#450=VERTEX_POINT('',#1314);
#451=VERTEX_POINT('',#1315);
#452=VERTEX_POINT('',#1317);
#453=VERTEX_POINT('',#1319);
#454=VERTEX_POINT('',#1323);
#455=VERTEX_POINT('',#1324);
#456=VERTEX_POINT('',#1326);
#457=VERTEX_POINT('',#1328);
#458=VERTEX_POINT('',#1332);
#459=VERTEX_POINT('',#1333);
#460=VERTEX_POINT('',#1335);
#461=VERTEX_POINT('',#1337);
#462=VERTEX_POINT('',#1341);
#463=VERTEX_POINT('',#1342);
#464=VERTEX_POINT('',#1344);
#465=VERTEX_POINT('',#1346);
#466=VERTEX_POINT('',#1350);
#467=VERTEX_POINT('',#1352);
#468=VERTEX_POINT('',#1356);
#469=VERTEX_POINT('',#1357);
#470=VERTEX_POINT('',#1359);
#471=VERTEX_POINT('',#1361);
#472=VERTEX_POINT('',#1368);
#473=VERTEX_POINT('',#1369);
#474=VERTEX_POINT('',#1371);
#475=VERTEX_POINT('',#1373);
#476=VERTEX_POINT('',#1380);
#477=VERTEX_POINT('',#1382);
#478=VERTEX_POINT('',#1393);
#479=VERTEX_POINT('',#1394);
#480=VERTEX_POINT('',#1401);
#481=VERTEX_POINT('',#1402);
#482=VERTEX_POINT('',#1418);
#483=VERTEX_POINT('',#1420);
#484=VERTEX_POINT('',#1446);
#485=VERTEX_POINT('',#1449);
#486=VERTEX_POINT('',#1461);
#487=VERTEX_POINT('',#1464);
#488=VERTEX_POINT('',#1467);
#489=LINE('',#1217,#597);
#490=LINE('',#1220,#598);
#491=LINE('',#1222,#599);
#492=LINE('',#1224,#600);
#493=LINE('',#1226,#601);
#494=LINE('',#1228,#602);
#495=LINE('',#1230,#603);
#496=LINE('',#1232,#604);
#497=LINE('',#1236,#605);
#498=LINE('',#1241,#606);
#499=LINE('',#1244,#607);
#500=LINE('',#1246,#608);
#501=LINE('',#1248,#609);
#502=LINE('',#1250,#610);
#503=LINE('',#1252,#611);
#504=LINE('',#1254,#612);
#505=LINE('',#1256,#613);
#506=LINE('',#1260,#614);
#507=LINE('',#1262,#615);
#508=LINE('',#1264,#616);
#509=LINE('',#1266,#617);
#510=LINE('',#1268,#618);
#511=LINE('',#1270,#619);
#512=LINE('',#1272,#620);
#513=LINE('',#1276,#621);
#514=LINE('',#1279,#622);
#515=LINE('',#1283,#623);
#516=LINE('',#1285,#624);
#517=LINE('',#1287,#625);
#518=LINE('',#1289,#626);
#519=LINE('',#1291,#627);
#520=LINE('',#1292,#628);
#521=LINE('',#1294,#629);
#522=LINE('',#1296,#630);
#523=LINE('',#1297,#631);
#524=LINE('',#1300,#632);
#525=LINE('',#1302,#633);
#526=LINE('',#1304,#634);
#527=LINE('',#1305,#635);
#528=LINE('',#1310,#636);
#529=LINE('',#1313,#637);
#530=LINE('',#1316,#638);
#531=LINE('',#1318,#639);
#532=LINE('',#1320,#640);
#533=LINE('',#1322,#641);
#534=LINE('',#1325,#642);
#535=LINE('',#1327,#643);
#536=LINE('',#1329,#644);
#537=LINE('',#1331,#645);
#538=LINE('',#1334,#646);
#539=LINE('',#1336,#647);
#540=LINE('',#1338,#648);
#541=LINE('',#1340,#649);
#542=LINE('',#1343,#650);
#543=LINE('',#1345,#651);
#544=LINE('',#1347,#652);
#545=LINE('',#1349,#653);
#546=LINE('',#1351,#654);
#547=LINE('',#1353,#655);
#548=LINE('',#1355,#656);
#549=LINE('',#1358,#657);
#550=LINE('',#1360,#658);
#551=LINE('',#1362,#659);
#552=LINE('',#1364,#660);
#553=LINE('',#1365,#661);
#554=LINE('',#1367,#662);
#555=LINE('',#1370,#663);
#556=LINE('',#1372,#664);
#557=LINE('',#1374,#665);
#558=LINE('',#1376,#666);
#559=LINE('',#1377,#667);
#560=LINE('',#1384,#668);
#561=LINE('',#1385,#669);
#562=LINE('',#1387,#670);
#563=LINE('',#1389,#671);
#564=LINE('',#1392,#672);
#565=LINE('',#1395,#673);
#566=LINE('',#1396,#674);
#567=LINE('',#1397,#675);
#568=LINE('',#1398,#676);
#569=LINE('',#1400,#677);
#570=LINE('',#1403,#678);
#571=LINE('',#1404,#679);
#572=LINE('',#1405,#680);
#573=LINE('',#1406,#681);
#574=LINE('',#1408,#682);
#575=LINE('',#1409,#683);
#576=LINE('',#1411,#684);
#577=LINE('',#1412,#685);
#578=LINE('',#1413,#686);
#579=LINE('',#1414,#687);
#580=LINE('',#1416,#688);
#581=LINE('',#1417,#689);
#582=LINE('',#1419,#690);
#583=LINE('',#1421,#691);
#584=LINE('',#1422,#692);
#585=LINE('',#1424,#693);
#586=LINE('',#1425,#694);
#587=LINE('',#1427,#695);
#588=LINE('',#1428,#696);
#589=LINE('',#1429,#697);
#590=LINE('',#1430,#698);
#591=LINE('',#1432,#699);
#592=LINE('',#1433,#700);
#593=LINE('',#1434,#701);
#594=LINE('',#1435,#702);
#595=LINE('',#1451,#703);
#596=LINE('',#1453,#704);
#597=VECTOR('',#987,1.);
#598=VECTOR('',#988,1.);
#599=VECTOR('',#989,1.);
#600=VECTOR('',#990,1.);
#601=VECTOR('',#991,1.);
#602=VECTOR('',#992,1.);
#603=VECTOR('',#993,1.);
#604=VECTOR('',#994,1.);
#605=VECTOR('',#999,1.);
#606=VECTOR('',#1002,1.);
#607=VECTOR('',#1005,1.);
#608=VECTOR('',#1006,1.);
#609=VECTOR('',#1007,1.);
#610=VECTOR('',#1008,1.);
#611=VECTOR('',#1009,1.);
#612=VECTOR('',#1010,1.);
#613=VECTOR('',#1011,1.);
#614=VECTOR('',#1014,1.);
#615=VECTOR('',#1015,1.);
#616=VECTOR('',#1016,1.);
#617=VECTOR('',#1017,1.);
#618=VECTOR('',#1018,1.);
#619=VECTOR('',#1019,1.);
#620=VECTOR('',#1020,1.);
#621=VECTOR('',#1025,1.);
#622=VECTOR('',#1026,1.);
#623=VECTOR('',#1029,1.);
#624=VECTOR('',#1030,1.);
#625=VECTOR('',#1031,1.);
#626=VECTOR('',#1032,1.);
#627=VECTOR('',#1033,1.);
#628=VECTOR('',#1034,1.);
#629=VECTOR('',#1035,1.);
#630=VECTOR('',#1036,1.);
#631=VECTOR('',#1037,1.);
#632=VECTOR('',#1038,1.);
#633=VECTOR('',#1039,1.);
#634=VECTOR('',#1040,1.);
#635=VECTOR('',#1041,1.);
#636=VECTOR('',#1044,1.);
#637=VECTOR('',#1047,1.);
#638=VECTOR('',#1048,1.);
#639=VECTOR('',#1049,1.);
#640=VECTOR('',#1050,1.);
#641=VECTOR('',#1053,1.);
#642=VECTOR('',#1054,1.);
#643=VECTOR('',#1055,1.);
#644=VECTOR('',#1056,1.);
#645=VECTOR('',#1059,1.);
#646=VECTOR('',#1060,1.);
#647=VECTOR('',#1061,1.);
#648=VECTOR('',#1062,1.);
#649=VECTOR('',#1065,1.);
#650=VECTOR('',#1066,1.);
#651=VECTOR('',#1067,1.);
#652=VECTOR('',#1068,1.);
#653=VECTOR('',#1071,1.);
#654=VECTOR('',#1072,1.);
#655=VECTOR('',#1073,1.);
#656=VECTOR('',#1076,1.);
#657=VECTOR('',#1077,1.);
#658=VECTOR('',#1078,1.);
#659=VECTOR('',#1079,1.);
#660=VECTOR('',#1082,1.);
#661=VECTOR('',#1083,1.);
#662=VECTOR('',#1086,1.);
#663=VECTOR('',#1087,1.);
#664=VECTOR('',#1088,1.);
#665=VECTOR('',#1089,1.);
#666=VECTOR('',#1092,1.);
#667=VECTOR('',#1093,1.);
#668=VECTOR('',#1102,1.);
#669=VECTOR('',#1103,1.);
#670=VECTOR('',#1106,1.);
#671=VECTOR('',#1109,1.);
#672=VECTOR('',#1114,1.);
#673=VECTOR('',#1115,1.);
#674=VECTOR('',#1116,1.);
#675=VECTOR('',#1117,1.);
#676=VECTOR('',#1118,1.);
#677=VECTOR('',#1121,1.);
#678=VECTOR('',#1122,1.);
#679=VECTOR('',#1123,1.);
#680=VECTOR('',#1124,1.);
#681=VECTOR('',#1125,1.);
#682=VECTOR('',#1128,1.);
#683=VECTOR('',#1129,1.);
#684=VECTOR('',#1132,1.);
#685=VECTOR('',#1133,1.);
#686=VECTOR('',#1134,1.);
#687=VECTOR('',#1135,1.);
#688=VECTOR('',#1138,1.);
#689=VECTOR('',#1139,1.);
#690=VECTOR('',#1140,1.);
#691=VECTOR('',#1141,1.);
#692=VECTOR('',#1142,1.);
#693=VECTOR('',#1145,1.);
#694=VECTOR('',#1146,1.);
#695=VECTOR('',#1149,1.);
#696=VECTOR('',#1150,1.);
#697=VECTOR('',#1151,1.);
#698=VECTOR('',#1152,1.);
#699=VECTOR('',#1155,1.);
#700=VECTOR('',#1156,1.);
#701=VECTOR('',#1157,1.);
#702=VECTOR('',#1158,1.);
#703=VECTOR('',#1185,1.);
#704=VECTOR('',#1188,1.);
#705=EDGE_LOOP('',(#35,#36,#37,#38,#39,#40,#41,#42));
#706=EDGE_LOOP('',(#43));
#707=EDGE_LOOP('',(#44,#45,#46,#47));
#708=EDGE_LOOP('',(#48,#49,#50,#51,#52,#53,#54,#55,#56,#57,#58,#59,#60,
#61,#62,#63));
#709=EDGE_LOOP('',(#64));
#710=EDGE_LOOP('',(#65,#66,#67,#68,#69,#70,#71,#72,#73,#74,#75,#76));
#711=EDGE_LOOP('',(#77,#78,#79,#80));
#712=EDGE_LOOP('',(#81,#82,#83,#84));
#713=EDGE_LOOP('',(#85,#86,#87,#88));
#714=EDGE_LOOP('',(#89,#90,#91,#92));
#715=EDGE_LOOP('',(#93,#94,#95,#96));
#716=EDGE_LOOP('',(#97,#98,#99,#100));
#717=EDGE_LOOP('',(#101,#102,#103,#104));
#718=EDGE_LOOP('',(#105,#106,#107,#108));
#719=EDGE_LOOP('',(#109,#110,#111,#112));
#720=EDGE_LOOP('',(#113,#114,#115,#116));
#721=EDGE_LOOP('',(#117,#118,#119,#120));
#722=EDGE_LOOP('',(#121));
#723=EDGE_LOOP('',(#122));
#724=EDGE_LOOP('',(#123,#124,#125,#126));
#725=EDGE_LOOP('',(#127,#128,#129,#130));
#726=EDGE_LOOP('',(#131,#132,#133,#134));
#727=EDGE_LOOP('',(#135,#136,#137,#138));
#728=EDGE_LOOP('',(#139,#140,#141,#142,#143,#144,#145,#146));
#729=EDGE_LOOP('',(#147,#148,#149,#150,#151,#152,#153,#154));
#730=EDGE_LOOP('',(#155,#156,#157,#158));
#731=EDGE_LOOP('',(#159,#160,#161,#162,#163,#164,#165,#166));
#732=EDGE_LOOP('',(#167,#168,#169,#170,#171,#172,#173,#174));
#733=EDGE_LOOP('',(#175,#176,#177,#178));
#734=EDGE_LOOP('',(#179,#180,#181,#182,#183,#184,#185,#186));
#735=EDGE_LOOP('',(#187,#188,#189,#190,#191,#192,#193,#194));
#736=EDGE_LOOP('',(#195,#196,#197,#198));
#737=EDGE_LOOP('',(#199,#200,#201,#202));
#738=EDGE_LOOP('',(#203,#204,#205,#206));
#739=EDGE_LOOP('',(#207,#208,#209,#210));
#740=EDGE_LOOP('',(#211,#212,#213,#214));
#741=EDGE_LOOP('',(#215,#216,#217,#218));
#742=EDGE_LOOP('',(#219,#220,#221,#222));
#743=EDGE_LOOP('',(#223,#224,#225,#226));
#744=EDGE_LOOP('',(#227));
#745=EDGE_LOOP('',(#228));
#746=EDGE_LOOP('',(#229));
#747=EDGE_LOOP('',(#230));
#748=EDGE_LOOP('',(#231,#232,#233,#234,#235,#236,#237,#238,#239,#240));
#749=EDGE_LOOP('',(#241,#242,#243,#244));
#750=EDGE_LOOP('',(#245,#246,#247,#248,#249,#250,#251,#252,#253,#254));
#751=EDGE_LOOP('',(#255,#256,#257,#258));
#752=EDGE_LOOP('',(#259,#260,#261,#262));
#753=EDGE_LOOP('',(#263,#264,#265,#266));
#754=EDGE_LOOP('',(#267,#268,#269,#270));
#755=EDGE_LOOP('',(#271));
#756=EDGE_LOOP('',(#272));
#757=EDGE_LOOP('',(#273));
#758=EDGE_LOOP('',(#274));
#759=EDGE_LOOP('',(#275));
#760=EDGE_LOOP('',(#276));
#761=EDGE_LOOP('',(#277));
#762=EDGE_LOOP('',(#278));
#763=EDGE_LOOP('',(#279));
#764=EDGE_LOOP('',(#280));
#765=FACE_BOUND('',#705,.T.);
#766=FACE_BOUND('',#706,.T.);
#767=FACE_BOUND('',#707,.T.);
#768=FACE_BOUND('',#708,.T.);
#769=FACE_BOUND('',#709,.T.);
#770=FACE_BOUND('',#710,.T.);
#771=FACE_BOUND('',#711,.T.);
#772=FACE_BOUND('',#712,.T.);
#773=FACE_BOUND('',#713,.T.);
#774=FACE_BOUND('',#714,.T.);
#775=FACE_BOUND('',#715,.T.);
#776=FACE_BOUND('',#716,.T.);
#777=FACE_BOUND('',#717,.T.);
#778=FACE_BOUND('',#718,.T.);
#779=FACE_BOUND('',#719,.T.);
#780=FACE_BOUND('',#720,.T.);
#781=FACE_BOUND('',#721,.T.);
#782=FACE_BOUND('',#722,.T.);
#783=FACE_BOUND('',#723,.T.);
#784=FACE_BOUND('',#724,.T.);
#785=FACE_BOUND('',#725,.T.);
#786=FACE_BOUND('',#726,.T.);
#787=FACE_BOUND('',#727,.T.);
#788=FACE_BOUND('',#728,.T.);
#789=FACE_BOUND('',#729,.T.);
#790=FACE_BOUND('',#730,.T.);
#791=FACE_BOUND('',#731,.T.);
#792=FACE_BOUND('',#732,.T.);
#793=FACE_BOUND('',#733,.T.);
#794=FACE_BOUND('',#734,.T.);
#795=FACE_BOUND('',#735,.T.);
#796=FACE_BOUND('',#736,.T.);
#797=FACE_BOUND('',#737,.T.);
#798=FACE_BOUND('',#738,.T.);
#799=FACE_BOUND('',#739,.T.);
#800=FACE_BOUND('',#740,.T.);
#801=FACE_BOUND('',#741,.T.);
#802=FACE_BOUND('',#742,.T.);
#803=FACE_BOUND('',#743,.T.);
#804=FACE_BOUND('',#744,.T.);
#805=FACE_BOUND('',#745,.T.);
#806=FACE_BOUND('',#746,.T.);
#807=FACE_BOUND('',#747,.T.);
#808=FACE_BOUND('',#748,.T.);
#809=FACE_BOUND('',#749,.T.);
#810=FACE_BOUND('',#750,.T.);
#811=FACE_BOUND('',#751,.T.);
#812=FACE_BOUND('',#752,.T.);
#813=FACE_BOUND('',#753,.T.);
#814=FACE_BOUND('',#754,.T.);
#815=FACE_BOUND('',#755,.T.);
#816=FACE_BOUND('',#756,.T.);
#817=FACE_BOUND('',#757,.T.);
#818=FACE_BOUND('',#758,.T.);
#819=FACE_BOUND('',#759,.T.);
#820=FACE_BOUND('',#760,.T.);
#821=FACE_BOUND('',#761,.T.);
#822=FACE_BOUND('',#762,.T.);
#823=FACE_BOUND('',#763,.T.);
#824=FACE_BOUND('',#764,.T.);
#825=PLANE('',#922);
#826=PLANE('',#923);
#827=PLANE('',#928);
#828=PLANE('',#933);
#829=PLANE('',#934);
#830=PLANE('',#935);
#831=PLANE('',#936);
#832=PLANE('',#937);
#833=PLANE('',#938);
#834=PLANE('',#939);
#835=PLANE('',#940);
#836=PLANE('',#941);
#837=PLANE('',#945);
#838=PLANE('',#947);
#839=PLANE('',#948);
#840=PLANE('',#949);
#841=PLANE('',#950);
#842=PLANE('',#951);
#843=PLANE('',#952);
#844=PLANE('',#953);
#845=PLANE('',#954);
#846=PLANE('',#955);
#847=PLANE('',#956);
#848=PLANE('',#957);
#849=PLANE('',#958);
#850=PLANE('',#959);
#851=PLANE('',#960);
#852=PLANE('',#961);
#853=PLANE('',#962);
#854=PLANE('',#963);
#855=PLANE('',#968);
#856=PLANE('',#970);
#857=PLANE('',#971);
#858=PLANE('',#972);
#859=PLANE('',#973);
#860=PLANE('',#974);
#861=PLANE('',#977);
#862=PLANE('',#979);
#863=ADVANCED_FACE('',(#765),#825,.T.);
#864=ADVANCED_FACE('',(#766,#767,#768),#826,.F.);
#865=ADVANCED_FACE('',(#769,#770,#771,#772,#773),#827,.T.);
#866=ADVANCED_FACE('',(#774),#828,.T.);
#867=ADVANCED_FACE('',(#775),#829,.T.);
#868=ADVANCED_FACE('',(#776),#830,.T.);
#869=ADVANCED_FACE('',(#777),#831,.T.);
#870=ADVANCED_FACE('',(#778),#832,.T.);
#871=ADVANCED_FACE('',(#779),#833,.T.);
#872=ADVANCED_FACE('',(#780),#834,.T.);
#873=ADVANCED_FACE('',(#781),#835,.T.);
#874=ADVANCED_FACE('',(#782,#783),#836,.F.);
#875=ADVANCED_FACE('',(#784),#14,.F.);
#876=ADVANCED_FACE('',(#785),#837,.F.);
#877=ADVANCED_FACE('',(#786),#15,.F.);
#878=ADVANCED_FACE('',(#787),#838,.F.);
#879=ADVANCED_FACE('',(#788),#839,.F.);
#880=ADVANCED_FACE('',(#789),#840,.T.);
#881=ADVANCED_FACE('',(#790),#841,.T.);
#882=ADVANCED_FACE('',(#791),#842,.T.);
#883=ADVANCED_FACE('',(#792),#843,.F.);
#884=ADVANCED_FACE('',(#793),#844,.T.);
#885=ADVANCED_FACE('',(#794),#845,.T.);
#886=ADVANCED_FACE('',(#795),#846,.F.);
#887=ADVANCED_FACE('',(#796),#847,.T.);
#888=ADVANCED_FACE('',(#797),#848,.F.);
#889=ADVANCED_FACE('',(#798),#849,.T.);
#890=ADVANCED_FACE('',(#799),#850,.F.);
#891=ADVANCED_FACE('',(#800),#851,.F.);
#892=ADVANCED_FACE('',(#801),#852,.T.);
#893=ADVANCED_FACE('',(#802),#853,.F.);
#894=ADVANCED_FACE('',(#803),#854,.T.);
#895=ADVANCED_FACE('',(#804,#805),#12,.F.);
#896=ADVANCED_FACE('',(#806,#807),#13,.T.);
#897=ADVANCED_FACE('',(#808),#855,.T.);
#898=ADVANCED_FACE('',(#809),#16,.T.);
#899=ADVANCED_FACE('',(#810),#856,.T.);
#900=ADVANCED_FACE('',(#811),#857,.T.);
#901=ADVANCED_FACE('',(#812),#858,.F.);
#902=ADVANCED_FACE('',(#813),#859,.F.);
#903=ADVANCED_FACE('',(#814),#860,.T.);
#904=ADVANCED_FACE('',(#815,#816),#17,.T.);
#905=ADVANCED_FACE('',(#817,#818),#861,.F.);
#906=ADVANCED_FACE('',(#819,#820),#862,.T.);
#907=ADVANCED_FACE('',(#821,#822),#18,.F.);
#908=ADVANCED_FACE('',(#823,#824),#19,.T.);
#909=CLOSED_SHELL('',(#863,#864,#865,#866,#867,#868,#869,#870,#871,#872,
#873,#874,#875,#876,#877,#878,#879,#880,#881,#882,#883,#884,#885,#886,#887,
#888,#889,#890,#891,#892,#893,#894,#895,#896,#897,#898,#899,#900,#901,#902,
#903,#904,#905,#906,#907,#908));
#910=STYLED_ITEM('',(#911),#918);
#911=PRESENTATION_STYLE_ASSIGNMENT((#912));
#912=SURFACE_STYLE_USAGE(.BOTH.,#913);
#913=SURFACE_SIDE_STYLE('',(#914));
#914=SURFACE_STYLE_FILL_AREA(#915);
#915=FILL_AREA_STYLE('',(#916));
#916=FILL_AREA_STYLE_COLOUR('',#917);
#917=COLOUR_RGB('',0.898039215686275,0.12156862745098,0.12156862745098);
#918=MANIFOLD_SOLID_BREP('pan bearing holder',#909);
#919=SHAPE_DEFINITION_REPRESENTATION(#1476,#920);
#920=SHAPE_REPRESENTATION('pan bearing holder',(#921),#1471);
#921=AXIS2_PLACEMENT_3D('',#1215,#983,#984);
#922=AXIS2_PLACEMENT_3D('',#1216,#985,#986);
#923=AXIS2_PLACEMENT_3D('',#1233,#995,#996);
#924=AXIS2_PLACEMENT_3D('',#1234,#997,#998);
#925=AXIS2_PLACEMENT_3D('',#1239,#1000,#1001);
#926=AXIS2_PLACEMENT_3D('',#1243,#1003,#1004);
#927=AXIS2_PLACEMENT_3D('',#1258,#1012,#1013);
#928=AXIS2_PLACEMENT_3D('',#1273,#1021,#1022);
#929=AXIS2_PLACEMENT_3D('',#1274,#1023,#1024);
#930=AXIS2_PLACEMENT_3D('',#1281,#1027,#1028);
#931=AXIS2_PLACEMENT_3D('',#1308,#1042,#1043);
#932=AXIS2_PLACEMENT_3D('',#1312,#1045,#1046);
#933=AXIS2_PLACEMENT_3D('',#1321,#1051,#1052);
#934=AXIS2_PLACEMENT_3D('',#1330,#1057,#1058);
#935=AXIS2_PLACEMENT_3D('',#1339,#1063,#1064);
#936=AXIS2_PLACEMENT_3D('',#1348,#1069,#1070);
#937=AXIS2_PLACEMENT_3D('',#1354,#1074,#1075);
#938=AXIS2_PLACEMENT_3D('',#1363,#1080,#1081);
#939=AXIS2_PLACEMENT_3D('',#1366,#1084,#1085);
#940=AXIS2_PLACEMENT_3D('',#1375,#1090,#1091);
#941=AXIS2_PLACEMENT_3D('',#1378,#1094,#1095);
#942=AXIS2_PLACEMENT_3D('',#1379,#1096,#1097);
#943=AXIS2_PLACEMENT_3D('',#1381,#1098,#1099);
#944=AXIS2_PLACEMENT_3D('',#1383,#1100,#1101);
#945=AXIS2_PLACEMENT_3D('',#1386,#1104,#1105);
#946=AXIS2_PLACEMENT_3D('',#1388,#1107,#1108);
#947=AXIS2_PLACEMENT_3D('',#1390,#1110,#1111);
#948=AXIS2_PLACEMENT_3D('',#1391,#1112,#1113);
#949=AXIS2_PLACEMENT_3D('',#1399,#1119,#1120);
#950=AXIS2_PLACEMENT_3D('',#1407,#1126,#1127);
#951=AXIS2_PLACEMENT_3D('',#1410,#1130,#1131);
#952=AXIS2_PLACEMENT_3D('',#1415,#1136,#1137);
#953=AXIS2_PLACEMENT_3D('',#1423,#1143,#1144);
#954=AXIS2_PLACEMENT_3D('',#1426,#1147,#1148);
#955=AXIS2_PLACEMENT_3D('',#1431,#1153,#1154);
#956=AXIS2_PLACEMENT_3D('',#1436,#1159,#1160);
#957=AXIS2_PLACEMENT_3D('',#1437,#1161,#1162);
#958=AXIS2_PLACEMENT_3D('',#1438,#1163,#1164);
#959=AXIS2_PLACEMENT_3D('',#1439,#1165,#1166);
#960=AXIS2_PLACEMENT_3D('',#1440,#1167,#1168);
#961=AXIS2_PLACEMENT_3D('',#1441,#1169,#1170);
#962=AXIS2_PLACEMENT_3D('',#1442,#1171,#1172);
#963=AXIS2_PLACEMENT_3D('',#1443,#1173,#1174);
#964=AXIS2_PLACEMENT_3D('',#1444,#1175,#1176);
#965=AXIS2_PLACEMENT_3D('',#1445,#1177,#1178);
#966=AXIS2_PLACEMENT_3D('',#1447,#1179,#1180);
#967=AXIS2_PLACEMENT_3D('',#1448,#1181,#1182);
#968=AXIS2_PLACEMENT_3D('',#1450,#1183,#1184);
#969=AXIS2_PLACEMENT_3D('',#1452,#1186,#1187);
#970=AXIS2_PLACEMENT_3D('',#1454,#1189,#1190);
#971=AXIS2_PLACEMENT_3D('',#1455,#1191,#1192);
#972=AXIS2_PLACEMENT_3D('',#1456,#1193,#1194);
#973=AXIS2_PLACEMENT_3D('',#1457,#1195,#1196);
#974=AXIS2_PLACEMENT_3D('',#1458,#1197,#1198);
#975=AXIS2_PLACEMENT_3D('',#1459,#1199,#1200);
#976=AXIS2_PLACEMENT_3D('',#1460,#1201,#1202);
#977=AXIS2_PLACEMENT_3D('',#1462,#1203,#1204);
#978=AXIS2_PLACEMENT_3D('',#1463,#1205,#1206);
#979=AXIS2_PLACEMENT_3D('',#1465,#1207,#1208);
#980=AXIS2_PLACEMENT_3D('',#1466,#1209,#1210);
#981=AXIS2_PLACEMENT_3D('',#1468,#1211,#1212);
#982=AXIS2_PLACEMENT_3D('',#1469,#1213,#1214);
#983=DIRECTION('',(0.,0.,1.));
#984=DIRECTION('',(1.,0.,0.));
#985=DIRECTION('',(0.,1.,0.));
#986=DIRECTION('',(1.,0.,0.));
#987=DIRECTION('',(-1.,0.,0.));
#988=DIRECTION('',(0.,0.,1.));
#989=DIRECTION('',(-1.,0.,0.));
#990=DIRECTION('',(0.,0.,1.));
#991=DIRECTION('',(-1.,0.,0.));
#992=DIRECTION('',(0.,0.,1.));
#993=DIRECTION('',(1.,0.,0.));
#994=DIRECTION('',(0.,0.,1.));
#995=DIRECTION('',(0.,0.,-1.));
#996=DIRECTION('',(-1.,0.,0.));
#997=DIRECTION('',(0.,0.,1.));
#998=DIRECTION('',(0.,1.,0.));
#999=DIRECTION('',(0.,-1.,0.));
#1000=DIRECTION('',(0.,0.,-1.));
#1001=DIRECTION('',(-1.,0.,0.));
#1002=DIRECTION('',(0.,1.,0.));
#1003=DIRECTION('',(0.,0.,-1.));
#1004=DIRECTION('',(1.,0.,0.));
#1005=DIRECTION('',(0.,-1.,0.));
#1006=DIRECTION('',(-1.,0.,0.));
#1007=DIRECTION('',(0.,1.,0.));
#1008=DIRECTION('',(-1.,0.,0.));
#1009=DIRECTION('',(0.,1.,0.));
#1010=DIRECTION('',(-1.,0.,0.));
#1011=DIRECTION('',(0.,1.,0.));
#1012=DIRECTION('',(0.,0.,-1.));
#1013=DIRECTION('',(0.,-1.,0.));
#1014=DIRECTION('',(0.,-1.,0.));
#1015=DIRECTION('',(1.,0.,0.));
#1016=DIRECTION('',(0.,1.,0.));
#1017=DIRECTION('',(1.,0.,0.));
#1018=DIRECTION('',(0.,-1.,0.));
#1019=DIRECTION('',(1.,0.,0.));
#1020=DIRECTION('',(0.,-1.,0.));
#1021=DIRECTION('',(0.,0.,-1.));
#1022=DIRECTION('',(-1.,0.,0.));
#1023=DIRECTION('',(0.,0.,-1.));
#1024=DIRECTION('',(-1.,0.,0.));
#1025=DIRECTION('',(1.,0.,0.));
#1026=DIRECTION('',(0.,-1.,0.));
#1027=DIRECTION('',(0.,0.,-1.));
#1028=DIRECTION('',(0.,-1.,0.));
#1029=DIRECTION('',(0.,1.,0.));
#1030=DIRECTION('',(1.,0.,0.));
#1031=DIRECTION('',(0.,-1.,0.));
#1032=DIRECTION('',(1.,0.,0.));
#1033=DIRECTION('',(0.,-1.,0.));
#1034=DIRECTION('',(0.,-1.,0.));
#1035=DIRECTION('',(-1.,0.,0.));
#1036=DIRECTION('',(0.,-1.,0.));
#1037=DIRECTION('',(0.,1.,0.));
#1038=DIRECTION('',(-1.,0.,0.));
#1039=DIRECTION('',(1.50845519650157E-15,1.,0.));
#1040=DIRECTION('',(-1.,0.,0.));
#1041=DIRECTION('',(0.,-1.,0.));
#1042=DIRECTION('',(0.,0.,-1.));
#1043=DIRECTION('',(1.,0.,0.));
#1044=DIRECTION('',(0.,1.,0.));
#1045=DIRECTION('',(0.,0.,-1.));
#1046=DIRECTION('',(-1.,0.,0.));
#1047=DIRECTION('',(1.,0.,0.));
#1048=DIRECTION('',(0.,-1.,0.));
#1049=DIRECTION('',(1.,0.,0.));
#1050=DIRECTION('',(0.,-1.,0.));
#1051=DIRECTION('',(0.,0.,1.));
#1052=DIRECTION('',(1.,0.,0.));
#1053=DIRECTION('',(0.,1.,0.));
#1054=DIRECTION('',(-1.,0.,0.));
#1055=DIRECTION('',(0.,1.,0.));
#1056=DIRECTION('',(-1.,0.,0.));
#1057=DIRECTION('',(0.,0.,1.));
#1058=DIRECTION('',(1.,0.,0.));
#1059=DIRECTION('',(-1.,0.,0.));
#1060=DIRECTION('',(0.,1.,0.));
#1061=DIRECTION('',(-1.,0.,0.));
#1062=DIRECTION('',(0.,1.,0.));
#1063=DIRECTION('',(0.,0.,1.));
#1064=DIRECTION('',(1.,0.,0.));
#1065=DIRECTION('',(1.,0.,0.));
#1066=DIRECTION('',(0.,1.,0.));
#1067=DIRECTION('',(1.,0.,0.));
#1068=DIRECTION('',(0.,1.,0.));
#1069=DIRECTION('',(0.,0.,1.));
#1070=DIRECTION('',(1.,0.,0.));
#1071=DIRECTION('',(0.,1.,0.));
#1072=DIRECTION('',(-1.,0.,0.));
#1073=DIRECTION('',(0.,-1.,0.));
#1074=DIRECTION('',(0.,0.,1.));
#1075=DIRECTION('',(1.,0.,0.));
#1076=DIRECTION('',(0.,1.,0.));
#1077=DIRECTION('',(1.,0.,0.));
#1078=DIRECTION('',(0.,-1.,0.));
#1079=DIRECTION('',(-1.,0.,0.));
#1080=DIRECTION('',(0.,1.,0.));
#1081=DIRECTION('',(1.,0.,0.));
#1082=DIRECTION('',(0.,0.,1.));
#1083=DIRECTION('',(0.,0.,-1.));
#1084=DIRECTION('',(0.,0.,1.));
#1085=DIRECTION('',(1.,0.,0.));
#1086=DIRECTION('',(-1.,0.,0.));
#1087=DIRECTION('',(0.,1.,0.));
#1088=DIRECTION('',(-1.,0.,0.));
#1089=DIRECTION('',(0.,1.,0.));
#1090=DIRECTION('',(0.,1.,0.));
#1091=DIRECTION('',(1.,0.,0.));
#1092=DIRECTION('',(0.,0.,1.));
#1093=DIRECTION('',(0.,0.,-1.));
#1094=DIRECTION('',(0.,0.,-1.));
#1095=DIRECTION('',(-1.,0.,0.));
#1096=DIRECTION('',(0.,0.,-1.));
#1097=DIRECTION('',(-1.,0.,0.));
#1098=DIRECTION('',(0.,0.,-1.));
#1099=DIRECTION('',(-1.,0.,0.));
#1100=DIRECTION('',(0.,0.,-1.));
#1101=DIRECTION('',(-1.,0.,0.));
#1102=DIRECTION('',(0.,0.,-1.));
#1103=DIRECTION('',(0.,0.,-1.));
#1104=DIRECTION('',(1.,0.,0.));
#1105=DIRECTION('',(0.,-1.,0.));
#1106=DIRECTION('',(0.,0.,-1.));
#1107=DIRECTION('',(0.,0.,-1.));
#1108=DIRECTION('',(1.,0.,0.));
#1109=DIRECTION('',(0.,0.,-1.));
#1110=DIRECTION('',(-1.,0.,0.));
#1111=DIRECTION('',(0.,1.,0.));
#1112=DIRECTION('',(0.,-1.,0.));
#1113=DIRECTION('',(1.,0.,0.));
#1114=DIRECTION('',(1.,0.,0.));
#1115=DIRECTION('',(0.,0.,1.));
#1116=DIRECTION('',(0.,0.,1.));
#1117=DIRECTION('',(0.,0.,1.));
#1118=DIRECTION('',(0.,0.,-1.));
#1119=DIRECTION('',(0.,-1.,0.));
#1120=DIRECTION('',(1.,0.,0.));
#1121=DIRECTION('',(1.,0.,0.));
#1122=DIRECTION('',(0.,0.,-1.));
#1123=DIRECTION('',(0.,0.,1.));
#1124=DIRECTION('',(0.,0.,1.));
#1125=DIRECTION('',(0.,0.,1.));
#1126=DIRECTION('',(0.,0.,1.));
#1127=DIRECTION('',(1.,0.,0.));
#1128=DIRECTION('',(0.,1.,0.));
#1129=DIRECTION('',(0.,-1.,0.));
#1130=DIRECTION('',(0.,1.,0.));
#1131=DIRECTION('',(-1.,0.,0.));
#1132=DIRECTION('',(0.,0.,-1.));
#1133=DIRECTION('',(0.,0.,1.));
#1134=DIRECTION('',(0.,0.,1.));
#1135=DIRECTION('',(0.,0.,1.));
#1136=DIRECTION('',(0.,-1.,0.));
#1137=DIRECTION('',(1.,0.,0.));
#1138=DIRECTION('',(0.,0.,1.));
#1139=DIRECTION('',(0.,0.,1.));
#1140=DIRECTION('',(1.,0.,0.));
#1141=DIRECTION('',(0.,0.,1.));
#1142=DIRECTION('',(0.,0.,-1.));
#1143=DIRECTION('',(0.,0.,1.));
#1144=DIRECTION('',(1.,0.,0.));
#1145=DIRECTION('',(0.,1.,0.));
#1146=DIRECTION('',(0.,-1.,0.));
#1147=DIRECTION('',(0.,1.,0.));
#1148=DIRECTION('',(-1.,0.,0.));
#1149=DIRECTION('',(0.,0.,-1.));
#1150=DIRECTION('',(0.,0.,1.));
#1151=DIRECTION('',(0.,0.,1.));
#1152=DIRECTION('',(0.,0.,1.));
#1153=DIRECTION('',(0.,1.,0.));
#1154=DIRECTION('',(-1.,0.,0.));
#1155=DIRECTION('',(0.,0.,1.));
#1156=DIRECTION('',(0.,0.,1.));
#1157=DIRECTION('',(0.,0.,1.));
#1158=DIRECTION('',(0.,0.,-1.));
#1159=DIRECTION('',(1.,0.,0.));
#1160=DIRECTION('',(0.,1.,0.));
#1161=DIRECTION('',(1.,0.,0.));
#1162=DIRECTION('',(0.,1.,0.));
#1163=DIRECTION('',(1.,0.,0.));
#1164=DIRECTION('',(0.,1.,0.));
#1165=DIRECTION('',(1.,0.,0.));
#1166=DIRECTION('',(0.,1.,0.));
#1167=DIRECTION('',(1.,0.,0.));
#1168=DIRECTION('',(0.,1.,0.));
#1169=DIRECTION('',(1.,0.,0.));
#1170=DIRECTION('',(0.,1.,0.));
#1171=DIRECTION('',(-1.,1.50845519650157E-15,0.));
#1172=DIRECTION('',(-1.50845519650157E-15,-1.,0.));
#1173=DIRECTION('',(-1.,0.,0.));
#1174=DIRECTION('',(0.,-1.,0.));
#1175=DIRECTION('',(0.,0.,1.));
#1176=DIRECTION('',(0.,1.,0.));
#1177=DIRECTION('',(0.,0.,-1.));
#1178=DIRECTION('',(0.,-1.,0.));
#1179=DIRECTION('',(0.,0.,-1.));
#1180=DIRECTION('',(-1.,0.,0.));
#1181=DIRECTION('',(0.,0.,1.));
#1182=DIRECTION('',(1.,0.,0.));
#1183=DIRECTION('',(1.,0.,0.));
#1184=DIRECTION('',(0.,-1.,0.));
#1185=DIRECTION('',(0.,0.,-1.));
#1186=DIRECTION('',(0.,0.,-1.));
#1187=DIRECTION('',(-8.3790416952842E-17,-1.,0.));
#1188=DIRECTION('',(0.,0.,-1.));
#1189=DIRECTION('',(-1.,0.,0.));
#1190=DIRECTION('',(0.,1.,0.));
#1191=DIRECTION('',(1.,0.,0.));
#1192=DIRECTION('',(0.,1.,0.));
#1193=DIRECTION('',(1.,0.,0.));
#1194=DIRECTION('',(0.,1.,0.));
#1195=DIRECTION('',(-1.,0.,0.));
#1196=DIRECTION('',(0.,-1.,0.));
#1197=DIRECTION('',(-1.,0.,0.));
#1198=DIRECTION('',(0.,-1.,0.));
#1199=DIRECTION('',(0.,0.,1.));
#1200=DIRECTION('',(-1.,0.,0.));
#1201=DIRECTION('',(0.,0.,1.));
#1202=DIRECTION('',(0.,1.,0.));
#1203=DIRECTION('',(0.,0.,-1.));
#1204=DIRECTION('',(-1.,0.,0.));
#1205=DIRECTION('',(0.,0.,1.));
#1206=DIRECTION('',(1.,0.,0.));
#1207=DIRECTION('',(0.,0.,1.));
#1208=DIRECTION('',(1.,0.,0.));
#1209=DIRECTION('',(0.,0.,1.));
#1210=DIRECTION('',(1.,0.,0.));
#1211=DIRECTION('',(0.,0.,1.));
#1212=DIRECTION('',(1.,0.,0.));
#1213=DIRECTION('',(0.,0.,1.));
#1214=DIRECTION('',(1.,0.,0.));
#1215=CARTESIAN_POINT('',(0.,0.,0.));
#1216=CARTESIAN_POINT('',(0.00478148570314801,0.0103381757867512,0.0751430260047281));
#1217=CARTESIAN_POINT('',(-0.00022223201457127,0.0103381757867512,0.0734670260047282));
#1218=CARTESIAN_POINT('',(-0.0344660025000543,0.0103381757867512,0.0734670260047282));
#1219=CARTESIAN_POINT('',(-0.0382839025000542,0.0103381757867512,0.0734670260047282));
#1220=CARTESIAN_POINT('',(-0.0344660025000543,0.0103381757867512,0.0734670260047282));
#1221=CARTESIAN_POINT('',(-0.0344660025000543,0.0103381757867512,0.0754670260047282));
#1222=CARTESIAN_POINT('',(-0.00022223201457127,0.0103381757867512,0.0754670260047282));
#1223=CARTESIAN_POINT('',(-0.000101802500054156,0.0103381757867512,0.0754670260047282));
#1224=CARTESIAN_POINT('',(-0.000101802500054156,0.0103381757867512,0.0734670260047282));
#1225=CARTESIAN_POINT('',(-0.000101802500054156,0.0103381757867512,0.0734670260047282));
#1226=CARTESIAN_POINT('',(-0.00022223201457127,0.0103381757867512,0.0734670260047282));
#1227=CARTESIAN_POINT('',(0.0037160974999458,0.0103381757867512,0.0734670260047282));
#1228=CARTESIAN_POINT('',(0.0037160974999458,0.0103381757867512,0.0504670260047282));
#1229=CARTESIAN_POINT('',(0.0037160974999458,0.0103381757867512,0.0701430260047281));
#1230=CARTESIAN_POINT('',(-0.00105049181625594,0.0103381757867512,0.0701430260047281));
#1231=CARTESIAN_POINT('',(-0.0382839025000542,0.0103381757867512,0.0701430260047281));
#1232=CARTESIAN_POINT('',(-0.0382839025000542,0.0103381757867512,0.0504670260047282));
#1233=CARTESIAN_POINT('',(-0.015479401687011,-0.0855596609780213,0.0754670260047282));
#1234=CARTESIAN_POINT('',(-0.0172839025000542,-0.0809985627267015,0.0754670260047282));
#1235=CARTESIAN_POINT('',(-0.0172839025000542,-0.0674809864879076,0.0754670260047282));
#1236=CARTESIAN_POINT('',(-0.0024432525000542,-0.0142844606196223,0.0754670260047282));
#1237=CARTESIAN_POINT('',(-0.0024432525000542,-0.0144343242132488,0.0754670260047282));
#1238=CARTESIAN_POINT('',(-0.0024432525000542,-0.0210893242132488,0.0754670260047282));
#1239=CARTESIAN_POINT('',(-0.0172839025000542,-0.0210893242132488,0.0754670260047282));
#1240=CARTESIAN_POINT('',(-0.0321245525000542,-0.0210893242132488,0.0754670260047282));
#1241=CARTESIAN_POINT('',(-0.0321245525000542,-0.0176119606196223,0.0754670260047282));
#1242=CARTESIAN_POINT('',(-0.0321245525000542,-0.0144343242132488,0.0754670260047282));
#1243=CARTESIAN_POINT('',(-0.0172839025000542,-0.0144343242132488,0.0754670260047282));
#1244=CARTESIAN_POINT('',(-0.0344660025000543,-0.000361824213248825,0.0754670260047282));
#1245=CARTESIAN_POINT('',(-0.0344660025000543,-0.00186182421324883,0.0754670260047282));
#1246=CARTESIAN_POINT('',(-0.0441928525000542,-0.00186182421324883,0.0754670260047282));
#1247=CARTESIAN_POINT('',(-0.0471018025000542,-0.00186182421324883,0.0754670260047282));
#1248=CARTESIAN_POINT('',(-0.0471018025000542,-0.0497608449486133,0.0754670260047282));
#1249=CARTESIAN_POINT('',(-0.0471018025000542,-0.0336618242132488,0.0754670260047282));
#1250=CARTESIAN_POINT('',(-0.0441928525000542,-0.0336618242132488,0.0754670260047282));
#1251=CARTESIAN_POINT('',(-0.0344660025000543,-0.0336618242132488,0.0754670260047282));
#1252=CARTESIAN_POINT('',(-0.0344660025000543,-0.0351618242132489,0.0754670260047282));
#1253=CARTESIAN_POINT('',(-0.0344660025000543,-0.0488618242132488,0.0754670260047282));
#1254=CARTESIAN_POINT('',(-0.0441928525000542,-0.0488618242132488,0.0754670260047282));
#1255=CARTESIAN_POINT('',(-0.0471018025000542,-0.0488618242132488,0.0754670260047282));
#1256=CARTESIAN_POINT('',(-0.0471018025000542,-0.0497608449486133,0.0754670260047282));
#1257=CARTESIAN_POINT('',(-0.0471018025000542,-0.0586365960904684,0.0754670260047282));
#1258=CARTESIAN_POINT('',(-0.0172839025000542,-0.0809985627267015,0.0754670260047282));
#1259=CARTESIAN_POINT('',(0.0125339974999458,-0.0586365960904685,0.0754670260047282));
#1260=CARTESIAN_POINT('',(0.0125339974999458,0.00926783250619057,0.0754670260047282));
#1261=CARTESIAN_POINT('',(0.0125339974999458,-0.0488618242132488,0.0754670260047282));
#1262=CARTESIAN_POINT('',(0.00280714749994582,-0.0488618242132488,0.0754670260047282));
#1263=CARTESIAN_POINT('',(-0.000101802500054156,-0.0488618242132488,0.0754670260047282));
#1264=CARTESIAN_POINT('',(-0.000101802500054156,-0.0412618242132489,0.0754670260047282));
#1265=CARTESIAN_POINT('',(-0.000101802500054156,-0.0336618242132488,0.0754670260047282));
#1266=CARTESIAN_POINT('',(0.00280714749994583,-0.0336618242132488,0.0754670260047282));
#1267=CARTESIAN_POINT('',(0.0125339974999458,-0.0336618242132489,0.0754670260047282));
#1268=CARTESIAN_POINT('',(0.0125339974999458,0.00926783250619057,0.0754670260047282));
#1269=CARTESIAN_POINT('',(0.0125339974999458,-0.00186182421324883,0.0754670260047282));
#1270=CARTESIAN_POINT('',(0.00962504749994578,-0.00186182421324883,0.0754670260047282));
#1271=CARTESIAN_POINT('',(-0.000101802500054156,-0.00186182421324883,0.0754670260047282));
#1272=CARTESIAN_POINT('',(-0.000101802500054156,0.00573817578675118,0.0754670260047282));
#1273=CARTESIAN_POINT('',(-0.0171359212903802,-0.0925649616759914,0.0701430260047281));
#1274=CARTESIAN_POINT('',(-0.0172839025000542,-0.0809985627267015,0.0701430260047281));
#1275=CARTESIAN_POINT('',(-0.0242471275000542,-0.0809985627267015,0.0701430260047281));
#1276=CARTESIAN_POINT('',(-0.00105049181625594,0.0103381757867512,0.0701430260047281));
#1277=CARTESIAN_POINT('',(0.00871609749994581,0.0103381757867512,0.0701430260047281));
#1278=CARTESIAN_POINT('',(0.0125339974999458,0.0103381757867512,0.0701430260047281));
#1279=CARTESIAN_POINT('',(0.0125339974999458,0.00926783250619057,0.0701430260047281));
#1280=CARTESIAN_POINT('',(0.0125339974999458,-0.0586365960904685,0.0701430260047281));
#1281=CARTESIAN_POINT('',(-0.0172839025000542,-0.0809985627267015,0.0701430260047281));
#1282=CARTESIAN_POINT('',(-0.0471018025000542,-0.0586365960904684,0.0701430260047281));
#1283=CARTESIAN_POINT('',(-0.0471018025000542,-0.0497608449486133,0.0701430260047281));
#1284=CARTESIAN_POINT('',(-0.0471018025000542,0.0103381757867512,0.0701430260047281));
#1285=CARTESIAN_POINT('',(-0.00105049181625594,0.0103381757867512,0.0701430260047281));
#1286=CARTESIAN_POINT('',(-0.0432839025000542,0.0103381757867512,0.0701430260047281));
#1287=CARTESIAN_POINT('',(-0.0432839025000542,-0.0925649616759914,0.0701430260047281));
#1288=CARTESIAN_POINT('',(-0.0432839025000542,-0.00186182421324883,0.0701430260047281));
#1289=CARTESIAN_POINT('',(-0.0171359212903802,-0.00186182421324883,0.0701430260047281));
#1290=CARTESIAN_POINT('',(-0.0382839025000542,-0.00186182421324883,0.0701430260047281));
#1291=CARTESIAN_POINT('',(-0.0382839025000542,-0.0925649616759914,0.0701430260047281));
#1292=CARTESIAN_POINT('',(0.0037160974999458,-0.0925649616759914,0.0701430260047281));
#1293=CARTESIAN_POINT('',(0.00371609749994581,-0.00186182421324883,0.0701430260047281));
#1294=CARTESIAN_POINT('',(-0.0171359212903802,-0.00186182421324883,0.0701430260047281));
#1295=CARTESIAN_POINT('',(0.0087160974999458,-0.00186182421324883,0.0701430260047281));
#1296=CARTESIAN_POINT('',(0.00871609749994581,-0.0925649616759914,0.0701430260047281));
#1297=CARTESIAN_POINT('',(0.00871609749994581,-0.0925649616759914,0.0701430260047281));
#1298=CARTESIAN_POINT('',(0.00871609749994581,-0.0488618242132488,0.0701430260047281));
#1299=CARTESIAN_POINT('',(0.0087160974999458,-0.0336618242132488,0.0701430260047281));
#1300=CARTESIAN_POINT('',(-0.0171359212903802,-0.0336618242132488,0.0701430260047281));
#1301=CARTESIAN_POINT('',(0.00371609749994581,-0.0336618242132488,0.0701430260047281));
#1302=CARTESIAN_POINT('',(0.00371609749994573,-0.0925649616759914,0.0701430260047281));
#1303=CARTESIAN_POINT('',(0.0037160974999458,-0.0488618242132488,0.0701430260047281));
#1304=CARTESIAN_POINT('',(-0.0171359212903802,-0.0488618242132488,0.0701430260047281));
#1305=CARTESIAN_POINT('',(-0.0024432525000542,-0.0534996429446201,0.0701430260047281));
#1306=CARTESIAN_POINT('',(-0.0024432525000542,-0.0144343242132488,0.0701430260047281));
#1307=CARTESIAN_POINT('',(-0.0024432525000542,-0.0210893242132488,0.0701430260047281));
#1308=CARTESIAN_POINT('',(-0.0172839025000542,-0.0144343242132488,0.0701430260047281));
#1309=CARTESIAN_POINT('',(-0.0321245525000542,-0.0144343242132488,0.0701430260047281));
#1310=CARTESIAN_POINT('',(-0.0321245525000542,-0.0568271429446201,0.0701430260047281));
#1311=CARTESIAN_POINT('',(-0.0321245525000542,-0.0210893242132488,0.0701430260047281));
#1312=CARTESIAN_POINT('',(-0.0172839025000542,-0.0210893242132488,0.0701430260047281));
#1313=CARTESIAN_POINT('',(-0.0171359212903802,-0.0336618242132488,0.0701430260047281));
#1314=CARTESIAN_POINT('',(-0.0432839025000542,-0.0336618242132488,0.0701430260047281));
#1315=CARTESIAN_POINT('',(-0.0382839025000542,-0.0336618242132488,0.0701430260047281));
#1316=CARTESIAN_POINT('',(-0.0432839025000542,-0.0925649616759914,0.0701430260047281));
#1317=CARTESIAN_POINT('',(-0.0432839025000542,-0.0488618242132488,0.0701430260047281));
#1318=CARTESIAN_POINT('',(-0.0171359212903802,-0.0488618242132488,0.0701430260047281));
#1319=CARTESIAN_POINT('',(-0.0382839025000542,-0.0488618242132488,0.0701430260047281));
#1320=CARTESIAN_POINT('',(-0.0382839025000542,-0.0925649616759914,0.0701430260047281));
#1321=CARTESIAN_POINT('',(-0.0172839025000542,-0.0529659434699752,0.0734670260047282));
#1322=CARTESIAN_POINT('',(-0.0432839025000542,-0.0529659434699752,0.0734670260047282));
#1323=CARTESIAN_POINT('',(-0.0432839025000542,-0.0488618242132488,0.0734670260047282));
#1324=CARTESIAN_POINT('',(-0.0432839025000542,-0.0336618242132488,0.0734670260047282));
#1325=CARTESIAN_POINT('',(-0.0441928525000542,-0.0336618242132488,0.0734670260047282));
#1326=CARTESIAN_POINT('',(-0.0471018025000542,-0.0336618242132488,0.0734670260047282));
#1327=CARTESIAN_POINT('',(-0.0471018025000542,-0.0497608449486133,0.0734670260047282));
#1328=CARTESIAN_POINT('',(-0.0471018025000542,-0.0488618242132488,0.0734670260047282));
#1329=CARTESIAN_POINT('',(-0.0441928525000542,-0.0488618242132488,0.0734670260047282));
#1330=CARTESIAN_POINT('',(-0.0172839025000542,-0.0529659434699752,0.0734670260047282));
#1331=CARTESIAN_POINT('',(-0.0441928525000542,-0.0336618242132488,0.0734670260047282));
#1332=CARTESIAN_POINT('',(-0.0344660025000543,-0.0336618242132488,0.0734670260047282));
#1333=CARTESIAN_POINT('',(-0.0382839025000542,-0.0336618242132488,0.0734670260047282));
#1334=CARTESIAN_POINT('',(-0.0382839025000542,-0.0529659434699752,0.0734670260047282));
#1335=CARTESIAN_POINT('',(-0.0382839025000542,-0.0488618242132488,0.0734670260047282));
#1336=CARTESIAN_POINT('',(-0.0441928525000542,-0.0488618242132488,0.0734670260047282));
#1337=CARTESIAN_POINT('',(-0.0344660025000543,-0.0488618242132488,0.0734670260047282));
#1338=CARTESIAN_POINT('',(-0.0344660025000543,-0.0351618242132489,0.0734670260047282));
#1339=CARTESIAN_POINT('',(-0.0172839025000542,-0.0529659434699752,0.0734670260047282));
#1340=CARTESIAN_POINT('',(0.00280714749994582,-0.0488618242132488,0.0734670260047282));
#1341=CARTESIAN_POINT('',(-0.000101802500054156,-0.0488618242132488,0.0734670260047282));
#1342=CARTESIAN_POINT('',(0.0037160974999458,-0.0488618242132488,0.0734670260047282));
#1343=CARTESIAN_POINT('',(0.00371609749994581,-0.0529659434699752,0.0734670260047282));
#1344=CARTESIAN_POINT('',(0.00371609749994581,-0.0336618242132488,0.0734670260047282));
#1345=CARTESIAN_POINT('',(0.00280714749994583,-0.0336618242132488,0.0734670260047282));
#1346=CARTESIAN_POINT('',(-0.000101802500054156,-0.0336618242132488,0.0734670260047282));
#1347=CARTESIAN_POINT('',(-0.000101802500054156,-0.0412618242132489,0.0734670260047282));
#1348=CARTESIAN_POINT('',(-0.0172839025000542,-0.0529659434699752,0.0734670260047282));
#1349=CARTESIAN_POINT('',(-0.0382839025000542,-0.0529659434699752,0.0734670260047282));
#1350=CARTESIAN_POINT('',(-0.0382839025000542,-0.00186182421324883,0.0734670260047282));
#1351=CARTESIAN_POINT('',(-0.0441928525000542,-0.00186182421324883,0.0734670260047282));
#1352=CARTESIAN_POINT('',(-0.0344660025000543,-0.00186182421324883,0.0734670260047282));
#1353=CARTESIAN_POINT('',(-0.0344660025000543,-0.000361824213248825,0.0734670260047282));
#1354=CARTESIAN_POINT('',(-0.0172839025000542,-0.0529659434699752,0.0734670260047282));
#1355=CARTESIAN_POINT('',(0.00871609749994581,-0.0529659434699752,0.0734670260047282));
#1356=CARTESIAN_POINT('',(0.0087160974999458,-0.00186182421324883,0.0734670260047282));
#1357=CARTESIAN_POINT('',(0.00871609749994581,0.0103381757867512,0.0734670260047282));
#1358=CARTESIAN_POINT('',(0.00962504749994578,-0.00186182421324883,0.0734670260047282));
#1359=CARTESIAN_POINT('',(0.0125339974999458,-0.00186182421324883,0.0734670260047282));
#1360=CARTESIAN_POINT('',(0.0125339974999458,0.00926783250619057,0.0734670260047282));
#1361=CARTESIAN_POINT('',(0.0125339974999458,0.0103381757867512,0.0734670260047282));
#1362=CARTESIAN_POINT('',(-0.00022223201457127,0.0103381757867512,0.0734670260047282));
#1363=CARTESIAN_POINT('',(0.00478148570314801,0.0103381757867512,0.0751430260047281));
#1364=CARTESIAN_POINT('',(0.00871609749994581,0.0103381757867512,0.0504670260047282));
#1365=CARTESIAN_POINT('',(0.0125339974999458,0.0103381757867512,0.0754670260047282));
#1366=CARTESIAN_POINT('',(-0.0172839025000542,-0.0529659434699752,0.0734670260047282));
#1367=CARTESIAN_POINT('',(-0.0441928525000542,-0.00186182421324883,0.0734670260047282));
#1368=CARTESIAN_POINT('',(-0.0432839025000542,-0.00186182421324883,0.0734670260047282));
#1369=CARTESIAN_POINT('',(-0.0471018025000542,-0.00186182421324883,0.0734670260047282));
#1370=CARTESIAN_POINT('',(-0.0432839025000542,-0.0529659434699752,0.0734670260047282));
#1371=CARTESIAN_POINT('',(-0.0432839025000542,0.0103381757867512,0.0734670260047282));
#1372=CARTESIAN_POINT('',(-0.00022223201457127,0.0103381757867512,0.0734670260047282));
#1373=CARTESIAN_POINT('',(-0.0471018025000542,0.0103381757867512,0.0734670260047282));
#1374=CARTESIAN_POINT('',(-0.0471018025000542,-0.0497608449486133,0.0734670260047282));
#1375=CARTESIAN_POINT('',(0.00478148570314801,0.0103381757867512,0.0751430260047281));
#1376=CARTESIAN_POINT('',(-0.0432839025000542,0.0103381757867512,0.0504670260047282));
#1377=CARTESIAN_POINT('',(-0.0471018025000542,0.0103381757867512,0.0754670260047282));
#1378=CARTESIAN_POINT('',(-0.0172839025000542,-0.0809985627267015,0.0894425260047281));
#1379=CARTESIAN_POINT('',(-0.0172839025000542,-0.0809985627267015,0.0894425260047281));
#1380=CARTESIAN_POINT('',(-0.0242471275000542,-0.0809985627267015,0.0894425260047281));
#1381=CARTESIAN_POINT('',(-0.0172839025000542,-0.0809985627267015,0.0894425260047281));
#1382=CARTESIAN_POINT('',(-0.0265742825000542,-0.0809985627267015,0.0894425260047281));
#1383=CARTESIAN_POINT('',(-0.0172839025000542,-0.0210893242132488,0.0754670260047282));
#1384=CARTESIAN_POINT('',(-0.0321245525000542,-0.0210893242132488,0.0754670260047282));
#1385=CARTESIAN_POINT('',(-0.0024432525000542,-0.0210893242132488,0.0754670260047282));
#1386=CARTESIAN_POINT('',(-0.0024432525000542,-0.0144343242132488,0.0754670260047282));
#1387=CARTESIAN_POINT('',(-0.0024432525000542,-0.0144343242132488,0.0754670260047282));
#1388=CARTESIAN_POINT('',(-0.0172839025000542,-0.0144343242132488,0.0754670260047282));
#1389=CARTESIAN_POINT('',(-0.0321245525000542,-0.0144343242132488,0.0754670260047282));
#1390=CARTESIAN_POINT('',(-0.0321245525000542,-0.0210893242132488,0.0754670260047282));
#1391=CARTESIAN_POINT('',(0.00280714749994582,-0.0488618242132488,0.0734670260047282));
#1392=CARTESIAN_POINT('',(0.00280714749994582,-0.0488618242132488,0.0734670260047282));
#1393=CARTESIAN_POINT('',(0.00871609749994581,-0.0488618242132488,0.0734670260047282));
#1394=CARTESIAN_POINT('',(0.0125339974999458,-0.0488618242132488,0.0734670260047282));
#1395=CARTESIAN_POINT('',(0.00871609749994581,-0.0488618242132488,0.0504670260047282));
#1396=CARTESIAN_POINT('',(0.0037160974999458,-0.0488618242132488,0.0504670260047282));
#1397=CARTESIAN_POINT('',(-0.000101802500054156,-0.0488618242132488,0.0734670260047282));
#1398=CARTESIAN_POINT('',(0.0125339974999458,-0.0488618242132488,0.0754670260047282));
#1399=CARTESIAN_POINT('',(0.00280714749994583,-0.0336618242132488,0.0734670260047282));
#1400=CARTESIAN_POINT('',(0.00280714749994583,-0.0336618242132488,0.0734670260047282));
#1401=CARTESIAN_POINT('',(0.0087160974999458,-0.0336618242132488,0.0734670260047282));
#1402=CARTESIAN_POINT('',(0.0125339974999458,-0.0336618242132489,0.0734670260047282));
#1403=CARTESIAN_POINT('',(0.0125339974999458,-0.0336618242132489,0.0754670260047282));
#1404=CARTESIAN_POINT('',(-0.000101802500054156,-0.0336618242132488,0.0734670260047282));
#1405=CARTESIAN_POINT('',(0.00371609749994581,-0.0336618242132488,0.0504670260047282));
#1406=CARTESIAN_POINT('',(0.0087160974999458,-0.0336618242132488,0.0504670260047282));
#1407=CARTESIAN_POINT('',(-0.0172839025000542,-0.0529659434699752,0.0734670260047282));
#1408=CARTESIAN_POINT('',(0.0087160974999458,-0.0529659434699752,0.0734670260047282));
#1409=CARTESIAN_POINT('',(0.0125339974999458,0.00926783250619057,0.0734670260047282));
#1410=CARTESIAN_POINT('',(-0.0441928525000542,-0.00186182421324883,0.0734670260047282));
#1411=CARTESIAN_POINT('',(-0.0471018025000542,-0.00186182421324883,0.0754670260047282));
#1412=CARTESIAN_POINT('',(-0.0344660025000543,-0.00186182421324883,0.0734670260047282));
#1413=CARTESIAN_POINT('',(-0.0382839025000542,-0.00186182421324883,0.0504670260047282));
#1414=CARTESIAN_POINT('',(-0.0432839025000542,-0.00186182421324883,0.0504670260047282));
#1415=CARTESIAN_POINT('',(0.00962504749994578,-0.00186182421324883,0.0734670260047282));
#1416=CARTESIAN_POINT('',(0.0087160974999458,-0.00186182421324883,0.0504670260047282));
#1417=CARTESIAN_POINT('',(0.00371609749994581,-0.00186182421324883,0.0504670260047282));
#1418=CARTESIAN_POINT('',(0.00371609749994581,-0.00186182421324883,0.0734670260047282));
#1419=CARTESIAN_POINT('',(0.00962504749994578,-0.00186182421324883,0.0734670260047282));
#1420=CARTESIAN_POINT('',(-0.000101802500054156,-0.00186182421324883,0.0734670260047282));
#1421=CARTESIAN_POINT('',(-0.000101802500054156,-0.00186182421324883,0.0734670260047282));
#1422=CARTESIAN_POINT('',(0.0125339974999458,-0.00186182421324883,0.0754670260047282));
#1423=CARTESIAN_POINT('',(-0.0172839025000542,-0.0529659434699752,0.0734670260047282));
#1424=CARTESIAN_POINT('',(0.0037160974999458,-0.0529659434699752,0.0734670260047282));
#1425=CARTESIAN_POINT('',(-0.000101802500054156,0.00573817578675118,0.0734670260047282));
#1426=CARTESIAN_POINT('',(-0.0441928525000542,-0.0488618242132488,0.0734670260047282));
#1427=CARTESIAN_POINT('',(-0.0471018025000542,-0.0488618242132488,0.0754670260047282));
#1428=CARTESIAN_POINT('',(-0.0344660025000543,-0.0488618242132488,0.0734670260047282));
#1429=CARTESIAN_POINT('',(-0.0382839025000542,-0.0488618242132488,0.0504670260047282));
#1430=CARTESIAN_POINT('',(-0.0432839025000542,-0.0488618242132488,0.0504670260047282));
#1431=CARTESIAN_POINT('',(-0.0441928525000542,-0.0336618242132488,0.0734670260047282));
#1432=CARTESIAN_POINT('',(-0.0432839025000542,-0.0336618242132488,0.0504670260047282));
#1433=CARTESIAN_POINT('',(-0.0382839025000542,-0.0336618242132488,0.0504670260047282));
#1434=CARTESIAN_POINT('',(-0.0344660025000543,-0.0336618242132488,0.0734670260047282));
#1435=CARTESIAN_POINT('',(-0.0471018025000542,-0.0336618242132488,0.0754670260047282));
#1436=CARTESIAN_POINT('',(-0.0432839025000542,-0.0389618242132489,0.0504670260047282));
#1437=CARTESIAN_POINT('',(-0.0382839025000542,-0.0389618242132489,0.0504670260047282));
#1438=CARTESIAN_POINT('',(0.0037160974999458,0.00803817578675118,0.0504670260047282));
#1439=CARTESIAN_POINT('',(0.00871609749994581,0.00803817578675118,0.0504670260047282));
#1440=CARTESIAN_POINT('',(-0.0382839025000542,0.00803817578675118,0.0504670260047282));
#1441=CARTESIAN_POINT('',(-0.0432839025000542,0.00803817578675118,0.0504670260047282));
#1442=CARTESIAN_POINT('',(0.0037160974999458,-0.0435618242132488,0.0504670260047282));
#1443=CARTESIAN_POINT('',(0.00871609749994581,-0.0435618242132488,0.0504670260047282));
#1444=CARTESIAN_POINT('',(-0.0172839025000542,-0.0809985627267015,0.0894425260047281));
#1445=CARTESIAN_POINT('',(-0.0172839025000542,-0.0809985627267015,0.0894456882823883));
#1446=CARTESIAN_POINT('',(-0.0172839025000542,-0.090298429559682,0.0894456882823883));
#1447=CARTESIAN_POINT('',(-0.0172839025000542,-0.0809985627267015,0.0894456882823883));
#1448=CARTESIAN_POINT('',(-0.0172839025000542,-0.0809985627267015,0.0884980260047282));
#1449=CARTESIAN_POINT('',(-0.00766814824118698,-0.0809985627267015,0.0884980260047282));
#1450=CARTESIAN_POINT('',(0.0125339974999458,0.00926783250619057,0.0754670260047282));
#1451=CARTESIAN_POINT('',(0.0125339974999458,-0.0586365960904685,0.0754670260047282));
#1452=CARTESIAN_POINT('',(-0.0172839025000542,-0.0809985627267015,0.0754670260047282));
#1453=CARTESIAN_POINT('',(-0.0471018025000542,-0.0586365960904684,0.0754670260047282));
#1454=CARTESIAN_POINT('',(-0.0471018025000542,-0.0497608449486133,0.0754670260047282));
#1455=CARTESIAN_POINT('',(-0.000101802500054156,-0.0412618242132489,0.0734670260047282));
#1456=CARTESIAN_POINT('',(-0.0344660025000543,-0.0351618242132489,0.0734670260047282));
#1457=CARTESIAN_POINT('',(-0.000101802500054156,0.00573817578675118,0.0734670260047282));
#1458=CARTESIAN_POINT('',(-0.0344660025000543,-0.000361824213248825,0.0734670260047282));
#1459=CARTESIAN_POINT('',(-0.0172839025000542,-0.0809985627267015,0.0754670260047282));
#1460=CARTESIAN_POINT('',(-0.0172839025000542,-0.0809985627267015,0.0764980260047282));
#1461=CARTESIAN_POINT('',(-0.0172839025000542,-0.0674809864879076,0.0764980260047282));
#1462=CARTESIAN_POINT('',(-0.0172839025000542,-0.0809985627267015,0.0764980260047282));
#1463=CARTESIAN_POINT('',(-0.0172839025000542,-0.0809985627267015,0.0764980260047282));
#1464=CARTESIAN_POINT('',(-0.0072339025000542,-0.0809985627267015,0.0764980260047282));
#1465=CARTESIAN_POINT('',(-0.0172839025000542,-0.0809985627267015,0.0884980260047282));
#1466=CARTESIAN_POINT('',(-0.0172839025000542,-0.0809985627267015,0.0884980260047282));
#1467=CARTESIAN_POINT('',(-0.0072339025000542,-0.0809985627267015,0.0884980260047282));
#1468=CARTESIAN_POINT('',(-0.0172839025000542,-0.0809985627267015,-0.285358138928629));
#1469=CARTESIAN_POINT('',(-0.0172839025000542,-0.0809985627267015,0.0701410260047281));
#1470=MECHANICAL_DESIGN_GEOMETRIC_PRESENTATION_REPRESENTATION('',(#910),
#1471);
#1471=(
GEOMETRIC_REPRESENTATION_CONTEXT(3)
GLOBAL_UNCERTAINTY_ASSIGNED_CONTEXT((#1472))
GLOBAL_UNIT_ASSIGNED_CONTEXT((#1475,#1474,#1473))
REPRESENTATION_CONTEXT('pan bearing holder','TOP_LEVEL_ASSEMBLY_PART')
);
#1472=UNCERTAINTY_MEASURE_WITH_UNIT(LENGTH_MEASURE(5.E-6),#1475,
'DISTANCE_ACCURACY_VALUE','Maximum Tolerance applied to model');
#1473=(
NAMED_UNIT(*)
SI_UNIT($,.STERADIAN.)
SOLID_ANGLE_UNIT()
);
#1474=(
NAMED_UNIT(*)
PLANE_ANGLE_UNIT()
SI_UNIT($,.RADIAN.)
);
#1475=(
LENGTH_UNIT()
NAMED_UNIT(*)
SI_UNIT($,.METRE.)
);
#1476=PRODUCT_DEFINITION_SHAPE('','',#1477);
#1477=PRODUCT_DEFINITION('','',#1479,#1478);
#1478=PRODUCT_DEFINITION_CONTEXT('',#1485,'design');
#1479=PRODUCT_DEFINITION_FORMATION_WITH_SPECIFIED_SOURCE('','',#1481,
 .NOT_KNOWN.);
#1480=PRODUCT_RELATED_PRODUCT_CATEGORY('','',(#1481));
#1481=PRODUCT('pan bearing holder','pan bearing holder',
'pan bearing holder',(#1483));
#1482=PRODUCT_CATEGORY('','');
#1483=PRODUCT_CONTEXT('',#1485,'mechanical');
#1484=APPLICATION_PROTOCOL_DEFINITION('international standard',
'ap242_managed_model_based_3d_engineering',2011,#1485);
#1485=APPLICATION_CONTEXT('managed model based 3d engineering');
ENDSEC;
END-ISO-10303-21;
