ISO-10303-21;
HEADER;
/* Generated by software containing ST-Developer
 * from STEP Tools, Inc. (www.steptools.com) 
 */
/* OPTION: using custom renumber hook */

FILE_DESCRIPTION(
/* description */ ('STEP AP242',
'CAx-IF Rec.Pracs.---Representation and Presentation of Product Manufa
cturing Information (PMI)---4.0---2014-10-13',
'CAx-IF Rec.Pracs.---3D Tessellated Geometry---0.4---2014-09-14','2;1'),

/* implementation_level */ '2;1');

FILE_NAME(
/* name */ '66789e2ab9c7367681b24281',
/* time_stamp */ '2024-06-23T22:14:02Z',
/* author */ (''),
/* organization */ (''),
/* preprocessor_version */ 'ST-DEVELOPER v20',
/* originating_system */ '  ',
/* authorisation */ '  ');

FILE_SCHEMA (('AP242_MANAGED_MODEL_BASED_3D_ENGINEERING_MIM_LF { 1 0 10303 442 1 1 4 }'));
ENDSEC;

DATA;
#10=SHAPE_REPRESENTATION_RELATIONSHIP('','',#577,#11);
#11=ADVANCED_BREP_SHAPE_REPRESENTATION('',(#575),#968);
#12=B_SPLINE_CURVE_WITH_KNOTS('',3,(#876,#877,#878,#879,#880),
 .UNSPECIFIED.,.F.,.F.,(4,1,4),(0.,0.00153561195406596,0.00307122390813192),
 .UNSPECIFIED.);
#13=TOROIDAL_SURFACE('',#603,0.003,0.0015);
#14=SPHERICAL_SURFACE('',#596,0.0015);
#15=ELLIPSE('',#592,0.00212132034355965,0.0015);
#16=ELLIPSE('',#595,0.00155120552685952,0.0015);
#17=ELLIPSE('',#600,0.00588662610192845,0.0015);
#18=ELLIPSE('',#610,0.00212132034355965,0.0015);
#19=CYLINDRICAL_SURFACE('',#581,0.0015);
#20=CYLINDRICAL_SURFACE('',#584,0.0015);
#21=CYLINDRICAL_SURFACE('',#587,0.0015);
#22=CYLINDRICAL_SURFACE('',#590,0.0015);
#23=CYLINDRICAL_SURFACE('',#593,0.0015);
#24=CYLINDRICAL_SURFACE('',#599,0.0015);
#25=CYLINDRICAL_SURFACE('',#601,0.0015);
#26=CYLINDRICAL_SURFACE('',#607,0.0015);
#27=CYLINDRICAL_SURFACE('',#609,0.0015);
#28=CYLINDRICAL_SURFACE('',#611,0.0015);
#29=CYLINDRICAL_SURFACE('',#618,0.0033782);
#30=CYLINDRICAL_SURFACE('',#631,0.00275);
#31=CYLINDRICAL_SURFACE('',#632,0.00275);
#32=CYLINDRICAL_SURFACE('',#633,0.00275);
#33=CIRCLE('',#580,0.0033782);
#34=CIRCLE('',#582,0.0015);
#35=CIRCLE('',#583,0.0015);
#36=CIRCLE('',#585,0.0015);
#37=CIRCLE('',#586,0.0015);
#38=CIRCLE('',#588,0.0015);
#39=CIRCLE('',#589,0.0015);
#40=CIRCLE('',#591,0.0015);
#41=CIRCLE('',#594,0.0015);
#42=CIRCLE('',#597,0.0015);
#43=CIRCLE('',#598,0.0015);
#44=CIRCLE('',#602,0.0015);
#45=CIRCLE('',#604,0.0015);
#46=CIRCLE('',#605,0.0015);
#47=CIRCLE('',#606,0.003);
#48=CIRCLE('',#608,0.0015);
#49=CIRCLE('',#612,0.0015);
#50=CIRCLE('',#619,0.0033782);
#51=CIRCLE('',#624,0.00275);
#52=CIRCLE('',#625,0.00275);
#53=CIRCLE('',#626,0.00275);
#54=CIRCLE('',#628,0.00275);
#55=CIRCLE('',#629,0.00275);
#56=CIRCLE('',#630,0.00275);
#57=ORIENTED_EDGE('',*,*,#211,.F.);
#58=ORIENTED_EDGE('',*,*,#212,.T.);
#59=ORIENTED_EDGE('',*,*,#213,.T.);
#60=ORIENTED_EDGE('',*,*,#214,.F.);
#61=ORIENTED_EDGE('',*,*,#215,.T.);
#62=ORIENTED_EDGE('',*,*,#216,.T.);
#63=ORIENTED_EDGE('',*,*,#217,.T.);
#64=ORIENTED_EDGE('',*,*,#218,.T.);
#65=ORIENTED_EDGE('',*,*,#219,.F.);
#66=ORIENTED_EDGE('',*,*,#220,.F.);
#67=ORIENTED_EDGE('',*,*,#221,.T.);
#68=ORIENTED_EDGE('',*,*,#222,.T.);
#69=ORIENTED_EDGE('',*,*,#223,.F.);
#70=ORIENTED_EDGE('',*,*,#224,.F.);
#71=ORIENTED_EDGE('',*,*,#225,.T.);
#72=ORIENTED_EDGE('',*,*,#226,.T.);
#73=ORIENTED_EDGE('',*,*,#227,.F.);
#74=ORIENTED_EDGE('',*,*,#228,.T.);
#75=ORIENTED_EDGE('',*,*,#229,.T.);
#76=ORIENTED_EDGE('',*,*,#230,.T.);
#77=ORIENTED_EDGE('',*,*,#231,.F.);
#78=ORIENTED_EDGE('',*,*,#232,.F.);
#79=ORIENTED_EDGE('',*,*,#233,.F.);
#80=ORIENTED_EDGE('',*,*,#230,.F.);
#81=ORIENTED_EDGE('',*,*,#234,.T.);
#82=ORIENTED_EDGE('',*,*,#235,.T.);
#83=ORIENTED_EDGE('',*,*,#236,.T.);
#84=ORIENTED_EDGE('',*,*,#237,.T.);
#85=ORIENTED_EDGE('',*,*,#232,.T.);
#86=ORIENTED_EDGE('',*,*,#238,.T.);
#87=ORIENTED_EDGE('',*,*,#239,.T.);
#88=ORIENTED_EDGE('',*,*,#236,.F.);
#89=ORIENTED_EDGE('',*,*,#240,.F.);
#90=ORIENTED_EDGE('',*,*,#241,.F.);
#91=ORIENTED_EDGE('',*,*,#242,.T.);
#92=ORIENTED_EDGE('',*,*,#237,.F.);
#93=ORIENTED_EDGE('',*,*,#243,.F.);
#94=ORIENTED_EDGE('',*,*,#244,.T.);
#95=ORIENTED_EDGE('',*,*,#245,.F.);
#96=ORIENTED_EDGE('',*,*,#246,.T.);
#97=ORIENTED_EDGE('',*,*,#247,.T.);
#98=ORIENTED_EDGE('',*,*,#248,.F.);
#99=ORIENTED_EDGE('',*,*,#249,.F.);
#100=ORIENTED_EDGE('',*,*,#246,.F.);
#101=ORIENTED_EDGE('',*,*,#250,.T.);
#102=ORIENTED_EDGE('',*,*,#251,.F.);
#103=ORIENTED_EDGE('',*,*,#252,.F.);
#104=ORIENTED_EDGE('',*,*,#245,.T.);
#105=ORIENTED_EDGE('',*,*,#253,.T.);
#106=ORIENTED_EDGE('',*,*,#254,.T.);
#107=ORIENTED_EDGE('',*,*,#255,.F.);
#108=ORIENTED_EDGE('',*,*,#251,.T.);
#109=ORIENTED_EDGE('',*,*,#256,.T.);
#110=ORIENTED_EDGE('',*,*,#257,.T.);
#111=ORIENTED_EDGE('',*,*,#223,.T.);
#112=ORIENTED_EDGE('',*,*,#258,.F.);
#113=ORIENTED_EDGE('',*,*,#256,.F.);
#114=ORIENTED_EDGE('',*,*,#259,.F.);
#115=ORIENTED_EDGE('',*,*,#225,.F.);
#116=ORIENTED_EDGE('',*,*,#260,.F.);
#117=ORIENTED_EDGE('',*,*,#247,.F.);
#118=ORIENTED_EDGE('',*,*,#249,.T.);
#119=ORIENTED_EDGE('',*,*,#261,.T.);
#120=ORIENTED_EDGE('',*,*,#262,.F.);
#121=ORIENTED_EDGE('',*,*,#263,.F.);
#122=ORIENTED_EDGE('',*,*,#250,.F.);
#123=ORIENTED_EDGE('',*,*,#252,.T.);
#124=ORIENTED_EDGE('',*,*,#255,.T.);
#125=ORIENTED_EDGE('',*,*,#264,.T.);
#126=ORIENTED_EDGE('',*,*,#219,.T.);
#127=ORIENTED_EDGE('',*,*,#265,.F.);
#128=ORIENTED_EDGE('',*,*,#234,.F.);
#129=ORIENTED_EDGE('',*,*,#229,.F.);
#130=ORIENTED_EDGE('',*,*,#266,.T.);
#131=ORIENTED_EDGE('',*,*,#221,.F.);
#132=ORIENTED_EDGE('',*,*,#253,.F.);
#133=ORIENTED_EDGE('',*,*,#244,.F.);
#134=ORIENTED_EDGE('',*,*,#260,.T.);
#135=ORIENTED_EDGE('',*,*,#224,.T.);
#136=ORIENTED_EDGE('',*,*,#267,.T.);
#137=ORIENTED_EDGE('',*,*,#240,.T.);
#138=ORIENTED_EDGE('',*,*,#235,.F.);
#139=ORIENTED_EDGE('',*,*,#265,.T.);
#140=ORIENTED_EDGE('',*,*,#220,.T.);
#141=ORIENTED_EDGE('',*,*,#257,.F.);
#142=ORIENTED_EDGE('',*,*,#215,.F.);
#143=ORIENTED_EDGE('',*,*,#268,.F.);
#144=ORIENTED_EDGE('',*,*,#269,.T.);
#145=ORIENTED_EDGE('',*,*,#270,.T.);
#146=ORIENTED_EDGE('',*,*,#271,.F.);
#147=ORIENTED_EDGE('',*,*,#272,.T.);
#148=ORIENTED_EDGE('',*,*,#213,.F.);
#149=ORIENTED_EDGE('',*,*,#243,.T.);
#150=ORIENTED_EDGE('',*,*,#239,.F.);
#151=ORIENTED_EDGE('',*,*,#270,.F.);
#152=ORIENTED_EDGE('',*,*,#273,.T.);
#153=ORIENTED_EDGE('',*,*,#268,.T.);
#154=ORIENTED_EDGE('',*,*,#274,.T.);
#155=ORIENTED_EDGE('',*,*,#275,.F.);
#156=ORIENTED_EDGE('',*,*,#261,.F.);
#157=ORIENTED_EDGE('',*,*,#248,.T.);
#158=ORIENTED_EDGE('',*,*,#263,.T.);
#159=ORIENTED_EDGE('',*,*,#218,.F.);
#160=ORIENTED_EDGE('',*,*,#276,.F.);
#161=ORIENTED_EDGE('',*,*,#241,.T.);
#162=ORIENTED_EDGE('',*,*,#273,.F.);
#163=ORIENTED_EDGE('',*,*,#269,.F.);
#164=ORIENTED_EDGE('',*,*,#212,.F.);
#165=ORIENTED_EDGE('',*,*,#277,.F.);
#166=ORIENTED_EDGE('',*,*,#278,.F.);
#167=ORIENTED_EDGE('',*,*,#279,.F.);
#168=ORIENTED_EDGE('',*,*,#242,.F.);
#169=ORIENTED_EDGE('',*,*,#276,.T.);
#170=ORIENTED_EDGE('',*,*,#217,.F.);
#171=ORIENTED_EDGE('',*,*,#280,.T.);
#172=ORIENTED_EDGE('',*,*,#231,.T.);
#173=ORIENTED_EDGE('',*,*,#233,.T.);
#174=ORIENTED_EDGE('',*,*,#281,.T.);
#175=ORIENTED_EDGE('',*,*,#282,.T.);
#176=ORIENTED_EDGE('',*,*,#283,.T.);
#177=ORIENTED_EDGE('',*,*,#284,.T.);
#178=ORIENTED_EDGE('',*,*,#274,.F.);
#179=ORIENTED_EDGE('',*,*,#211,.T.);
#180=ORIENTED_EDGE('',*,*,#285,.F.);
#181=ORIENTED_EDGE('',*,*,#279,.T.);
#182=ORIENTED_EDGE('',*,*,#281,.F.);
#183=ORIENTED_EDGE('',*,*,#278,.T.);
#184=ORIENTED_EDGE('',*,*,#282,.F.);
#185=ORIENTED_EDGE('',*,*,#277,.T.);
#186=ORIENTED_EDGE('',*,*,#283,.F.);
#187=ORIENTED_EDGE('',*,*,#267,.F.);
#188=ORIENTED_EDGE('',*,*,#227,.T.);
#189=ORIENTED_EDGE('',*,*,#286,.T.);
#190=ORIENTED_EDGE('',*,*,#271,.T.);
#191=ORIENTED_EDGE('',*,*,#238,.F.);
#192=ORIENTED_EDGE('',*,*,#284,.F.);
#193=ORIENTED_EDGE('',*,*,#287,.F.);
#194=ORIENTED_EDGE('',*,*,#262,.T.);
#195=ORIENTED_EDGE('',*,*,#275,.T.);
#196=ORIENTED_EDGE('',*,*,#266,.F.);
#197=ORIENTED_EDGE('',*,*,#228,.F.);
#198=ORIENTED_EDGE('',*,*,#280,.F.);
#199=ORIENTED_EDGE('',*,*,#216,.F.);
#200=ORIENTED_EDGE('',*,*,#264,.F.);
#201=ORIENTED_EDGE('',*,*,#254,.F.);
#202=ORIENTED_EDGE('',*,*,#258,.T.);
#203=ORIENTED_EDGE('',*,*,#222,.F.);
#204=ORIENTED_EDGE('',*,*,#287,.T.);
#205=ORIENTED_EDGE('',*,*,#285,.T.);
#206=ORIENTED_EDGE('',*,*,#214,.T.);
#207=ORIENTED_EDGE('',*,*,#272,.F.);
#208=ORIENTED_EDGE('',*,*,#286,.F.);
#209=ORIENTED_EDGE('',*,*,#226,.F.);
#210=ORIENTED_EDGE('',*,*,#259,.T.);
#211=EDGE_CURVE('',#288,#289,#340,.T.);
#212=EDGE_CURVE('',#288,#290,#341,.T.);
#213=EDGE_CURVE('',#290,#291,#342,.T.);
#214=EDGE_CURVE('',#289,#291,#343,.T.);
#215=EDGE_CURVE('',#292,#292,#33,.T.);
#216=EDGE_CURVE('',#293,#294,#34,.T.);
#217=EDGE_CURVE('',#294,#295,#344,.T.);
#218=EDGE_CURVE('',#295,#296,#35,.T.);
#219=EDGE_CURVE('',#293,#296,#345,.T.);
#220=EDGE_CURVE('',#297,#298,#36,.T.);
#221=EDGE_CURVE('',#297,#299,#346,.T.);
#222=EDGE_CURVE('',#299,#300,#37,.T.);
#223=EDGE_CURVE('',#298,#300,#347,.T.);
#224=EDGE_CURVE('',#301,#302,#38,.T.);
#225=EDGE_CURVE('',#301,#303,#348,.T.);
#226=EDGE_CURVE('',#303,#304,#39,.T.);
#227=EDGE_CURVE('',#302,#304,#349,.T.);
#228=EDGE_CURVE('',#305,#306,#40,.T.);
#229=EDGE_CURVE('',#306,#307,#350,.T.);
#230=EDGE_CURVE('',#307,#308,#15,.T.);
#231=EDGE_CURVE('',#305,#308,#351,.T.);
#232=EDGE_CURVE('',#309,#310,#41,.T.);
#233=EDGE_CURVE('',#308,#309,#352,.T.);
#234=EDGE_CURVE('',#307,#311,#16,.T.);
#235=EDGE_CURVE('',#311,#310,#353,.T.);
#236=EDGE_CURVE('',#310,#312,#42,.T.);
#237=EDGE_CURVE('',#312,#309,#43,.T.);
#238=EDGE_CURVE('',#313,#314,#17,.T.);
#239=EDGE_CURVE('',#314,#312,#354,.T.);
#240=EDGE_CURVE('',#313,#310,#355,.T.);
#241=EDGE_CURVE('',#315,#316,#44,.T.);
#242=EDGE_CURVE('',#315,#309,#356,.T.);
#243=EDGE_CURVE('',#316,#312,#357,.T.);
#244=EDGE_CURVE('',#317,#318,#12,.T.);
#245=EDGE_CURVE('',#319,#318,#45,.T.);
#246=EDGE_CURVE('',#319,#320,#46,.T.);
#247=EDGE_CURVE('',#320,#317,#47,.T.);
#248=EDGE_CURVE('',#321,#322,#48,.T.);
#249=EDGE_CURVE('',#320,#321,#358,.T.);
#250=EDGE_CURVE('',#319,#322,#359,.T.);
#251=EDGE_CURVE('',#323,#324,#18,.T.);
#252=EDGE_CURVE('',#319,#323,#360,.T.);
#253=EDGE_CURVE('',#318,#324,#361,.T.);
#254=EDGE_CURVE('',#325,#326,#49,.T.);
#255=EDGE_CURVE('',#323,#326,#362,.T.);
#256=EDGE_CURVE('',#324,#325,#363,.T.);
#257=EDGE_CURVE('',#324,#298,#364,.T.);
#258=EDGE_CURVE('',#325,#300,#365,.T.);
#259=EDGE_CURVE('',#303,#327,#366,.T.);
#260=EDGE_CURVE('',#317,#301,#367,.T.);
#261=EDGE_CURVE('',#321,#328,#368,.T.);
#262=EDGE_CURVE('',#327,#328,#369,.T.);
#263=EDGE_CURVE('',#322,#296,#370,.T.);
#264=EDGE_CURVE('',#326,#293,#371,.T.);
#265=EDGE_CURVE('',#311,#297,#372,.T.);
#266=EDGE_CURVE('',#306,#299,#373,.T.);
#267=EDGE_CURVE('',#302,#313,#374,.T.);
#268=EDGE_CURVE('',#329,#329,#50,.T.);
#269=EDGE_CURVE('',#290,#330,#375,.T.);
#270=EDGE_CURVE('',#330,#314,#376,.T.);
#271=EDGE_CURVE('',#331,#314,#377,.T.);
#272=EDGE_CURVE('',#331,#291,#378,.T.);
#273=EDGE_CURVE('',#330,#316,#379,.T.);
#274=EDGE_CURVE('',#288,#332,#380,.T.);
#275=EDGE_CURVE('',#328,#332,#381,.T.);
#276=EDGE_CURVE('',#315,#295,#382,.T.);
#277=EDGE_CURVE('',#333,#333,#51,.T.);
#278=EDGE_CURVE('',#334,#334,#52,.T.);
#279=EDGE_CURVE('',#335,#335,#53,.T.);
#280=EDGE_CURVE('',#294,#305,#383,.T.);
#281=EDGE_CURVE('',#336,#336,#54,.T.);
#282=EDGE_CURVE('',#337,#337,#55,.T.);
#283=EDGE_CURVE('',#338,#338,#56,.T.);
#284=EDGE_CURVE('',#339,#332,#384,.T.);
#285=EDGE_CURVE('',#339,#289,#385,.T.);
#286=EDGE_CURVE('',#304,#331,#386,.T.);
#287=EDGE_CURVE('',#327,#339,#387,.T.);
#288=VERTEX_POINT('',#806);
#289=VERTEX_POINT('',#807);
#290=VERTEX_POINT('',#809);
#291=VERTEX_POINT('',#811);
#292=VERTEX_POINT('',#814);
#293=VERTEX_POINT('',#817);
#294=VERTEX_POINT('',#818);
#295=VERTEX_POINT('',#820);
#296=VERTEX_POINT('',#822);
#297=VERTEX_POINT('',#826);
#298=VERTEX_POINT('',#827);
#299=VERTEX_POINT('',#829);
#300=VERTEX_POINT('',#831);
#301=VERTEX_POINT('',#835);
#302=VERTEX_POINT('',#836);
#303=VERTEX_POINT('',#838);
#304=VERTEX_POINT('',#840);
#305=VERTEX_POINT('',#844);
#306=VERTEX_POINT('',#845);
#307=VERTEX_POINT('',#847);
#308=VERTEX_POINT('',#849);
#309=VERTEX_POINT('',#853);
#310=VERTEX_POINT('',#854);
#311=VERTEX_POINT('',#857);
#312=VERTEX_POINT('',#861);
#313=VERTEX_POINT('',#865);
#314=VERTEX_POINT('',#866);
#315=VERTEX_POINT('',#871);
#316=VERTEX_POINT('',#872);
#317=VERTEX_POINT('',#881);
#318=VERTEX_POINT('',#882);
#319=VERTEX_POINT('',#884);
#320=VERTEX_POINT('',#886);
#321=VERTEX_POINT('',#890);
#322=VERTEX_POINT('',#891);
#323=VERTEX_POINT('',#896);
#324=VERTEX_POINT('',#897);
#325=VERTEX_POINT('',#902);
#326=VERTEX_POINT('',#903);
#327=VERTEX_POINT('',#911);
#328=VERTEX_POINT('',#914);
#329=VERTEX_POINT('',#926);
#330=VERTEX_POINT('',#929);
#331=VERTEX_POINT('',#932);
#332=VERTEX_POINT('',#938);
#333=VERTEX_POINT('',#943);
#334=VERTEX_POINT('',#945);
#335=VERTEX_POINT('',#947);
#336=VERTEX_POINT('',#951);
#337=VERTEX_POINT('',#953);
#338=VERTEX_POINT('',#955);
#339=VERTEX_POINT('',#957);
#340=LINE('',#805,#388);
#341=LINE('',#808,#389);
#342=LINE('',#810,#390);
#343=LINE('',#812,#391);
#344=LINE('',#819,#392);
#345=LINE('',#823,#393);
#346=LINE('',#828,#394);
#347=LINE('',#832,#395);
#348=LINE('',#837,#396);
#349=LINE('',#841,#397);
#350=LINE('',#846,#398);
#351=LINE('',#850,#399);
#352=LINE('',#855,#400);
#353=LINE('',#858,#401);
#354=LINE('',#867,#402);
#355=LINE('',#868,#403);
#356=LINE('',#873,#404);
#357=LINE('',#874,#405);
#358=LINE('',#892,#406);
#359=LINE('',#893,#407);
#360=LINE('',#898,#408);
#361=LINE('',#899,#409);
#362=LINE('',#904,#410);
#363=LINE('',#905,#411);
#364=LINE('',#907,#412);
#365=LINE('',#908,#413);
#366=LINE('',#910,#414);
#367=LINE('',#912,#415);
#368=LINE('',#913,#416);
#369=LINE('',#915,#417);
#370=LINE('',#917,#418);
#371=LINE('',#918,#419);
#372=LINE('',#920,#420);
#373=LINE('',#921,#421);
#374=LINE('',#923,#422);
#375=LINE('',#928,#423);
#376=LINE('',#930,#424);
#377=LINE('',#931,#425);
#378=LINE('',#933,#426);
#379=LINE('',#935,#427);
#380=LINE('',#937,#428);
#381=LINE('',#939,#429);
#382=LINE('',#940,#430);
#383=LINE('',#948,#431);
#384=LINE('',#956,#432);
#385=LINE('',#958,#433);
#386=LINE('',#963,#434);
#387=LINE('',#965,#435);
#388=VECTOR('',#641,1.);
#389=VECTOR('',#642,1.);
#390=VECTOR('',#643,1.);
#391=VECTOR('',#644,1.);
#392=VECTOR('',#651,1.);
#393=VECTOR('',#654,1.);
#394=VECTOR('',#659,1.);
#395=VECTOR('',#662,1.);
#396=VECTOR('',#667,1.);
#397=VECTOR('',#670,1.);
#398=VECTOR('',#675,1.);
#399=VECTOR('',#678,1.);
#400=VECTOR('',#683,1.);
#401=VECTOR('',#686,1.);
#402=VECTOR('',#697,1.);
#403=VECTOR('',#698,1.);
#404=VECTOR('',#703,1.);
#405=VECTOR('',#704,1.);
#406=VECTOR('',#717,1.);
#407=VECTOR('',#718,1.);
#408=VECTOR('',#723,1.);
#409=VECTOR('',#724,1.);
#410=VECTOR('',#729,1.);
#411=VECTOR('',#730,1.);
#412=VECTOR('',#733,1.);
#413=VECTOR('',#734,1.);
#414=VECTOR('',#737,1.);
#415=VECTOR('',#738,1.);
#416=VECTOR('',#739,1.);
#417=VECTOR('',#740,1.);
#418=VECTOR('',#743,1.);
#419=VECTOR('',#744,1.);
#420=VECTOR('',#747,1.);
#421=VECTOR('',#748,1.);
#422=VECTOR('',#751,1.);
#423=VECTOR('',#758,1.);
#424=VECTOR('',#759,1.);
#425=VECTOR('',#760,1.);
#426=VECTOR('',#761,1.);
#427=VECTOR('',#764,1.);
#428=VECTOR('',#767,1.);
#429=VECTOR('',#768,1.);
#430=VECTOR('',#769,1.);
#431=VECTOR('',#778,1.);
#432=VECTOR('',#787,1.);
#433=VECTOR('',#788,1.);
#434=VECTOR('',#797,1.);
#435=VECTOR('',#800,1.);
#436=EDGE_LOOP('',(#57,#58,#59,#60));
#437=EDGE_LOOP('',(#61));
#438=EDGE_LOOP('',(#62,#63,#64,#65));
#439=EDGE_LOOP('',(#66,#67,#68,#69));
#440=EDGE_LOOP('',(#70,#71,#72,#73));
#441=EDGE_LOOP('',(#74,#75,#76,#77));
#442=EDGE_LOOP('',(#78,#79,#80,#81,#82));
#443=EDGE_LOOP('',(#83,#84,#85));
#444=EDGE_LOOP('',(#86,#87,#88,#89));
#445=EDGE_LOOP('',(#90,#91,#92,#93));
#446=EDGE_LOOP('',(#94,#95,#96,#97));
#447=EDGE_LOOP('',(#98,#99,#100,#101));
#448=EDGE_LOOP('',(#102,#103,#104,#105));
#449=EDGE_LOOP('',(#106,#107,#108,#109));
#450=EDGE_LOOP('',(#110,#111,#112,#113));
#451=EDGE_LOOP('',(#114,#115,#116,#117,#118,#119,#120));
#452=EDGE_LOOP('',(#121,#122,#123,#124,#125,#126));
#453=EDGE_LOOP('',(#127,#128,#129,#130,#131));
#454=EDGE_LOOP('',(#132,#133,#134,#135,#136,#137,#138,#139,#140,#141));
#455=EDGE_LOOP('',(#142));
#456=EDGE_LOOP('',(#143));
#457=EDGE_LOOP('',(#144,#145,#146,#147,#148));
#458=EDGE_LOOP('',(#149,#150,#151,#152));
#459=EDGE_LOOP('',(#153));
#460=EDGE_LOOP('',(#154,#155,#156,#157,#158,#159,#160,#161,#162,#163,#164));
#461=EDGE_LOOP('',(#165));
#462=EDGE_LOOP('',(#166));
#463=EDGE_LOOP('',(#167));
#464=EDGE_LOOP('',(#168,#169,#170,#171,#172,#173));
#465=EDGE_LOOP('',(#174));
#466=EDGE_LOOP('',(#175));
#467=EDGE_LOOP('',(#176));
#468=EDGE_LOOP('',(#177,#178,#179,#180));
#469=EDGE_LOOP('',(#181));
#470=EDGE_LOOP('',(#182));
#471=EDGE_LOOP('',(#183));
#472=EDGE_LOOP('',(#184));
#473=EDGE_LOOP('',(#185));
#474=EDGE_LOOP('',(#186));
#475=EDGE_LOOP('',(#187,#188,#189,#190,#191));
#476=EDGE_LOOP('',(#192,#193,#194,#195));
#477=EDGE_LOOP('',(#196,#197,#198,#199,#200,#201,#202,#203));
#478=EDGE_LOOP('',(#204,#205,#206,#207,#208,#209,#210));
#479=FACE_BOUND('',#436,.T.);
#480=FACE_BOUND('',#437,.T.);
#481=FACE_BOUND('',#438,.T.);
#482=FACE_BOUND('',#439,.T.);
#483=FACE_BOUND('',#440,.T.);
#484=FACE_BOUND('',#441,.T.);
#485=FACE_BOUND('',#442,.T.);
#486=FACE_BOUND('',#443,.T.);
#487=FACE_BOUND('',#444,.T.);
#488=FACE_BOUND('',#445,.T.);
#489=FACE_BOUND('',#446,.T.);
#490=FACE_BOUND('',#447,.T.);
#491=FACE_BOUND('',#448,.T.);
#492=FACE_BOUND('',#449,.T.);
#493=FACE_BOUND('',#450,.T.);
#494=FACE_BOUND('',#451,.T.);
#495=FACE_BOUND('',#452,.T.);
#496=FACE_BOUND('',#453,.T.);
#497=FACE_BOUND('',#454,.T.);
#498=FACE_BOUND('',#455,.T.);
#499=FACE_BOUND('',#456,.T.);
#500=FACE_BOUND('',#457,.T.);
#501=FACE_BOUND('',#458,.T.);
#502=FACE_BOUND('',#459,.T.);
#503=FACE_BOUND('',#460,.T.);
#504=FACE_BOUND('',#461,.T.);
#505=FACE_BOUND('',#462,.T.);
#506=FACE_BOUND('',#463,.T.);
#507=FACE_BOUND('',#464,.T.);
#508=FACE_BOUND('',#465,.T.);
#509=FACE_BOUND('',#466,.T.);
#510=FACE_BOUND('',#467,.T.);
#511=FACE_BOUND('',#468,.T.);
#512=FACE_BOUND('',#469,.T.);
#513=FACE_BOUND('',#470,.T.);
#514=FACE_BOUND('',#471,.T.);
#515=FACE_BOUND('',#472,.T.);
#516=FACE_BOUND('',#473,.T.);
#517=FACE_BOUND('',#474,.T.);
#518=FACE_BOUND('',#475,.T.);
#519=FACE_BOUND('',#476,.T.);
#520=FACE_BOUND('',#477,.T.);
#521=FACE_BOUND('',#478,.T.);
#522=PLANE('',#579);
#523=PLANE('',#613);
#524=PLANE('',#614);
#525=PLANE('',#615);
#526=PLANE('',#616);
#527=PLANE('',#617);
#528=PLANE('',#620);
#529=PLANE('',#621);
#530=PLANE('',#622);
#531=PLANE('',#623);
#532=PLANE('',#627);
#533=PLANE('',#634);
#534=PLANE('',#635);
#535=PLANE('',#636);
#536=ADVANCED_FACE('',(#479,#480),#522,.F.);
#537=ADVANCED_FACE('',(#481),#19,.F.);
#538=ADVANCED_FACE('',(#482),#20,.F.);
#539=ADVANCED_FACE('',(#483),#21,.F.);
#540=ADVANCED_FACE('',(#484),#22,.F.);
#541=ADVANCED_FACE('',(#485),#23,.F.);
#542=ADVANCED_FACE('',(#486),#14,.F.);
#543=ADVANCED_FACE('',(#487),#24,.F.);
#544=ADVANCED_FACE('',(#488),#25,.F.);
#545=ADVANCED_FACE('',(#489),#13,.T.);
#546=ADVANCED_FACE('',(#490),#26,.T.);
#547=ADVANCED_FACE('',(#491),#27,.F.);
#548=ADVANCED_FACE('',(#492),#28,.F.);
#549=ADVANCED_FACE('',(#493),#523,.T.);
#550=ADVANCED_FACE('',(#494),#524,.T.);
#551=ADVANCED_FACE('',(#495),#525,.F.);
#552=ADVANCED_FACE('',(#496),#526,.T.);
#553=ADVANCED_FACE('',(#497),#527,.F.);
#554=ADVANCED_FACE('',(#498,#499),#29,.F.);
#555=ADVANCED_FACE('',(#500),#528,.T.);
#556=ADVANCED_FACE('',(#501,#502),#529,.F.);
#557=ADVANCED_FACE('',(#503),#530,.F.);
#558=ADVANCED_FACE('',(#504,#505,#506,#507),#531,.T.);
#559=ADVANCED_FACE('',(#508,#509,#510,#511),#532,.F.);
#560=ADVANCED_FACE('',(#512,#513),#30,.F.);
#561=ADVANCED_FACE('',(#514,#515),#31,.F.);
#562=ADVANCED_FACE('',(#516,#517),#32,.F.);
#563=ADVANCED_FACE('',(#518),#533,.T.);
#564=ADVANCED_FACE('',(#519),#534,.F.);
#565=ADVANCED_FACE('',(#520,#521),#535,.T.);
#566=CLOSED_SHELL('',(#536,#537,#538,#539,#540,#541,#542,#543,#544,#545,
#546,#547,#548,#549,#550,#551,#552,#553,#554,#555,#556,#557,#558,#559,#560,
#561,#562,#563,#564,#565));
#567=STYLED_ITEM('',(#568),#575);
#568=PRESENTATION_STYLE_ASSIGNMENT((#569));
#569=SURFACE_STYLE_USAGE(.BOTH.,#570);
#570=SURFACE_SIDE_STYLE('',(#571));
#571=SURFACE_STYLE_FILL_AREA(#572);
#572=FILL_AREA_STYLE('',(#573));
#573=FILL_AREA_STYLE_COLOUR('',#574);
#574=COLOUR_RGB('',0.615686274509804,0.811764705882353,0.929411764705882);
#575=MANIFOLD_SOLID_BREP('camera mount',#566);
#576=SHAPE_DEFINITION_REPRESENTATION(#973,#577);
#577=SHAPE_REPRESENTATION('camera mount',(#578),#968);
#578=AXIS2_PLACEMENT_3D('',#803,#637,#638);
#579=AXIS2_PLACEMENT_3D('',#804,#639,#640);
#580=AXIS2_PLACEMENT_3D('',#813,#645,#646);
#581=AXIS2_PLACEMENT_3D('',#815,#647,#648);
#582=AXIS2_PLACEMENT_3D('',#816,#649,#650);
#583=AXIS2_PLACEMENT_3D('',#821,#652,#653);
#584=AXIS2_PLACEMENT_3D('',#824,#655,#656);
#585=AXIS2_PLACEMENT_3D('',#825,#657,#658);
#586=AXIS2_PLACEMENT_3D('',#830,#660,#661);
#587=AXIS2_PLACEMENT_3D('',#833,#663,#664);
#588=AXIS2_PLACEMENT_3D('',#834,#665,#666);
#589=AXIS2_PLACEMENT_3D('',#839,#668,#669);
#590=AXIS2_PLACEMENT_3D('',#842,#671,#672);
#591=AXIS2_PLACEMENT_3D('',#843,#673,#674);
#592=AXIS2_PLACEMENT_3D('',#848,#676,#677);
#593=AXIS2_PLACEMENT_3D('',#851,#679,#680);
#594=AXIS2_PLACEMENT_3D('',#852,#681,#682);
#595=AXIS2_PLACEMENT_3D('',#856,#684,#685);
#596=AXIS2_PLACEMENT_3D('',#859,#687,#688);
#597=AXIS2_PLACEMENT_3D('',#860,#689,#690);
#598=AXIS2_PLACEMENT_3D('',#862,#691,#692);
#599=AXIS2_PLACEMENT_3D('',#863,#693,#694);
#600=AXIS2_PLACEMENT_3D('',#864,#695,#696);
#601=AXIS2_PLACEMENT_3D('',#869,#699,#700);
#602=AXIS2_PLACEMENT_3D('',#870,#701,#702);
#603=AXIS2_PLACEMENT_3D('',#875,#705,#706);
#604=AXIS2_PLACEMENT_3D('',#883,#707,#708);
#605=AXIS2_PLACEMENT_3D('',#885,#709,#710);
#606=AXIS2_PLACEMENT_3D('',#887,#711,#712);
#607=AXIS2_PLACEMENT_3D('',#888,#713,#714);
#608=AXIS2_PLACEMENT_3D('',#889,#715,#716);
#609=AXIS2_PLACEMENT_3D('',#894,#719,#720);
#610=AXIS2_PLACEMENT_3D('',#895,#721,#722);
#611=AXIS2_PLACEMENT_3D('',#900,#725,#726);
#612=AXIS2_PLACEMENT_3D('',#901,#727,#728);
#613=AXIS2_PLACEMENT_3D('',#906,#731,#732);
#614=AXIS2_PLACEMENT_3D('',#909,#735,#736);
#615=AXIS2_PLACEMENT_3D('',#916,#741,#742);
#616=AXIS2_PLACEMENT_3D('',#919,#745,#746);
#617=AXIS2_PLACEMENT_3D('',#922,#749,#750);
#618=AXIS2_PLACEMENT_3D('',#924,#752,#753);
#619=AXIS2_PLACEMENT_3D('',#925,#754,#755);
#620=AXIS2_PLACEMENT_3D('',#927,#756,#757);
#621=AXIS2_PLACEMENT_3D('',#934,#762,#763);
#622=AXIS2_PLACEMENT_3D('',#936,#765,#766);
#623=AXIS2_PLACEMENT_3D('',#941,#770,#771);
#624=AXIS2_PLACEMENT_3D('',#942,#772,#773);
#625=AXIS2_PLACEMENT_3D('',#944,#774,#775);
#626=AXIS2_PLACEMENT_3D('',#946,#776,#777);
#627=AXIS2_PLACEMENT_3D('',#949,#779,#780);
#628=AXIS2_PLACEMENT_3D('',#950,#781,#782);
#629=AXIS2_PLACEMENT_3D('',#952,#783,#784);
#630=AXIS2_PLACEMENT_3D('',#954,#785,#786);
#631=AXIS2_PLACEMENT_3D('',#959,#789,#790);
#632=AXIS2_PLACEMENT_3D('',#960,#791,#792);
#633=AXIS2_PLACEMENT_3D('',#961,#793,#794);
#634=AXIS2_PLACEMENT_3D('',#962,#795,#796);
#635=AXIS2_PLACEMENT_3D('',#964,#798,#799);
#636=AXIS2_PLACEMENT_3D('',#966,#801,#802);
#637=DIRECTION('',(0.,0.,1.));
#638=DIRECTION('',(1.,0.,0.));
#639=DIRECTION('',(-3.58322940412439E-16,0.,1.));
#640=DIRECTION('',(-1.,0.,-3.58322940412439E-16));
#641=DIRECTION('',(-1.,0.,-3.58322940412439E-16));
#642=DIRECTION('',(0.,-1.,0.));
#643=DIRECTION('',(-1.,0.,-3.58322940412439E-16));
#644=DIRECTION('',(0.,-1.,0.));
#645=DIRECTION('',(-3.58322940412439E-16,0.,1.));
#646=DIRECTION('',(-1.,0.,-3.58322940412439E-16));
#647=DIRECTION('',(1.,0.,7.16645880824876E-16));
#648=DIRECTION('',(-7.16645880824876E-16,0.,1.));
#649=DIRECTION('',(-1.,0.,0.));
#650=DIRECTION('',(0.,-1.,0.));
#651=DIRECTION('',(1.,0.,7.16645880824876E-16));
#652=DIRECTION('',(1.,0.,0.));
#653=DIRECTION('',(0.,1.,0.));
#654=DIRECTION('',(1.,0.,7.16645880824876E-16));
#655=DIRECTION('',(1.,0.,0.));
#656=DIRECTION('',(0.,1.,0.));
#657=DIRECTION('',(-1.,0.,0.));
#658=DIRECTION('',(0.,-1.,0.));
#659=DIRECTION('',(-1.,0.,0.));
#660=DIRECTION('',(-1.,0.,0.));
#661=DIRECTION('',(0.,-1.,0.));
#662=DIRECTION('',(-1.,0.,0.));
#663=DIRECTION('',(1.,0.,0.));
#664=DIRECTION('',(0.,1.,0.));
#665=DIRECTION('',(-1.,0.,0.));
#666=DIRECTION('',(0.,-1.,0.));
#667=DIRECTION('',(-1.,0.,0.));
#668=DIRECTION('',(-1.,0.,0.));
#669=DIRECTION('',(0.,-1.,0.));
#670=DIRECTION('',(-1.,0.,0.));
#671=DIRECTION('',(-1.,0.,0.));
#672=DIRECTION('',(0.,-1.,0.));
#673=DIRECTION('',(-1.,0.,0.));
#674=DIRECTION('',(0.,-1.,0.));
#675=DIRECTION('',(1.,0.,0.));
#676=DIRECTION('',(0.707106781186548,0.,-0.707106781186548));
#677=DIRECTION('',(-0.707106781186548,0.,-0.707106781186548));
#678=DIRECTION('',(1.,0.,0.));
#679=DIRECTION('',(0.,0.,-1.));
#680=DIRECTION('',(0.,1.,0.));
#681=DIRECTION('',(0.,0.,1.));
#682=DIRECTION('',(0.,-1.,0.));
#683=DIRECTION('',(0.,0.,-1.));
#684=DIRECTION('',(0.,-0.254814892950073,0.966989850169506));
#685=DIRECTION('',(0.,-0.966989850169506,-0.254814892950073));
#686=DIRECTION('',(0.,0.,-1.));
#687=DIRECTION('',(0.,0.,-1.));
#688=DIRECTION('',(0.,1.,0.));
#689=DIRECTION('',(0.,-1.,0.));
#690=DIRECTION('',(1.,0.,0.));
#691=DIRECTION('',(1.,-1.15648231731787E-15,0.));
#692=DIRECTION('',(1.15648231731787E-15,1.,0.));
#693=DIRECTION('',(0.,-1.,0.));
#694=DIRECTION('',(1.,0.,0.));
#695=DIRECTION('',(0.,-0.254814892950073,0.966989850169506));
#696=DIRECTION('',(0.,-0.966989850169506,-0.254814892950073));
#697=DIRECTION('',(0.,1.,0.));
#698=DIRECTION('',(0.,1.,0.));
#699=DIRECTION('',(-1.,0.,0.));
#700=DIRECTION('',(0.,-1.,0.));
#701=DIRECTION('',(-1.,0.,0.));
#702=DIRECTION('',(0.,-1.,0.));
#703=DIRECTION('',(-1.,0.,0.));
#704=DIRECTION('',(-1.,0.,0.));
#705=DIRECTION('',(0.,-1.,0.));
#706=DIRECTION('',(1.,0.,0.));
#707=DIRECTION('',(0.,-1.,0.));
#708=DIRECTION('',(1.,0.,0.));
#709=DIRECTION('',(-1.,0.,-1.15648231731787E-15));
#710=DIRECTION('',(1.15648231731787E-15,0.,-1.));
#711=DIRECTION('',(0.,-1.,0.));
#712=DIRECTION('',(1.,0.,0.));
#713=DIRECTION('',(-1.,0.,-7.16645880824876E-16));
#714=DIRECTION('',(7.16645880824876E-16,0.,-1.));
#715=DIRECTION('',(1.,0.,0.));
#716=DIRECTION('',(0.,1.,0.));
#717=DIRECTION('',(1.,0.,7.16645880824876E-16));
#718=DIRECTION('',(1.,0.,7.16645880824876E-16));
#719=DIRECTION('',(0.,-1.,0.));
#720=DIRECTION('',(1.,0.,0.));
#721=DIRECTION('',(0.707106781186548,-0.707106781186548,5.06745162040676E-16));
#722=DIRECTION('',(-0.707106781186548,-0.707106781186548,-5.06745162040676E-16));
#723=DIRECTION('',(0.,1.,0.));
#724=DIRECTION('',(0.,1.,0.));
#725=DIRECTION('',(-1.,-2.04428766031488E-31,-7.16645880824876E-16));
#726=DIRECTION('',(7.16645880824876E-16,0.,-1.));
#727=DIRECTION('',(-1.,0.,0.));
#728=DIRECTION('',(0.,-1.,0.));
#729=DIRECTION('',(-1.,-2.04428766031488E-31,-7.16645880824876E-16));
#730=DIRECTION('',(-1.,-2.04428766031488E-31,-7.16645880824876E-16));
#731=DIRECTION('',(0.,1.,-2.85257714446341E-16));
#732=DIRECTION('',(0.,2.85257714446341E-16,1.));
#733=DIRECTION('',(0.,-2.85257714446341E-16,-1.));
#734=DIRECTION('',(0.,-2.85257714446341E-16,-1.));
#735=DIRECTION('',(0.,-1.,0.));
#736=DIRECTION('',(1.,0.,0.));
#737=DIRECTION('',(0.,0.,1.));
#738=DIRECTION('',(0.,0.,-1.));
#739=DIRECTION('',(0.,0.,1.));
#740=DIRECTION('',(1.,0.,0.));
#741=DIRECTION('',(-7.16645880824876E-16,0.,1.));
#742=DIRECTION('',(-1.,0.,-7.16645880824876E-16));
#743=DIRECTION('',(0.,1.,0.));
#744=DIRECTION('',(0.,1.,0.));
#745=DIRECTION('',(0.,-0.254814892950073,0.966989850169506));
#746=DIRECTION('',(0.,-0.966989850169506,-0.254814892950073));
#747=DIRECTION('',(0.,-0.966989850169506,-0.254814892950073));
#748=DIRECTION('',(0.,-0.966989850169506,-0.254814892950073));
#749=DIRECTION('',(-1.,0.,0.));
#750=DIRECTION('',(0.,0.,-1.));
#751=DIRECTION('',(0.,-0.966989850169506,-0.254814892950073));
#752=DIRECTION('',(-3.58322940412439E-16,0.,1.));
#753=DIRECTION('',(-1.,0.,-3.58322940412439E-16));
#754=DIRECTION('',(0.,0.,-1.));
#755=DIRECTION('',(0.,1.,0.));
#756=DIRECTION('',(0.,-1.,0.));
#757=DIRECTION('',(1.,0.,0.));
#758=DIRECTION('',(0.,0.,1.));
#759=DIRECTION('',(-1.,0.,0.));
#760=DIRECTION('',(1.,0.,0.));
#761=DIRECTION('',(0.,0.,-1.));
#762=DIRECTION('',(0.,0.,-1.));
#763=DIRECTION('',(0.,1.,0.));
#764=DIRECTION('',(0.,1.,0.));
#765=DIRECTION('',(-1.,0.,0.));
#766=DIRECTION('',(0.,-1.,0.));
#767=DIRECTION('',(0.,0.,1.));
#768=DIRECTION('',(0.,1.,0.));
#769=DIRECTION('',(0.,0.,1.));
#770=DIRECTION('',(0.,-1.,0.));
#771=DIRECTION('',(1.,0.,0.));
#772=DIRECTION('',(0.,-1.,0.));
#773=DIRECTION('',(1.,0.,0.));
#774=DIRECTION('',(0.,-1.,0.));
#775=DIRECTION('',(1.,0.,0.));
#776=DIRECTION('',(0.,-1.,0.));
#777=DIRECTION('',(1.,0.,0.));
#778=DIRECTION('',(0.,0.,-1.));
#779=DIRECTION('',(0.,-1.,0.));
#780=DIRECTION('',(1.,0.,0.));
#781=DIRECTION('',(0.,-1.,0.));
#782=DIRECTION('',(1.,0.,0.));
#783=DIRECTION('',(0.,-1.,0.));
#784=DIRECTION('',(1.,0.,0.));
#785=DIRECTION('',(0.,-1.,0.));
#786=DIRECTION('',(1.,0.,0.));
#787=DIRECTION('',(1.,0.,0.));
#788=DIRECTION('',(0.,0.,-1.));
#789=DIRECTION('',(0.,1.,0.));
#790=DIRECTION('',(-1.,0.,0.));
#791=DIRECTION('',(0.,1.,0.));
#792=DIRECTION('',(-1.,0.,0.));
#793=DIRECTION('',(0.,1.,0.));
#794=DIRECTION('',(-1.,0.,0.));
#795=DIRECTION('',(0.,-0.254814892950073,0.966989850169506));
#796=DIRECTION('',(0.,-0.966989850169506,-0.254814892950073));
#797=DIRECTION('',(0.,-0.966989850169506,-0.254814892950073));
#798=DIRECTION('',(0.,0.,-1.));
#799=DIRECTION('',(0.,1.,0.));
#800=DIRECTION('',(0.,1.,0.));
#801=DIRECTION('',(-1.,0.,0.));
#802=DIRECTION('',(0.,0.,-1.));
#803=CARTESIAN_POINT('',(0.,0.,0.));
#804=CARTESIAN_POINT('',(-0.017297218960243,-0.0676623242460077,0.184013783632024));
#805=CARTESIAN_POINT('',(-0.017297218960243,-0.0636623242460077,0.184013783632024));
#806=CARTESIAN_POINT('',(-0.00761476059472449,-0.0636623242460077,0.184013783632024));
#807=CARTESIAN_POINT('',(-0.0369796773257616,-0.0636623242460077,0.184013783632024));
#808=CARTESIAN_POINT('',(-0.00761476059472449,-0.0676623242460077,0.184013783632024));
#809=CARTESIAN_POINT('',(-0.00761476059472449,-0.141662324246008,0.184013783632024));
#810=CARTESIAN_POINT('',(-0.017297218960243,-0.141662324246008,0.184013783632024));
#811=CARTESIAN_POINT('',(-0.0369796773257616,-0.141662324246008,0.184013783632024));
#812=CARTESIAN_POINT('',(-0.0369796773257616,-0.0676623242460077,0.184013783632024));
#813=CARTESIAN_POINT('',(-0.0150647605947245,-0.133662324246008,0.184013783632024));
#814=CARTESIAN_POINT('',(-0.0184429605947245,-0.133662324246008,0.184013783632024));
#815=CARTESIAN_POINT('',(-0.017297218960243,-0.0691623242460077,0.244913783632024));
#816=CARTESIAN_POINT('',(-0.0369796773257616,-0.0691623242460077,0.244913783632024));
#817=CARTESIAN_POINT('',(-0.0369796773257616,-0.0691623242460077,0.246413783632024));
#818=CARTESIAN_POINT('',(-0.0369796773257616,-0.0676623242460077,0.244913783632024));
#819=CARTESIAN_POINT('',(-0.0126542412771446,-0.0676623242460077,0.244913783632024));
#820=CARTESIAN_POINT('',(-0.00761476059472449,-0.0676623242460077,0.244913783632024));
#821=CARTESIAN_POINT('',(-0.00761476059472449,-0.0691623242460077,0.244913783632024));
#822=CARTESIAN_POINT('',(-0.00761476059472449,-0.0691623242460077,0.246413783632024));
#823=CARTESIAN_POINT('',(-0.017297218960243,-0.0691623242460077,0.246413783632024));
#824=CARTESIAN_POINT('',(-0.0339796773257616,-0.103162324246008,0.199710259429154));
#825=CARTESIAN_POINT('',(-0.0339796773257616,-0.103162324246008,0.199710259429154));
#826=CARTESIAN_POINT('',(-0.0339796773257616,-0.102780101906583,0.198259774653899));
#827=CARTESIAN_POINT('',(-0.0339796773257616,-0.104662324246008,0.199710259429154));
#828=CARTESIAN_POINT('',(-0.0339796773257616,-0.102780101906583,0.198259774653899));
#829=CARTESIAN_POINT('',(-0.0369796773257616,-0.102780101906583,0.198259774653899));
#830=CARTESIAN_POINT('',(-0.0369796773257616,-0.103162324246008,0.199710259429154));
#831=CARTESIAN_POINT('',(-0.0369796773257616,-0.104662324246008,0.199710259429154));
#832=CARTESIAN_POINT('',(-0.0369796773257616,-0.104662324246008,0.199710259429154));
#833=CARTESIAN_POINT('',(-0.0369796773257616,-0.109162324246008,0.198129178348073));
#834=CARTESIAN_POINT('',(-0.0339796773257616,-0.109162324246008,0.198129178348073));
#835=CARTESIAN_POINT('',(-0.0339796773257616,-0.107662324246008,0.198129178348073));
#836=CARTESIAN_POINT('',(-0.0339796773257616,-0.108780101906583,0.196678693572819));
#837=CARTESIAN_POINT('',(-0.0339796773257616,-0.107662324246008,0.198129178348073));
#838=CARTESIAN_POINT('',(-0.0369796773257616,-0.107662324246008,0.198129178348073));
#839=CARTESIAN_POINT('',(-0.0369796773257616,-0.109162324246008,0.198129178348073));
#840=CARTESIAN_POINT('',(-0.0369796773257616,-0.108780101906583,0.196678693572819));
#841=CARTESIAN_POINT('',(-0.0369796773257616,-0.108780101906583,0.196678693572819));
#842=CARTESIAN_POINT('',(-0.0126542412771445,-0.0691623242460077,0.208669718888613));
#843=CARTESIAN_POINT('',(-0.0369796773257616,-0.0691623242460077,0.208669718888613));
#844=CARTESIAN_POINT('',(-0.0369796773257616,-0.0676623242460077,0.208669718888613));
#845=CARTESIAN_POINT('',(-0.0369796773257616,-0.0687801019065825,0.207219234113359));
#846=CARTESIAN_POINT('',(-0.0369796773257616,-0.0687801019065825,0.207219234113359));
#847=CARTESIAN_POINT('',(-0.0339301621010158,-0.0687801019065825,0.207219234113359));
#848=CARTESIAN_POINT('',(-0.0324796773257616,-0.0691623242460077,0.208669718888613));
#849=CARTESIAN_POINT('',(-0.0324796773257616,-0.0676623242460077,0.208669718888613));
#850=CARTESIAN_POINT('',(-0.0339796773257616,-0.0676623242460077,0.208669718888613));
#851=CARTESIAN_POINT('',(-0.0324796773257616,-0.0691623242460077,0.202513783632024));
#852=CARTESIAN_POINT('',(-0.0324796773257616,-0.0691623242460077,0.189513783632024));
#853=CARTESIAN_POINT('',(-0.0324796773257616,-0.0676623242460077,0.189513783632024));
#854=CARTESIAN_POINT('',(-0.0339796773257616,-0.0691623242460077,0.189513783632024));
#855=CARTESIAN_POINT('',(-0.0324796773257616,-0.0676623242460077,0.202513783632024));
#856=CARTESIAN_POINT('',(-0.0324796773257616,-0.0691623242460077,0.207118513361754));
#857=CARTESIAN_POINT('',(-0.0339796773257616,-0.0691623242460077,0.207118513361754));
#858=CARTESIAN_POINT('',(-0.0339796773257616,-0.0691623242460077,0.196263783632024));
#859=CARTESIAN_POINT('',(-0.0324796773257616,-0.0691623242460077,0.189513783632024));
#860=CARTESIAN_POINT('',(-0.0324796773257616,-0.0691623242460077,0.189513783632024));
#861=CARTESIAN_POINT('',(-0.0324796773257616,-0.0691623242460077,0.188013783632024));
#862=CARTESIAN_POINT('',(-0.0324796773257616,-0.0691623242460077,0.189513783632024));
#863=CARTESIAN_POINT('',(-0.0324796773257616,-0.102662324246008,0.189513783632024));
#864=CARTESIAN_POINT('',(-0.0324796773257616,-0.1359700165537,0.189513783632024));
#865=CARTESIAN_POINT('',(-0.0339796773257616,-0.1359700165537,0.189513783632024));
#866=CARTESIAN_POINT('',(-0.0324796773257616,-0.141662324246008,0.188013783632024));
#867=CARTESIAN_POINT('',(-0.0324796773257616,-0.141662324246008,0.188013783632024));
#868=CARTESIAN_POINT('',(-0.0339796773257616,-0.0676623242460077,0.189513783632024));
#869=CARTESIAN_POINT('',(-0.017297218960243,-0.0691623242460077,0.189513783632024));
#870=CARTESIAN_POINT('',(-0.00761476059472449,-0.0691623242460077,0.189513783632024));
#871=CARTESIAN_POINT('',(-0.00761476059472449,-0.0676623242460077,0.189513783632024));
#872=CARTESIAN_POINT('',(-0.00761476059472449,-0.0691623242460077,0.188013783632024));
#873=CARTESIAN_POINT('',(-0.0126542412771445,-0.0676623242460077,0.189513783632024));
#874=CARTESIAN_POINT('',(-0.017297218960243,-0.0691623242460077,0.188013783632024));
#875=CARTESIAN_POINT('',(-0.0324796773257616,-0.106162324246008,0.244913783632024));
#876=CARTESIAN_POINT('',(-0.0339796773257617,-0.107662324246008,0.242315707420671));
#877=CARTESIAN_POINT('',(-0.0339796773257617,-0.107662324246008,0.242835688166189));
#878=CARTESIAN_POINT('',(-0.0339796773257617,-0.107261593736841,0.243815536470805));
#879=CARTESIAN_POINT('',(-0.0339796773257616,-0.106524270852331,0.244551835821021));
#880=CARTESIAN_POINT('',(-0.0339796773257616,-0.106162324246008,0.244913783632024));
#881=CARTESIAN_POINT('',(-0.0339796773257616,-0.107662324246008,0.242315707420671));
#882=CARTESIAN_POINT('',(-0.0339796773257616,-0.106162324246008,0.244913783632024));
#883=CARTESIAN_POINT('',(-0.0324796773257616,-0.106162324246008,0.244913783632024));
#884=CARTESIAN_POINT('',(-0.0324796773257616,-0.106162324246008,0.246413783632024));
#885=CARTESIAN_POINT('',(-0.0324796773257616,-0.106162324246008,0.247913783632024));
#886=CARTESIAN_POINT('',(-0.0324796773257616,-0.107662324246008,0.247913783632024));
#887=CARTESIAN_POINT('',(-0.0324796773257616,-0.107662324246008,0.244913783632024));
#888=CARTESIAN_POINT('',(-0.017297218960243,-0.106162324246008,0.247913783632024));
#889=CARTESIAN_POINT('',(-0.00761476059472449,-0.106162324246008,0.247913783632024));
#890=CARTESIAN_POINT('',(-0.00761476059472449,-0.107662324246008,0.247913783632024));
#891=CARTESIAN_POINT('',(-0.00761476059472449,-0.106162324246008,0.246413783632024));
#892=CARTESIAN_POINT('',(-0.00761476059472449,-0.107662324246008,0.247913783632024));
#893=CARTESIAN_POINT('',(-0.0339796773257616,-0.106162324246008,0.246413783632024));
#894=CARTESIAN_POINT('',(-0.0324796773257616,-0.107662324246008,0.244913783632024));
#895=CARTESIAN_POINT('',(-0.0324796773257616,-0.103162324246008,0.244913783632024));
#896=CARTESIAN_POINT('',(-0.0324796773257616,-0.103162324246008,0.246413783632024));
#897=CARTESIAN_POINT('',(-0.0339796773257616,-0.104662324246008,0.244913783632024));
#898=CARTESIAN_POINT('',(-0.0324796773257616,-0.104662324246008,0.246413783632024));
#899=CARTESIAN_POINT('',(-0.0339796773257616,-0.107662324246008,0.244913783632024));
#900=CARTESIAN_POINT('',(-0.017297218960243,-0.103162324246008,0.244913783632024));
#901=CARTESIAN_POINT('',(-0.0369796773257616,-0.103162324246008,0.244913783632024));
#902=CARTESIAN_POINT('',(-0.0369796773257616,-0.104662324246008,0.244913783632024));
#903=CARTESIAN_POINT('',(-0.0369796773257616,-0.103162324246008,0.246413783632024));
#904=CARTESIAN_POINT('',(-0.017297218960243,-0.103162324246008,0.246413783632024));
#905=CARTESIAN_POINT('',(-0.0339796773257616,-0.104662324246008,0.244913783632024));
#906=CARTESIAN_POINT('',(-0.0339796773257616,-0.104662324246008,0.222088783632024));
#907=CARTESIAN_POINT('',(-0.0339796773257616,-0.104662324246008,0.222088783632024));
#908=CARTESIAN_POINT('',(-0.0369796773257616,-0.104662324246008,0.222088783632024));
#909=CARTESIAN_POINT('',(-0.017297218960243,-0.107662324246008,0.218713783632024));
#910=CARTESIAN_POINT('',(-0.0369796773257616,-0.107662324246008,0.247913783632024));
#911=CARTESIAN_POINT('',(-0.0369796773257616,-0.107662324246008,0.250413783632024));
#912=CARTESIAN_POINT('',(-0.0339796773257616,-0.107662324246008,0.221693513361754));
#913=CARTESIAN_POINT('',(-0.00761476059472449,-0.107662324246008,0.247913783632024));
#914=CARTESIAN_POINT('',(-0.00761476059472449,-0.107662324246008,0.250413783632024));
#915=CARTESIAN_POINT('',(-0.017297218960243,-0.107662324246008,0.250413783632024));
#916=CARTESIAN_POINT('',(-0.017297218960243,-0.107662324246008,0.246413783632024));
#917=CARTESIAN_POINT('',(-0.00761476059472449,-0.107662324246008,0.246413783632024));
#918=CARTESIAN_POINT('',(-0.0369796773257616,-0.107662324246008,0.246413783632024));
#919=CARTESIAN_POINT('',(-0.0369796773257616,-0.104662324246008,0.197763783632024));
#920=CARTESIAN_POINT('',(-0.0339796773257616,-0.104662324246008,0.197763783632024));
#921=CARTESIAN_POINT('',(-0.0369796773257616,-0.104662324246008,0.197763783632024));
#922=CARTESIAN_POINT('',(-0.0339796773257616,-0.102662324246008,0.196263783632024));
#923=CARTESIAN_POINT('',(-0.0339796773257616,-0.104662324246008,0.197763783632024));
#924=CARTESIAN_POINT('',(-0.0150647605947245,-0.133662324246008,0.185013783632024));
#925=CARTESIAN_POINT('',(-0.0150647605947245,-0.133662324246008,0.188013783632024));
#926=CARTESIAN_POINT('',(-0.0150647605947245,-0.130284124246008,0.188013783632024));
#927=CARTESIAN_POINT('',(-0.017297218960243,-0.141662324246008,0.202513783632024));
#928=CARTESIAN_POINT('',(-0.00761476059472449,-0.141662324246008,0.196263783632024));
#929=CARTESIAN_POINT('',(-0.00761476059472449,-0.141662324246008,0.188013783632024));
#930=CARTESIAN_POINT('',(-0.017297218960243,-0.141662324246008,0.188013783632024));
#931=CARTESIAN_POINT('',(-0.0369796773257616,-0.141662324246008,0.188013783632024));
#932=CARTESIAN_POINT('',(-0.0369796773257616,-0.141662324246008,0.188013783632024));
#933=CARTESIAN_POINT('',(-0.0369796773257616,-0.141662324246008,0.196263783632024));
#934=CARTESIAN_POINT('',(-0.017297218960243,-0.141662324246008,0.188013783632024));
#935=CARTESIAN_POINT('',(-0.00761476059472449,-0.141662324246008,0.188013783632024));
#936=CARTESIAN_POINT('',(-0.00761476059472449,-0.0676623242460077,0.196263783632024));
#937=CARTESIAN_POINT('',(-0.00761476059472449,-0.0636623242460077,0.196263783632024));
#938=CARTESIAN_POINT('',(-0.00761476059472449,-0.0636623242460077,0.250413783632024));
#939=CARTESIAN_POINT('',(-0.00761476059472449,-0.0626623242460077,0.250413783632024));
#940=CARTESIAN_POINT('',(-0.00761476059472449,-0.0676623242460077,0.229463783632024));
#941=CARTESIAN_POINT('',(-0.0126542412771445,-0.0676623242460077,0.202513783632024));
#942=CARTESIAN_POINT('',(-0.022797218960243,-0.0676623242460077,0.210013783632024));
#943=CARTESIAN_POINT('',(-0.0200472189602431,-0.0676623242460077,0.210013783632024));
#944=CARTESIAN_POINT('',(-0.014547218960243,-0.0676623242460077,0.20525064391121));
#945=CARTESIAN_POINT('',(-0.011797218960243,-0.0676623242460077,0.20525064391121));
#946=CARTESIAN_POINT('',(-0.014547218960243,-0.0676623242460077,0.214776923352839));
#947=CARTESIAN_POINT('',(-0.011797218960243,-0.0676623242460077,0.214776923352839));
#948=CARTESIAN_POINT('',(-0.0369796773257616,-0.0676623242460077,0.220015783632024));
#949=CARTESIAN_POINT('',(-0.0126542412771445,-0.0636623242460077,0.202513783632024));
#950=CARTESIAN_POINT('',(-0.014547218960243,-0.0636623242460077,0.214776923352839));
#951=CARTESIAN_POINT('',(-0.011797218960243,-0.0636623242460077,0.214776923352839));
#952=CARTESIAN_POINT('',(-0.014547218960243,-0.0636623242460077,0.20525064391121));
#953=CARTESIAN_POINT('',(-0.011797218960243,-0.0636623242460077,0.20525064391121));
#954=CARTESIAN_POINT('',(-0.022797218960243,-0.0636623242460077,0.210013783632024));
#955=CARTESIAN_POINT('',(-0.0200472189602431,-0.0636623242460077,0.210013783632024));
#956=CARTESIAN_POINT('',(-0.017297218960243,-0.0636623242460077,0.250413783632024));
#957=CARTESIAN_POINT('',(-0.0369796773257616,-0.0636623242460077,0.250413783632024));
#958=CARTESIAN_POINT('',(-0.0369796773257616,-0.0636623242460077,0.196263783632024));
#959=CARTESIAN_POINT('',(-0.014547218960243,-0.0636623242460077,0.214776923352839));
#960=CARTESIAN_POINT('',(-0.014547218960243,-0.0636623242460077,0.20525064391121));
#961=CARTESIAN_POINT('',(-0.022797218960243,-0.0636623242460077,0.210013783632024));
#962=CARTESIAN_POINT('',(-0.0369796773257616,-0.104662324246008,0.197763783632024));
#963=CARTESIAN_POINT('',(-0.0369796773257616,-0.104662324246008,0.197763783632024));
#964=CARTESIAN_POINT('',(-0.017297218960243,-0.0626623242460077,0.250413783632024));
#965=CARTESIAN_POINT('',(-0.0369796773257616,-0.0626623242460077,0.250413783632024));
#966=CARTESIAN_POINT('',(-0.0369796773257616,-0.102662324246008,0.196263783632024));
#967=MECHANICAL_DESIGN_GEOMETRIC_PRESENTATION_REPRESENTATION('',(#567),
#968);
#968=(
GEOMETRIC_REPRESENTATION_CONTEXT(3)
GLOBAL_UNCERTAINTY_ASSIGNED_CONTEXT((#969))
GLOBAL_UNIT_ASSIGNED_CONTEXT((#972,#971,#970))
REPRESENTATION_CONTEXT('camera mount','TOP_LEVEL_ASSEMBLY_PART')
);
#969=UNCERTAINTY_MEASURE_WITH_UNIT(LENGTH_MEASURE(5.E-6),#972,
'DISTANCE_ACCURACY_VALUE','Maximum Tolerance applied to model');
#970=(
NAMED_UNIT(*)
SI_UNIT($,.STERADIAN.)
SOLID_ANGLE_UNIT()
);
#971=(
NAMED_UNIT(*)
PLANE_ANGLE_UNIT()
SI_UNIT($,.RADIAN.)
);
#972=(
LENGTH_UNIT()
NAMED_UNIT(*)
SI_UNIT($,.METRE.)
);
#973=PRODUCT_DEFINITION_SHAPE('','',#974);
#974=PRODUCT_DEFINITION('','',#976,#975);
#975=PRODUCT_DEFINITION_CONTEXT('',#982,'design');
#976=PRODUCT_DEFINITION_FORMATION_WITH_SPECIFIED_SOURCE('','',#978,
 .NOT_KNOWN.);
#977=PRODUCT_RELATED_PRODUCT_CATEGORY('','',(#978));
#978=PRODUCT('camera mount','camera mount','camera mount',(#980));
#979=PRODUCT_CATEGORY('','');
#980=PRODUCT_CONTEXT('',#982,'mechanical');
#981=APPLICATION_PROTOCOL_DEFINITION('international standard',
'ap242_managed_model_based_3d_engineering',2011,#982);
#982=APPLICATION_CONTEXT('managed model based 3d engineering');
ENDSEC;
END-ISO-10303-21;
