ISO-10303-21;
HEADER;
/* Generated by software containing ST-Developer
 * from STEP Tools, Inc. (www.steptools.com) 
 */
/* OPTION: using custom renumber hook */

FILE_DESCRIPTION(
/* description */ ('STEP AP242',
'CAx-IF Rec.Pracs.---Representation and Presentation of Product Manufa
cturing Information (PMI)---4.0---2014-10-13',
'CAx-IF Rec.Pracs.---3D Tessellated Geometry---0.4---2014-09-14','2;1'),

/* implementation_level */ '2;1');

FILE_NAME(
/* name */ '66789e09b9c7367681b24243',
/* time_stamp */ '2024-06-23T22:13:29Z',
/* author */ (''),
/* organization */ (''),
/* preprocessor_version */ 'ST-DEVELOPER v20',
/* originating_system */ '  ',
/* authorisation */ '  ');

FILE_SCHEMA (('AP242_MANAGED_MODEL_BASED_3D_ENGINEERING_MIM_LF { 1 0 10303 442 1 1 4 }'));
ENDSEC;

DATA;
#10=SHAPE_REPRESENTATION_RELATIONSHIP('','',#931,#11);
#11=ADVANCED_BREP_SHAPE_REPRESENTATION('',(#929),#1533);
#12=TOROIDAL_SURFACE('',#1001,0.039606,0.005);
#13=B_SPLINE_CURVE_WITH_KNOTS('',3,(#1479,#1480,#1481,#1482,#1483),
 .UNSPECIFIED.,.F.,.F.,(4,1,4),(0.,0.00326124877282413,0.00652249754564826),
 .UNSPECIFIED.);
#14=B_SPLINE_CURVE_WITH_KNOTS('',3,(#1490,#1491,#1492,#1493,#1494),
 .UNSPECIFIED.,.F.,.F.,(4,1,4),(0.,0.00326774672223796,0.00653549344447591),
 .UNSPECIFIED.);
#15=B_SPLINE_CURVE_WITH_KNOTS('',3,(#1509,#1510,#1511,#1512),
 .UNSPECIFIED.,.F.,.F.,(4,4),(0.,0.00413391721333543),.UNSPECIFIED.);
#16=B_SPLINE_CURVE_WITH_KNOTS('',3,(#1514,#1515,#1516,#1517),
 .UNSPECIFIED.,.F.,.F.,(4,4),(0.,0.00413391721333517),.UNSPECIFIED.);
#17=CIRCLE('',#935,0.0198661251307292);
#18=CIRCLE('',#936,0.0198661251307292);
#19=CIRCLE('',#939,0.0198661251307292);
#20=CIRCLE('',#940,0.0198661251307292);
#21=CIRCLE('',#961,0.01);
#22=CIRCLE('',#962,0.01);
#23=CIRCLE('',#964,0.01);
#24=CIRCLE('',#965,0.01);
#25=CIRCLE('',#969,0.01);
#26=CIRCLE('',#970,0.039606);
#27=CIRCLE('',#971,0.01);
#28=CIRCLE('',#973,0.01);
#29=CIRCLE('',#974,0.005);
#30=CIRCLE('',#975,0.034606);
#31=CIRCLE('',#976,0.005);
#32=CIRCLE('',#977,0.01);
#33=CIRCLE('',#978,0.0192995);
#34=CIRCLE('',#980,0.0014);
#35=CIRCLE('',#981,0.02101255);
#36=CIRCLE('',#982,0.0014);
#37=CIRCLE('',#983,0.034606);
#38=CIRCLE('',#985,0.034606);
#39=CIRCLE('',#986,0.034606);
#40=CIRCLE('',#988,0.0192995);
#41=CIRCLE('',#994,0.02101255);
#42=CIRCLE('',#997,0.0014);
#43=CIRCLE('',#999,0.0014);
#44=CYLINDRICAL_SURFACE('',#934,0.0198661251307292);
#45=CYLINDRICAL_SURFACE('',#938,0.0198661251307292);
#46=CYLINDRICAL_SURFACE('',#960,0.01);
#47=CYLINDRICAL_SURFACE('',#963,0.01);
#48=CYLINDRICAL_SURFACE('',#984,0.034606);
#49=CYLINDRICAL_SURFACE('',#987,0.0192995);
#50=CYLINDRICAL_SURFACE('',#991,0.01);
#51=CYLINDRICAL_SURFACE('',#992,0.01);
#52=CYLINDRICAL_SURFACE('',#995,0.02101255);
#53=CYLINDRICAL_SURFACE('',#996,0.0014);
#54=CYLINDRICAL_SURFACE('',#998,0.0014);
#55=CYLINDRICAL_SURFACE('',#1000,0.005);
#56=CYLINDRICAL_SURFACE('',#1002,0.005);
#57=ORIENTED_EDGE('',*,*,#307,.T.);
#58=ORIENTED_EDGE('',*,*,#308,.F.);
#59=ORIENTED_EDGE('',*,*,#309,.F.);
#60=ORIENTED_EDGE('',*,*,#310,.F.);
#61=ORIENTED_EDGE('',*,*,#311,.T.);
#62=ORIENTED_EDGE('',*,*,#312,.F.);
#63=ORIENTED_EDGE('',*,*,#307,.F.);
#64=ORIENTED_EDGE('',*,*,#313,.F.);
#65=ORIENTED_EDGE('',*,*,#314,.T.);
#66=ORIENTED_EDGE('',*,*,#315,.F.);
#67=ORIENTED_EDGE('',*,*,#311,.F.);
#68=ORIENTED_EDGE('',*,*,#316,.F.);
#69=ORIENTED_EDGE('',*,*,#309,.T.);
#70=ORIENTED_EDGE('',*,*,#317,.F.);
#71=ORIENTED_EDGE('',*,*,#314,.F.);
#72=ORIENTED_EDGE('',*,*,#318,.F.);
#73=ORIENTED_EDGE('',*,*,#319,.T.);
#74=ORIENTED_EDGE('',*,*,#320,.F.);
#75=ORIENTED_EDGE('',*,*,#321,.F.);
#76=ORIENTED_EDGE('',*,*,#322,.F.);
#77=ORIENTED_EDGE('',*,*,#323,.T.);
#78=ORIENTED_EDGE('',*,*,#324,.T.);
#79=ORIENTED_EDGE('',*,*,#325,.T.);
#80=ORIENTED_EDGE('',*,*,#319,.F.);
#81=ORIENTED_EDGE('',*,*,#326,.T.);
#82=ORIENTED_EDGE('',*,*,#327,.T.);
#83=ORIENTED_EDGE('',*,*,#328,.T.);
#84=ORIENTED_EDGE('',*,*,#324,.F.);
#85=ORIENTED_EDGE('',*,*,#321,.T.);
#86=ORIENTED_EDGE('',*,*,#329,.F.);
#87=ORIENTED_EDGE('',*,*,#327,.F.);
#88=ORIENTED_EDGE('',*,*,#330,.F.);
#89=ORIENTED_EDGE('',*,*,#331,.T.);
#90=ORIENTED_EDGE('',*,*,#332,.F.);
#91=ORIENTED_EDGE('',*,*,#333,.F.);
#92=ORIENTED_EDGE('',*,*,#334,.F.);
#93=ORIENTED_EDGE('',*,*,#335,.T.);
#94=ORIENTED_EDGE('',*,*,#336,.F.);
#95=ORIENTED_EDGE('',*,*,#331,.F.);
#96=ORIENTED_EDGE('',*,*,#337,.F.);
#97=ORIENTED_EDGE('',*,*,#338,.T.);
#98=ORIENTED_EDGE('',*,*,#339,.T.);
#99=ORIENTED_EDGE('',*,*,#340,.T.);
#100=ORIENTED_EDGE('',*,*,#335,.F.);
#101=ORIENTED_EDGE('',*,*,#341,.T.);
#102=ORIENTED_EDGE('',*,*,#333,.T.);
#103=ORIENTED_EDGE('',*,*,#342,.T.);
#104=ORIENTED_EDGE('',*,*,#339,.F.);
#105=ORIENTED_EDGE('',*,*,#343,.T.);
#106=ORIENTED_EDGE('',*,*,#344,.T.);
#107=ORIENTED_EDGE('',*,*,#345,.T.);
#108=ORIENTED_EDGE('',*,*,#346,.F.);
#109=ORIENTED_EDGE('',*,*,#347,.T.);
#110=ORIENTED_EDGE('',*,*,#348,.T.);
#111=ORIENTED_EDGE('',*,*,#349,.T.);
#112=ORIENTED_EDGE('',*,*,#346,.T.);
#113=ORIENTED_EDGE('',*,*,#350,.T.);
#114=ORIENTED_EDGE('',*,*,#351,.T.);
#115=ORIENTED_EDGE('',*,*,#352,.T.);
#116=ORIENTED_EDGE('',*,*,#348,.F.);
#117=ORIENTED_EDGE('',*,*,#353,.T.);
#118=ORIENTED_EDGE('',*,*,#354,.F.);
#119=ORIENTED_EDGE('',*,*,#351,.F.);
#120=ORIENTED_EDGE('',*,*,#355,.F.);
#121=ORIENTED_EDGE('',*,*,#356,.T.);
#122=ORIENTED_EDGE('',*,*,#357,.F.);
#123=ORIENTED_EDGE('',*,*,#353,.F.);
#124=ORIENTED_EDGE('',*,*,#358,.F.);
#125=ORIENTED_EDGE('',*,*,#356,.F.);
#126=ORIENTED_EDGE('',*,*,#359,.T.);
#127=ORIENTED_EDGE('',*,*,#360,.T.);
#128=ORIENTED_EDGE('',*,*,#361,.T.);
#129=ORIENTED_EDGE('',*,*,#362,.T.);
#130=ORIENTED_EDGE('',*,*,#363,.T.);
#131=ORIENTED_EDGE('',*,*,#364,.T.);
#132=ORIENTED_EDGE('',*,*,#360,.F.);
#133=ORIENTED_EDGE('',*,*,#365,.T.);
#134=ORIENTED_EDGE('',*,*,#366,.T.);
#135=ORIENTED_EDGE('',*,*,#367,.T.);
#136=ORIENTED_EDGE('',*,*,#363,.F.);
#137=ORIENTED_EDGE('',*,*,#368,.T.);
#138=ORIENTED_EDGE('',*,*,#369,.F.);
#139=ORIENTED_EDGE('',*,*,#366,.F.);
#140=ORIENTED_EDGE('',*,*,#370,.F.);
#141=ORIENTED_EDGE('',*,*,#368,.F.);
#142=ORIENTED_EDGE('',*,*,#371,.T.);
#143=ORIENTED_EDGE('',*,*,#372,.T.);
#144=ORIENTED_EDGE('',*,*,#373,.T.);
#145=ORIENTED_EDGE('',*,*,#374,.F.);
#146=ORIENTED_EDGE('',*,*,#375,.T.);
#147=ORIENTED_EDGE('',*,*,#376,.T.);
#148=ORIENTED_EDGE('',*,*,#372,.F.);
#149=ORIENTED_EDGE('',*,*,#377,.F.);
#150=ORIENTED_EDGE('',*,*,#378,.F.);
#151=ORIENTED_EDGE('',*,*,#379,.F.);
#152=ORIENTED_EDGE('',*,*,#344,.F.);
#153=ORIENTED_EDGE('',*,*,#380,.F.);
#154=ORIENTED_EDGE('',*,*,#375,.F.);
#155=ORIENTED_EDGE('',*,*,#381,.F.);
#156=ORIENTED_EDGE('',*,*,#382,.F.);
#157=ORIENTED_EDGE('',*,*,#383,.T.);
#158=ORIENTED_EDGE('',*,*,#384,.T.);
#159=ORIENTED_EDGE('',*,*,#385,.T.);
#160=ORIENTED_EDGE('',*,*,#378,.T.);
#161=ORIENTED_EDGE('',*,*,#386,.F.);
#162=ORIENTED_EDGE('',*,*,#387,.T.);
#163=ORIENTED_EDGE('',*,*,#388,.F.);
#164=ORIENTED_EDGE('',*,*,#382,.T.);
#165=ORIENTED_EDGE('',*,*,#385,.F.);
#166=ORIENTED_EDGE('',*,*,#389,.T.);
#167=ORIENTED_EDGE('',*,*,#390,.F.);
#168=ORIENTED_EDGE('',*,*,#391,.T.);
#169=ORIENTED_EDGE('',*,*,#392,.T.);
#170=ORIENTED_EDGE('',*,*,#393,.T.);
#171=ORIENTED_EDGE('',*,*,#386,.T.);
#172=ORIENTED_EDGE('',*,*,#381,.T.);
#173=ORIENTED_EDGE('',*,*,#374,.T.);
#174=ORIENTED_EDGE('',*,*,#371,.F.);
#175=ORIENTED_EDGE('',*,*,#370,.T.);
#176=ORIENTED_EDGE('',*,*,#365,.F.);
#177=ORIENTED_EDGE('',*,*,#362,.F.);
#178=ORIENTED_EDGE('',*,*,#359,.F.);
#179=ORIENTED_EDGE('',*,*,#358,.T.);
#180=ORIENTED_EDGE('',*,*,#355,.T.);
#181=ORIENTED_EDGE('',*,*,#350,.F.);
#182=ORIENTED_EDGE('',*,*,#347,.F.);
#183=ORIENTED_EDGE('',*,*,#345,.F.);
#184=ORIENTED_EDGE('',*,*,#379,.T.);
#185=ORIENTED_EDGE('',*,*,#341,.F.);
#186=ORIENTED_EDGE('',*,*,#338,.F.);
#187=ORIENTED_EDGE('',*,*,#337,.T.);
#188=ORIENTED_EDGE('',*,*,#334,.T.);
#189=ORIENTED_EDGE('',*,*,#330,.T.);
#190=ORIENTED_EDGE('',*,*,#326,.F.);
#191=ORIENTED_EDGE('',*,*,#323,.F.);
#192=ORIENTED_EDGE('',*,*,#322,.T.);
#193=ORIENTED_EDGE('',*,*,#318,.T.);
#194=ORIENTED_EDGE('',*,*,#316,.T.);
#195=ORIENTED_EDGE('',*,*,#313,.T.);
#196=ORIENTED_EDGE('',*,*,#310,.T.);
#197=ORIENTED_EDGE('',*,*,#342,.F.);
#198=ORIENTED_EDGE('',*,*,#332,.T.);
#199=ORIENTED_EDGE('',*,*,#336,.T.);
#200=ORIENTED_EDGE('',*,*,#340,.F.);
#201=ORIENTED_EDGE('',*,*,#329,.T.);
#202=ORIENTED_EDGE('',*,*,#320,.T.);
#203=ORIENTED_EDGE('',*,*,#325,.F.);
#204=ORIENTED_EDGE('',*,*,#328,.F.);
#205=ORIENTED_EDGE('',*,*,#315,.T.);
#206=ORIENTED_EDGE('',*,*,#317,.T.);
#207=ORIENTED_EDGE('',*,*,#308,.T.);
#208=ORIENTED_EDGE('',*,*,#312,.T.);
#209=ORIENTED_EDGE('',*,*,#388,.T.);
#210=ORIENTED_EDGE('',*,*,#394,.T.);
#211=ORIENTED_EDGE('',*,*,#395,.F.);
#212=ORIENTED_EDGE('',*,*,#396,.T.);
#213=ORIENTED_EDGE('',*,*,#397,.T.);
#214=ORIENTED_EDGE('',*,*,#398,.T.);
#215=ORIENTED_EDGE('',*,*,#399,.F.);
#216=ORIENTED_EDGE('',*,*,#400,.T.);
#217=ORIENTED_EDGE('',*,*,#383,.F.);
#218=ORIENTED_EDGE('',*,*,#377,.T.);
#219=ORIENTED_EDGE('',*,*,#343,.F.);
#220=ORIENTED_EDGE('',*,*,#349,.F.);
#221=ORIENTED_EDGE('',*,*,#352,.F.);
#222=ORIENTED_EDGE('',*,*,#354,.T.);
#223=ORIENTED_EDGE('',*,*,#357,.T.);
#224=ORIENTED_EDGE('',*,*,#361,.F.);
#225=ORIENTED_EDGE('',*,*,#364,.F.);
#226=ORIENTED_EDGE('',*,*,#367,.F.);
#227=ORIENTED_EDGE('',*,*,#369,.T.);
#228=ORIENTED_EDGE('',*,*,#373,.F.);
#229=ORIENTED_EDGE('',*,*,#376,.F.);
#230=ORIENTED_EDGE('',*,*,#380,.T.);
#231=ORIENTED_EDGE('',*,*,#401,.T.);
#232=ORIENTED_EDGE('',*,*,#402,.T.);
#233=ORIENTED_EDGE('',*,*,#403,.F.);
#234=ORIENTED_EDGE('',*,*,#404,.F.);
#235=ORIENTED_EDGE('',*,*,#405,.T.);
#236=ORIENTED_EDGE('',*,*,#406,.T.);
#237=ORIENTED_EDGE('',*,*,#407,.F.);
#238=ORIENTED_EDGE('',*,*,#408,.F.);
#239=ORIENTED_EDGE('',*,*,#397,.F.);
#240=ORIENTED_EDGE('',*,*,#409,.T.);
#241=ORIENTED_EDGE('',*,*,#410,.T.);
#242=ORIENTED_EDGE('',*,*,#411,.T.);
#243=ORIENTED_EDGE('',*,*,#412,.T.);
#244=ORIENTED_EDGE('',*,*,#413,.T.);
#245=ORIENTED_EDGE('',*,*,#405,.F.);
#246=ORIENTED_EDGE('',*,*,#414,.F.);
#247=ORIENTED_EDGE('',*,*,#401,.F.);
#248=ORIENTED_EDGE('',*,*,#415,.F.);
#249=ORIENTED_EDGE('',*,*,#392,.F.);
#250=ORIENTED_EDGE('',*,*,#416,.T.);
#251=ORIENTED_EDGE('',*,*,#417,.T.);
#252=ORIENTED_EDGE('',*,*,#395,.T.);
#253=ORIENTED_EDGE('',*,*,#418,.T.);
#254=ORIENTED_EDGE('',*,*,#399,.T.);
#255=ORIENTED_EDGE('',*,*,#419,.T.);
#256=ORIENTED_EDGE('',*,*,#420,.T.);
#257=ORIENTED_EDGE('',*,*,#390,.T.);
#258=ORIENTED_EDGE('',*,*,#421,.T.);
#259=ORIENTED_EDGE('',*,*,#394,.F.);
#260=ORIENTED_EDGE('',*,*,#387,.F.);
#261=ORIENTED_EDGE('',*,*,#393,.F.);
#262=ORIENTED_EDGE('',*,*,#418,.F.);
#263=ORIENTED_EDGE('',*,*,#400,.F.);
#264=ORIENTED_EDGE('',*,*,#421,.F.);
#265=ORIENTED_EDGE('',*,*,#389,.F.);
#266=ORIENTED_EDGE('',*,*,#384,.F.);
#267=ORIENTED_EDGE('',*,*,#415,.T.);
#268=ORIENTED_EDGE('',*,*,#422,.T.);
#269=ORIENTED_EDGE('',*,*,#403,.T.);
#270=ORIENTED_EDGE('',*,*,#422,.F.);
#271=ORIENTED_EDGE('',*,*,#402,.F.);
#272=ORIENTED_EDGE('',*,*,#423,.T.);
#273=ORIENTED_EDGE('',*,*,#404,.T.);
#274=ORIENTED_EDGE('',*,*,#424,.F.);
#275=ORIENTED_EDGE('',*,*,#398,.F.);
#276=ORIENTED_EDGE('',*,*,#411,.F.);
#277=ORIENTED_EDGE('',*,*,#425,.F.);
#278=ORIENTED_EDGE('',*,*,#419,.F.);
#279=ORIENTED_EDGE('',*,*,#425,.T.);
#280=ORIENTED_EDGE('',*,*,#410,.F.);
#281=ORIENTED_EDGE('',*,*,#426,.F.);
#282=ORIENTED_EDGE('',*,*,#416,.F.);
#283=ORIENTED_EDGE('',*,*,#391,.F.);
#284=ORIENTED_EDGE('',*,*,#420,.F.);
#285=ORIENTED_EDGE('',*,*,#396,.F.);
#286=ORIENTED_EDGE('',*,*,#417,.F.);
#287=ORIENTED_EDGE('',*,*,#426,.T.);
#288=ORIENTED_EDGE('',*,*,#409,.F.);
#289=ORIENTED_EDGE('',*,*,#427,.T.);
#290=ORIENTED_EDGE('',*,*,#428,.T.);
#291=ORIENTED_EDGE('',*,*,#406,.F.);
#292=ORIENTED_EDGE('',*,*,#413,.F.);
#293=ORIENTED_EDGE('',*,*,#414,.T.);
#294=ORIENTED_EDGE('',*,*,#408,.T.);
#295=ORIENTED_EDGE('',*,*,#429,.F.);
#296=ORIENTED_EDGE('',*,*,#430,.F.);
#297=ORIENTED_EDGE('',*,*,#407,.T.);
#298=ORIENTED_EDGE('',*,*,#428,.F.);
#299=ORIENTED_EDGE('',*,*,#431,.F.);
#300=ORIENTED_EDGE('',*,*,#429,.T.);
#301=ORIENTED_EDGE('',*,*,#430,.T.);
#302=ORIENTED_EDGE('',*,*,#431,.T.);
#303=ORIENTED_EDGE('',*,*,#427,.F.);
#304=ORIENTED_EDGE('',*,*,#412,.F.);
#305=ORIENTED_EDGE('',*,*,#424,.T.);
#306=ORIENTED_EDGE('',*,*,#423,.F.);
#307=EDGE_CURVE('',#432,#433,#518,.T.);
#308=EDGE_CURVE('',#434,#433,#519,.T.);
#309=EDGE_CURVE('',#435,#434,#520,.T.);
#310=EDGE_CURVE('',#432,#435,#521,.T.);
#311=EDGE_CURVE('',#436,#437,#522,.T.);
#312=EDGE_CURVE('',#433,#437,#17,.T.);
#313=EDGE_CURVE('',#436,#432,#18,.F.);
#314=EDGE_CURVE('',#438,#439,#523,.T.);
#315=EDGE_CURVE('',#437,#439,#524,.T.);
#316=EDGE_CURVE('',#438,#436,#525,.T.);
#317=EDGE_CURVE('',#439,#434,#19,.T.);
#318=EDGE_CURVE('',#435,#438,#20,.F.);
#319=EDGE_CURVE('',#440,#441,#526,.T.);
#320=EDGE_CURVE('',#442,#441,#527,.T.);
#321=EDGE_CURVE('',#443,#442,#528,.T.);
#322=EDGE_CURVE('',#440,#443,#529,.T.);
#323=EDGE_CURVE('',#440,#444,#530,.T.);
#324=EDGE_CURVE('',#444,#445,#531,.T.);
#325=EDGE_CURVE('',#445,#441,#532,.T.);
#326=EDGE_CURVE('',#444,#446,#533,.T.);
#327=EDGE_CURVE('',#446,#447,#534,.T.);
#328=EDGE_CURVE('',#447,#445,#535,.T.);
#329=EDGE_CURVE('',#447,#442,#536,.T.);
#330=EDGE_CURVE('',#443,#446,#537,.T.);
#331=EDGE_CURVE('',#448,#449,#538,.T.);
#332=EDGE_CURVE('',#450,#449,#539,.T.);
#333=EDGE_CURVE('',#451,#450,#540,.T.);
#334=EDGE_CURVE('',#448,#451,#541,.T.);
#335=EDGE_CURVE('',#452,#453,#542,.T.);
#336=EDGE_CURVE('',#449,#453,#543,.T.);
#337=EDGE_CURVE('',#452,#448,#544,.T.);
#338=EDGE_CURVE('',#452,#454,#545,.T.);
#339=EDGE_CURVE('',#454,#455,#546,.T.);
#340=EDGE_CURVE('',#455,#453,#547,.T.);
#341=EDGE_CURVE('',#454,#451,#548,.T.);
#342=EDGE_CURVE('',#450,#455,#549,.T.);
#343=EDGE_CURVE('',#456,#457,#550,.T.);
#344=EDGE_CURVE('',#457,#458,#551,.T.);
#345=EDGE_CURVE('',#458,#459,#552,.T.);
#346=EDGE_CURVE('',#456,#459,#553,.T.);
#347=EDGE_CURVE('',#459,#460,#554,.T.);
#348=EDGE_CURVE('',#460,#461,#555,.T.);
#349=EDGE_CURVE('',#461,#456,#556,.T.);
#350=EDGE_CURVE('',#460,#462,#557,.T.);
#351=EDGE_CURVE('',#462,#463,#558,.T.);
#352=EDGE_CURVE('',#463,#461,#559,.T.);
#353=EDGE_CURVE('',#464,#465,#560,.T.);
#354=EDGE_CURVE('',#463,#465,#561,.T.);
#355=EDGE_CURVE('',#464,#462,#562,.T.);
#356=EDGE_CURVE('',#466,#467,#563,.T.);
#357=EDGE_CURVE('',#465,#467,#564,.T.);
#358=EDGE_CURVE('',#466,#464,#565,.T.);
#359=EDGE_CURVE('',#466,#468,#566,.T.);
#360=EDGE_CURVE('',#468,#469,#567,.T.);
#361=EDGE_CURVE('',#469,#467,#568,.T.);
#362=EDGE_CURVE('',#468,#470,#569,.T.);
#363=EDGE_CURVE('',#470,#471,#570,.T.);
#364=EDGE_CURVE('',#471,#469,#571,.T.);
#365=EDGE_CURVE('',#470,#472,#572,.T.);
#366=EDGE_CURVE('',#472,#473,#573,.T.);
#367=EDGE_CURVE('',#473,#471,#574,.T.);
#368=EDGE_CURVE('',#474,#475,#575,.T.);
#369=EDGE_CURVE('',#473,#475,#576,.T.);
#370=EDGE_CURVE('',#474,#472,#577,.T.);
#371=EDGE_CURVE('',#474,#476,#578,.T.);
#372=EDGE_CURVE('',#476,#477,#579,.T.);
#373=EDGE_CURVE('',#477,#475,#580,.T.);
#374=EDGE_CURVE('',#478,#476,#581,.T.);
#375=EDGE_CURVE('',#478,#479,#582,.F.);
#376=EDGE_CURVE('',#479,#477,#583,.T.);
#377=EDGE_CURVE('',#480,#457,#21,.T.);
#378=EDGE_CURVE('',#481,#480,#584,.F.);
#379=EDGE_CURVE('',#458,#481,#22,.F.);
#380=EDGE_CURVE('',#479,#482,#23,.T.);
#381=EDGE_CURVE('',#483,#478,#24,.F.);
#382=EDGE_CURVE('',#482,#483,#585,.F.);
#383=EDGE_CURVE('',#480,#484,#586,.T.);
#384=EDGE_CURVE('',#484,#485,#587,.F.);
#385=EDGE_CURVE('',#485,#481,#588,.T.);
#386=EDGE_CURVE('',#486,#483,#589,.T.);
#387=EDGE_CURVE('',#486,#487,#590,.F.);
#388=EDGE_CURVE('',#482,#487,#591,.T.);
#389=EDGE_CURVE('',#485,#488,#25,.F.);
#390=EDGE_CURVE('',#489,#488,#592,.T.);
#391=EDGE_CURVE('',#489,#490,#26,.F.);
#392=EDGE_CURVE('',#490,#491,#593,.T.);
#393=EDGE_CURVE('',#491,#486,#27,.F.);
#394=EDGE_CURVE('',#487,#492,#28,.T.);
#395=EDGE_CURVE('',#493,#492,#594,.T.);
#396=EDGE_CURVE('',#493,#494,#29,.T.);
#397=EDGE_CURVE('',#494,#495,#30,.T.);
#398=EDGE_CURVE('',#495,#496,#31,.T.);
#399=EDGE_CURVE('',#497,#496,#595,.T.);
#400=EDGE_CURVE('',#497,#484,#32,.T.);
#401=EDGE_CURVE('',#498,#498,#33,.T.);
#402=EDGE_CURVE('',#499,#499,#34,.T.);
#403=EDGE_CURVE('',#500,#500,#35,.T.);
#404=EDGE_CURVE('',#501,#501,#36,.T.);
#405=EDGE_CURVE('',#502,#503,#37,.T.);
#406=EDGE_CURVE('',#503,#504,#596,.T.);
#407=EDGE_CURVE('',#505,#504,#597,.T.);
#408=EDGE_CURVE('',#502,#505,#598,.T.);
#409=EDGE_CURVE('',#494,#506,#599,.T.);
#410=EDGE_CURVE('',#506,#507,#38,.T.);
#411=EDGE_CURVE('',#507,#495,#600,.F.);
#412=EDGE_CURVE('',#508,#509,#39,.F.);
#413=EDGE_CURVE('',#509,#503,#601,.T.);
#414=EDGE_CURVE('',#508,#502,#602,.T.);
#415=EDGE_CURVE('',#510,#510,#40,.T.);
#416=EDGE_CURVE('',#490,#511,#13,.T.);
#417=EDGE_CURVE('',#511,#493,#603,.T.);
#418=EDGE_CURVE('',#492,#491,#604,.T.);
#419=EDGE_CURVE('',#496,#512,#605,.F.);
#420=EDGE_CURVE('',#512,#489,#14,.T.);
#421=EDGE_CURVE('',#488,#497,#606,.F.);
#422=EDGE_CURVE('',#513,#513,#41,.T.);
#423=EDGE_CURVE('',#514,#514,#42,.T.);
#424=EDGE_CURVE('',#515,#515,#43,.T.);
#425=EDGE_CURVE('',#512,#507,#15,.T.);
#426=EDGE_CURVE('',#511,#506,#16,.T.);
#427=EDGE_CURVE('',#509,#516,#607,.T.);
#428=EDGE_CURVE('',#516,#504,#608,.T.);
#429=EDGE_CURVE('',#517,#505,#609,.T.);
#430=EDGE_CURVE('',#508,#517,#610,.T.);
#431=EDGE_CURVE('',#517,#516,#611,.T.);
#432=VERTEX_POINT('',#1260);
#433=VERTEX_POINT('',#1261);
#434=VERTEX_POINT('',#1263);
#435=VERTEX_POINT('',#1265);
#436=VERTEX_POINT('',#1269);
#437=VERTEX_POINT('',#1270);
#438=VERTEX_POINT('',#1275);
#439=VERTEX_POINT('',#1276);
#440=VERTEX_POINT('',#1284);
#441=VERTEX_POINT('',#1285);
#442=VERTEX_POINT('',#1287);
#443=VERTEX_POINT('',#1289);
#444=VERTEX_POINT('',#1293);
#445=VERTEX_POINT('',#1295);
#446=VERTEX_POINT('',#1299);
#447=VERTEX_POINT('',#1301);
#448=VERTEX_POINT('',#1308);
#449=VERTEX_POINT('',#1309);
#450=VERTEX_POINT('',#1311);
#451=VERTEX_POINT('',#1313);
#452=VERTEX_POINT('',#1317);
#453=VERTEX_POINT('',#1318);
#454=VERTEX_POINT('',#1323);
#455=VERTEX_POINT('',#1325);
#456=VERTEX_POINT('',#1332);
#457=VERTEX_POINT('',#1333);
#458=VERTEX_POINT('',#1335);
#459=VERTEX_POINT('',#1337);
#460=VERTEX_POINT('',#1341);
#461=VERTEX_POINT('',#1343);
#462=VERTEX_POINT('',#1347);
#463=VERTEX_POINT('',#1349);
#464=VERTEX_POINT('',#1353);
#465=VERTEX_POINT('',#1354);
#466=VERTEX_POINT('',#1359);
#467=VERTEX_POINT('',#1360);
#468=VERTEX_POINT('',#1365);
#469=VERTEX_POINT('',#1367);
#470=VERTEX_POINT('',#1371);
#471=VERTEX_POINT('',#1373);
#472=VERTEX_POINT('',#1377);
#473=VERTEX_POINT('',#1379);
#474=VERTEX_POINT('',#1383);
#475=VERTEX_POINT('',#1384);
#476=VERTEX_POINT('',#1389);
#477=VERTEX_POINT('',#1391);
#478=VERTEX_POINT('',#1395);
#479=VERTEX_POINT('',#1397);
#480=VERTEX_POINT('',#1401);
#481=VERTEX_POINT('',#1403);
#482=VERTEX_POINT('',#1407);
#483=VERTEX_POINT('',#1409);
#484=VERTEX_POINT('',#1413);
#485=VERTEX_POINT('',#1415);
#486=VERTEX_POINT('',#1419);
#487=VERTEX_POINT('',#1421);
#488=VERTEX_POINT('',#1425);
#489=VERTEX_POINT('',#1427);
#490=VERTEX_POINT('',#1429);
#491=VERTEX_POINT('',#1431);
#492=VERTEX_POINT('',#1435);
#493=VERTEX_POINT('',#1437);
#494=VERTEX_POINT('',#1439);
#495=VERTEX_POINT('',#1441);
#496=VERTEX_POINT('',#1443);
#497=VERTEX_POINT('',#1445);
#498=VERTEX_POINT('',#1448);
#499=VERTEX_POINT('',#1451);
#500=VERTEX_POINT('',#1453);
#501=VERTEX_POINT('',#1455);
#502=VERTEX_POINT('',#1457);
#503=VERTEX_POINT('',#1458);
#504=VERTEX_POINT('',#1460);
#505=VERTEX_POINT('',#1462);
#506=VERTEX_POINT('',#1466);
#507=VERTEX_POINT('',#1468);
#508=VERTEX_POINT('',#1471);
#509=VERTEX_POINT('',#1472);
#510=VERTEX_POINT('',#1477);
#511=VERTEX_POINT('',#1484);
#512=VERTEX_POINT('',#1489);
#513=VERTEX_POINT('',#1500);
#514=VERTEX_POINT('',#1504);
#515=VERTEX_POINT('',#1507);
#516=VERTEX_POINT('',#1521);
#517=VERTEX_POINT('',#1525);
#518=LINE('',#1259,#612);
#519=LINE('',#1262,#613);
#520=LINE('',#1264,#614);
#521=LINE('',#1266,#615);
#522=LINE('',#1268,#616);
#523=LINE('',#1274,#617);
#524=LINE('',#1277,#618);
#525=LINE('',#1278,#619);
#526=LINE('',#1283,#620);
#527=LINE('',#1286,#621);
#528=LINE('',#1288,#622);
#529=LINE('',#1290,#623);
#530=LINE('',#1292,#624);
#531=LINE('',#1294,#625);
#532=LINE('',#1296,#626);
#533=LINE('',#1298,#627);
#534=LINE('',#1300,#628);
#535=LINE('',#1302,#629);
#536=LINE('',#1304,#630);
#537=LINE('',#1305,#631);
#538=LINE('',#1307,#632);
#539=LINE('',#1310,#633);
#540=LINE('',#1312,#634);
#541=LINE('',#1314,#635);
#542=LINE('',#1316,#636);
#543=LINE('',#1319,#637);
#544=LINE('',#1320,#638);
#545=LINE('',#1322,#639);
#546=LINE('',#1324,#640);
#547=LINE('',#1326,#641);
#548=LINE('',#1328,#642);
#549=LINE('',#1329,#643);
#550=LINE('',#1331,#644);
#551=LINE('',#1334,#645);
#552=LINE('',#1336,#646);
#553=LINE('',#1338,#647);
#554=LINE('',#1340,#648);
#555=LINE('',#1342,#649);
#556=LINE('',#1344,#650);
#557=LINE('',#1346,#651);
#558=LINE('',#1348,#652);
#559=LINE('',#1350,#653);
#560=LINE('',#1352,#654);
#561=LINE('',#1355,#655);
#562=LINE('',#1356,#656);
#563=LINE('',#1358,#657);
#564=LINE('',#1361,#658);
#565=LINE('',#1362,#659);
#566=LINE('',#1364,#660);
#567=LINE('',#1366,#661);
#568=LINE('',#1368,#662);
#569=LINE('',#1370,#663);
#570=LINE('',#1372,#664);
#571=LINE('',#1374,#665);
#572=LINE('',#1376,#666);
#573=LINE('',#1378,#667);
#574=LINE('',#1380,#668);
#575=LINE('',#1382,#669);
#576=LINE('',#1385,#670);
#577=LINE('',#1386,#671);
#578=LINE('',#1388,#672);
#579=LINE('',#1390,#673);
#580=LINE('',#1392,#674);
#581=LINE('',#1394,#675);
#582=LINE('',#1396,#676);
#583=LINE('',#1398,#677);
#584=LINE('',#1402,#678);
#585=LINE('',#1410,#679);
#586=LINE('',#1412,#680);
#587=LINE('',#1414,#681);
#588=LINE('',#1416,#682);
#589=LINE('',#1418,#683);
#590=LINE('',#1420,#684);
#591=LINE('',#1422,#685);
#592=LINE('',#1426,#686);
#593=LINE('',#1430,#687);
#594=LINE('',#1436,#688);
#595=LINE('',#1444,#689);
#596=LINE('',#1459,#690);
#597=LINE('',#1461,#691);
#598=LINE('',#1463,#692);
#599=LINE('',#1465,#693);
#600=LINE('',#1469,#694);
#601=LINE('',#1473,#695);
#602=LINE('',#1474,#696);
#603=LINE('',#1485,#697);
#604=LINE('',#1486,#698);
#605=LINE('',#1488,#699);
#606=LINE('',#1495,#700);
#607=LINE('',#1520,#701);
#608=LINE('',#1522,#702);
#609=LINE('',#1524,#703);
#610=LINE('',#1526,#704);
#611=LINE('',#1528,#705);
#612=VECTOR('',#1013,1.);
#613=VECTOR('',#1014,1.);
#614=VECTOR('',#1015,1.);
#615=VECTOR('',#1016,1.);
#616=VECTOR('',#1019,1.);
#617=VECTOR('',#1026,1.);
#618=VECTOR('',#1027,1.);
#619=VECTOR('',#1028,1.);
#620=VECTOR('',#1037,1.);
#621=VECTOR('',#1038,1.);
#622=VECTOR('',#1039,1.);
#623=VECTOR('',#1040,1.);
#624=VECTOR('',#1043,1.);
#625=VECTOR('',#1044,1.);
#626=VECTOR('',#1045,1.);
#627=VECTOR('',#1048,1.);
#628=VECTOR('',#1049,1.);
#629=VECTOR('',#1050,1.);
#630=VECTOR('',#1053,1.);
#631=VECTOR('',#1054,1.);
#632=VECTOR('',#1057,1.);
#633=VECTOR('',#1058,1.);
#634=VECTOR('',#1059,1.);
#635=VECTOR('',#1060,1.);
#636=VECTOR('',#1063,1.);
#637=VECTOR('',#1064,1.);
#638=VECTOR('',#1065,1.);
#639=VECTOR('',#1068,1.);
#640=VECTOR('',#1069,1.);
#641=VECTOR('',#1070,1.);
#642=VECTOR('',#1073,1.);
#643=VECTOR('',#1074,1.);
#644=VECTOR('',#1077,1.);
#645=VECTOR('',#1078,1.);
#646=VECTOR('',#1079,1.);
#647=VECTOR('',#1080,1.);
#648=VECTOR('',#1083,1.);
#649=VECTOR('',#1084,1.);
#650=VECTOR('',#1085,1.);
#651=VECTOR('',#1088,1.);
#652=VECTOR('',#1089,1.);
#653=VECTOR('',#1090,1.);
#654=VECTOR('',#1093,1.);
#655=VECTOR('',#1094,1.);
#656=VECTOR('',#1095,1.);
#657=VECTOR('',#1098,1.);
#658=VECTOR('',#1099,1.);
#659=VECTOR('',#1100,1.);
#660=VECTOR('',#1103,1.);
#661=VECTOR('',#1104,1.);
#662=VECTOR('',#1105,1.);
#663=VECTOR('',#1108,1.);
#664=VECTOR('',#1109,1.);
#665=VECTOR('',#1110,1.);
#666=VECTOR('',#1113,1.);
#667=VECTOR('',#1114,1.);
#668=VECTOR('',#1115,1.);
#669=VECTOR('',#1118,1.);
#670=VECTOR('',#1119,1.);
#671=VECTOR('',#1120,1.);
#672=VECTOR('',#1123,1.);
#673=VECTOR('',#1124,1.);
#674=VECTOR('',#1125,1.);
#675=VECTOR('',#1128,1.);
#676=VECTOR('',#1129,1.);
#677=VECTOR('',#1130,1.);
#678=VECTOR('',#1135,1.);
#679=VECTOR('',#1144,1.);
#680=VECTOR('',#1147,1.);
#681=VECTOR('',#1148,1.);
#682=VECTOR('',#1149,1.);
#683=VECTOR('',#1152,1.);
#684=VECTOR('',#1153,1.);
#685=VECTOR('',#1154,1.);
#686=VECTOR('',#1159,1.);
#687=VECTOR('',#1162,1.);
#688=VECTOR('',#1169,1.);
#689=VECTOR('',#1176,1.);
#690=VECTOR('',#1191,1.);
#691=VECTOR('',#1192,1.);
#692=VECTOR('',#1193,1.);
#693=VECTOR('',#1196,1.);
#694=VECTOR('',#1199,1.);
#695=VECTOR('',#1202,1.);
#696=VECTOR('',#1203,1.);
#697=VECTOR('',#1210,1.);
#698=VECTOR('',#1211,1.);
#699=VECTOR('',#1214,1.);
#700=VECTOR('',#1215,1.);
#701=VECTOR('',#1242,1.);
#702=VECTOR('',#1243,1.);
#703=VECTOR('',#1246,1.);
#704=VECTOR('',#1247,1.);
#705=VECTOR('',#1250,1.);
#706=EDGE_LOOP('',(#57,#58,#59,#60));
#707=EDGE_LOOP('',(#61,#62,#63,#64));
#708=EDGE_LOOP('',(#65,#66,#67,#68));
#709=EDGE_LOOP('',(#69,#70,#71,#72));
#710=EDGE_LOOP('',(#73,#74,#75,#76));
#711=EDGE_LOOP('',(#77,#78,#79,#80));
#712=EDGE_LOOP('',(#81,#82,#83,#84));
#713=EDGE_LOOP('',(#85,#86,#87,#88));
#714=EDGE_LOOP('',(#89,#90,#91,#92));
#715=EDGE_LOOP('',(#93,#94,#95,#96));
#716=EDGE_LOOP('',(#97,#98,#99,#100));
#717=EDGE_LOOP('',(#101,#102,#103,#104));
#718=EDGE_LOOP('',(#105,#106,#107,#108));
#719=EDGE_LOOP('',(#109,#110,#111,#112));
#720=EDGE_LOOP('',(#113,#114,#115,#116));
#721=EDGE_LOOP('',(#117,#118,#119,#120));
#722=EDGE_LOOP('',(#121,#122,#123,#124));
#723=EDGE_LOOP('',(#125,#126,#127,#128));
#724=EDGE_LOOP('',(#129,#130,#131,#132));
#725=EDGE_LOOP('',(#133,#134,#135,#136));
#726=EDGE_LOOP('',(#137,#138,#139,#140));
#727=EDGE_LOOP('',(#141,#142,#143,#144));
#728=EDGE_LOOP('',(#145,#146,#147,#148));
#729=EDGE_LOOP('',(#149,#150,#151,#152));
#730=EDGE_LOOP('',(#153,#154,#155,#156));
#731=EDGE_LOOP('',(#157,#158,#159,#160));
#732=EDGE_LOOP('',(#161,#162,#163,#164));
#733=EDGE_LOOP('',(#165,#166,#167,#168,#169,#170,#171,#172,#173,#174,#175,
#176,#177,#178,#179,#180,#181,#182,#183,#184));
#734=EDGE_LOOP('',(#185,#186,#187,#188));
#735=EDGE_LOOP('',(#189,#190,#191,#192));
#736=EDGE_LOOP('',(#193,#194,#195,#196));
#737=EDGE_LOOP('',(#197,#198,#199,#200));
#738=EDGE_LOOP('',(#201,#202,#203,#204));
#739=EDGE_LOOP('',(#205,#206,#207,#208));
#740=EDGE_LOOP('',(#209,#210,#211,#212,#213,#214,#215,#216,#217,#218,#219,
#220,#221,#222,#223,#224,#225,#226,#227,#228,#229,#230));
#741=EDGE_LOOP('',(#231));
#742=EDGE_LOOP('',(#232));
#743=EDGE_LOOP('',(#233));
#744=EDGE_LOOP('',(#234));
#745=EDGE_LOOP('',(#235,#236,#237,#238));
#746=EDGE_LOOP('',(#239,#240,#241,#242));
#747=EDGE_LOOP('',(#243,#244,#245,#246));
#748=EDGE_LOOP('',(#247));
#749=EDGE_LOOP('',(#248));
#750=EDGE_LOOP('',(#249,#250,#251,#252,#253));
#751=EDGE_LOOP('',(#254,#255,#256,#257,#258));
#752=EDGE_LOOP('',(#259,#260,#261,#262));
#753=EDGE_LOOP('',(#263,#264,#265,#266));
#754=EDGE_LOOP('',(#267));
#755=EDGE_LOOP('',(#268));
#756=EDGE_LOOP('',(#269));
#757=EDGE_LOOP('',(#270));
#758=EDGE_LOOP('',(#271));
#759=EDGE_LOOP('',(#272));
#760=EDGE_LOOP('',(#273));
#761=EDGE_LOOP('',(#274));
#762=EDGE_LOOP('',(#275,#276,#277,#278));
#763=EDGE_LOOP('',(#279,#280,#281,#282,#283,#284));
#764=EDGE_LOOP('',(#285,#286,#287,#288));
#765=EDGE_LOOP('',(#289,#290,#291,#292));
#766=EDGE_LOOP('',(#293,#294,#295,#296));
#767=EDGE_LOOP('',(#297,#298,#299,#300));
#768=EDGE_LOOP('',(#301,#302,#303,#304));
#769=EDGE_LOOP('',(#305));
#770=EDGE_LOOP('',(#306));
#771=FACE_BOUND('',#706,.T.);
#772=FACE_BOUND('',#707,.T.);
#773=FACE_BOUND('',#708,.T.);
#774=FACE_BOUND('',#709,.T.);
#775=FACE_BOUND('',#710,.T.);
#776=FACE_BOUND('',#711,.T.);
#777=FACE_BOUND('',#712,.T.);
#778=FACE_BOUND('',#713,.T.);
#779=FACE_BOUND('',#714,.T.);
#780=FACE_BOUND('',#715,.T.);
#781=FACE_BOUND('',#716,.T.);
#782=FACE_BOUND('',#717,.T.);
#783=FACE_BOUND('',#718,.T.);
#784=FACE_BOUND('',#719,.T.);
#785=FACE_BOUND('',#720,.T.);
#786=FACE_BOUND('',#721,.T.);
#787=FACE_BOUND('',#722,.T.);
#788=FACE_BOUND('',#723,.T.);
#789=FACE_BOUND('',#724,.T.);
#790=FACE_BOUND('',#725,.T.);
#791=FACE_BOUND('',#726,.T.);
#792=FACE_BOUND('',#727,.T.);
#793=FACE_BOUND('',#728,.T.);
#794=FACE_BOUND('',#729,.T.);
#795=FACE_BOUND('',#730,.T.);
#796=FACE_BOUND('',#731,.T.);
#797=FACE_BOUND('',#732,.T.);
#798=FACE_BOUND('',#733,.T.);
#799=FACE_BOUND('',#734,.T.);
#800=FACE_BOUND('',#735,.T.);
#801=FACE_BOUND('',#736,.T.);
#802=FACE_BOUND('',#737,.T.);
#803=FACE_BOUND('',#738,.T.);
#804=FACE_BOUND('',#739,.T.);
#805=FACE_BOUND('',#740,.T.);
#806=FACE_BOUND('',#741,.T.);
#807=FACE_BOUND('',#742,.T.);
#808=FACE_BOUND('',#743,.T.);
#809=FACE_BOUND('',#744,.T.);
#810=FACE_BOUND('',#745,.T.);
#811=FACE_BOUND('',#746,.T.);
#812=FACE_BOUND('',#747,.T.);
#813=FACE_BOUND('',#748,.T.);
#814=FACE_BOUND('',#749,.T.);
#815=FACE_BOUND('',#750,.T.);
#816=FACE_BOUND('',#751,.T.);
#817=FACE_BOUND('',#752,.T.);
#818=FACE_BOUND('',#753,.T.);
#819=FACE_BOUND('',#754,.T.);
#820=FACE_BOUND('',#755,.T.);
#821=FACE_BOUND('',#756,.T.);
#822=FACE_BOUND('',#757,.T.);
#823=FACE_BOUND('',#758,.T.);
#824=FACE_BOUND('',#759,.T.);
#825=FACE_BOUND('',#760,.T.);
#826=FACE_BOUND('',#761,.T.);
#827=FACE_BOUND('',#762,.T.);
#828=FACE_BOUND('',#763,.T.);
#829=FACE_BOUND('',#764,.T.);
#830=FACE_BOUND('',#765,.T.);
#831=FACE_BOUND('',#766,.T.);
#832=FACE_BOUND('',#767,.T.);
#833=FACE_BOUND('',#768,.T.);
#834=FACE_BOUND('',#769,.T.);
#835=FACE_BOUND('',#770,.T.);
#836=PLANE('',#933);
#837=PLANE('',#937);
#838=PLANE('',#941);
#839=PLANE('',#942);
#840=PLANE('',#943);
#841=PLANE('',#944);
#842=PLANE('',#945);
#843=PLANE('',#946);
#844=PLANE('',#947);
#845=PLANE('',#948);
#846=PLANE('',#949);
#847=PLANE('',#950);
#848=PLANE('',#951);
#849=PLANE('',#952);
#850=PLANE('',#953);
#851=PLANE('',#954);
#852=PLANE('',#955);
#853=PLANE('',#956);
#854=PLANE('',#957);
#855=PLANE('',#958);
#856=PLANE('',#959);
#857=PLANE('',#966);
#858=PLANE('',#967);
#859=PLANE('',#968);
#860=PLANE('',#972);
#861=PLANE('',#979);
#862=PLANE('',#989);
#863=PLANE('',#990);
#864=PLANE('',#993);
#865=PLANE('',#1003);
#866=PLANE('',#1004);
#867=PLANE('',#1005);
#868=PLANE('',#1006);
#869=PLANE('',#1007);
#870=PLANE('',#1008);
#871=ADVANCED_FACE('',(#771),#836,.T.);
#872=ADVANCED_FACE('',(#772),#44,.F.);
#873=ADVANCED_FACE('',(#773),#837,.T.);
#874=ADVANCED_FACE('',(#774),#45,.F.);
#875=ADVANCED_FACE('',(#775),#838,.T.);
#876=ADVANCED_FACE('',(#776),#839,.F.);
#877=ADVANCED_FACE('',(#777),#840,.F.);
#878=ADVANCED_FACE('',(#778),#841,.T.);
#879=ADVANCED_FACE('',(#779),#842,.T.);
#880=ADVANCED_FACE('',(#780),#843,.T.);
#881=ADVANCED_FACE('',(#781),#844,.F.);
#882=ADVANCED_FACE('',(#782),#845,.F.);
#883=ADVANCED_FACE('',(#783),#846,.T.);
#884=ADVANCED_FACE('',(#784),#847,.T.);
#885=ADVANCED_FACE('',(#785),#848,.F.);
#886=ADVANCED_FACE('',(#786),#849,.T.);
#887=ADVANCED_FACE('',(#787),#850,.T.);
#888=ADVANCED_FACE('',(#788),#851,.T.);
#889=ADVANCED_FACE('',(#789),#852,.F.);
#890=ADVANCED_FACE('',(#790),#853,.F.);
#891=ADVANCED_FACE('',(#791),#854,.T.);
#892=ADVANCED_FACE('',(#792),#855,.T.);
#893=ADVANCED_FACE('',(#793),#856,.T.);
#894=ADVANCED_FACE('',(#794),#46,.F.);
#895=ADVANCED_FACE('',(#795),#47,.F.);
#896=ADVANCED_FACE('',(#796),#857,.F.);
#897=ADVANCED_FACE('',(#797),#858,.T.);
#898=ADVANCED_FACE('',(#798,#799,#800,#801),#859,.T.);
#899=ADVANCED_FACE('',(#802,#803,#804,#805,#806),#860,.F.);
#900=ADVANCED_FACE('',(#807,#808,#809,#810),#861,.T.);
#901=ADVANCED_FACE('',(#811,#812),#48,.T.);
#902=ADVANCED_FACE('',(#813,#814),#49,.F.);
#903=ADVANCED_FACE('',(#815),#862,.T.);
#904=ADVANCED_FACE('',(#816),#863,.T.);
#905=ADVANCED_FACE('',(#817),#50,.F.);
#906=ADVANCED_FACE('',(#818),#51,.F.);
#907=ADVANCED_FACE('',(#819,#820),#864,.T.);
#908=ADVANCED_FACE('',(#821,#822),#52,.F.);
#909=ADVANCED_FACE('',(#823,#824),#53,.F.);
#910=ADVANCED_FACE('',(#825,#826),#54,.F.);
#911=ADVANCED_FACE('',(#827),#55,.F.);
#912=ADVANCED_FACE('',(#828),#12,.F.);
#913=ADVANCED_FACE('',(#829),#56,.F.);
#914=ADVANCED_FACE('',(#830),#865,.T.);
#915=ADVANCED_FACE('',(#831),#866,.F.);
#916=ADVANCED_FACE('',(#832),#867,.F.);
#917=ADVANCED_FACE('',(#833),#868,.T.);
#918=ADVANCED_FACE('',(#834),#869,.T.);
#919=ADVANCED_FACE('',(#835),#870,.T.);
#920=CLOSED_SHELL('',(#871,#872,#873,#874,#875,#876,#877,#878,#879,#880,
#881,#882,#883,#884,#885,#886,#887,#888,#889,#890,#891,#892,#893,#894,#895,
#896,#897,#898,#899,#900,#901,#902,#903,#904,#905,#906,#907,#908,#909,#910,
#911,#912,#913,#914,#915,#916,#917,#918,#919));
#921=STYLED_ITEM('',(#922),#929);
#922=PRESENTATION_STYLE_ASSIGNMENT((#923));
#923=SURFACE_STYLE_USAGE(.BOTH.,#924);
#924=SURFACE_SIDE_STYLE('',(#925));
#925=SURFACE_STYLE_FILL_AREA(#926);
#926=FILL_AREA_STYLE('',(#927));
#927=FILL_AREA_STYLE_COLOUR('',#928);
#928=COLOUR_RGB('',0.898039215686275,0.12156862745098,0.12156862745098);
#929=MANIFOLD_SOLID_BREP('tilt arm',#920);
#930=SHAPE_DEFINITION_REPRESENTATION(#1538,#931);
#931=SHAPE_REPRESENTATION('tilt arm',(#932),#1533);
#932=AXIS2_PLACEMENT_3D('',#1257,#1009,#1010);
#933=AXIS2_PLACEMENT_3D('',#1258,#1011,#1012);
#934=AXIS2_PLACEMENT_3D('',#1267,#1017,#1018);
#935=AXIS2_PLACEMENT_3D('',#1271,#1020,#1021);
#936=AXIS2_PLACEMENT_3D('',#1272,#1022,#1023);
#937=AXIS2_PLACEMENT_3D('',#1273,#1024,#1025);
#938=AXIS2_PLACEMENT_3D('',#1279,#1029,#1030);
#939=AXIS2_PLACEMENT_3D('',#1280,#1031,#1032);
#940=AXIS2_PLACEMENT_3D('',#1281,#1033,#1034);
#941=AXIS2_PLACEMENT_3D('',#1282,#1035,#1036);
#942=AXIS2_PLACEMENT_3D('',#1291,#1041,#1042);
#943=AXIS2_PLACEMENT_3D('',#1297,#1046,#1047);
#944=AXIS2_PLACEMENT_3D('',#1303,#1051,#1052);
#945=AXIS2_PLACEMENT_3D('',#1306,#1055,#1056);
#946=AXIS2_PLACEMENT_3D('',#1315,#1061,#1062);
#947=AXIS2_PLACEMENT_3D('',#1321,#1066,#1067);
#948=AXIS2_PLACEMENT_3D('',#1327,#1071,#1072);
#949=AXIS2_PLACEMENT_3D('',#1330,#1075,#1076);
#950=AXIS2_PLACEMENT_3D('',#1339,#1081,#1082);
#951=AXIS2_PLACEMENT_3D('',#1345,#1086,#1087);
#952=AXIS2_PLACEMENT_3D('',#1351,#1091,#1092);
#953=AXIS2_PLACEMENT_3D('',#1357,#1096,#1097);
#954=AXIS2_PLACEMENT_3D('',#1363,#1101,#1102);
#955=AXIS2_PLACEMENT_3D('',#1369,#1106,#1107);
#956=AXIS2_PLACEMENT_3D('',#1375,#1111,#1112);
#957=AXIS2_PLACEMENT_3D('',#1381,#1116,#1117);
#958=AXIS2_PLACEMENT_3D('',#1387,#1121,#1122);
#959=AXIS2_PLACEMENT_3D('',#1393,#1126,#1127);
#960=AXIS2_PLACEMENT_3D('',#1399,#1131,#1132);
#961=AXIS2_PLACEMENT_3D('',#1400,#1133,#1134);
#962=AXIS2_PLACEMENT_3D('',#1404,#1136,#1137);
#963=AXIS2_PLACEMENT_3D('',#1405,#1138,#1139);
#964=AXIS2_PLACEMENT_3D('',#1406,#1140,#1141);
#965=AXIS2_PLACEMENT_3D('',#1408,#1142,#1143);
#966=AXIS2_PLACEMENT_3D('',#1411,#1145,#1146);
#967=AXIS2_PLACEMENT_3D('',#1417,#1150,#1151);
#968=AXIS2_PLACEMENT_3D('',#1423,#1155,#1156);
#969=AXIS2_PLACEMENT_3D('',#1424,#1157,#1158);
#970=AXIS2_PLACEMENT_3D('',#1428,#1160,#1161);
#971=AXIS2_PLACEMENT_3D('',#1432,#1163,#1164);
#972=AXIS2_PLACEMENT_3D('',#1433,#1165,#1166);
#973=AXIS2_PLACEMENT_3D('',#1434,#1167,#1168);
#974=AXIS2_PLACEMENT_3D('',#1438,#1170,#1171);
#975=AXIS2_PLACEMENT_3D('',#1440,#1172,#1173);
#976=AXIS2_PLACEMENT_3D('',#1442,#1174,#1175);
#977=AXIS2_PLACEMENT_3D('',#1446,#1177,#1178);
#978=AXIS2_PLACEMENT_3D('',#1447,#1179,#1180);
#979=AXIS2_PLACEMENT_3D('',#1449,#1181,#1182);
#980=AXIS2_PLACEMENT_3D('',#1450,#1183,#1184);
#981=AXIS2_PLACEMENT_3D('',#1452,#1185,#1186);
#982=AXIS2_PLACEMENT_3D('',#1454,#1187,#1188);
#983=AXIS2_PLACEMENT_3D('',#1456,#1189,#1190);
#984=AXIS2_PLACEMENT_3D('',#1464,#1194,#1195);
#985=AXIS2_PLACEMENT_3D('',#1467,#1197,#1198);
#986=AXIS2_PLACEMENT_3D('',#1470,#1200,#1201);
#987=AXIS2_PLACEMENT_3D('',#1475,#1204,#1205);
#988=AXIS2_PLACEMENT_3D('',#1476,#1206,#1207);
#989=AXIS2_PLACEMENT_3D('',#1478,#1208,#1209);
#990=AXIS2_PLACEMENT_3D('',#1487,#1212,#1213);
#991=AXIS2_PLACEMENT_3D('',#1496,#1216,#1217);
#992=AXIS2_PLACEMENT_3D('',#1497,#1218,#1219);
#993=AXIS2_PLACEMENT_3D('',#1498,#1220,#1221);
#994=AXIS2_PLACEMENT_3D('',#1499,#1222,#1223);
#995=AXIS2_PLACEMENT_3D('',#1501,#1224,#1225);
#996=AXIS2_PLACEMENT_3D('',#1502,#1226,#1227);
#997=AXIS2_PLACEMENT_3D('',#1503,#1228,#1229);
#998=AXIS2_PLACEMENT_3D('',#1505,#1230,#1231);
#999=AXIS2_PLACEMENT_3D('',#1506,#1232,#1233);
#1000=AXIS2_PLACEMENT_3D('',#1508,#1234,#1235);
#1001=AXIS2_PLACEMENT_3D('',#1513,#1236,#1237);
#1002=AXIS2_PLACEMENT_3D('',#1518,#1238,#1239);
#1003=AXIS2_PLACEMENT_3D('',#1519,#1240,#1241);
#1004=AXIS2_PLACEMENT_3D('',#1523,#1244,#1245);
#1005=AXIS2_PLACEMENT_3D('',#1527,#1248,#1249);
#1006=AXIS2_PLACEMENT_3D('',#1529,#1251,#1252);
#1007=AXIS2_PLACEMENT_3D('',#1530,#1253,#1254);
#1008=AXIS2_PLACEMENT_3D('',#1531,#1255,#1256);
#1009=DIRECTION('',(0.,0.,1.));
#1010=DIRECTION('',(1.,0.,0.));
#1011=DIRECTION('',(-1.,-2.08531747675649E-15,-4.34441140990934E-16));
#1012=DIRECTION('',(-2.08531747675649E-15,1.,0.));
#1013=DIRECTION('',(-2.0853174767565E-15,1.,4.0403026112157E-15));
#1014=DIRECTION('',(-4.34441140990934E-16,0.,1.));
#1015=DIRECTION('',(-2.0853174767565E-15,1.,4.0403026112157E-15));
#1016=DIRECTION('',(4.34441140990934E-16,0.,-1.));
#1017=DIRECTION('',(-2.0853174767565E-15,1.,4.0403026112157E-15));
#1018=DIRECTION('',(0.,4.0403026112157E-15,-1.));
#1019=DIRECTION('',(-2.0853174767565E-15,1.,4.0403026112157E-15));
#1020=DIRECTION('',(0.,-1.,0.));
#1021=DIRECTION('',(0.,0.,-1.));
#1022=DIRECTION('',(0.,-1.,0.));
#1023=DIRECTION('',(0.,0.,1.));
#1024=DIRECTION('',(1.,2.0853174767565E-15,0.));
#1025=DIRECTION('',(2.0853174767565E-15,-1.,0.));
#1026=DIRECTION('',(-2.0853174767565E-15,1.,4.0403026112157E-15));
#1027=DIRECTION('',(0.,0.,-1.));
#1028=DIRECTION('',(0.,0.,1.));
#1029=DIRECTION('',(-2.0853174767565E-15,1.,4.0403026112157E-15));
#1030=DIRECTION('',(0.,4.0403026112157E-15,-1.));
#1031=DIRECTION('',(0.,-1.,0.));
#1032=DIRECTION('',(0.,0.,-1.));
#1033=DIRECTION('',(0.,-1.,0.));
#1034=DIRECTION('',(0.,0.,1.));
#1035=DIRECTION('',(-4.2126568232765E-30,4.0403026112157E-15,-1.));
#1036=DIRECTION('',(0.,-1.,-4.0403026112157E-15));
#1037=DIRECTION('',(-2.0853174767565E-15,1.,4.0403026112157E-15));
#1038=DIRECTION('',(-1.,-2.0853174767565E-15,-4.2126568232765E-30));
#1039=DIRECTION('',(-2.0853174767565E-15,1.,4.0403026112157E-15));
#1040=DIRECTION('',(1.,0.,-4.2126568232765E-30));
#1041=DIRECTION('',(-1.,-2.08531747675649E-15,-5.78241158658941E-16));
#1042=DIRECTION('',(-2.08531747675649E-15,1.,0.));
#1043=DIRECTION('',(5.78241158658941E-16,0.,-1.));
#1044=DIRECTION('',(-2.0853174767565E-15,1.,4.0403026112157E-15));
#1045=DIRECTION('',(-5.78241158658932E-16,-4.0403026112157E-15,1.));
#1046=DIRECTION('',(-4.2126568232765E-30,4.0403026112157E-15,-1.));
#1047=DIRECTION('',(0.,-1.,-4.0403026112157E-15));
#1048=DIRECTION('',(1.,0.,-4.2126568232765E-30));
#1049=DIRECTION('',(-2.0853174767565E-15,1.,4.0403026112157E-15));
#1050=DIRECTION('',(-1.,-2.0853174767565E-15,-4.2126568232765E-30));
#1051=DIRECTION('',(-1.,-2.0853174767565E-15,5.78241158658932E-16));
#1052=DIRECTION('',(-2.0853174767565E-15,1.,0.));
#1053=DIRECTION('',(5.78241158658941E-16,-4.0403026112157E-15,1.));
#1054=DIRECTION('',(-5.78241158658932E-16,0.,-1.));
#1055=DIRECTION('',(4.2126568232765E-30,-4.0403026112157E-15,1.));
#1056=DIRECTION('',(0.,1.,4.0403026112157E-15));
#1057=DIRECTION('',(-2.0853174767565E-15,1.,4.0403026112157E-15));
#1058=DIRECTION('',(1.,2.0853174767565E-15,4.2126568232765E-30));
#1059=DIRECTION('',(-2.0853174767565E-15,1.,4.0403026112157E-15));
#1060=DIRECTION('',(-1.,0.,4.2126568232765E-30));
#1061=DIRECTION('',(-1.,-2.0853174767565E-15,1.15648231731787E-15));
#1062=DIRECTION('',(-2.0853174767565E-15,1.,0.));
#1063=DIRECTION('',(-2.0853174767565E-15,1.,4.0403026112157E-15));
#1064=DIRECTION('',(1.15648231731788E-15,-4.0403026112157E-15,1.));
#1065=DIRECTION('',(-1.15648231731787E-15,0.,-1.));
#1066=DIRECTION('',(1.38777878078145E-15,-4.0403026112157E-15,1.));
#1067=DIRECTION('',(0.,1.,4.0403026112157E-15));
#1068=DIRECTION('',(-1.,0.,1.38777878078145E-15));
#1069=DIRECTION('',(-2.0853174767565E-15,1.,4.0403026112157E-15));
#1070=DIRECTION('',(1.,2.0853174767565E-15,-1.38777878078144E-15));
#1071=DIRECTION('',(-1.,-2.0853174767565E-15,-4.2126568232765E-30));
#1072=DIRECTION('',(-2.0853174767565E-15,1.,0.));
#1073=DIRECTION('',(4.2126568232765E-30,0.,-1.));
#1074=DIRECTION('',(4.2126568232765E-30,-4.0403026112157E-15,1.));
#1075=DIRECTION('',(1.,0.,0.));
#1076=DIRECTION('',(0.,0.,1.));
#1077=DIRECTION('',(0.,0.,1.));
#1078=DIRECTION('',(0.,-1.,-4.0403026112157E-15));
#1079=DIRECTION('',(3.1720657846433E-16,0.,-1.));
#1080=DIRECTION('',(0.,-1.,0.));
#1081=DIRECTION('',(3.1720657846433E-16,0.,-1.));
#1082=DIRECTION('',(1.,0.,3.1720657846433E-16));
#1083=DIRECTION('',(-1.,0.,-3.1720657846433E-16));
#1084=DIRECTION('',(-2.0853174767565E-15,1.,4.0403026112157E-15));
#1085=DIRECTION('',(1.,0.,3.1720657846433E-16));
#1086=DIRECTION('',(1.,2.08531747675649E-15,5.78241158658939E-16));
#1087=DIRECTION('',(2.08531747675649E-15,-1.,0.));
#1088=DIRECTION('',(-5.78241158658939E-16,0.,1.));
#1089=DIRECTION('',(-2.0853174767565E-15,1.,4.0403026112157E-15));
#1090=DIRECTION('',(5.78241158658931E-16,4.0403026112157E-15,-1.));
#1091=DIRECTION('',(-4.2126568232765E-30,4.0403026112157E-15,-1.));
#1092=DIRECTION('',(0.,-1.,-4.0403026112157E-15));
#1093=DIRECTION('',(-2.0853174767565E-15,1.,4.0403026112157E-15));
#1094=DIRECTION('',(-1.,-2.0853174767565E-15,-4.2126568232765E-30));
#1095=DIRECTION('',(1.,0.,-4.2126568232765E-30));
#1096=DIRECTION('',(1.,2.0853174767565E-15,-5.78241158658931E-16));
#1097=DIRECTION('',(2.0853174767565E-15,-1.,0.));
#1098=DIRECTION('',(-2.0853174767565E-15,1.,4.0403026112157E-15));
#1099=DIRECTION('',(-5.78241158658939E-16,4.0403026112157E-15,-1.));
#1100=DIRECTION('',(5.78241158658931E-16,0.,1.));
#1101=DIRECTION('',(3.1720657846433E-16,0.,-1.));
#1102=DIRECTION('',(1.,0.,3.1720657846433E-16));
#1103=DIRECTION('',(-1.,0.,-3.1720657846433E-16));
#1104=DIRECTION('',(-2.0853174767565E-15,1.,4.0403026112157E-15));
#1105=DIRECTION('',(1.,0.,3.1720657846433E-16));
#1106=DIRECTION('',(1.,2.08531747675648E-15,1.73472347597681E-15));
#1107=DIRECTION('',(2.08531747675648E-15,-1.,0.));
#1108=DIRECTION('',(-1.73472347597681E-15,0.,1.));
#1109=DIRECTION('',(-2.0853174767565E-15,1.,4.0403026112157E-15));
#1110=DIRECTION('',(1.7347234759768E-15,4.04030261121571E-15,-1.));
#1111=DIRECTION('',(4.2126568232765E-30,-4.0403026112157E-15,1.));
#1112=DIRECTION('',(0.,1.,4.0403026112157E-15));
#1113=DIRECTION('',(-1.,0.,4.2126568232765E-30));
#1114=DIRECTION('',(-2.0853174767565E-15,1.,4.0403026112157E-15));
#1115=DIRECTION('',(1.,2.0853174767565E-15,4.2126568232765E-30));
#1116=DIRECTION('',(1.,2.08531747675649E-15,1.15648231731787E-15));
#1117=DIRECTION('',(2.08531747675649E-15,-1.,0.));
#1118=DIRECTION('',(-2.0853174767565E-15,1.,4.0403026112157E-15));
#1119=DIRECTION('',(1.15648231731786E-15,4.0403026112157E-15,-1.));
#1120=DIRECTION('',(-1.15648231731787E-15,0.,1.));
#1121=DIRECTION('',(3.1720657846433E-16,0.,-1.));
#1122=DIRECTION('',(1.,0.,3.1720657846433E-16));
#1123=DIRECTION('',(-1.,0.,-3.1720657846433E-16));
#1124=DIRECTION('',(0.,1.,0.));
#1125=DIRECTION('',(1.,0.,3.1720657846433E-16));
#1126=DIRECTION('',(-1.,0.,0.));
#1127=DIRECTION('',(0.,0.,-1.));
#1128=DIRECTION('',(3.1720657846433E-16,0.,-1.));
#1129=DIRECTION('',(0.,-1.,-4.0403026112157E-15));
#1130=DIRECTION('',(0.,0.,-1.));
#1131=DIRECTION('',(0.,-1.,-4.0403026112157E-15));
#1132=DIRECTION('',(0.,-4.0403026112157E-15,1.));
#1133=DIRECTION('',(0.,-1.,0.));
#1134=DIRECTION('',(0.,0.,1.));
#1135=DIRECTION('',(0.,-1.,-4.0403026112157E-15));
#1136=DIRECTION('',(0.,-1.,0.));
#1137=DIRECTION('',(0.,0.,1.));
#1138=DIRECTION('',(0.,1.,4.0403026112157E-15));
#1139=DIRECTION('',(0.,4.0403026112157E-15,-1.));
#1140=DIRECTION('',(0.,-1.,0.));
#1141=DIRECTION('',(0.,0.,1.));
#1142=DIRECTION('',(0.,-1.,0.));
#1143=DIRECTION('',(0.,0.,1.));
#1144=DIRECTION('',(0.,1.,4.0403026112157E-15));
#1145=DIRECTION('',(-1.,-2.0853174767565E-15,5.78241158658932E-16));
#1146=DIRECTION('',(-2.0853174767565E-15,1.,0.));
#1147=DIRECTION('',(5.78241158658941E-16,-4.0403026112157E-15,1.));
#1148=DIRECTION('',(0.,1.,4.0403026112157E-15));
#1149=DIRECTION('',(-5.78241158658932E-16,0.,-1.));
#1150=DIRECTION('',(-1.,-2.0853174767565E-15,-4.2126568232765E-30));
#1151=DIRECTION('',(-2.0853174767565E-15,1.,0.));
#1152=DIRECTION('',(4.2126568232765E-30,0.,-1.));
#1153=DIRECTION('',(0.,-1.,-4.0403026112157E-15));
#1154=DIRECTION('',(4.2126568232765E-30,-4.0403026112157E-15,1.));
#1155=DIRECTION('',(0.,-1.,0.));
#1156=DIRECTION('',(-1.,0.,0.));
#1157=DIRECTION('',(0.,-1.,0.));
#1158=DIRECTION('',(0.,0.,1.));
#1159=DIRECTION('',(3.1720657846433E-16,0.,-1.));
#1160=DIRECTION('',(0.,-1.,0.));
#1161=DIRECTION('',(0.,0.,-1.));
#1162=DIRECTION('',(3.1720657846433E-16,0.,-1.));
#1163=DIRECTION('',(0.,-1.,0.));
#1164=DIRECTION('',(0.,0.,1.));
#1165=DIRECTION('',(0.,-1.,0.));
#1166=DIRECTION('',(-1.,0.,0.));
#1167=DIRECTION('',(0.,-1.,0.));
#1168=DIRECTION('',(0.,0.,1.));
#1169=DIRECTION('',(0.,0.,-1.));
#1170=DIRECTION('',(0.,-1.,0.));
#1171=DIRECTION('',(0.,0.,-1.));
#1172=DIRECTION('',(0.,1.,0.));
#1173=DIRECTION('',(0.807692307692308,0.,0.589604219875226));
#1174=DIRECTION('',(0.,-1.,0.));
#1175=DIRECTION('',(0.,0.,-1.));
#1176=DIRECTION('',(0.,0.,1.));
#1177=DIRECTION('',(0.,-1.,0.));
#1178=DIRECTION('',(0.,0.,1.));
#1179=DIRECTION('',(0.,-1.,0.));
#1180=DIRECTION('',(1.,0.,0.));
#1181=DIRECTION('',(0.,-1.,0.));
#1182=DIRECTION('',(-1.,0.,0.));
#1183=DIRECTION('',(0.,1.,0.));
#1184=DIRECTION('',(0.,0.,-1.));
#1185=DIRECTION('',(0.,-1.,0.));
#1186=DIRECTION('',(0.,0.,-1.));
#1187=DIRECTION('',(0.,-1.,0.));
#1188=DIRECTION('',(0.,0.,-1.));
#1189=DIRECTION('',(0.,-1.,0.));
#1190=DIRECTION('',(0.,0.,-1.));
#1191=DIRECTION('',(0.,0.,1.));
#1192=DIRECTION('',(-1.,0.,0.));
#1193=DIRECTION('',(0.,0.,1.));
#1194=DIRECTION('',(0.,-1.,0.));
#1195=DIRECTION('',(-1.19562479575017E-15,0.,1.));
#1196=DIRECTION('',(0.,-1.,0.));
#1197=DIRECTION('',(0.,-1.,0.));
#1198=DIRECTION('',(0.,0.,-1.));
#1199=DIRECTION('',(0.,-1.,0.));
#1200=DIRECTION('',(0.,-1.,0.));
#1201=DIRECTION('',(0.,0.,-1.));
#1202=DIRECTION('',(0.,-1.,0.));
#1203=DIRECTION('',(0.,-1.,0.));
#1204=DIRECTION('',(0.,1.,0.));
#1205=DIRECTION('',(1.,0.,0.));
#1206=DIRECTION('',(0.,1.,0.));
#1207=DIRECTION('',(0.,0.,1.));
#1208=DIRECTION('',(-1.,0.,0.));
#1209=DIRECTION('',(0.,0.,-1.));
#1210=DIRECTION('',(0.,1.,0.));
#1211=DIRECTION('',(0.,-1.,-4.0403026112157E-15));
#1212=DIRECTION('',(1.,0.,0.));
#1213=DIRECTION('',(0.,0.,1.));
#1214=DIRECTION('',(0.,1.,0.));
#1215=DIRECTION('',(0.,-1.,-4.0403026112157E-15));
#1216=DIRECTION('',(0.,-1.,-4.0403026112157E-15));
#1217=DIRECTION('',(0.,-4.0403026112157E-15,1.));
#1218=DIRECTION('',(0.,1.,4.0403026112157E-15));
#1219=DIRECTION('',(0.,4.0403026112157E-15,-1.));
#1220=DIRECTION('',(0.,-1.,0.));
#1221=DIRECTION('',(-1.,0.,0.));
#1222=DIRECTION('',(0.,-1.,0.));
#1223=DIRECTION('',(0.,0.,-1.));
#1224=DIRECTION('',(0.,-1.,0.));
#1225=DIRECTION('',(1.,0.,0.));
#1226=DIRECTION('',(0.,-1.,0.));
#1227=DIRECTION('',(0.,0.,-1.));
#1228=DIRECTION('',(0.,1.,0.));
#1229=DIRECTION('',(0.,0.,1.));
#1230=DIRECTION('',(0.,-1.,0.));
#1231=DIRECTION('',(0.,0.,-1.));
#1232=DIRECTION('',(0.,-1.,0.));
#1233=DIRECTION('',(0.,0.,-1.));
#1234=DIRECTION('',(0.,-1.,0.));
#1235=DIRECTION('',(0.,0.,-1.));
#1236=DIRECTION('',(0.,-1.,0.));
#1237=DIRECTION('',(0.,0.,-1.));
#1238=DIRECTION('',(0.,-1.,0.));
#1239=DIRECTION('',(0.,0.,-1.));
#1240=DIRECTION('',(1.,0.,0.));
#1241=DIRECTION('',(0.,0.,-1.));
#1242=DIRECTION('',(0.,0.,1.));
#1243=DIRECTION('',(0.,-1.,0.));
#1244=DIRECTION('',(1.,0.,0.));
#1245=DIRECTION('',(0.,0.,-1.));
#1246=DIRECTION('',(0.,-1.,0.));
#1247=DIRECTION('',(0.,0.,1.));
#1248=DIRECTION('',(0.,0.,1.));
#1249=DIRECTION('',(1.,0.,0.));
#1250=DIRECTION('',(-1.,0.,0.));
#1251=DIRECTION('',(0.,-1.,0.));
#1252=DIRECTION('',(1.,0.,0.));
#1253=DIRECTION('',(0.,-1.,0.));
#1254=DIRECTION('',(1.,0.,0.));
#1255=DIRECTION('',(0.,-1.,0.));
#1256=DIRECTION('',(1.,0.,0.));
#1257=CARTESIAN_POINT('',(0.,0.,0.));
#1258=CARTESIAN_POINT('',(0.00258222263067514,-0.0640178242460077,0.132901026004728));
#1259=CARTESIAN_POINT('',(0.00258222263067508,-0.0640178242460077,0.136894026004728));
#1260=CARTESIAN_POINT('',(0.00258222263067504,-0.0456728242460077,0.136894026004728));
#1261=CARTESIAN_POINT('',(0.00258222263067503,-0.0390178242460077,0.136894026004728));
#1262=CARTESIAN_POINT('',(0.00258222263067509,-0.0390178242460077,0.132901026004728));
#1263=CARTESIAN_POINT('',(0.00258222263067504,-0.0390178242460077,0.128908026004728));
#1264=CARTESIAN_POINT('',(0.00258222263067514,-0.0640178242460077,0.128908026004728));
#1265=CARTESIAN_POINT('',(0.00258222263067511,-0.0456728242460077,0.128908026004728));
#1266=CARTESIAN_POINT('',(0.00258222263067507,-0.0456728242460077,0.221580182581314));
#1267=CARTESIAN_POINT('',(-0.0172839025000542,-0.0640178242460077,0.136894026004728));
#1268=CARTESIAN_POINT('',(-0.0371500276307835,-0.0640178242460077,0.136894026004728));
#1269=CARTESIAN_POINT('',(-0.0371500276307835,-0.0456728242460077,0.136894026004728));
#1270=CARTESIAN_POINT('',(-0.0371500276307835,-0.0390178242460077,0.136894026004728));
#1271=CARTESIAN_POINT('',(-0.0172839025000542,-0.0390178242460077,0.136894026004728));
#1272=CARTESIAN_POINT('',(-0.0172839025000542,-0.0456728242460077,0.136894026004728));
#1273=CARTESIAN_POINT('',(-0.0371500276307835,-0.0640178242460077,0.132901026004728));
#1274=CARTESIAN_POINT('',(-0.0371500276307835,-0.0640178242460077,0.128908026004728));
#1275=CARTESIAN_POINT('',(-0.0371500276307835,-0.0456728242460077,0.128908026004728));
#1276=CARTESIAN_POINT('',(-0.0371500276307835,-0.0390178242460077,0.128908026004728));
#1277=CARTESIAN_POINT('',(-0.0371500276307836,-0.0390178242460077,0.132901026004728));
#1278=CARTESIAN_POINT('',(-0.0371500276307835,-0.0456728242460077,0.221580182581314));
#1279=CARTESIAN_POINT('',(-0.0172839025000542,-0.0640178242460077,0.128908026004728));
#1280=CARTESIAN_POINT('',(-0.0172839025000542,-0.0390178242460077,0.128908026004728));
#1281=CARTESIAN_POINT('',(-0.0172839025000542,-0.0456728242460077,0.128908026004728));
#1282=CARTESIAN_POINT('',(0.00621609749994581,-0.0640178242460074,0.162401026004728));
#1283=CARTESIAN_POINT('',(0.00371609749994581,-0.0640178242460075,0.162401026004728));
#1284=CARTESIAN_POINT('',(0.00371609749994577,-0.0456728242460077,0.162401026004728));
#1285=CARTESIAN_POINT('',(0.00371609749994576,-0.0390178242460075,0.162401026004728));
#1286=CARTESIAN_POINT('',(0.00621609749994576,-0.0390178242460075,0.162401026004728));
#1287=CARTESIAN_POINT('',(0.00871609749994577,-0.0390178242460075,0.162401026004728));
#1288=CARTESIAN_POINT('',(0.00871609749994582,-0.0640178242460074,0.162401026004728));
#1289=CARTESIAN_POINT('',(0.00871609749994578,-0.0456728242460077,0.162401026004728));
#1290=CARTESIAN_POINT('',(-0.017149237750569,-0.0456728242460077,0.162401026004728));
#1291=CARTESIAN_POINT('',(0.00371609749994581,-0.0640178242460074,0.159401026004728));
#1292=CARTESIAN_POINT('',(0.00371609749994574,-0.0456728242460077,0.221580182581314));
#1293=CARTESIAN_POINT('',(0.00371609749994577,-0.0456728242460077,0.150401026004728));
#1294=CARTESIAN_POINT('',(0.00371609749994582,-0.0640178242460074,0.150401026004728));
#1295=CARTESIAN_POINT('',(0.00371609749994577,-0.0390178242460074,0.150401026004728));
#1296=CARTESIAN_POINT('',(0.00371609749994576,-0.0390178242460075,0.159401026004728));
#1297=CARTESIAN_POINT('',(0.00621609749994581,-0.0640178242460074,0.150401026004728));
#1298=CARTESIAN_POINT('',(-0.017149237750569,-0.0456728242460077,0.150401026004728));
#1299=CARTESIAN_POINT('',(0.00871609749994578,-0.0456728242460077,0.150401026004728));
#1300=CARTESIAN_POINT('',(0.00871609749994581,-0.0640178242460074,0.150401026004728));
#1301=CARTESIAN_POINT('',(0.00871609749994581,-0.0390178242460077,0.150401026004728));
#1302=CARTESIAN_POINT('',(0.00621609749994576,-0.0390178242460074,0.150401026004728));
#1303=CARTESIAN_POINT('',(0.00871609749994582,-0.0640178242460074,0.159401026004728));
#1304=CARTESIAN_POINT('',(0.00871609749994577,-0.0390178242460074,0.159401026004728));
#1305=CARTESIAN_POINT('',(0.00871609749994581,-0.0456728242460077,0.221580182581314));
#1306=CARTESIAN_POINT('',(-0.0407839025000541,-0.0640178242460075,0.150401026004728));
#1307=CARTESIAN_POINT('',(-0.0382839025000542,-0.0640178242460075,0.150401026004728));
#1308=CARTESIAN_POINT('',(-0.0382839025000542,-0.0456728242460077,0.150401026004728));
#1309=CARTESIAN_POINT('',(-0.0382839025000542,-0.0390178242460075,0.150401026004728));
#1310=CARTESIAN_POINT('',(-0.0407839025000542,-0.0390178242460075,0.150401026004728));
#1311=CARTESIAN_POINT('',(-0.0432839025000542,-0.0390178242460077,0.150401026004728));
#1312=CARTESIAN_POINT('',(-0.0432839025000541,-0.0640178242460075,0.150401026004728));
#1313=CARTESIAN_POINT('',(-0.0432839025000542,-0.0456728242460077,0.150401026004728));
#1314=CARTESIAN_POINT('',(-0.017149237750569,-0.0456728242460077,0.150401026004728));
#1315=CARTESIAN_POINT('',(-0.0382839025000542,-0.0640178242460075,0.159401026004728));
#1316=CARTESIAN_POINT('',(-0.0382839025000542,-0.0640178242460075,0.162401026004728));
#1317=CARTESIAN_POINT('',(-0.0382839025000542,-0.0456728242460077,0.162401026004728));
#1318=CARTESIAN_POINT('',(-0.0382839025000542,-0.0390178242460076,0.162401026004728));
#1319=CARTESIAN_POINT('',(-0.0382839025000542,-0.0390178242460076,0.159401026004728));
#1320=CARTESIAN_POINT('',(-0.0382839025000541,-0.0456728242460077,0.221580182581314));
#1321=CARTESIAN_POINT('',(-0.0407839025000541,-0.0640178242460076,0.162401026004728));
#1322=CARTESIAN_POINT('',(-0.0171492377505691,-0.0456728242460077,0.162401026004728));
#1323=CARTESIAN_POINT('',(-0.0432839025000542,-0.0456728242460077,0.162401026004728));
#1324=CARTESIAN_POINT('',(-0.0432839025000541,-0.0640178242460076,0.162401026004728));
#1325=CARTESIAN_POINT('',(-0.0432839025000542,-0.0390178242460076,0.162401026004728));
#1326=CARTESIAN_POINT('',(-0.0407839025000542,-0.0390178242460076,0.162401026004728));
#1327=CARTESIAN_POINT('',(-0.0432839025000541,-0.0640178242460075,0.159401026004728));
#1328=CARTESIAN_POINT('',(-0.0432839025000542,-0.0456728242460077,0.221580182581314));
#1329=CARTESIAN_POINT('',(-0.0432839025000542,-0.0390178242460076,0.159401026004728));
#1330=CARTESIAN_POINT('',(0.010653781039757,-0.0403488242460077,0.119747388399132));
#1331=CARTESIAN_POINT('',(0.010653781039757,-0.0390178242460077,0.167161135141238));
#1332=CARTESIAN_POINT('',(0.010653781039757,-0.0390178242460077,0.10676888408898));
#1333=CARTESIAN_POINT('',(0.010653781039757,-0.0390178242460077,0.140401026004728));
#1334=CARTESIAN_POINT('',(0.010653781039757,-0.0403488242460078,0.140401026004728));
#1335=CARTESIAN_POINT('',(0.010653781039757,-0.0456728242460077,0.140401026004728));
#1336=CARTESIAN_POINT('',(0.010653781039757,-0.0456728242460077,0.244621783632024));
#1337=CARTESIAN_POINT('',(0.010653781039757,-0.0456728242460077,0.106768884088981));
#1338=CARTESIAN_POINT('',(0.010653781039757,-0.0403488242460077,0.10676888408898));
#1339=CARTESIAN_POINT('',(-0.045248218960243,-0.0403488242460077,0.10676888408898));
#1340=CARTESIAN_POINT('',(-0.031272718960243,-0.0456728242460077,0.10676888408898));
#1341=CARTESIAN_POINT('',(0.00871609749994578,-0.0456728242460077,0.10676888408898));
#1342=CARTESIAN_POINT('',(0.00871609749994582,-0.0640178242460072,0.10676888408898));
#1343=CARTESIAN_POINT('',(0.00871609749994577,-0.0390178242460072,0.106768884088981));
#1344=CARTESIAN_POINT('',(-0.0303704685537213,-0.0390178242460077,0.10676888408898));
#1345=CARTESIAN_POINT('',(0.00871609749994581,-0.0640178242460072,0.112401026004728));
#1346=CARTESIAN_POINT('',(0.00871609749994571,-0.0456728242460077,0.221580182581314));
#1347=CARTESIAN_POINT('',(0.00871609749994581,-0.0456728242460077,0.115401026004728));
#1348=CARTESIAN_POINT('',(0.00871609749994581,-0.0640178242460072,0.115401026004728));
#1349=CARTESIAN_POINT('',(0.00871609749994576,-0.0390178242460072,0.115401026004728));
#1350=CARTESIAN_POINT('',(0.00871609749994576,-0.0390178242460072,0.112401026004728));
#1351=CARTESIAN_POINT('',(0.00621609749994581,-0.0640178242460073,0.115401026004728));
#1352=CARTESIAN_POINT('',(0.00371609749994582,-0.0640178242460073,0.115401026004728));
#1353=CARTESIAN_POINT('',(0.00371609749994578,-0.0456728242460077,0.115401026004728));
#1354=CARTESIAN_POINT('',(0.00371609749994577,-0.0390178242460072,0.115401026004728));
#1355=CARTESIAN_POINT('',(0.00621609749994576,-0.0390178242460072,0.115401026004728));
#1356=CARTESIAN_POINT('',(-0.017149237750569,-0.0456728242460077,0.115401026004728));
#1357=CARTESIAN_POINT('',(0.00371609749994582,-0.0640178242460072,0.112401026004728));
#1358=CARTESIAN_POINT('',(0.00371609749994581,-0.0640178242460072,0.10676888408898));
#1359=CARTESIAN_POINT('',(0.00371609749994578,-0.0456728242460077,0.10676888408898));
#1360=CARTESIAN_POINT('',(0.00371609749994576,-0.0390178242460072,0.106768884088981));
#1361=CARTESIAN_POINT('',(0.00371609749994576,-0.0390178242460072,0.112401026004728));
#1362=CARTESIAN_POINT('',(0.00371609749994584,-0.0456728242460077,0.221580182581314));
#1363=CARTESIAN_POINT('',(-0.045248218960243,-0.0403488242460077,0.10676888408898));
#1364=CARTESIAN_POINT('',(-0.031272718960243,-0.0456728242460077,0.10676888408898));
#1365=CARTESIAN_POINT('',(-0.0382839025000542,-0.0456728242460077,0.10676888408898));
#1366=CARTESIAN_POINT('',(-0.0382839025000542,-0.0640178242460073,0.10676888408898));
#1367=CARTESIAN_POINT('',(-0.0382839025000542,-0.0390178242460073,0.106768884088981));
#1368=CARTESIAN_POINT('',(-0.0303704685537213,-0.0390178242460077,0.10676888408898));
#1369=CARTESIAN_POINT('',(-0.0382839025000542,-0.0640178242460073,0.112401026004728));
#1370=CARTESIAN_POINT('',(-0.0382839025000544,-0.0456728242460077,0.221580182581314));
#1371=CARTESIAN_POINT('',(-0.0382839025000542,-0.0456728242460077,0.115401026004728));
#1372=CARTESIAN_POINT('',(-0.0382839025000542,-0.0640178242460074,0.115401026004728));
#1373=CARTESIAN_POINT('',(-0.0382839025000542,-0.0390178242460074,0.115401026004728));
#1374=CARTESIAN_POINT('',(-0.0382839025000542,-0.0390178242460074,0.112401026004728));
#1375=CARTESIAN_POINT('',(-0.0407839025000541,-0.0640178242460074,0.115401026004728));
#1376=CARTESIAN_POINT('',(-0.017149237750569,-0.0456728242460077,0.115401026004728));
#1377=CARTESIAN_POINT('',(-0.0432839025000542,-0.0456728242460077,0.115401026004728));
#1378=CARTESIAN_POINT('',(-0.0432839025000541,-0.0640178242460074,0.115401026004728));
#1379=CARTESIAN_POINT('',(-0.0432839025000542,-0.0390178242460074,0.115401026004728));
#1380=CARTESIAN_POINT('',(-0.0407839025000542,-0.0390178242460074,0.115401026004728));
#1381=CARTESIAN_POINT('',(-0.0432839025000541,-0.0640178242460073,0.112401026004728));
#1382=CARTESIAN_POINT('',(-0.0432839025000541,-0.0640178242460073,0.10676888408898));
#1383=CARTESIAN_POINT('',(-0.0432839025000542,-0.0456728242460077,0.10676888408898));
#1384=CARTESIAN_POINT('',(-0.0432839025000542,-0.0390178242460073,0.106768884088981));
#1385=CARTESIAN_POINT('',(-0.0432839025000542,-0.0390178242460074,0.112401026004728));
#1386=CARTESIAN_POINT('',(-0.0432839025000543,-0.0456728242460077,0.221580182581314));
#1387=CARTESIAN_POINT('',(-0.045248218960243,-0.0403488242460077,0.10676888408898));
#1388=CARTESIAN_POINT('',(-0.031272718960243,-0.0456728242460077,0.10676888408898));
#1389=CARTESIAN_POINT('',(-0.045248218960243,-0.0456728242460077,0.10676888408898));
#1390=CARTESIAN_POINT('',(-0.045248218960243,-0.0403488242460077,0.10676888408898));
#1391=CARTESIAN_POINT('',(-0.045248218960243,-0.0390178242460077,0.10676888408898));
#1392=CARTESIAN_POINT('',(-0.0303704685537213,-0.0390178242460077,0.10676888408898));
#1393=CARTESIAN_POINT('',(-0.045248218960243,-0.0403488242460077,0.178776065853936));
#1394=CARTESIAN_POINT('',(-0.045248218960243,-0.0456728242460077,0.244621783632024));
#1395=CARTESIAN_POINT('',(-0.045248218960243,-0.0456728242460077,0.140401026004728));
#1396=CARTESIAN_POINT('',(-0.045248218960243,-0.0390178242460077,0.140401026004728));
#1397=CARTESIAN_POINT('',(-0.045248218960243,-0.0390178242460077,0.140401026004728));
#1398=CARTESIAN_POINT('',(-0.045248218960243,-0.0390178242460077,0.19667547386864));
#1399=CARTESIAN_POINT('',(0.020653781039757,-0.0403488242460078,0.140401026004728));
#1400=CARTESIAN_POINT('',(0.020653781039757,-0.0390178242460077,0.140401026004728));
#1401=CARTESIAN_POINT('',(0.0127160974999458,-0.0390178242460074,0.146483227910437));
#1402=CARTESIAN_POINT('',(0.0127160974999458,-0.0423453242460076,0.146483227910437));
#1403=CARTESIAN_POINT('',(0.0127160974999458,-0.0456728242460077,0.146483227910437));
#1404=CARTESIAN_POINT('',(0.020653781039757,-0.0456728242460077,0.140401026004728));
#1405=CARTESIAN_POINT('',(-0.055248218960243,-0.0640178242460075,0.140401026004728));
#1406=CARTESIAN_POINT('',(-0.055248218960243,-0.0390178242460077,0.140401026004728));
#1407=CARTESIAN_POINT('',(-0.0472839025000542,-0.0390178242460077,0.146448311620768));
#1408=CARTESIAN_POINT('',(-0.055248218960243,-0.0456728242460077,0.140401026004728));
#1409=CARTESIAN_POINT('',(-0.0472839025000542,-0.0456728242460077,0.146448311620768));
#1410=CARTESIAN_POINT('',(-0.0472839025000541,-0.0423453242460076,0.146448311620768));
#1411=CARTESIAN_POINT('',(0.0127160974999458,-0.0640178242460074,0.159401026004728));
#1412=CARTESIAN_POINT('',(0.0127160974999458,-0.0390178242460074,0.159401026004728));
#1413=CARTESIAN_POINT('',(0.0127160974999458,-0.0390178242460077,0.176318824099019));
#1414=CARTESIAN_POINT('',(0.0127160974999458,-0.0423453242460076,0.176318824099019));
#1415=CARTESIAN_POINT('',(0.0127160974999458,-0.0456728242460077,0.176318824099019));
#1416=CARTESIAN_POINT('',(0.0127160974999458,-0.0456728242460077,0.221580182581314));
#1417=CARTESIAN_POINT('',(-0.0472839025000541,-0.0640178242460076,0.159401026004728));
#1418=CARTESIAN_POINT('',(-0.0472839025000542,-0.0456728242460077,0.221580182581314));
#1419=CARTESIAN_POINT('',(-0.0472839025000542,-0.0456728242460077,0.176353740388688));
#1420=CARTESIAN_POINT('',(-0.0472839025000542,-0.0423453242460076,0.176353740388688));
#1421=CARTESIAN_POINT('',(-0.0472839025000542,-0.0390178242460076,0.176353740388688));
#1422=CARTESIAN_POINT('',(-0.0472839025000542,-0.0390178242460076,0.159401026004728));
#1423=CARTESIAN_POINT('',(-0.017149237750569,-0.0456728242460077,0.221580182581314));
#1424=CARTESIAN_POINT('',(0.020653781039757,-0.0456728242460077,0.182401026004728));
#1425=CARTESIAN_POINT('',(0.010653781039757,-0.0456728242460077,0.182401026004728));
#1426=CARTESIAN_POINT('',(0.010653781039757,-0.0456728242460077,0.254621783632024));
#1427=CARTESIAN_POINT('',(0.010653781039757,-0.0456728242460077,0.191953547799088));
#1428=CARTESIAN_POINT('',(-0.017297218960243,-0.0456728242460077,0.220013783632024));
#1429=CARTESIAN_POINT('',(-0.045248218960243,-0.0456728242460077,0.191953547799088));
#1430=CARTESIAN_POINT('',(-0.045248218960243,-0.0456728242460077,0.254621783632024));
#1431=CARTESIAN_POINT('',(-0.045248218960243,-0.0456728242460077,0.182401026004728));
#1432=CARTESIAN_POINT('',(-0.055248218960243,-0.0456728242460077,0.182401026004728));
#1433=CARTESIAN_POINT('',(-0.0154927181471998,-0.0390178242460077,0.214574881883344));
#1434=CARTESIAN_POINT('',(-0.055248218960243,-0.0390178242460077,0.182401026004728));
#1435=CARTESIAN_POINT('',(-0.045248218960243,-0.0390178242460077,0.182401026004728));
#1436=CARTESIAN_POINT('',(-0.045248218960243,-0.0390178242460077,0.20667547386864));
#1437=CARTESIAN_POINT('',(-0.045248218960243,-0.0390178242460077,0.198039552473688));
#1438=CARTESIAN_POINT('',(-0.050248218960243,-0.0390178242460077,0.198039552473688));
#1439=CARTESIAN_POINT('',(-0.0460883694424932,-0.0390178242460077,0.200813656291081));
#1440=CARTESIAN_POINT('',(-0.017297218960243,-0.0390178242460077,0.220013783632024));
#1441=CARTESIAN_POINT('',(0.0114939315220072,-0.0390178242460077,0.200813656291081));
#1442=CARTESIAN_POINT('',(0.015653781039757,-0.0390178242460077,0.198039552473688));
#1443=CARTESIAN_POINT('',(0.010653781039757,-0.0390178242460077,0.198039552473688));
#1444=CARTESIAN_POINT('',(0.010653781039757,-0.0390178242460077,0.177161135141238));
#1445=CARTESIAN_POINT('',(0.010653781039757,-0.0390178242460077,0.182401026004728));
#1446=CARTESIAN_POINT('',(0.020653781039757,-0.0390178242460077,0.182401026004728));
#1447=CARTESIAN_POINT('',(-0.017297218960243,-0.0390178242460077,0.220013783632024));
#1448=CARTESIAN_POINT('',(0.00200228103975695,-0.0390178242460077,0.220013783632024));
#1449=CARTESIAN_POINT('',(-0.017297218960243,-0.0536518242460077,0.220013783632024));
#1450=CARTESIAN_POINT('',(-0.00729721896024304,-0.0536518242460077,0.193907783632024));
#1451=CARTESIAN_POINT('',(-0.00729721896024304,-0.0536518242460077,0.192507783632024));
#1452=CARTESIAN_POINT('',(-0.017297218960243,-0.0536518242460077,0.220013783632024));
#1453=CARTESIAN_POINT('',(-0.017297218960243,-0.0536518242460077,0.199001233632024));
#1454=CARTESIAN_POINT('',(-0.027297218960243,-0.0536518242460077,0.193907783632024));
#1455=CARTESIAN_POINT('',(-0.027297218960243,-0.0536518242460077,0.192507783632024));
#1456=CARTESIAN_POINT('',(-0.017297218960243,-0.0536518242460077,0.220013783632024));
#1457=CARTESIAN_POINT('',(-0.010697218960243,-0.0536518242460077,0.186042983876941));
#1458=CARTESIAN_POINT('',(-0.023897218960243,-0.0536518242460077,0.186042983876941));
#1459=CARTESIAN_POINT('',(-0.023897218960243,-0.0536518242460077,0.195407783632024));
#1460=CARTESIAN_POINT('',(-0.023897218960243,-0.0536518242460077,0.196907783632024));
#1461=CARTESIAN_POINT('',(-0.017297218960243,-0.0536518242460077,0.196907783632024));
#1462=CARTESIAN_POINT('',(-0.010697218960243,-0.0536518242460077,0.196907783632024));
#1463=CARTESIAN_POINT('',(-0.010697218960243,-0.0536518242460077,0.186407783632024));
#1464=CARTESIAN_POINT('',(-0.017297218960243,-0.0403488242460077,0.220013783632024));
#1465=CARTESIAN_POINT('',(-0.0460883694424932,-0.0403488242460077,0.200813656291081));
#1466=CARTESIAN_POINT('',(-0.0460883694424932,-0.0506728242460077,0.200813656291081));
#1467=CARTESIAN_POINT('',(-0.017297218960243,-0.0506728242460077,0.220013783632024));
#1468=CARTESIAN_POINT('',(0.0114939315220072,-0.0506728242460077,0.200813656291081));
#1469=CARTESIAN_POINT('',(0.0114939315220072,-0.0403488242460077,0.200813656291081));
#1470=CARTESIAN_POINT('',(-0.017297218960243,-0.0516518242460077,0.220013783632024));
#1471=CARTESIAN_POINT('',(-0.010697218960243,-0.0516518242460077,0.186042983876941));
#1472=CARTESIAN_POINT('',(-0.023897218960243,-0.0516518242460077,0.186042983876941));
#1473=CARTESIAN_POINT('',(-0.023897218960243,-0.0403488242460077,0.186042983876941));
#1474=CARTESIAN_POINT('',(-0.010697218960243,-0.0403488242460077,0.186042983876941));
#1475=CARTESIAN_POINT('',(-0.017297218960243,-0.0456728242460077,0.220013783632024));
#1476=CARTESIAN_POINT('',(-0.017297218960243,-0.0416728242460076,0.220013783632024));
#1477=CARTESIAN_POINT('',(-0.017297218960243,-0.0416728242460076,0.239313283632024));
#1478=CARTESIAN_POINT('',(-0.045248218960243,-0.0403488242460077,0.188776065853936));
#1479=CARTESIAN_POINT('',(-0.045248218960243,-0.0456728242460077,0.191953547799088));
#1480=CARTESIAN_POINT('',(-0.045248218960243,-0.0456728242460077,0.193056421163485));
#1481=CARTESIAN_POINT('',(-0.045248218960243,-0.0460302062782572,0.195221126239745));
#1482=CARTESIAN_POINT('',(-0.045248218960243,-0.0470225474828182,0.197196843720377));
#1483=CARTESIAN_POINT('',(-0.045248218960243,-0.0477426940593839,0.198039552473688));
#1484=CARTESIAN_POINT('',(-0.045248218960243,-0.0477426940593833,0.198039552473688));
#1485=CARTESIAN_POINT('',(-0.045248218960243,-0.0390178242460077,0.198039552473688));
#1486=CARTESIAN_POINT('',(-0.045248218960243,-0.0403488242460077,0.182401026004728));
#1487=CARTESIAN_POINT('',(0.010653781039757,-0.0403488242460077,0.129747388399132));
#1488=CARTESIAN_POINT('',(0.010653781039757,-0.0456728242460077,0.198039552473688));
#1489=CARTESIAN_POINT('',(0.010653781039757,-0.0477426940593833,0.198039552473688));
#1490=CARTESIAN_POINT('',(0.010653781039757,-0.0477426940593833,0.198039552473688));
#1491=CARTESIAN_POINT('',(0.010653781039757,-0.0470248279864234,0.197199512344256));
#1492=CARTESIAN_POINT('',(0.010653781039757,-0.0460277765688247,0.195216995418975));
#1493=CARTESIAN_POINT('',(0.010653781039757,-0.0456728242460077,0.193054143383571));
#1494=CARTESIAN_POINT('',(0.010653781039757,-0.0456728242460077,0.191953547799088));
#1495=CARTESIAN_POINT('',(0.010653781039757,-0.0390178242460075,0.182401026004728));
#1496=CARTESIAN_POINT('',(-0.055248218960243,-0.0403488242460077,0.182401026004728));
#1497=CARTESIAN_POINT('',(0.020653781039757,-0.0640178242460075,0.182401026004728));
#1498=CARTESIAN_POINT('',(-0.017149237750569,-0.0416728242460076,0.231580182581314));
#1499=CARTESIAN_POINT('',(-0.017297218960243,-0.0416728242460076,0.220013783632024));
#1500=CARTESIAN_POINT('',(-0.017297218960243,-0.0416728242460076,0.199001233632024));
#1501=CARTESIAN_POINT('',(-0.017297218960243,-0.0456728242460077,0.220013783632024));
#1502=CARTESIAN_POINT('',(-0.00729721896024304,-0.0486518242460077,0.193907783632024));
#1503=CARTESIAN_POINT('',(-0.00729721896024304,-0.0456518242460077,0.193907783632024));
#1504=CARTESIAN_POINT('',(-0.00729721896024304,-0.0456518242460077,0.195307783632024));
#1505=CARTESIAN_POINT('',(-0.027297218960243,-0.0486518242460077,0.193907783632024));
#1506=CARTESIAN_POINT('',(-0.027297218960243,-0.0456518242460077,0.193907783632024));
#1507=CARTESIAN_POINT('',(-0.027297218960243,-0.0456518242460077,0.192507783632024));
#1508=CARTESIAN_POINT('',(0.015653781039757,-0.0403488242460077,0.198039552473688));
#1509=CARTESIAN_POINT('',(0.010653781039757,-0.0477426940593833,0.198039552473688));
#1510=CARTESIAN_POINT('',(0.010653781039757,-0.0486477996627233,0.199098698541205));
#1511=CARTESIAN_POINT('',(0.0109718576153559,-0.0496661614711052,0.200030791253661));
#1512=CARTESIAN_POINT('',(0.0114939315220071,-0.0506728242460077,0.200813656291081));
#1513=CARTESIAN_POINT('',(-0.017297218960243,-0.0506728242460077,0.220013783632024));
#1514=CARTESIAN_POINT('',(-0.045248218960243,-0.0477426940593833,0.198039552473688));
#1515=CARTESIAN_POINT('',(-0.045248218960243,-0.0486477996627232,0.199098698541205));
#1516=CARTESIAN_POINT('',(-0.0455662955357841,-0.0496661614712029,0.200030791253573));
#1517=CARTESIAN_POINT('',(-0.0460883694424932,-0.0506728242460077,0.200813656291081));
#1518=CARTESIAN_POINT('',(-0.050248218960243,-0.0403488242460077,0.198039552473688));
#1519=CARTESIAN_POINT('',(-0.023897218960243,-0.0516518242460077,0.195407783632024));
#1520=CARTESIAN_POINT('',(-0.023897218960243,-0.0516518242460077,0.195407783632024));
#1521=CARTESIAN_POINT('',(-0.023897218960243,-0.0516518242460077,0.196907783632024));
#1522=CARTESIAN_POINT('',(-0.023897218960243,-0.0516518242460077,0.196907783632024));
#1523=CARTESIAN_POINT('',(-0.010697218960243,-0.0516518242460077,0.186407783632024));
#1524=CARTESIAN_POINT('',(-0.010697218960243,-0.0516518242460077,0.196907783632024));
#1525=CARTESIAN_POINT('',(-0.010697218960243,-0.0516518242460077,0.196907783632024));
#1526=CARTESIAN_POINT('',(-0.010697218960243,-0.0516518242460077,0.186407783632024));
#1527=CARTESIAN_POINT('',(-0.017297218960243,-0.0516518242460077,0.196907783632024));
#1528=CARTESIAN_POINT('',(-0.017297218960243,-0.0516518242460077,0.196907783632024));
#1529=CARTESIAN_POINT('',(-0.017297218960243,-0.0516518242460077,0.216763783632024));
#1530=CARTESIAN_POINT('',(-0.017297218960243,-0.0456518242460077,0.220013783632024));
#1531=CARTESIAN_POINT('',(-0.017297218960243,-0.0456518242460077,0.220013783632024));
#1532=MECHANICAL_DESIGN_GEOMETRIC_PRESENTATION_REPRESENTATION('',(#921),
#1533);
#1533=(
GEOMETRIC_REPRESENTATION_CONTEXT(3)
GLOBAL_UNCERTAINTY_ASSIGNED_CONTEXT((#1534))
GLOBAL_UNIT_ASSIGNED_CONTEXT((#1537,#1536,#1535))
REPRESENTATION_CONTEXT('tilt arm','TOP_LEVEL_ASSEMBLY_PART')
);
#1534=UNCERTAINTY_MEASURE_WITH_UNIT(LENGTH_MEASURE(5.E-6),#1537,
'DISTANCE_ACCURACY_VALUE','Maximum Tolerance applied to model');
#1535=(
NAMED_UNIT(*)
SI_UNIT($,.STERADIAN.)
SOLID_ANGLE_UNIT()
);
#1536=(
NAMED_UNIT(*)
PLANE_ANGLE_UNIT()
SI_UNIT($,.RADIAN.)
);
#1537=(
LENGTH_UNIT()
NAMED_UNIT(*)
SI_UNIT($,.METRE.)
);
#1538=PRODUCT_DEFINITION_SHAPE('','',#1539);
#1539=PRODUCT_DEFINITION('','',#1541,#1540);
#1540=PRODUCT_DEFINITION_CONTEXT('',#1547,'design');
#1541=PRODUCT_DEFINITION_FORMATION_WITH_SPECIFIED_SOURCE('','',#1543,
 .NOT_KNOWN.);
#1542=PRODUCT_RELATED_PRODUCT_CATEGORY('','',(#1543));
#1543=PRODUCT('tilt arm','tilt arm','tilt arm',(#1545));
#1544=PRODUCT_CATEGORY('','');
#1545=PRODUCT_CONTEXT('',#1547,'mechanical');
#1546=APPLICATION_PROTOCOL_DEFINITION('international standard',
'ap242_managed_model_based_3d_engineering',2011,#1547);
#1547=APPLICATION_CONTEXT('managed model based 3d engineering');
ENDSEC;
END-ISO-10303-21;
