ISO-10303-21;
HEADER;
/* Generated by software containing ST-Developer
 * from STEP Tools, Inc. (www.steptools.com) 
 */
/* OPTION: using custom renumber hook */

FILE_DESCRIPTION(
/* description */ ('STEP AP242',
'CAx-IF Rec.Pracs.---Representation and Presentation of Product Manufa
cturing Information (PMI)---4.0---2014-10-13',
'CAx-IF Rec.Pracs.---3D Tessellated Geometry---0.4---2014-09-14','2;1'),

/* implementation_level */ '2;1');

FILE_NAME(
/* name */ '66789d59b9c7367681b240eb',
/* time_stamp */ '2024-06-23T22:10:33Z',
/* author */ (''),
/* organization */ (''),
/* preprocessor_version */ 'ST-DEVELOPER v20',
/* originating_system */ '  ',
/* authorisation */ '  ');

FILE_SCHEMA (('AP242_MANAGED_MODEL_BASED_3D_ENGINEERING_MIM_LF { 1 0 10303 442 1 1 4 }'));
ENDSEC;

DATA;
#10=SHAPE_REPRESENTATION_RELATIONSHIP('','',#369,#11);
#11=ADVANCED_BREP_SHAPE_REPRESENTATION('',(#367),#654);
#12=B_SPLINE_CURVE_WITH_KNOTS('',3,(#550,#551,#552,#553,#554,#555,#556,
#557,#558,#559,#560,#561,#562,#563,#564,#565,#566,#567,#568),
 .UNSPECIFIED.,.F.,.F.,(4,1,1,1,1,1,1,1,1,1,1,1,1,1,1,1,4),(0.0262490630397535,
0.0281988231315306,0.0301485832233076,0.0320983433150846,0.0330732233609731,
0.0340481034068616,0.0359978634986386,0.0379476235904157,0.0398973836821927,
0.0418471437739697,0.0457466639575238,0.0476964240493008,0.0496461841410778,
0.0515959442328548,0.0535457043246319,0.0554954644164089,0.0574452245081859),
 .UNSPECIFIED.);
#13=B_SPLINE_CURVE_WITH_KNOTS('',3,(#591,#592,#593,#594,#595,#596,#597,
#598,#599,#600,#601,#602,#603,#604,#605,#606,#607,#608,#609,#610),
 .UNSPECIFIED.,.F.,.F.,(4,1,1,1,1,1,1,1,1,1,1,1,1,1,1,1,1,4),(0.027046338435975,
0.0290000023720343,0.0309536663080936,0.0329073302441529,0.0348609941802122,
0.0368146581162715,0.0387683220523308,0.0426756499244494,0.0446293138605088,
0.0465829777965681,0.0485366417326274,0.049513473700657,0.0504903056686867,
0.0514671376367163,0.052443969604746,0.0543976335408053,0.0563512974768646,
0.0583049614129239),.UNSPECIFIED.);
#14=CYLINDRICAL_SURFACE('',#380,0.034606);
#15=CYLINDRICAL_SURFACE('',#394,0.0025);
#16=CYLINDRICAL_SURFACE('',#396,0.0025);
#17=CYLINDRICAL_SURFACE('',#398,0.0045);
#18=CYLINDRICAL_SURFACE('',#401,0.0045);
#19=CYLINDRICAL_SURFACE('',#404,0.0055);
#20=CYLINDRICAL_SURFACE('',#405,0.002463225);
#21=CYLINDRICAL_SURFACE('',#409,0.0045);
#22=CIRCLE('',#372,0.034606);
#23=CIRCLE('',#374,0.0045);
#24=CIRCLE('',#375,0.034606);
#25=CIRCLE('',#377,0.034606);
#26=CIRCLE('',#379,0.034606);
#27=CIRCLE('',#381,0.034606);
#28=CIRCLE('',#382,0.034606);
#29=CIRCLE('',#384,0.0055);
#30=CIRCLE('',#385,0.0025);
#31=CIRCLE('',#386,0.0025);
#32=CIRCLE('',#388,0.002463225);
#33=CIRCLE('',#390,0.0055);
#34=CIRCLE('',#391,0.0045);
#35=CIRCLE('',#392,0.0045);
#36=CIRCLE('',#395,0.0025);
#37=CIRCLE('',#397,0.0025);
#38=CIRCLE('',#399,0.0045);
#39=CIRCLE('',#402,0.0045);
#40=CIRCLE('',#406,0.002463225);
#41=CIRCLE('',#408,0.0045);
#42=ORIENTED_EDGE('',*,*,#134,.T.);
#43=ORIENTED_EDGE('',*,*,#135,.F.);
#44=ORIENTED_EDGE('',*,*,#136,.F.);
#45=ORIENTED_EDGE('',*,*,#137,.F.);
#46=ORIENTED_EDGE('',*,*,#138,.F.);
#47=ORIENTED_EDGE('',*,*,#139,.F.);
#48=ORIENTED_EDGE('',*,*,#140,.F.);
#49=ORIENTED_EDGE('',*,*,#141,.F.);
#50=ORIENTED_EDGE('',*,*,#142,.T.);
#51=ORIENTED_EDGE('',*,*,#143,.F.);
#52=ORIENTED_EDGE('',*,*,#144,.F.);
#53=ORIENTED_EDGE('',*,*,#145,.T.);
#54=ORIENTED_EDGE('',*,*,#146,.F.);
#55=ORIENTED_EDGE('',*,*,#147,.T.);
#56=ORIENTED_EDGE('',*,*,#148,.F.);
#57=ORIENTED_EDGE('',*,*,#149,.F.);
#58=ORIENTED_EDGE('',*,*,#148,.T.);
#59=ORIENTED_EDGE('',*,*,#150,.F.);
#60=ORIENTED_EDGE('',*,*,#136,.T.);
#61=ORIENTED_EDGE('',*,*,#151,.T.);
#62=ORIENTED_EDGE('',*,*,#152,.T.);
#63=ORIENTED_EDGE('',*,*,#153,.T.);
#64=ORIENTED_EDGE('',*,*,#154,.F.);
#65=ORIENTED_EDGE('',*,*,#155,.T.);
#66=ORIENTED_EDGE('',*,*,#156,.T.);
#67=ORIENTED_EDGE('',*,*,#157,.F.);
#68=ORIENTED_EDGE('',*,*,#158,.F.);
#69=ORIENTED_EDGE('',*,*,#159,.F.);
#70=ORIENTED_EDGE('',*,*,#160,.T.);
#71=ORIENTED_EDGE('',*,*,#161,.T.);
#72=ORIENTED_EDGE('',*,*,#144,.T.);
#73=ORIENTED_EDGE('',*,*,#162,.F.);
#74=ORIENTED_EDGE('',*,*,#140,.T.);
#75=ORIENTED_EDGE('',*,*,#163,.F.);
#76=ORIENTED_EDGE('',*,*,#164,.T.);
#77=ORIENTED_EDGE('',*,*,#159,.T.);
#78=ORIENTED_EDGE('',*,*,#158,.T.);
#79=ORIENTED_EDGE('',*,*,#157,.T.);
#80=ORIENTED_EDGE('',*,*,#156,.F.);
#81=ORIENTED_EDGE('',*,*,#165,.T.);
#82=ORIENTED_EDGE('',*,*,#154,.T.);
#83=ORIENTED_EDGE('',*,*,#153,.F.);
#84=ORIENTED_EDGE('',*,*,#152,.F.);
#85=ORIENTED_EDGE('',*,*,#151,.F.);
#86=ORIENTED_EDGE('',*,*,#135,.T.);
#87=ORIENTED_EDGE('',*,*,#166,.F.);
#88=ORIENTED_EDGE('',*,*,#167,.F.);
#89=ORIENTED_EDGE('',*,*,#168,.F.);
#90=ORIENTED_EDGE('',*,*,#165,.F.);
#91=ORIENTED_EDGE('',*,*,#155,.F.);
#92=ORIENTED_EDGE('',*,*,#169,.F.);
#93=ORIENTED_EDGE('',*,*,#137,.T.);
#94=ORIENTED_EDGE('',*,*,#150,.T.);
#95=ORIENTED_EDGE('',*,*,#147,.F.);
#96=ORIENTED_EDGE('',*,*,#170,.F.);
#97=ORIENTED_EDGE('',*,*,#142,.F.);
#98=ORIENTED_EDGE('',*,*,#171,.F.);
#99=ORIENTED_EDGE('',*,*,#145,.F.);
#100=ORIENTED_EDGE('',*,*,#161,.F.);
#101=ORIENTED_EDGE('',*,*,#172,.T.);
#102=ORIENTED_EDGE('',*,*,#173,.F.);
#103=ORIENTED_EDGE('',*,*,#172,.F.);
#104=ORIENTED_EDGE('',*,*,#160,.F.);
#105=ORIENTED_EDGE('',*,*,#164,.F.);
#106=ORIENTED_EDGE('',*,*,#166,.T.);
#107=ORIENTED_EDGE('',*,*,#174,.F.);
#108=ORIENTED_EDGE('',*,*,#167,.T.);
#109=ORIENTED_EDGE('',*,*,#175,.F.);
#110=ORIENTED_EDGE('',*,*,#141,.T.);
#111=ORIENTED_EDGE('',*,*,#162,.T.);
#112=ORIENTED_EDGE('',*,*,#143,.T.);
#113=ORIENTED_EDGE('',*,*,#171,.T.);
#114=ORIENTED_EDGE('',*,*,#176,.T.);
#115=ORIENTED_EDGE('',*,*,#174,.T.);
#116=ORIENTED_EDGE('',*,*,#176,.F.);
#117=ORIENTED_EDGE('',*,*,#146,.T.);
#118=ORIENTED_EDGE('',*,*,#149,.T.);
#119=ORIENTED_EDGE('',*,*,#139,.T.);
#120=ORIENTED_EDGE('',*,*,#170,.T.);
#121=ORIENTED_EDGE('',*,*,#177,.T.);
#122=ORIENTED_EDGE('',*,*,#175,.T.);
#123=ORIENTED_EDGE('',*,*,#177,.F.);
#124=ORIENTED_EDGE('',*,*,#169,.T.);
#125=ORIENTED_EDGE('',*,*,#173,.T.);
#126=ORIENTED_EDGE('',*,*,#163,.T.);
#127=ORIENTED_EDGE('',*,*,#134,.F.);
#128=ORIENTED_EDGE('',*,*,#178,.T.);
#129=ORIENTED_EDGE('',*,*,#168,.T.);
#130=ORIENTED_EDGE('',*,*,#178,.F.);
#131=ORIENTED_EDGE('',*,*,#179,.T.);
#132=ORIENTED_EDGE('',*,*,#138,.T.);
#133=ORIENTED_EDGE('',*,*,#179,.F.);
#134=EDGE_CURVE('',#180,#181,#216,.T.);
#135=EDGE_CURVE('',#182,#181,#217,.T.);
#136=EDGE_CURVE('',#183,#182,#22,.T.);
#137=EDGE_CURVE('',#180,#183,#218,.T.);
#138=EDGE_CURVE('',#184,#184,#23,.F.);
#139=EDGE_CURVE('',#185,#186,#219,.T.);
#140=EDGE_CURVE('',#187,#185,#24,.T.);
#141=EDGE_CURVE('',#188,#187,#220,.F.);
#142=EDGE_CURVE('',#188,#186,#221,.T.);
#143=EDGE_CURVE('',#189,#190,#222,.T.);
#144=EDGE_CURVE('',#191,#189,#25,.T.);
#145=EDGE_CURVE('',#191,#190,#223,.T.);
#146=EDGE_CURVE('',#192,#193,#224,.F.);
#147=EDGE_CURVE('',#192,#194,#225,.T.);
#148=EDGE_CURVE('',#193,#194,#26,.T.);
#149=EDGE_CURVE('',#193,#185,#12,.T.);
#150=EDGE_CURVE('',#183,#194,#226,.T.);
#151=EDGE_CURVE('',#182,#195,#227,.T.);
#152=EDGE_CURVE('',#195,#196,#228,.T.);
#153=EDGE_CURVE('',#196,#197,#229,.T.);
#154=EDGE_CURVE('',#198,#197,#230,.T.);
#155=EDGE_CURVE('',#198,#199,#27,.T.);
#156=EDGE_CURVE('',#199,#200,#231,.T.);
#157=EDGE_CURVE('',#201,#200,#232,.T.);
#158=EDGE_CURVE('',#202,#201,#233,.T.);
#159=EDGE_CURVE('',#203,#202,#234,.T.);
#160=EDGE_CURVE('',#203,#204,#28,.T.);
#161=EDGE_CURVE('',#204,#191,#235,.T.);
#162=EDGE_CURVE('',#187,#189,#13,.T.);
#163=EDGE_CURVE('',#205,#181,#29,.T.);
#164=EDGE_CURVE('',#205,#203,#236,.T.);
#165=EDGE_CURVE('',#199,#198,#237,.T.);
#166=EDGE_CURVE('',#206,#206,#30,.T.);
#167=EDGE_CURVE('',#207,#207,#31,.T.);
#168=EDGE_CURVE('',#208,#208,#32,.T.);
#169=EDGE_CURVE('',#180,#209,#33,.T.);
#170=EDGE_CURVE('',#186,#192,#34,.T.);
#171=EDGE_CURVE('',#190,#188,#35,.T.);
#172=EDGE_CURVE('',#204,#209,#238,.T.);
#173=EDGE_CURVE('',#209,#205,#239,.T.);
#174=EDGE_CURVE('',#210,#210,#36,.T.);
#175=EDGE_CURVE('',#211,#211,#37,.T.);
#176=EDGE_CURVE('',#212,#212,#38,.T.);
#177=EDGE_CURVE('',#213,#213,#39,.T.);
#178=EDGE_CURVE('',#214,#214,#40,.F.);
#179=EDGE_CURVE('',#215,#215,#41,.F.);
#180=VERTEX_POINT('',#517);
#181=VERTEX_POINT('',#518);
#182=VERTEX_POINT('',#520);
#183=VERTEX_POINT('',#522);
#184=VERTEX_POINT('',#526);
#185=VERTEX_POINT('',#528);
#186=VERTEX_POINT('',#529);
#187=VERTEX_POINT('',#531);
#188=VERTEX_POINT('',#533);
#189=VERTEX_POINT('',#537);
#190=VERTEX_POINT('',#538);
#191=VERTEX_POINT('',#540);
#192=VERTEX_POINT('',#544);
#193=VERTEX_POINT('',#545);
#194=VERTEX_POINT('',#547);
#195=VERTEX_POINT('',#571);
#196=VERTEX_POINT('',#573);
#197=VERTEX_POINT('',#575);
#198=VERTEX_POINT('',#577);
#199=VERTEX_POINT('',#579);
#200=VERTEX_POINT('',#581);
#201=VERTEX_POINT('',#583);
#202=VERTEX_POINT('',#585);
#203=VERTEX_POINT('',#587);
#204=VERTEX_POINT('',#589);
#205=VERTEX_POINT('',#613);
#206=VERTEX_POINT('',#617);
#207=VERTEX_POINT('',#619);
#208=VERTEX_POINT('',#622);
#209=VERTEX_POINT('',#625);
#210=VERTEX_POINT('',#633);
#211=VERTEX_POINT('',#636);
#212=VERTEX_POINT('',#639);
#213=VERTEX_POINT('',#643);
#214=VERTEX_POINT('',#648);
#215=VERTEX_POINT('',#651);
#216=LINE('',#516,#240);
#217=LINE('',#519,#241);
#218=LINE('',#523,#242);
#219=LINE('',#527,#243);
#220=LINE('',#532,#244);
#221=LINE('',#534,#245);
#222=LINE('',#536,#246);
#223=LINE('',#541,#247);
#224=LINE('',#543,#248);
#225=LINE('',#546,#249);
#226=LINE('',#569,#250);
#227=LINE('',#570,#251);
#228=LINE('',#572,#252);
#229=LINE('',#574,#253);
#230=LINE('',#576,#254);
#231=LINE('',#580,#255);
#232=LINE('',#582,#256);
#233=LINE('',#584,#257);
#234=LINE('',#586,#258);
#235=LINE('',#590,#259);
#236=LINE('',#614,#260);
#237=LINE('',#615,#261);
#238=LINE('',#628,#262);
#239=LINE('',#630,#263);
#240=VECTOR('',#414,1.);
#241=VECTOR('',#415,1.);
#242=VECTOR('',#418,1.);
#243=VECTOR('',#423,1.);
#244=VECTOR('',#426,1.);
#245=VECTOR('',#427,1.);
#246=VECTOR('',#430,1.);
#247=VECTOR('',#433,1.);
#248=VECTOR('',#436,1.);
#249=VECTOR('',#437,1.);
#250=VECTOR('',#442,1.);
#251=VECTOR('',#443,1.);
#252=VECTOR('',#444,1.);
#253=VECTOR('',#445,1.);
#254=VECTOR('',#446,1.);
#255=VECTOR('',#449,1.);
#256=VECTOR('',#450,1.);
#257=VECTOR('',#451,1.);
#258=VECTOR('',#452,1.);
#259=VECTOR('',#455,1.);
#260=VECTOR('',#460,1.);
#261=VECTOR('',#461,1.);
#262=VECTOR('',#478,1.);
#263=VECTOR('',#481,1.);
#264=EDGE_LOOP('',(#42,#43,#44,#45));
#265=EDGE_LOOP('',(#46));
#266=EDGE_LOOP('',(#47,#48,#49,#50));
#267=EDGE_LOOP('',(#51,#52,#53));
#268=EDGE_LOOP('',(#54,#55,#56));
#269=EDGE_LOOP('',(#57,#58,#59,#60,#61,#62,#63,#64,#65,#66,#67,#68,#69,
#70,#71,#72,#73,#74));
#270=EDGE_LOOP('',(#75,#76,#77,#78,#79,#80,#81,#82,#83,#84,#85,#86));
#271=EDGE_LOOP('',(#87));
#272=EDGE_LOOP('',(#88));
#273=EDGE_LOOP('',(#89));
#274=EDGE_LOOP('',(#90,#91));
#275=EDGE_LOOP('',(#92,#93,#94,#95,#96,#97,#98,#99,#100,#101));
#276=EDGE_LOOP('',(#102,#103,#104,#105));
#277=EDGE_LOOP('',(#106));
#278=EDGE_LOOP('',(#107));
#279=EDGE_LOOP('',(#108));
#280=EDGE_LOOP('',(#109));
#281=EDGE_LOOP('',(#110,#111,#112,#113));
#282=EDGE_LOOP('',(#114));
#283=EDGE_LOOP('',(#115));
#284=EDGE_LOOP('',(#116));
#285=EDGE_LOOP('',(#117,#118,#119,#120));
#286=EDGE_LOOP('',(#121));
#287=EDGE_LOOP('',(#122));
#288=EDGE_LOOP('',(#123));
#289=EDGE_LOOP('',(#124,#125,#126,#127));
#290=EDGE_LOOP('',(#128));
#291=EDGE_LOOP('',(#129));
#292=EDGE_LOOP('',(#130));
#293=EDGE_LOOP('',(#131));
#294=EDGE_LOOP('',(#132));
#295=EDGE_LOOP('',(#133));
#296=FACE_BOUND('',#264,.T.);
#297=FACE_BOUND('',#265,.T.);
#298=FACE_BOUND('',#266,.T.);
#299=FACE_BOUND('',#267,.T.);
#300=FACE_BOUND('',#268,.T.);
#301=FACE_BOUND('',#269,.T.);
#302=FACE_BOUND('',#270,.T.);
#303=FACE_BOUND('',#271,.T.);
#304=FACE_BOUND('',#272,.T.);
#305=FACE_BOUND('',#273,.T.);
#306=FACE_BOUND('',#274,.T.);
#307=FACE_BOUND('',#275,.T.);
#308=FACE_BOUND('',#276,.T.);
#309=FACE_BOUND('',#277,.T.);
#310=FACE_BOUND('',#278,.T.);
#311=FACE_BOUND('',#279,.T.);
#312=FACE_BOUND('',#280,.T.);
#313=FACE_BOUND('',#281,.T.);
#314=FACE_BOUND('',#282,.T.);
#315=FACE_BOUND('',#283,.T.);
#316=FACE_BOUND('',#284,.T.);
#317=FACE_BOUND('',#285,.T.);
#318=FACE_BOUND('',#286,.T.);
#319=FACE_BOUND('',#287,.T.);
#320=FACE_BOUND('',#288,.T.);
#321=FACE_BOUND('',#289,.T.);
#322=FACE_BOUND('',#290,.T.);
#323=FACE_BOUND('',#291,.T.);
#324=FACE_BOUND('',#292,.T.);
#325=FACE_BOUND('',#293,.T.);
#326=FACE_BOUND('',#294,.T.);
#327=FACE_BOUND('',#295,.T.);
#328=PLANE('',#371);
#329=PLANE('',#373);
#330=PLANE('',#376);
#331=PLANE('',#378);
#332=PLANE('',#383);
#333=PLANE('',#387);
#334=PLANE('',#389);
#335=PLANE('',#393);
#336=PLANE('',#400);
#337=PLANE('',#403);
#338=PLANE('',#407);
#339=ADVANCED_FACE('',(#296),#328,.T.);
#340=ADVANCED_FACE('',(#297,#298),#329,.T.);
#341=ADVANCED_FACE('',(#299),#330,.T.);
#342=ADVANCED_FACE('',(#300),#331,.T.);
#343=ADVANCED_FACE('',(#301),#14,.T.);
#344=ADVANCED_FACE('',(#302,#303,#304),#332,.T.);
#345=ADVANCED_FACE('',(#305,#306),#333,.F.);
#346=ADVANCED_FACE('',(#307),#334,.T.);
#347=ADVANCED_FACE('',(#308),#335,.T.);
#348=ADVANCED_FACE('',(#309,#310),#15,.F.);
#349=ADVANCED_FACE('',(#311,#312),#16,.F.);
#350=ADVANCED_FACE('',(#313,#314),#17,.T.);
#351=ADVANCED_FACE('',(#315,#316),#336,.F.);
#352=ADVANCED_FACE('',(#317,#318),#18,.T.);
#353=ADVANCED_FACE('',(#319,#320),#337,.F.);
#354=ADVANCED_FACE('',(#321),#19,.F.);
#355=ADVANCED_FACE('',(#322,#323),#20,.F.);
#356=ADVANCED_FACE('',(#324,#325),#338,.F.);
#357=ADVANCED_FACE('',(#326,#327),#21,.F.);
#358=CLOSED_SHELL('',(#339,#340,#341,#342,#343,#344,#345,#346,#347,#348,
#349,#350,#351,#352,#353,#354,#355,#356,#357));
#359=STYLED_ITEM('',(#360),#367);
#360=PRESENTATION_STYLE_ASSIGNMENT((#361));
#361=SURFACE_STYLE_USAGE(.BOTH.,#362);
#362=SURFACE_SIDE_STYLE('',(#363));
#363=SURFACE_STYLE_FILL_AREA(#364);
#364=FILL_AREA_STYLE('',(#365));
#365=FILL_AREA_STYLE_COLOUR('',#366);
#366=COLOUR_RGB('',0.972549019607843,0.529411764705882,0.00392156862745098);
#367=MANIFOLD_SOLID_BREP('tilt motor brace',#358);
#368=SHAPE_DEFINITION_REPRESENTATION(#659,#369);
#369=SHAPE_REPRESENTATION('tilt motor brace',(#370),#654);
#370=AXIS2_PLACEMENT_3D('',#514,#410,#411);
#371=AXIS2_PLACEMENT_3D('',#515,#412,#413);
#372=AXIS2_PLACEMENT_3D('',#521,#416,#417);
#373=AXIS2_PLACEMENT_3D('',#524,#419,#420);
#374=AXIS2_PLACEMENT_3D('',#525,#421,#422);
#375=AXIS2_PLACEMENT_3D('',#530,#424,#425);
#376=AXIS2_PLACEMENT_3D('',#535,#428,#429);
#377=AXIS2_PLACEMENT_3D('',#539,#431,#432);
#378=AXIS2_PLACEMENT_3D('',#542,#434,#435);
#379=AXIS2_PLACEMENT_3D('',#548,#438,#439);
#380=AXIS2_PLACEMENT_3D('',#549,#440,#441);
#381=AXIS2_PLACEMENT_3D('',#578,#447,#448);
#382=AXIS2_PLACEMENT_3D('',#588,#453,#454);
#383=AXIS2_PLACEMENT_3D('',#611,#456,#457);
#384=AXIS2_PLACEMENT_3D('',#612,#458,#459);
#385=AXIS2_PLACEMENT_3D('',#616,#462,#463);
#386=AXIS2_PLACEMENT_3D('',#618,#464,#465);
#387=AXIS2_PLACEMENT_3D('',#620,#466,#467);
#388=AXIS2_PLACEMENT_3D('',#621,#468,#469);
#389=AXIS2_PLACEMENT_3D('',#623,#470,#471);
#390=AXIS2_PLACEMENT_3D('',#624,#472,#473);
#391=AXIS2_PLACEMENT_3D('',#626,#474,#475);
#392=AXIS2_PLACEMENT_3D('',#627,#476,#477);
#393=AXIS2_PLACEMENT_3D('',#629,#479,#480);
#394=AXIS2_PLACEMENT_3D('',#631,#482,#483);
#395=AXIS2_PLACEMENT_3D('',#632,#484,#485);
#396=AXIS2_PLACEMENT_3D('',#634,#486,#487);
#397=AXIS2_PLACEMENT_3D('',#635,#488,#489);
#398=AXIS2_PLACEMENT_3D('',#637,#490,#491);
#399=AXIS2_PLACEMENT_3D('',#638,#492,#493);
#400=AXIS2_PLACEMENT_3D('',#640,#494,#495);
#401=AXIS2_PLACEMENT_3D('',#641,#496,#497);
#402=AXIS2_PLACEMENT_3D('',#642,#498,#499);
#403=AXIS2_PLACEMENT_3D('',#644,#500,#501);
#404=AXIS2_PLACEMENT_3D('',#645,#502,#503);
#405=AXIS2_PLACEMENT_3D('',#646,#504,#505);
#406=AXIS2_PLACEMENT_3D('',#647,#506,#507);
#407=AXIS2_PLACEMENT_3D('',#649,#508,#509);
#408=AXIS2_PLACEMENT_3D('',#650,#510,#511);
#409=AXIS2_PLACEMENT_3D('',#652,#512,#513);
#410=DIRECTION('',(0.,0.,1.));
#411=DIRECTION('',(1.,0.,0.));
#412=DIRECTION('',(0.,0.,1.));
#413=DIRECTION('',(0.,1.,0.));
#414=DIRECTION('',(0.,1.,0.));
#415=DIRECTION('',(1.,0.,0.));
#416=DIRECTION('',(0.,0.,-1.));
#417=DIRECTION('',(1.,0.,0.));
#418=DIRECTION('',(-1.,-6.44189241248942E-17,0.));
#419=DIRECTION('',(0.,0.,1.));
#420=DIRECTION('',(0.,1.,0.));
#421=DIRECTION('',(0.,0.,-1.));
#422=DIRECTION('',(-1.,0.,0.));
#423=DIRECTION('',(0.,1.,0.));
#424=DIRECTION('',(0.,0.,-1.));
#425=DIRECTION('',(1.,0.,0.));
#426=DIRECTION('',(0.,1.,0.));
#427=DIRECTION('',(-1.,-6.44189241248942E-17,0.));
#428=DIRECTION('',(0.,0.,1.));
#429=DIRECTION('',(0.,1.,0.));
#430=DIRECTION('',(0.,1.,0.));
#431=DIRECTION('',(0.,0.,-1.));
#432=DIRECTION('',(1.,0.,0.));
#433=DIRECTION('',(-1.,-6.44189241248942E-17,0.));
#434=DIRECTION('',(0.,0.,1.));
#435=DIRECTION('',(0.,1.,0.));
#436=DIRECTION('',(0.,1.,0.));
#437=DIRECTION('',(-1.,-6.44189241248942E-17,0.));
#438=DIRECTION('',(0.,0.,-1.));
#439=DIRECTION('',(1.,0.,0.));
#440=DIRECTION('',(0.,0.,-1.));
#441=DIRECTION('',(-1.,0.,0.));
#442=DIRECTION('',(0.,0.,-1.));
#443=DIRECTION('',(0.,0.,-1.));
#444=DIRECTION('',(0.,0.,-1.));
#445=DIRECTION('',(0.,0.,-1.));
#446=DIRECTION('',(0.,0.,1.));
#447=DIRECTION('',(0.,0.,1.));
#448=DIRECTION('',(1.,0.,0.));
#449=DIRECTION('',(0.,0.,1.));
#450=DIRECTION('',(0.,0.,-1.));
#451=DIRECTION('',(0.,0.,-1.));
#452=DIRECTION('',(0.,0.,-1.));
#453=DIRECTION('',(0.,0.,-1.));
#454=DIRECTION('',(1.,0.,0.));
#455=DIRECTION('',(0.,0.,-1.));
#456=DIRECTION('',(0.,1.,0.));
#457=DIRECTION('',(1.,0.,0.));
#458=DIRECTION('',(0.,1.,0.));
#459=DIRECTION('',(-1.,0.,0.));
#460=DIRECTION('',(1.,0.,0.));
#461=DIRECTION('',(-1.,0.,0.));
#462=DIRECTION('',(0.,1.,0.));
#463=DIRECTION('',(-1.,0.,0.));
#464=DIRECTION('',(0.,1.,0.));
#465=DIRECTION('',(-1.,0.,0.));
#466=DIRECTION('',(0.,0.,1.));
#467=DIRECTION('',(1.,0.,0.));
#468=DIRECTION('',(0.,0.,-1.));
#469=DIRECTION('',(-1.,0.,0.));
#470=DIRECTION('',(6.44189241248942E-17,-1.,0.));
#471=DIRECTION('',(1.,6.44189241248942E-17,0.));
#472=DIRECTION('',(6.44189241248942E-17,-1.,0.));
#473=DIRECTION('',(1.,6.44189241248942E-17,0.));
#474=DIRECTION('',(6.44189241248942E-17,-1.,0.));
#475=DIRECTION('',(1.,6.44189241248942E-17,0.));
#476=DIRECTION('',(6.44189241248942E-17,-1.,0.));
#477=DIRECTION('',(1.,6.44189241248942E-17,0.));
#478=DIRECTION('',(-1.,-6.44189241248942E-17,0.));
#479=DIRECTION('',(0.,0.,1.));
#480=DIRECTION('',(0.,1.,0.));
#481=DIRECTION('',(0.,1.,0.));
#482=DIRECTION('',(0.,1.,0.));
#483=DIRECTION('',(-1.,0.,0.));
#484=DIRECTION('',(0.,1.,0.));
#485=DIRECTION('',(-1.,0.,0.));
#486=DIRECTION('',(0.,1.,0.));
#487=DIRECTION('',(-1.,0.,0.));
#488=DIRECTION('',(0.,1.,0.));
#489=DIRECTION('',(-1.,0.,0.));
#490=DIRECTION('',(0.,1.,0.));
#491=DIRECTION('',(-1.,0.,0.));
#492=DIRECTION('',(0.,1.,0.));
#493=DIRECTION('',(-1.,0.,0.));
#494=DIRECTION('',(0.,1.,0.));
#495=DIRECTION('',(0.,0.,-1.));
#496=DIRECTION('',(0.,1.,0.));
#497=DIRECTION('',(-1.,0.,0.));
#498=DIRECTION('',(0.,1.,0.));
#499=DIRECTION('',(-1.,0.,0.));
#500=DIRECTION('',(0.,1.,0.));
#501=DIRECTION('',(0.,0.,-1.));
#502=DIRECTION('',(0.,1.,0.));
#503=DIRECTION('',(-1.,0.,0.));
#504=DIRECTION('',(0.,0.,-1.));
#505=DIRECTION('',(-1.,0.,0.));
#506=DIRECTION('',(0.,0.,-1.));
#507=DIRECTION('',(-1.,0.,0.));
#508=DIRECTION('',(0.,0.,-1.));
#509=DIRECTION('',(0.,-1.,0.));
#510=DIRECTION('',(0.,0.,-1.));
#511=DIRECTION('',(-1.,0.,0.));
#512=DIRECTION('',(0.,0.,-1.));
#513=DIRECTION('',(-1.,0.,0.));
#514=CARTESIAN_POINT('',(0.,0.,0.));
#515=CARTESIAN_POINT('',(-0.0172839025000542,-0.108207287074657,0.128801026004728));
#516=CARTESIAN_POINT('',(-0.0209499630560188,-0.125172824246008,0.128801026004728));
#517=CARTESIAN_POINT('',(-0.0209499630560188,-0.103371400288967,0.128801026004728));
#518=CARTESIAN_POINT('',(-0.0209499630560188,-0.100172824246008,0.128801026004728));
#519=CARTESIAN_POINT('',(-0.00126435786785777,-0.100172824246008,0.128801026004728));
#520=CARTESIAN_POINT('',(-0.0465066945375312,-0.100172824246008,0.128801026004728));
#521=CARTESIAN_POINT('',(-0.0172839025000542,-0.0816362749033072,0.128801026004728));
#522=CARTESIAN_POINT('',(-0.0442126893362572,-0.103371400288967,0.128801026004728));
#523=CARTESIAN_POINT('',(-0.0172839025000542,-0.103371400288967,0.128801026004728));
#524=CARTESIAN_POINT('',(-0.0172839025000542,-0.108207287074657,0.113801026004728));
#525=CARTESIAN_POINT('',(-0.0172839025000542,-0.109371400288967,0.113801026004728));
#526=CARTESIAN_POINT('',(-0.0217839025000542,-0.109371400288967,0.113801026004728));
#527=CARTESIAN_POINT('',(-0.0398405043868486,-0.111172824246008,0.113801026004728));
#528=CARTESIAN_POINT('',(-0.0398405043868486,-0.107880797137874,0.113801026004728));
#529=CARTESIAN_POINT('',(-0.0398405043868486,-0.103371400288967,0.113801026004728));
#530=CARTESIAN_POINT('',(-0.0172839025000542,-0.0816362749033072,0.113801026004728));
#531=CARTESIAN_POINT('',(0.00527269938674016,-0.107880797137874,0.113801026004728));
#532=CARTESIAN_POINT('',(0.00527269938674016,-0.111172824246008,0.113801026004728));
#533=CARTESIAN_POINT('',(0.00527269938674016,-0.103371400288967,0.113801026004728));
#534=CARTESIAN_POINT('',(-0.0172839025000542,-0.103371400288967,0.113801026004728));
#535=CARTESIAN_POINT('',(-0.0172839025000542,-0.108207287074657,0.113801026004728));
#536=CARTESIAN_POINT('',(0.00715949561315141,-0.111172824246008,0.113801026004728));
#537=CARTESIAN_POINT('',(0.00715949561315141,-0.106133122142887,0.113801026004728));
#538=CARTESIAN_POINT('',(0.00715949561315141,-0.103371400288967,0.113801026004728));
#539=CARTESIAN_POINT('',(-0.0172839025000542,-0.0816362749033072,0.113801026004728));
#540=CARTESIAN_POINT('',(0.00964488433614877,-0.103371400288967,0.113801026004728));
#541=CARTESIAN_POINT('',(-0.0172839025000542,-0.103371400288967,0.113801026004728));
#542=CARTESIAN_POINT('',(-0.0172839025000542,-0.108207287074657,0.113801026004728));
#543=CARTESIAN_POINT('',(-0.0417273006132599,-0.111172824246008,0.113801026004728));
#544=CARTESIAN_POINT('',(-0.0417273006132599,-0.103371400288967,0.113801026004728));
#545=CARTESIAN_POINT('',(-0.0417273006132599,-0.106133122142887,0.113801026004728));
#546=CARTESIAN_POINT('',(-0.0172839025000542,-0.103371400288967,0.113801026004728));
#547=CARTESIAN_POINT('',(-0.0442126893362572,-0.103371400288967,0.113801026004728));
#548=CARTESIAN_POINT('',(-0.0172839025000542,-0.0816362749033072,0.113801026004728));
#549=CARTESIAN_POINT('',(-0.0172839025000542,-0.0816362749033072,0.110801026004728));
#550=CARTESIAN_POINT('',(-0.0417273006132599,-0.106133122142887,0.113801026004728));
#551=CARTESIAN_POINT('',(-0.0421845005471605,-0.105676919763358,0.113702998378592));
#552=CARTESIAN_POINT('',(-0.0430547056259079,-0.104756997472782,0.113369295299323));
#553=CARTESIAN_POINT('',(-0.0441901494575868,-0.103420121253785,0.112467759789555));
#554=CARTESIAN_POINT('',(-0.0449287028029269,-0.102458157823421,0.111323259385325));
#555=CARTESIAN_POINT('',(-0.0452621706766902,-0.10200314234213,0.110121572928597));
#556=CARTESIAN_POINT('',(-0.0453282632858264,-0.101911354497681,0.108774573772232));
#557=CARTESIAN_POINT('',(-0.0448641184950372,-0.102552262336491,0.107262062121613));
#558=CARTESIAN_POINT('',(-0.043892832698256,-0.103784147822098,0.10604235584433));
#559=CARTESIAN_POINT('',(-0.0427123803853416,-0.105133258598131,0.105256567999843));
#560=CARTESIAN_POINT('',(-0.0409202459439289,-0.106973924348311,0.104735274872882));
#561=CARTESIAN_POINT('',(-0.0388828849790068,-0.108721188432155,0.10506483409426));
#562=CARTESIAN_POINT('',(-0.0371126266280482,-0.110008989010086,0.106590631561871));
#563=CARTESIAN_POINT('',(-0.0362645208595489,-0.110573604940517,0.10832833287895));
#564=CARTESIAN_POINT('',(-0.0362389707585015,-0.110589891958374,0.110367085526706));
#565=CARTESIAN_POINT('',(-0.0370550979834715,-0.110048980527883,0.112138080137067));
#566=CARTESIAN_POINT('',(-0.0383726681507355,-0.109093828115456,0.113318444589414));
#567=CARTESIAN_POINT('',(-0.0393499096731775,-0.108302452733093,0.113695838248541));
#568=CARTESIAN_POINT('',(-0.0398405043868486,-0.107880797137874,0.113801026004728));
#569=CARTESIAN_POINT('',(-0.0442126893362572,-0.103371400288967,0.128801026004728));
#570=CARTESIAN_POINT('',(-0.0465066945375312,-0.100172824246008,0.128801026004728));
#571=CARTESIAN_POINT('',(-0.0465066945375312,-0.100172824246008,0.113801026004728));
#572=CARTESIAN_POINT('',(-0.0465066945375312,-0.100172824246008,0.113801026004728));
#573=CARTESIAN_POINT('',(-0.0465066945375312,-0.100172824246008,0.110801026004728));
#574=CARTESIAN_POINT('',(-0.0465066945375312,-0.100172824246008,0.110801026004728));
#575=CARTESIAN_POINT('',(-0.0465066945375312,-0.100172824246008,0.106301026004728));
#576=CARTESIAN_POINT('',(-0.0465066945375312,-0.100172824246008,0.104799026004728));
#577=CARTESIAN_POINT('',(-0.0465066945375312,-0.100172824246008,0.104801026004728));
#578=CARTESIAN_POINT('',(-0.0172839025000542,-0.0816362749033072,0.104801026004728));
#579=CARTESIAN_POINT('',(0.0119388895374228,-0.100172824246008,0.104801026004728));
#580=CARTESIAN_POINT('',(0.0119388895374228,-0.100172824246008,0.104799026004728));
#581=CARTESIAN_POINT('',(0.0119388895374228,-0.100172824246008,0.106301026004728));
#582=CARTESIAN_POINT('',(0.0119388895374228,-0.100172824246008,0.110801026004728));
#583=CARTESIAN_POINT('',(0.0119388895374228,-0.100172824246008,0.110801026004728));
#584=CARTESIAN_POINT('',(0.0119388895374228,-0.100172824246008,0.113801026004728));
#585=CARTESIAN_POINT('',(0.0119388895374228,-0.100172824246008,0.113801026004728));
#586=CARTESIAN_POINT('',(0.0119388895374228,-0.100172824246008,0.128801026004728));
#587=CARTESIAN_POINT('',(0.0119388895374228,-0.100172824246008,0.128801026004728));
#588=CARTESIAN_POINT('',(-0.0172839025000542,-0.0816362749033072,0.128801026004728));
#589=CARTESIAN_POINT('',(0.00964488433614877,-0.103371400288967,0.128801026004728));
#590=CARTESIAN_POINT('',(0.00964488433614877,-0.103371400288967,0.128801026004728));
#591=CARTESIAN_POINT('',(0.00527269938674011,-0.107880797137874,0.113801026004728));
#592=CARTESIAN_POINT('',(0.00478687012359067,-0.108298356930956,0.113696860002411));
#593=CARTESIAN_POINT('',(0.00380068336985795,-0.109097158544237,0.113316400786675));
#594=CARTESIAN_POINT('',(0.00249321265810003,-0.110044670035607,0.112142724010551));
#595=CARTESIAN_POINT('',(0.00167472685035371,-0.110587647604995,0.110382362342394));
#596=CARTESIAN_POINT('',(0.00169272566752559,-0.110576190538111,0.10833933978177));
#597=CARTESIAN_POINT('',(0.0025433435097075,-0.110010087710592,0.106591111319623));
#598=CARTESIAN_POINT('',(0.00431565731361209,-0.108720741507009,0.105064826352689));
#599=CARTESIAN_POINT('',(0.00635375912918194,-0.106973085907711,0.104733742993171));
#600=CARTESIAN_POINT('',(0.00815087685011325,-0.105126367561205,0.10526035922831));
#601=CARTESIAN_POINT('',(0.0093248473481658,-0.103784238948351,0.106040271408026));
#602=CARTESIAN_POINT('',(0.0101382827280786,-0.102752803696258,0.107070202551108));
#603=CARTESIAN_POINT('',(0.0105770395231794,-0.102164319568869,0.108167415546811));
#604=CARTESIAN_POINT('',(0.0107447121862959,-0.101933319413388,0.10912709938715));
#605=CARTESIAN_POINT('',(0.0106930136940019,-0.102004972326256,0.110126407041881));
#606=CARTESIAN_POINT('',(0.0103589683563743,-0.102460808112649,0.111328702513977));
#607=CARTESIAN_POINT('',(0.00961685492239389,-0.103426687782958,0.112472417650544));
#608=CARTESIAN_POINT('',(0.00849020567878513,-0.104753331468212,0.113367413783454));
#609=CARTESIAN_POINT('',(0.00761379807225558,-0.105679810916219,0.113703619622286));
#610=CARTESIAN_POINT('',(0.00715949561315149,-0.106133122142887,0.113801026004728));
#611=CARTESIAN_POINT('',(-0.00126435786785777,-0.100172824246008,0.110801026004728));
#612=CARTESIAN_POINT('',(-0.0172839025000542,-0.100172824246008,0.132901026004728));
#613=CARTESIAN_POINT('',(-0.0136178419440895,-0.100172824246008,0.128801026004728));
#614=CARTESIAN_POINT('',(-0.00126435786785777,-0.100172824246008,0.128801026004728));
#615=CARTESIAN_POINT('',(-0.00126435786785777,-0.100172824246008,0.104801026004728));
#616=CARTESIAN_POINT('',(0.00621609749994579,-0.100172824246008,0.109401026004728));
#617=CARTESIAN_POINT('',(0.00371609749994579,-0.100172824246008,0.109401026004728));
#618=CARTESIAN_POINT('',(-0.0407839025000542,-0.100172824246008,0.109401026004728));
#619=CARTESIAN_POINT('',(-0.0432839025000542,-0.100172824246008,0.109401026004728));
#620=CARTESIAN_POINT('',(-0.0342839025000542,-0.0456728242460077,0.104801026004728));
#621=CARTESIAN_POINT('',(-0.0172839025000542,-0.109371400288967,0.104801026004728));
#622=CARTESIAN_POINT('',(-0.0197471275000542,-0.109371400288967,0.104801026004728));
#623=CARTESIAN_POINT('',(-0.0172839025000542,-0.103371400288967,0.128801026004728));
#624=CARTESIAN_POINT('',(-0.0172839025000542,-0.103371400288967,0.132901026004728));
#625=CARTESIAN_POINT('',(-0.0136178419440895,-0.103371400288967,0.128801026004728));
#626=CARTESIAN_POINT('',(-0.0407839025000542,-0.103371400288967,0.109401026004728));
#627=CARTESIAN_POINT('',(0.00621609749994579,-0.103371400288967,0.109401026004728));
#628=CARTESIAN_POINT('',(-0.0172839025000542,-0.103371400288967,0.128801026004728));
#629=CARTESIAN_POINT('',(-0.0172839025000542,-0.108207287074657,0.128801026004728));
#630=CARTESIAN_POINT('',(-0.0136178419440895,-0.125172824246008,0.128801026004728));
#631=CARTESIAN_POINT('',(0.00621609749994579,-0.125172824246008,0.109401026004728));
#632=CARTESIAN_POINT('',(0.00621609749994579,-0.111172824246008,0.109401026004728));
#633=CARTESIAN_POINT('',(0.00371609749994579,-0.111172824246008,0.109401026004728));
#634=CARTESIAN_POINT('',(-0.0407839025000542,-0.125172824246008,0.109401026004728));
#635=CARTESIAN_POINT('',(-0.0407839025000542,-0.111172824246008,0.109401026004728));
#636=CARTESIAN_POINT('',(-0.0432839025000542,-0.111172824246008,0.109401026004728));
#637=CARTESIAN_POINT('',(0.00621609749994579,-0.111172824246008,0.109401026004728));
#638=CARTESIAN_POINT('',(0.00621609749994579,-0.111172824246008,0.109401026004728));
#639=CARTESIAN_POINT('',(0.00171609749994579,-0.111172824246008,0.109401026004728));
#640=CARTESIAN_POINT('',(-0.0172839025000542,-0.111172824246008,0.116801026004728));
#641=CARTESIAN_POINT('',(-0.0407839025000542,-0.111172824246008,0.109401026004728));
#642=CARTESIAN_POINT('',(-0.0407839025000542,-0.111172824246008,0.109401026004728));
#643=CARTESIAN_POINT('',(-0.0452839025000542,-0.111172824246008,0.109401026004728));
#644=CARTESIAN_POINT('',(-0.0172839025000542,-0.111172824246008,0.116801026004728));
#645=CARTESIAN_POINT('',(-0.0172839025000542,-0.125172824246008,0.132901026004728));
#646=CARTESIAN_POINT('',(-0.0172839025000542,-0.109371400288967,0.110801026004728));
#647=CARTESIAN_POINT('',(-0.0172839025000542,-0.109371400288967,0.110801026004728));
#648=CARTESIAN_POINT('',(-0.0197471275000542,-0.109371400288967,0.110801026004728));
#649=CARTESIAN_POINT('',(-0.0172839025000542,-0.108205898324657,0.110801026004728));
#650=CARTESIAN_POINT('',(-0.0172839025000542,-0.109371400288967,0.110801026004728));
#651=CARTESIAN_POINT('',(-0.0217839025000542,-0.109371400288967,0.110801026004728));
#652=CARTESIAN_POINT('',(-0.0172839025000542,-0.109371400288967,0.113801026004728));
#653=MECHANICAL_DESIGN_GEOMETRIC_PRESENTATION_REPRESENTATION('',(#359),
#654);
#654=(
GEOMETRIC_REPRESENTATION_CONTEXT(3)
GLOBAL_UNCERTAINTY_ASSIGNED_CONTEXT((#655))
GLOBAL_UNIT_ASSIGNED_CONTEXT((#658,#657,#656))
REPRESENTATION_CONTEXT('tilt motor brace','TOP_LEVEL_ASSEMBLY_PART')
);
#655=UNCERTAINTY_MEASURE_WITH_UNIT(LENGTH_MEASURE(5.E-6),#658,
'DISTANCE_ACCURACY_VALUE','Maximum Tolerance applied to model');
#656=(
NAMED_UNIT(*)
SI_UNIT($,.STERADIAN.)
SOLID_ANGLE_UNIT()
);
#657=(
NAMED_UNIT(*)
PLANE_ANGLE_UNIT()
SI_UNIT($,.RADIAN.)
);
#658=(
LENGTH_UNIT()
NAMED_UNIT(*)
SI_UNIT($,.METRE.)
);
#659=PRODUCT_DEFINITION_SHAPE('','',#660);
#660=PRODUCT_DEFINITION('','',#662,#661);
#661=PRODUCT_DEFINITION_CONTEXT('',#668,'design');
#662=PRODUCT_DEFINITION_FORMATION_WITH_SPECIFIED_SOURCE('','',#664,
 .NOT_KNOWN.);
#663=PRODUCT_RELATED_PRODUCT_CATEGORY('','',(#664));
#664=PRODUCT('tilt motor brace','tilt motor brace','tilt motor brace',(#666));
#665=PRODUCT_CATEGORY('','');
#666=PRODUCT_CONTEXT('',#668,'mechanical');
#667=APPLICATION_PROTOCOL_DEFINITION('international standard',
'ap242_managed_model_based_3d_engineering',2011,#668);
#668=APPLICATION_CONTEXT('managed model based 3d engineering');
ENDSEC;
END-ISO-10303-21;
