ISO-10303-21;
HEADER;
/* Generated by software containing ST-Developer
 * from STEP Tools, Inc. (www.steptools.com) 
 */
/* OPTION: using custom renumber hook */

FILE_DESCRIPTION(
/* description */ ('STEP AP242',
'CAx-IF Rec.Pracs.---Representation and Presentation of Product Manufa
cturing Information (PMI)---4.0---2014-10-13',
'CAx-IF Rec.Pracs.---3D Tessellated Geometry---0.4---2014-09-14','2;1'),

/* implementation_level */ '2;1');

FILE_NAME(
/* name */ '66789d76b9c7367681b24162',
/* time_stamp */ '2024-06-23T22:11:02Z',
/* author */ (''),
/* organization */ (''),
/* preprocessor_version */ 'ST-DEVELOPER v20',
/* originating_system */ '  ',
/* authorisation */ '  ');

FILE_SCHEMA (('AP242_MANAGED_MODEL_BASED_3D_ENGINEERING_MIM_LF { 1 0 10303 442 1 1 4 }'));
ENDSEC;

DATA;
#10=SHAPE_REPRESENTATION_RELATIONSHIP('','',#486,#11);
#11=ADVANCED_BREP_SHAPE_REPRESENTATION('',(#484),#784);
#12=B_SPLINE_CURVE_WITH_KNOTS('',3,(#762,#763,#764,#765),.UNSPECIFIED.,
 .F.,.F.,(4,4),(0.,1.),.UNSPECIFIED.);
#13=B_SPLINE_CURVE_WITH_KNOTS('',3,(#766,#767,#768,#769),.UNSPECIFIED.,
 .F.,.F.,(4,4),(0.,1.),.UNSPECIFIED.);
#14=CYLINDRICAL_SURFACE('',#511,0.01784065);
#15=CYLINDRICAL_SURFACE('',#514,0.0022);
#16=CYLINDRICAL_SURFACE('',#515,0.0022);
#17=CYLINDRICAL_SURFACE('',#516,0.003);
#18=CYLINDRICAL_SURFACE('',#517,0.003);
#19=CYLINDRICAL_SURFACE('',#522,0.003);
#20=CIRCLE('',#490,0.0022);
#21=CIRCLE('',#491,0.0022);
#22=CIRCLE('',#493,0.01784065);
#23=CIRCLE('',#494,0.003);
#24=CIRCLE('',#495,0.003);
#25=CIRCLE('',#497,0.003);
#26=CIRCLE('',#498,0.003);
#27=CIRCLE('',#499,0.01784065);
#28=CIRCLE('',#506,0.0022);
#29=CIRCLE('',#507,0.0022);
#30=CIRCLE('',#519,0.003);
#31=CIRCLE('',#521,0.003);
#32=ORIENTED_EDGE('',*,*,#158,.F.);
#33=ORIENTED_EDGE('',*,*,#159,.T.);
#34=ORIENTED_EDGE('',*,*,#160,.T.);
#35=ORIENTED_EDGE('',*,*,#161,.F.);
#36=ORIENTED_EDGE('',*,*,#162,.F.);
#37=ORIENTED_EDGE('',*,*,#163,.F.);
#38=ORIENTED_EDGE('',*,*,#164,.F.);
#39=ORIENTED_EDGE('',*,*,#165,.T.);
#40=ORIENTED_EDGE('',*,*,#166,.T.);
#41=ORIENTED_EDGE('',*,*,#158,.T.);
#42=ORIENTED_EDGE('',*,*,#167,.T.);
#43=ORIENTED_EDGE('',*,*,#168,.F.);
#44=ORIENTED_EDGE('',*,*,#169,.T.);
#45=ORIENTED_EDGE('',*,*,#170,.T.);
#46=ORIENTED_EDGE('',*,*,#171,.T.);
#47=ORIENTED_EDGE('',*,*,#172,.T.);
#48=ORIENTED_EDGE('',*,*,#173,.T.);
#49=ORIENTED_EDGE('',*,*,#174,.F.);
#50=ORIENTED_EDGE('',*,*,#175,.F.);
#51=ORIENTED_EDGE('',*,*,#176,.T.);
#52=ORIENTED_EDGE('',*,*,#177,.F.);
#53=ORIENTED_EDGE('',*,*,#178,.T.);
#54=ORIENTED_EDGE('',*,*,#179,.T.);
#55=ORIENTED_EDGE('',*,*,#180,.T.);
#56=ORIENTED_EDGE('',*,*,#181,.F.);
#57=ORIENTED_EDGE('',*,*,#182,.F.);
#58=ORIENTED_EDGE('',*,*,#183,.F.);
#59=ORIENTED_EDGE('',*,*,#184,.F.);
#60=ORIENTED_EDGE('',*,*,#185,.F.);
#61=ORIENTED_EDGE('',*,*,#186,.T.);
#62=ORIENTED_EDGE('',*,*,#187,.T.);
#63=ORIENTED_EDGE('',*,*,#188,.F.);
#64=ORIENTED_EDGE('',*,*,#189,.F.);
#65=ORIENTED_EDGE('',*,*,#190,.F.);
#66=ORIENTED_EDGE('',*,*,#191,.T.);
#67=ORIENTED_EDGE('',*,*,#192,.F.);
#68=ORIENTED_EDGE('',*,*,#192,.T.);
#69=ORIENTED_EDGE('',*,*,#193,.T.);
#70=ORIENTED_EDGE('',*,*,#194,.F.);
#71=ORIENTED_EDGE('',*,*,#195,.F.);
#72=ORIENTED_EDGE('',*,*,#196,.F.);
#73=ORIENTED_EDGE('',*,*,#197,.T.);
#74=ORIENTED_EDGE('',*,*,#198,.T.);
#75=ORIENTED_EDGE('',*,*,#199,.T.);
#76=ORIENTED_EDGE('',*,*,#190,.T.);
#77=ORIENTED_EDGE('',*,*,#200,.F.);
#78=ORIENTED_EDGE('',*,*,#198,.F.);
#79=ORIENTED_EDGE('',*,*,#201,.T.);
#80=ORIENTED_EDGE('',*,*,#202,.T.);
#81=ORIENTED_EDGE('',*,*,#196,.T.);
#82=ORIENTED_EDGE('',*,*,#203,.F.);
#83=ORIENTED_EDGE('',*,*,#170,.F.);
#84=ORIENTED_EDGE('',*,*,#204,.T.);
#85=ORIENTED_EDGE('',*,*,#205,.T.);
#86=ORIENTED_EDGE('',*,*,#206,.F.);
#87=ORIENTED_EDGE('',*,*,#194,.T.);
#88=ORIENTED_EDGE('',*,*,#207,.F.);
#89=ORIENTED_EDGE('',*,*,#179,.F.);
#90=ORIENTED_EDGE('',*,*,#208,.T.);
#91=ORIENTED_EDGE('',*,*,#204,.F.);
#92=ORIENTED_EDGE('',*,*,#193,.F.);
#93=ORIENTED_EDGE('',*,*,#191,.F.);
#94=ORIENTED_EDGE('',*,*,#201,.F.);
#95=ORIENTED_EDGE('',*,*,#197,.F.);
#96=ORIENTED_EDGE('',*,*,#202,.F.);
#97=ORIENTED_EDGE('',*,*,#169,.F.);
#98=ORIENTED_EDGE('',*,*,#209,.T.);
#99=ORIENTED_EDGE('',*,*,#160,.F.);
#100=ORIENTED_EDGE('',*,*,#210,.T.);
#101=ORIENTED_EDGE('',*,*,#211,.T.);
#102=ORIENTED_EDGE('',*,*,#195,.T.);
#103=ORIENTED_EDGE('',*,*,#206,.T.);
#104=ORIENTED_EDGE('',*,*,#212,.F.);
#105=ORIENTED_EDGE('',*,*,#177,.T.);
#106=ORIENTED_EDGE('',*,*,#176,.F.);
#107=ORIENTED_EDGE('',*,*,#213,.F.);
#108=ORIENTED_EDGE('',*,*,#185,.T.);
#109=ORIENTED_EDGE('',*,*,#200,.T.);
#110=ORIENTED_EDGE('',*,*,#189,.T.);
#111=ORIENTED_EDGE('',*,*,#214,.F.);
#112=ORIENTED_EDGE('',*,*,#172,.F.);
#113=ORIENTED_EDGE('',*,*,#171,.F.);
#114=ORIENTED_EDGE('',*,*,#203,.T.);
#115=ORIENTED_EDGE('',*,*,#199,.F.);
#116=ORIENTED_EDGE('',*,*,#212,.T.);
#117=ORIENTED_EDGE('',*,*,#205,.F.);
#118=ORIENTED_EDGE('',*,*,#208,.F.);
#119=ORIENTED_EDGE('',*,*,#178,.F.);
#120=ORIENTED_EDGE('',*,*,#215,.T.);
#121=ORIENTED_EDGE('',*,*,#216,.F.);
#122=ORIENTED_EDGE('',*,*,#174,.T.);
#123=ORIENTED_EDGE('',*,*,#217,.T.);
#124=ORIENTED_EDGE('',*,*,#218,.T.);
#125=ORIENTED_EDGE('',*,*,#187,.F.);
#126=ORIENTED_EDGE('',*,*,#214,.T.);
#127=ORIENTED_EDGE('',*,*,#188,.T.);
#128=ORIENTED_EDGE('',*,*,#218,.F.);
#129=ORIENTED_EDGE('',*,*,#217,.F.);
#130=ORIENTED_EDGE('',*,*,#173,.F.);
#131=ORIENTED_EDGE('',*,*,#213,.T.);
#132=ORIENTED_EDGE('',*,*,#175,.T.);
#133=ORIENTED_EDGE('',*,*,#216,.T.);
#134=ORIENTED_EDGE('',*,*,#215,.F.);
#135=ORIENTED_EDGE('',*,*,#186,.F.);
#136=ORIENTED_EDGE('',*,*,#163,.T.);
#137=ORIENTED_EDGE('',*,*,#211,.F.);
#138=ORIENTED_EDGE('',*,*,#162,.T.);
#139=ORIENTED_EDGE('',*,*,#210,.F.);
#140=ORIENTED_EDGE('',*,*,#184,.T.);
#141=ORIENTED_EDGE('',*,*,#182,.T.);
#142=ORIENTED_EDGE('',*,*,#183,.T.);
#143=ORIENTED_EDGE('',*,*,#181,.T.);
#144=ORIENTED_EDGE('',*,*,#168,.T.);
#145=ORIENTED_EDGE('',*,*,#219,.T.);
#146=ORIENTED_EDGE('',*,*,#164,.T.);
#147=ORIENTED_EDGE('',*,*,#161,.T.);
#148=ORIENTED_EDGE('',*,*,#209,.F.);
#149=ORIENTED_EDGE('',*,*,#207,.T.);
#150=ORIENTED_EDGE('',*,*,#159,.F.);
#151=ORIENTED_EDGE('',*,*,#166,.F.);
#152=ORIENTED_EDGE('',*,*,#220,.T.);
#153=ORIENTED_EDGE('',*,*,#180,.F.);
#154=ORIENTED_EDGE('',*,*,#220,.F.);
#155=ORIENTED_EDGE('',*,*,#165,.F.);
#156=ORIENTED_EDGE('',*,*,#219,.F.);
#157=ORIENTED_EDGE('',*,*,#167,.F.);
#158=EDGE_CURVE('',#221,#222,#267,.T.);
#159=EDGE_CURVE('',#221,#223,#268,.T.);
#160=EDGE_CURVE('',#223,#224,#269,.T.);
#161=EDGE_CURVE('',#222,#224,#270,.T.);
#162=EDGE_CURVE('',#225,#225,#20,.T.);
#163=EDGE_CURVE('',#226,#226,#21,.T.);
#164=EDGE_CURVE('',#227,#222,#271,.T.);
#165=EDGE_CURVE('',#227,#228,#272,.F.);
#166=EDGE_CURVE('',#228,#221,#273,.T.);
#167=EDGE_CURVE('',#229,#230,#274,.T.);
#168=EDGE_CURVE('',#231,#230,#275,.T.);
#169=EDGE_CURVE('',#231,#232,#276,.T.);
#170=EDGE_CURVE('',#232,#233,#277,.T.);
#171=EDGE_CURVE('',#233,#234,#278,.T.);
#172=EDGE_CURVE('',#234,#235,#279,.T.);
#173=EDGE_CURVE('',#235,#236,#280,.F.);
#174=EDGE_CURVE('',#237,#236,#22,.T.);
#175=EDGE_CURVE('',#238,#237,#281,.T.);
#176=EDGE_CURVE('',#238,#239,#282,.T.);
#177=EDGE_CURVE('',#240,#239,#283,.T.);
#178=EDGE_CURVE('',#240,#241,#284,.T.);
#179=EDGE_CURVE('',#241,#242,#285,.T.);
#180=EDGE_CURVE('',#242,#229,#286,.T.);
#181=EDGE_CURVE('',#243,#243,#23,.T.);
#182=EDGE_CURVE('',#244,#244,#24,.T.);
#183=EDGE_CURVE('',#245,#245,#25,.F.);
#184=EDGE_CURVE('',#246,#246,#26,.F.);
#185=EDGE_CURVE('',#247,#248,#287,.T.);
#186=EDGE_CURVE('',#247,#249,#288,.T.);
#187=EDGE_CURVE('',#249,#250,#27,.T.);
#188=EDGE_CURVE('',#251,#250,#289,.T.);
#189=EDGE_CURVE('',#252,#251,#290,.T.);
#190=EDGE_CURVE('',#253,#252,#291,.T.);
#191=EDGE_CURVE('',#253,#254,#292,.T.);
#192=EDGE_CURVE('',#248,#254,#293,.T.);
#193=EDGE_CURVE('',#254,#255,#294,.T.);
#194=EDGE_CURVE('',#256,#255,#295,.T.);
#195=EDGE_CURVE('',#248,#256,#296,.T.);
#196=EDGE_CURVE('',#257,#258,#297,.T.);
#197=EDGE_CURVE('',#257,#259,#298,.T.);
#198=EDGE_CURVE('',#259,#260,#299,.T.);
#199=EDGE_CURVE('',#260,#258,#300,.T.);
#200=EDGE_CURVE('',#260,#252,#301,.T.);
#201=EDGE_CURVE('',#259,#253,#302,.T.);
#202=EDGE_CURVE('',#232,#257,#303,.T.);
#203=EDGE_CURVE('',#233,#258,#304,.T.);
#204=EDGE_CURVE('',#255,#261,#305,.T.);
#205=EDGE_CURVE('',#261,#262,#306,.T.);
#206=EDGE_CURVE('',#256,#262,#307,.T.);
#207=EDGE_CURVE('',#242,#223,#308,.T.);
#208=EDGE_CURVE('',#241,#261,#309,.T.);
#209=EDGE_CURVE('',#231,#224,#310,.T.);
#210=EDGE_CURVE('',#263,#263,#28,.T.);
#211=EDGE_CURVE('',#264,#264,#29,.T.);
#212=EDGE_CURVE('',#240,#262,#311,.T.);
#213=EDGE_CURVE('',#247,#238,#312,.F.);
#214=EDGE_CURVE('',#235,#251,#313,.F.);
#215=EDGE_CURVE('',#249,#265,#314,.T.);
#216=EDGE_CURVE('',#237,#265,#12,.F.);
#217=EDGE_CURVE('',#236,#266,#13,.T.);
#218=EDGE_CURVE('',#266,#250,#315,.F.);
#219=EDGE_CURVE('',#230,#227,#30,.T.);
#220=EDGE_CURVE('',#228,#229,#31,.F.);
#221=VERTEX_POINT('',#647);
#222=VERTEX_POINT('',#648);
#223=VERTEX_POINT('',#650);
#224=VERTEX_POINT('',#652);
#225=VERTEX_POINT('',#656);
#226=VERTEX_POINT('',#658);
#227=VERTEX_POINT('',#660);
#228=VERTEX_POINT('',#662);
#229=VERTEX_POINT('',#666);
#230=VERTEX_POINT('',#667);
#231=VERTEX_POINT('',#669);
#232=VERTEX_POINT('',#671);
#233=VERTEX_POINT('',#673);
#234=VERTEX_POINT('',#675);
#235=VERTEX_POINT('',#677);
#236=VERTEX_POINT('',#679);
#237=VERTEX_POINT('',#681);
#238=VERTEX_POINT('',#683);
#239=VERTEX_POINT('',#685);
#240=VERTEX_POINT('',#687);
#241=VERTEX_POINT('',#689);
#242=VERTEX_POINT('',#691);
#243=VERTEX_POINT('',#694);
#244=VERTEX_POINT('',#696);
#245=VERTEX_POINT('',#699);
#246=VERTEX_POINT('',#701);
#247=VERTEX_POINT('',#703);
#248=VERTEX_POINT('',#704);
#249=VERTEX_POINT('',#706);
#250=VERTEX_POINT('',#708);
#251=VERTEX_POINT('',#710);
#252=VERTEX_POINT('',#712);
#253=VERTEX_POINT('',#714);
#254=VERTEX_POINT('',#716);
#255=VERTEX_POINT('',#720);
#256=VERTEX_POINT('',#722);
#257=VERTEX_POINT('',#726);
#258=VERTEX_POINT('',#727);
#259=VERTEX_POINT('',#729);
#260=VERTEX_POINT('',#731);
#261=VERTEX_POINT('',#741);
#262=VERTEX_POINT('',#743);
#263=VERTEX_POINT('',#750);
#264=VERTEX_POINT('',#752);
#265=VERTEX_POINT('',#761);
#266=VERTEX_POINT('',#770);
#267=LINE('',#646,#316);
#268=LINE('',#649,#317);
#269=LINE('',#651,#318);
#270=LINE('',#653,#319);
#271=LINE('',#659,#320);
#272=LINE('',#661,#321);
#273=LINE('',#663,#322);
#274=LINE('',#665,#323);
#275=LINE('',#668,#324);
#276=LINE('',#670,#325);
#277=LINE('',#672,#326);
#278=LINE('',#674,#327);
#279=LINE('',#676,#328);
#280=LINE('',#678,#329);
#281=LINE('',#682,#330);
#282=LINE('',#684,#331);
#283=LINE('',#686,#332);
#284=LINE('',#688,#333);
#285=LINE('',#690,#334);
#286=LINE('',#692,#335);
#287=LINE('',#702,#336);
#288=LINE('',#705,#337);
#289=LINE('',#709,#338);
#290=LINE('',#711,#339);
#291=LINE('',#713,#340);
#292=LINE('',#715,#341);
#293=LINE('',#717,#342);
#294=LINE('',#719,#343);
#295=LINE('',#721,#344);
#296=LINE('',#723,#345);
#297=LINE('',#725,#346);
#298=LINE('',#728,#347);
#299=LINE('',#730,#348);
#300=LINE('',#732,#349);
#301=LINE('',#734,#350);
#302=LINE('',#735,#351);
#303=LINE('',#737,#352);
#304=LINE('',#738,#353);
#305=LINE('',#740,#354);
#306=LINE('',#742,#355);
#307=LINE('',#744,#356);
#308=LINE('',#746,#357);
#309=LINE('',#747,#358);
#310=LINE('',#748,#359);
#311=LINE('',#754,#360);
#312=LINE('',#755,#361);
#313=LINE('',#757,#362);
#314=LINE('',#760,#363);
#315=LINE('',#771,#364);
#316=VECTOR('',#527,1.);
#317=VECTOR('',#528,1.);
#318=VECTOR('',#529,1.);
#319=VECTOR('',#530,1.);
#320=VECTOR('',#537,1.);
#321=VECTOR('',#538,1.);
#322=VECTOR('',#539,1.);
#323=VECTOR('',#542,1.);
#324=VECTOR('',#543,1.);
#325=VECTOR('',#544,1.);
#326=VECTOR('',#545,1.);
#327=VECTOR('',#546,1.);
#328=VECTOR('',#547,1.);
#329=VECTOR('',#548,1.);
#330=VECTOR('',#551,1.);
#331=VECTOR('',#552,1.);
#332=VECTOR('',#553,1.);
#333=VECTOR('',#554,1.);
#334=VECTOR('',#555,1.);
#335=VECTOR('',#556,1.);
#336=VECTOR('',#567,1.);
#337=VECTOR('',#568,1.);
#338=VECTOR('',#571,1.);
#339=VECTOR('',#572,1.);
#340=VECTOR('',#573,1.);
#341=VECTOR('',#574,1.);
#342=VECTOR('',#575,1.);
#343=VECTOR('',#578,1.);
#344=VECTOR('',#579,1.);
#345=VECTOR('',#580,1.);
#346=VECTOR('',#583,1.);
#347=VECTOR('',#584,1.);
#348=VECTOR('',#585,1.);
#349=VECTOR('',#586,1.);
#350=VECTOR('',#589,1.);
#351=VECTOR('',#590,1.);
#352=VECTOR('',#593,1.);
#353=VECTOR('',#594,1.);
#354=VECTOR('',#597,1.);
#355=VECTOR('',#598,1.);
#356=VECTOR('',#599,1.);
#357=VECTOR('',#602,1.);
#358=VECTOR('',#603,1.);
#359=VECTOR('',#604,1.);
#360=VECTOR('',#611,1.);
#361=VECTOR('',#612,1.);
#362=VECTOR('',#615,1.);
#363=VECTOR('',#620,1.);
#364=VECTOR('',#621,1.);
#365=EDGE_LOOP('',(#32,#33,#34,#35));
#366=EDGE_LOOP('',(#36));
#367=EDGE_LOOP('',(#37));
#368=EDGE_LOOP('',(#38,#39,#40,#41));
#369=EDGE_LOOP('',(#42,#43,#44,#45,#46,#47,#48,#49,#50,#51,#52,#53,#54,
#55));
#370=EDGE_LOOP('',(#56));
#371=EDGE_LOOP('',(#57));
#372=EDGE_LOOP('',(#58));
#373=EDGE_LOOP('',(#59));
#374=EDGE_LOOP('',(#60,#61,#62,#63,#64,#65,#66,#67));
#375=EDGE_LOOP('',(#68,#69,#70,#71));
#376=EDGE_LOOP('',(#72,#73,#74,#75));
#377=EDGE_LOOP('',(#76,#77,#78,#79));
#378=EDGE_LOOP('',(#80,#81,#82,#83));
#379=EDGE_LOOP('',(#84,#85,#86,#87));
#380=EDGE_LOOP('',(#88,#89,#90,#91,#92,#93,#94,#95,#96,#97,#98,#99));
#381=EDGE_LOOP('',(#100));
#382=EDGE_LOOP('',(#101));
#383=EDGE_LOOP('',(#102,#103,#104,#105,#106,#107,#108));
#384=EDGE_LOOP('',(#109,#110,#111,#112,#113,#114,#115));
#385=EDGE_LOOP('',(#116,#117,#118,#119));
#386=EDGE_LOOP('',(#120,#121,#122,#123,#124,#125));
#387=EDGE_LOOP('',(#126,#127,#128,#129,#130));
#388=EDGE_LOOP('',(#131,#132,#133,#134,#135));
#389=EDGE_LOOP('',(#136));
#390=EDGE_LOOP('',(#137));
#391=EDGE_LOOP('',(#138));
#392=EDGE_LOOP('',(#139));
#393=EDGE_LOOP('',(#140));
#394=EDGE_LOOP('',(#141));
#395=EDGE_LOOP('',(#142));
#396=EDGE_LOOP('',(#143));
#397=EDGE_LOOP('',(#144,#145,#146,#147,#148));
#398=EDGE_LOOP('',(#149,#150,#151,#152,#153));
#399=EDGE_LOOP('',(#154,#155,#156,#157));
#400=FACE_BOUND('',#365,.T.);
#401=FACE_BOUND('',#366,.T.);
#402=FACE_BOUND('',#367,.T.);
#403=FACE_BOUND('',#368,.T.);
#404=FACE_BOUND('',#369,.T.);
#405=FACE_BOUND('',#370,.T.);
#406=FACE_BOUND('',#371,.T.);
#407=FACE_BOUND('',#372,.T.);
#408=FACE_BOUND('',#373,.T.);
#409=FACE_BOUND('',#374,.T.);
#410=FACE_BOUND('',#375,.T.);
#411=FACE_BOUND('',#376,.T.);
#412=FACE_BOUND('',#377,.T.);
#413=FACE_BOUND('',#378,.T.);
#414=FACE_BOUND('',#379,.T.);
#415=FACE_BOUND('',#380,.T.);
#416=FACE_BOUND('',#381,.T.);
#417=FACE_BOUND('',#382,.T.);
#418=FACE_BOUND('',#383,.T.);
#419=FACE_BOUND('',#384,.T.);
#420=FACE_BOUND('',#385,.T.);
#421=FACE_BOUND('',#386,.T.);
#422=FACE_BOUND('',#387,.T.);
#423=FACE_BOUND('',#388,.T.);
#424=FACE_BOUND('',#389,.T.);
#425=FACE_BOUND('',#390,.T.);
#426=FACE_BOUND('',#391,.T.);
#427=FACE_BOUND('',#392,.T.);
#428=FACE_BOUND('',#393,.T.);
#429=FACE_BOUND('',#394,.T.);
#430=FACE_BOUND('',#395,.T.);
#431=FACE_BOUND('',#396,.T.);
#432=FACE_BOUND('',#397,.T.);
#433=FACE_BOUND('',#398,.T.);
#434=FACE_BOUND('',#399,.T.);
#435=PLANE('',#488);
#436=PLANE('',#489);
#437=PLANE('',#492);
#438=PLANE('',#496);
#439=PLANE('',#500);
#440=PLANE('',#501);
#441=PLANE('',#502);
#442=PLANE('',#503);
#443=PLANE('',#504);
#444=PLANE('',#505);
#445=PLANE('',#508);
#446=PLANE('',#509);
#447=PLANE('',#510);
#448=PLANE('',#512);
#449=PLANE('',#513);
#450=PLANE('',#518);
#451=PLANE('',#520);
#452=ADVANCED_FACE('',(#400),#435,.T.);
#453=ADVANCED_FACE('',(#401,#402,#403),#436,.T.);
#454=ADVANCED_FACE('',(#404,#405,#406),#437,.T.);
#455=ADVANCED_FACE('',(#407,#408,#409),#438,.T.);
#456=ADVANCED_FACE('',(#410),#439,.F.);
#457=ADVANCED_FACE('',(#411),#440,.T.);
#458=ADVANCED_FACE('',(#412),#441,.F.);
#459=ADVANCED_FACE('',(#413),#442,.T.);
#460=ADVANCED_FACE('',(#414),#443,.T.);
#461=ADVANCED_FACE('',(#415,#416,#417),#444,.F.);
#462=ADVANCED_FACE('',(#418),#445,.T.);
#463=ADVANCED_FACE('',(#419),#446,.T.);
#464=ADVANCED_FACE('',(#420),#447,.T.);
#465=ADVANCED_FACE('',(#421),#14,.F.);
#466=ADVANCED_FACE('',(#422),#448,.T.);
#467=ADVANCED_FACE('',(#423),#449,.T.);
#468=ADVANCED_FACE('',(#424,#425),#15,.F.);
#469=ADVANCED_FACE('',(#426,#427),#16,.F.);
#470=ADVANCED_FACE('',(#428,#429),#17,.F.);
#471=ADVANCED_FACE('',(#430,#431),#18,.F.);
#472=ADVANCED_FACE('',(#432),#450,.F.);
#473=ADVANCED_FACE('',(#433),#451,.T.);
#474=ADVANCED_FACE('',(#434),#19,.F.);
#475=CLOSED_SHELL('',(#452,#453,#454,#455,#456,#457,#458,#459,#460,#461,
#462,#463,#464,#465,#466,#467,#468,#469,#470,#471,#472,#473,#474));
#476=STYLED_ITEM('',(#477),#484);
#477=PRESENTATION_STYLE_ASSIGNMENT((#478));
#478=SURFACE_STYLE_USAGE(.BOTH.,#479);
#479=SURFACE_SIDE_STYLE('',(#480));
#480=SURFACE_STYLE_FILL_AREA(#481);
#481=FILL_AREA_STYLE('',(#482));
#482=FILL_AREA_STYLE_COLOUR('',#483);
#483=COLOUR_RGB('',0.792156862745098,0.819607843137255,0.933333333333333);
#484=MANIFOLD_SOLID_BREP('tilt arm',#475);
#485=SHAPE_DEFINITION_REPRESENTATION(#789,#486);
#486=SHAPE_REPRESENTATION('tilt arm',(#487),#784);
#487=AXIS2_PLACEMENT_3D('',#644,#523,#524);
#488=AXIS2_PLACEMENT_3D('',#645,#525,#526);
#489=AXIS2_PLACEMENT_3D('',#654,#531,#532);
#490=AXIS2_PLACEMENT_3D('',#655,#533,#534);
#491=AXIS2_PLACEMENT_3D('',#657,#535,#536);
#492=AXIS2_PLACEMENT_3D('',#664,#540,#541);
#493=AXIS2_PLACEMENT_3D('',#680,#549,#550);
#494=AXIS2_PLACEMENT_3D('',#693,#557,#558);
#495=AXIS2_PLACEMENT_3D('',#695,#559,#560);
#496=AXIS2_PLACEMENT_3D('',#697,#561,#562);
#497=AXIS2_PLACEMENT_3D('',#698,#563,#564);
#498=AXIS2_PLACEMENT_3D('',#700,#565,#566);
#499=AXIS2_PLACEMENT_3D('',#707,#569,#570);
#500=AXIS2_PLACEMENT_3D('',#718,#576,#577);
#501=AXIS2_PLACEMENT_3D('',#724,#581,#582);
#502=AXIS2_PLACEMENT_3D('',#733,#587,#588);
#503=AXIS2_PLACEMENT_3D('',#736,#591,#592);
#504=AXIS2_PLACEMENT_3D('',#739,#595,#596);
#505=AXIS2_PLACEMENT_3D('',#745,#600,#601);
#506=AXIS2_PLACEMENT_3D('',#749,#605,#606);
#507=AXIS2_PLACEMENT_3D('',#751,#607,#608);
#508=AXIS2_PLACEMENT_3D('',#753,#609,#610);
#509=AXIS2_PLACEMENT_3D('',#756,#613,#614);
#510=AXIS2_PLACEMENT_3D('',#758,#616,#617);
#511=AXIS2_PLACEMENT_3D('',#759,#618,#619);
#512=AXIS2_PLACEMENT_3D('',#772,#622,#623);
#513=AXIS2_PLACEMENT_3D('',#773,#624,#625);
#514=AXIS2_PLACEMENT_3D('',#774,#626,#627);
#515=AXIS2_PLACEMENT_3D('',#775,#628,#629);
#516=AXIS2_PLACEMENT_3D('',#776,#630,#631);
#517=AXIS2_PLACEMENT_3D('',#777,#632,#633);
#518=AXIS2_PLACEMENT_3D('',#778,#634,#635);
#519=AXIS2_PLACEMENT_3D('',#779,#636,#637);
#520=AXIS2_PLACEMENT_3D('',#780,#638,#639);
#521=AXIS2_PLACEMENT_3D('',#781,#640,#641);
#522=AXIS2_PLACEMENT_3D('',#782,#642,#643);
#523=DIRECTION('',(0.,0.,1.));
#524=DIRECTION('',(1.,0.,0.));
#525=DIRECTION('',(0.,1.,0.));
#526=DIRECTION('',(-1.,0.,0.));
#527=DIRECTION('',(-1.,0.,0.));
#528=DIRECTION('',(-1.21793099582734E-16,0.,-1.));
#529=DIRECTION('',(-1.,0.,0.));
#530=DIRECTION('',(0.,0.,-1.));
#531=DIRECTION('',(0.,0.,1.));
#532=DIRECTION('',(1.,0.,0.));
#533=DIRECTION('',(0.,0.,1.));
#534=DIRECTION('',(1.,0.,0.));
#535=DIRECTION('',(0.,0.,1.));
#536=DIRECTION('',(1.,0.,0.));
#537=DIRECTION('',(0.,1.,0.));
#538=DIRECTION('',(-1.,0.,0.));
#539=DIRECTION('',(0.,1.,0.));
#540=DIRECTION('',(0.,1.,0.));
#541=DIRECTION('',(-1.,0.,0.));
#542=DIRECTION('',(-1.,0.,0.));
#543=DIRECTION('',(0.,0.,1.));
#544=DIRECTION('',(-1.,0.,0.));
#545=DIRECTION('',(0.,0.,1.));
#546=DIRECTION('',(1.,0.,0.));
#547=DIRECTION('',(1.,0.,0.));
#548=DIRECTION('',(-0.538116591928253,0.,0.842870413225854));
#549=DIRECTION('',(0.,1.,0.));
#550=DIRECTION('',(0.,0.,-1.));
#551=DIRECTION('',(-0.538116591928252,0.,-0.842870413225855));
#552=DIRECTION('',(1.,0.,0.));
#553=DIRECTION('',(-1.,0.,0.));
#554=DIRECTION('',(0.,0.,-1.));
#555=DIRECTION('',(-1.,0.,0.));
#556=DIRECTION('',(1.21793099582734E-16,0.,1.));
#557=DIRECTION('',(0.,1.,0.));
#558=DIRECTION('',(0.,0.,1.));
#559=DIRECTION('',(0.,1.,0.));
#560=DIRECTION('',(0.,0.,1.));
#561=DIRECTION('',(0.,-1.,0.));
#562=DIRECTION('',(1.,0.,0.));
#563=DIRECTION('',(0.,1.,0.));
#564=DIRECTION('',(0.,0.,1.));
#565=DIRECTION('',(0.,1.,0.));
#566=DIRECTION('',(0.,0.,1.));
#567=DIRECTION('',(1.,0.,0.));
#568=DIRECTION('',(-0.538116591928252,0.,-0.842870413225855));
#569=DIRECTION('',(0.,1.,0.));
#570=DIRECTION('',(0.,0.,-1.));
#571=DIRECTION('',(0.538116591928252,0.,-0.842870413225855));
#572=DIRECTION('',(1.,0.,0.));
#573=DIRECTION('',(0.,0.,1.));
#574=DIRECTION('',(1.,0.,0.));
#575=DIRECTION('',(0.,0.,-1.));
#576=DIRECTION('',(1.,0.,0.));
#577=DIRECTION('',(0.,0.,1.));
#578=DIRECTION('',(0.,-1.,0.));
#579=DIRECTION('',(0.,0.,-1.));
#580=DIRECTION('',(0.,-1.,0.));
#581=DIRECTION('',(0.,-1.,0.));
#582=DIRECTION('',(0.,0.,-1.));
#583=DIRECTION('',(0.,0.,1.));
#584=DIRECTION('',(1.,0.,0.));
#585=DIRECTION('',(0.,0.,1.));
#586=DIRECTION('',(-1.,0.,0.));
#587=DIRECTION('',(-1.,0.,0.));
#588=DIRECTION('',(0.,0.,-1.));
#589=DIRECTION('',(0.,1.,0.));
#590=DIRECTION('',(0.,1.,0.));
#591=DIRECTION('',(-1.,0.,0.));
#592=DIRECTION('',(0.,-1.,0.));
#593=DIRECTION('',(0.,-1.,0.));
#594=DIRECTION('',(0.,-1.,0.));
#595=DIRECTION('',(0.,-1.,0.));
#596=DIRECTION('',(0.,0.,-1.));
#597=DIRECTION('',(1.,0.,0.));
#598=DIRECTION('',(0.,0.,1.));
#599=DIRECTION('',(1.,0.,0.));
#600=DIRECTION('',(0.,0.,1.));
#601=DIRECTION('',(0.,-1.,0.));
#602=DIRECTION('',(0.,1.,0.));
#603=DIRECTION('',(0.,-1.,0.));
#604=DIRECTION('',(0.,1.,0.));
#605=DIRECTION('',(0.,0.,1.));
#606=DIRECTION('',(1.,0.,0.));
#607=DIRECTION('',(0.,0.,1.));
#608=DIRECTION('',(1.,0.,0.));
#609=DIRECTION('',(0.,0.,1.));
#610=DIRECTION('',(0.,-1.,0.));
#611=DIRECTION('',(0.,-1.,0.));
#612=DIRECTION('',(0.,-1.,0.));
#613=DIRECTION('',(0.,0.,1.));
#614=DIRECTION('',(0.,-1.,0.));
#615=DIRECTION('',(0.,1.,0.));
#616=DIRECTION('',(1.,0.,0.));
#617=DIRECTION('',(0.,1.,0.));
#618=DIRECTION('',(0.,1.,0.));
#619=DIRECTION('',(1.22464679914735E-16,0.,-1.));
#620=DIRECTION('',(0.,1.,0.));
#621=DIRECTION('',(0.,1.,0.));
#622=DIRECTION('',(0.842870413225855,0.,0.538116591928252));
#623=DIRECTION('',(0.,-1.,0.));
#624=DIRECTION('',(-0.842870413225855,0.,0.538116591928252));
#625=DIRECTION('',(0.,1.,0.));
#626=DIRECTION('',(0.,0.,1.));
#627=DIRECTION('',(1.,0.,0.));
#628=DIRECTION('',(0.,0.,1.));
#629=DIRECTION('',(1.,0.,0.));
#630=DIRECTION('',(0.,1.,0.));
#631=DIRECTION('',(0.,0.,-1.));
#632=DIRECTION('',(0.,1.,0.));
#633=DIRECTION('',(0.,0.,-1.));
#634=DIRECTION('',(1.,0.,0.));
#635=DIRECTION('',(0.,0.,-1.));
#636=DIRECTION('',(1.,0.,0.));
#637=DIRECTION('',(0.,0.,-1.));
#638=DIRECTION('',(1.,0.,-1.21793099582734E-16));
#639=DIRECTION('',(-1.21793099582734E-16,0.,-1.));
#640=DIRECTION('',(1.,0.,-1.21793099582734E-16));
#641=DIRECTION('',(-1.21793099582734E-16,0.,-1.));
#642=DIRECTION('',(1.,0.,0.));
#643=DIRECTION('',(0.,0.,-1.));
#644=CARTESIAN_POINT('',(0.,0.,0.));
#645=CARTESIAN_POINT('',(0.0173220974999458,-0.0135697719157454,0.104801026004728));
#646=CARTESIAN_POINT('',(-0.0172839025000542,-0.0135697719157454,0.109319884088981));
#647=CARTESIAN_POINT('',(-0.000183902500054224,-0.0135697719157454,0.109319884088981));
#648=CARTESIAN_POINT('',(-0.0343839025000542,-0.0135697719157454,0.109319884088981));
#649=CARTESIAN_POINT('',(-0.000183902500054223,-0.0135697719157454,0.107094384088981));
#650=CARTESIAN_POINT('',(-0.000183902500054223,-0.0135697719157454,0.10486888408898));
#651=CARTESIAN_POINT('',(0.0173220974999458,-0.0135697719157454,0.10486888408898));
#652=CARTESIAN_POINT('',(-0.0343839025000542,-0.0135697719157454,0.10486888408898));
#653=CARTESIAN_POINT('',(-0.0343839025000542,-0.0135697719157454,0.107094384088981));
#654=CARTESIAN_POINT('',(-0.0172839025000542,-0.0135677719157454,0.109319884088981));
#655=CARTESIAN_POINT('',(-0.00773390250005422,-0.0201963607737064,0.109319884088981));
#656=CARTESIAN_POINT('',(-0.00553390250005422,-0.0201963607737064,0.109319884088981));
#657=CARTESIAN_POINT('',(-0.0268339025000542,-0.0201963607737064,0.109319884088981));
#658=CARTESIAN_POINT('',(-0.0246339025000542,-0.0201963607737064,0.109319884088981));
#659=CARTESIAN_POINT('',(-0.0343839025000542,-0.0268249496316672,0.109319884088981));
#660=CARTESIAN_POINT('',(-0.0343839025000542,-0.0238229496316672,0.109319884088981));
#661=CARTESIAN_POINT('',(-0.000183902500054224,-0.0238229496316672,0.109319884088981));
#662=CARTESIAN_POINT('',(-0.000183902500054223,-0.0238229496316672,0.109319884088981));
#663=CARTESIAN_POINT('',(-0.000183902500054223,-0.0268249496316672,0.109319884088981));
#664=CARTESIAN_POINT('',(0.0173220974999458,-0.0268229496316672,0.10486888408898));
#665=CARTESIAN_POINT('',(-0.0343839025000542,-0.0268229496316672,0.112319884088981));
#666=CARTESIAN_POINT('',(-0.000183902500054222,-0.0268229496316672,0.112319884088981));
#667=CARTESIAN_POINT('',(-0.0343839025000542,-0.0268229496316672,0.112319884088981));
#668=CARTESIAN_POINT('',(-0.0343839025000542,-0.0268229496316672,0.107094384088981));
#669=CARTESIAN_POINT('',(-0.0343839025000542,-0.0268229496316672,0.10486888408898));
#670=CARTESIAN_POINT('',(0.0173220974999458,-0.0268229496316672,0.10486888408898));
#671=CARTESIAN_POINT('',(-0.0518899025000542,-0.0268229496316672,0.10486888408898));
#672=CARTESIAN_POINT('',(-0.0518899025000542,-0.0268229496316672,0.114851384088981));
#673=CARTESIAN_POINT('',(-0.0518899025000542,-0.0268229496316672,0.124833884088981));
#674=CARTESIAN_POINT('',(-0.0518919025000542,-0.0268229496316672,0.124833884088981));
#675=CARTESIAN_POINT('',(-0.0453680025000542,-0.0268229496316672,0.124833884088981));
#676=CARTESIAN_POINT('',(-0.0345869025000542,-0.0268229496316672,0.124833884088981));
#677=CARTESIAN_POINT('',(-0.0333519132931107,-0.0268229496316672,0.124833884088981));
#678=CARTESIAN_POINT('',(-0.032321258537772,-0.0268229496316672,0.123219534313196));
#679=CARTESIAN_POINT('',(-0.032321258537772,-0.0268229496316672,0.123219534313196));
#680=CARTESIAN_POINT('',(-0.0172839025000542,-0.0268229496316672,0.132819884088981));
#681=CARTESIAN_POINT('',(-0.00224654646233637,-0.0268229496316672,0.123219534313196));
#682=CARTESIAN_POINT('',(-0.00224654646233637,-0.0268229496316672,0.123219534313196));
#683=CARTESIAN_POINT('',(-0.00121589170699778,-0.0268229496316672,0.124833884088981));
#684=CARTESIAN_POINT('',(-0.0345869025000542,-0.0268229496316672,0.124833884088981));
#685=CARTESIAN_POINT('',(0.0108001974999458,-0.0268229496316672,0.124833884088981));
#686=CARTESIAN_POINT('',(0.0173240974999458,-0.0268229496316672,0.124833884088981));
#687=CARTESIAN_POINT('',(0.0173220974999458,-0.0268229496316672,0.12483388408898));
#688=CARTESIAN_POINT('',(0.0173220974999458,-0.0268229496316672,0.10486888408898));
#689=CARTESIAN_POINT('',(0.0173220974999458,-0.0268229496316672,0.10486888408898));
#690=CARTESIAN_POINT('',(0.0173220974999458,-0.0268229496316672,0.10486888408898));
#691=CARTESIAN_POINT('',(-0.000183902500054223,-0.0268229496316672,0.10486888408898));
#692=CARTESIAN_POINT('',(-0.000183902500054223,-0.0268229496316672,0.107094384088981));
#693=CARTESIAN_POINT('',(-0.0407839025000542,-0.0268229496316672,0.109319884088981));
#694=CARTESIAN_POINT('',(-0.0407839025000542,-0.0268229496316672,0.112319884088981));
#695=CARTESIAN_POINT('',(0.00621609749994578,-0.0268229496316672,0.109319884088981));
#696=CARTESIAN_POINT('',(0.00621609749994578,-0.0268229496316672,0.112319884088981));
#697=CARTESIAN_POINT('',(-0.0518899025000542,-0.0390178242460077,0.10486888408898));
#698=CARTESIAN_POINT('',(-0.0407839025000542,-0.0390178242460077,0.109319884088981));
#699=CARTESIAN_POINT('',(-0.0407839025000542,-0.0390178242460077,0.112319884088981));
#700=CARTESIAN_POINT('',(0.00621609749994578,-0.0390178242460077,0.109319884088981));
#701=CARTESIAN_POINT('',(0.00621609749994578,-0.0390178242460077,0.112319884088981));
#702=CARTESIAN_POINT('',(-0.0345869025000542,-0.0390178242460077,0.124833884088981));
#703=CARTESIAN_POINT('',(-0.00121589170699778,-0.0390178242460077,0.124833884088981));
#704=CARTESIAN_POINT('',(0.0108001974999458,-0.0390178242460077,0.124833884088981));
#705=CARTESIAN_POINT('',(-0.00224654646233637,-0.0390178242460077,0.123219534313196));
#706=CARTESIAN_POINT('',(-0.00224654646233637,-0.0390178242460077,0.123219534313196));
#707=CARTESIAN_POINT('',(-0.0172839025000542,-0.0390178242460077,0.132819884088981));
#708=CARTESIAN_POINT('',(-0.032321258537772,-0.0390178242460077,0.123219534313196));
#709=CARTESIAN_POINT('',(-0.032321258537772,-0.0390178242460077,0.123219534313196));
#710=CARTESIAN_POINT('',(-0.0333519132931107,-0.0390178242460077,0.124833884088981));
#711=CARTESIAN_POINT('',(-0.0345869025000542,-0.0390178242460077,0.124833884088981));
#712=CARTESIAN_POINT('',(-0.0453680025000542,-0.0390178242460077,0.124833884088981));
#713=CARTESIAN_POINT('',(-0.0453680025000542,-0.0390178242460077,0.114851384088981));
#714=CARTESIAN_POINT('',(-0.0453680025000542,-0.0390178242460077,0.10486888408898));
#715=CARTESIAN_POINT('',(-0.0518899025000542,-0.0390178242460077,0.10486888408898));
#716=CARTESIAN_POINT('',(0.0108001974999458,-0.0390178242460077,0.10486888408898));
#717=CARTESIAN_POINT('',(0.0108001974999458,-0.0390178242460077,0.10486888408898));
#718=CARTESIAN_POINT('',(0.0108001974999458,-0.0390178242460077,0.10486888408898));
#719=CARTESIAN_POINT('',(0.0108001974999458,-0.0359691055924226,0.10486888408898));
#720=CARTESIAN_POINT('',(0.0108001974999458,-0.0549898242460077,0.10486888408898));
#721=CARTESIAN_POINT('',(0.0108001974999458,-0.0549898242460077,0.10939290716577));
#722=CARTESIAN_POINT('',(0.0108001974999458,-0.0549898242460077,0.124833884088981));
#723=CARTESIAN_POINT('',(0.0108001974999458,-0.0374867805694037,0.124833884088981));
#724=CARTESIAN_POINT('',(-0.0172839025000542,-0.0549898242460077,0.11391693024256));
#725=CARTESIAN_POINT('',(-0.0518899025000542,-0.0549898242460077,0.11352038408898));
#726=CARTESIAN_POINT('',(-0.0518899025000542,-0.0549898242460077,0.10486888408898));
#727=CARTESIAN_POINT('',(-0.0518899025000542,-0.0549898242460077,0.124833884088981));
#728=CARTESIAN_POINT('',(-0.0518899025000542,-0.0549898242460077,0.10486888408898));
#729=CARTESIAN_POINT('',(-0.0453680025000542,-0.0549898242460077,0.10486888408898));
#730=CARTESIAN_POINT('',(-0.0453680025000542,-0.0549898242460077,0.11937540716577));
#731=CARTESIAN_POINT('',(-0.0453680025000542,-0.0549898242460077,0.124833884088981));
#732=CARTESIAN_POINT('',(-0.0453660025000542,-0.0549898242460077,0.124833884088981));
#733=CARTESIAN_POINT('',(-0.0453680025000542,-0.0390178242460077,0.124833884088981));
#734=CARTESIAN_POINT('',(-0.0453680025000542,-0.0374867805694037,0.124833884088981));
#735=CARTESIAN_POINT('',(-0.0453680025000542,-0.0359691055924226,0.10486888408898));
#736=CARTESIAN_POINT('',(-0.0518899025000542,-0.0268229496316672,0.10486888408898));
#737=CARTESIAN_POINT('',(-0.0518899025000542,-0.0268229496316672,0.10486888408898));
#738=CARTESIAN_POINT('',(-0.0518899025000542,-0.0268209496316672,0.124833884088981));
#739=CARTESIAN_POINT('',(-0.0172839025000542,-0.0549898242460077,0.11391693024256));
#740=CARTESIAN_POINT('',(-0.0518899025000542,-0.0549898242460077,0.10486888408898));
#741=CARTESIAN_POINT('',(0.0173220974999458,-0.0549898242460077,0.10486888408898));
#742=CARTESIAN_POINT('',(0.0173220974999458,-0.0549898242460077,0.123502884088981));
#743=CARTESIAN_POINT('',(0.0173220974999458,-0.0549898242460077,0.124833884088981));
#744=CARTESIAN_POINT('',(0.0107981974999458,-0.0549898242460077,0.124833884088981));
#745=CARTESIAN_POINT('',(-0.0172839025000542,-0.0329203869388374,0.10486888408898));
#746=CARTESIAN_POINT('',(-0.000183902500054223,-0.0268249496316672,0.10486888408898));
#747=CARTESIAN_POINT('',(0.0173220974999458,-0.0390178242460077,0.10486888408898));
#748=CARTESIAN_POINT('',(-0.0343839025000542,-0.0268249496316672,0.10486888408898));
#749=CARTESIAN_POINT('',(-0.00773390250005422,-0.0201963607737064,0.10486888408898));
#750=CARTESIAN_POINT('',(-0.00553390250005422,-0.0201963607737064,0.10486888408898));
#751=CARTESIAN_POINT('',(-0.0268339025000542,-0.0201963607737064,0.10486888408898));
#752=CARTESIAN_POINT('',(-0.0246339025000542,-0.0201963607737064,0.10486888408898));
#753=CARTESIAN_POINT('',(-0.0172839025000542,-0.0359557368927996,0.124833884088981));
#754=CARTESIAN_POINT('',(0.0173220974999458,-0.0268209496316672,0.124833884088981));
#755=CARTESIAN_POINT('',(-0.00121589170699778,-0.0359557368927996,0.124833884088981));
#756=CARTESIAN_POINT('',(-0.0172839025000542,-0.0359557368927996,0.124833884088981));
#757=CARTESIAN_POINT('',(-0.0333519132931107,-0.0359557368927996,0.124833884088981));
#758=CARTESIAN_POINT('',(0.0173220974999458,-0.0390178242460077,0.10486888408898));
#759=CARTESIAN_POINT('',(-0.0172839025000542,-0.0390178242460077,0.132819884088981));
#760=CARTESIAN_POINT('',(-0.00224654646233637,-0.0390178242460077,0.123219534313196));
#761=CARTESIAN_POINT('',(-0.00224654646233637,-0.0350248242460076,0.123219534313196));
#762=CARTESIAN_POINT('',(-0.00224654646233637,-0.0350248242460077,0.123219534313196));
#763=CARTESIAN_POINT('',(-0.00224654646233637,-0.0322908660412275,0.123219534313196));
#764=CARTESIAN_POINT('',(-0.00224654646233637,-0.0295569078364474,0.123219534313196));
#765=CARTESIAN_POINT('',(-0.00224654646233637,-0.0268229496316672,0.123219534313196));
#766=CARTESIAN_POINT('',(-0.032321258537772,-0.0268229496316672,0.123219534313196));
#767=CARTESIAN_POINT('',(-0.032321258537772,-0.0295569078364473,0.123219534313196));
#768=CARTESIAN_POINT('',(-0.032321258537772,-0.0322908660412275,0.123219534313196));
#769=CARTESIAN_POINT('',(-0.032321258537772,-0.0350248242460076,0.123219534313196));
#770=CARTESIAN_POINT('',(-0.032321258537772,-0.0350248242460076,0.123219534313196));
#771=CARTESIAN_POINT('',(-0.032321258537772,-0.0390178242460077,0.123219534313196));
#772=CARTESIAN_POINT('',(-0.032321258537772,-0.0268229496316672,0.123219534313196));
#773=CARTESIAN_POINT('',(-0.00224654646233637,-0.0390178242460077,0.123219534313196));
#774=CARTESIAN_POINT('',(-0.0268339025000542,-0.0201963607737064,0.0843198840889805));
#775=CARTESIAN_POINT('',(-0.00773390250005422,-0.0201963607737064,0.0843198840889805));
#776=CARTESIAN_POINT('',(0.00621609749994578,-0.0518229496316672,0.109319884088981));
#777=CARTESIAN_POINT('',(-0.0407839025000542,-0.0518229496316672,0.109319884088981));
#778=CARTESIAN_POINT('',(-0.0343839025000542,-0.0268249496316672,0.107094384088981));
#779=CARTESIAN_POINT('',(-0.0343839025000542,-0.0238229496316672,0.112319884088981));
#780=CARTESIAN_POINT('',(-0.000183902500054223,-0.0268249496316672,0.107094384088981));
#781=CARTESIAN_POINT('',(-0.000183902500054224,-0.0238229496316672,0.112319884088981));
#782=CARTESIAN_POINT('',(0.0173220974999458,-0.0238229496316672,0.112319884088981));
#783=MECHANICAL_DESIGN_GEOMETRIC_PRESENTATION_REPRESENTATION('',(#476),
#784);
#784=(
GEOMETRIC_REPRESENTATION_CONTEXT(3)
GLOBAL_UNCERTAINTY_ASSIGNED_CONTEXT((#785))
GLOBAL_UNIT_ASSIGNED_CONTEXT((#788,#787,#786))
REPRESENTATION_CONTEXT('tilt arm','TOP_LEVEL_ASSEMBLY_PART')
);
#785=UNCERTAINTY_MEASURE_WITH_UNIT(LENGTH_MEASURE(5.E-6),#788,
'DISTANCE_ACCURACY_VALUE','Maximum Tolerance applied to model');
#786=(
NAMED_UNIT(*)
SI_UNIT($,.STERADIAN.)
SOLID_ANGLE_UNIT()
);
#787=(
NAMED_UNIT(*)
PLANE_ANGLE_UNIT()
SI_UNIT($,.RADIAN.)
);
#788=(
LENGTH_UNIT()
NAMED_UNIT(*)
SI_UNIT($,.METRE.)
);
#789=PRODUCT_DEFINITION_SHAPE('','',#790);
#790=PRODUCT_DEFINITION('','',#792,#791);
#791=PRODUCT_DEFINITION_CONTEXT('',#798,'design');
#792=PRODUCT_DEFINITION_FORMATION_WITH_SPECIFIED_SOURCE('','',#794,
 .NOT_KNOWN.);
#793=PRODUCT_RELATED_PRODUCT_CATEGORY('','',(#794));
#794=PRODUCT('tilt arm','tilt arm','tilt arm',(#796));
#795=PRODUCT_CATEGORY('','');
#796=PRODUCT_CONTEXT('',#798,'mechanical');
#797=APPLICATION_PROTOCOL_DEFINITION('international standard',
'ap242_managed_model_based_3d_engineering',2011,#798);
#798=APPLICATION_CONTEXT('managed model based 3d engineering');
ENDSEC;
END-ISO-10303-21;
