ISO-10303-21;
HEADER;
/* Generated by software containing ST-Developer
 * from STEP Tools, Inc. (www.steptools.com) 
 */
/* OPTION: using custom renumber hook */

FILE_DESCRIPTION(
/* description */ ('STEP AP242',
'CAx-IF Rec.Pracs.---Representation and Presentation of Product Manufa
cturing Information (PMI)---4.0---2014-10-13',
'CAx-IF Rec.Pracs.---3D Tessellated Geometry---0.4---2014-09-14','2;1'),

/* implementation_level */ '2;1');

FILE_NAME(
/* name */ '66789d9bb9c7367681b241c4',
/* time_stamp */ '2024-06-23T22:11:39Z',
/* author */ (''),
/* organization */ (''),
/* preprocessor_version */ 'ST-DEVELOPER v20',
/* originating_system */ '  ',
/* authorisation */ '  ');

FILE_SCHEMA (('AP242_MANAGED_MODEL_BASED_3D_ENGINEERING_MIM_LF { 1 0 10303 442 1 1 4 }'));
ENDSEC;

DATA;
#10=SHAPE_REPRESENTATION_RELATIONSHIP('','',#262,#11);
#11=ADVANCED_BREP_SHAPE_REPRESENTATION('',(#260),#439);
#12=PLANE('',#279);
#13=PLANE('',#282);
#14=PLANE('',#283);
#15=PLANE('',#284);
#16=PLANE('',#287);
#17=PLANE('',#288);
#18=PLANE('',#289);
#19=PLANE('',#292);
#20=LINE('',#373,#36);
#21=LINE('',#378,#37);
#22=LINE('',#382,#38);
#23=LINE('',#386,#39);
#24=LINE('',#405,#40);
#25=LINE('',#409,#41);
#26=LINE('',#410,#42);
#27=LINE('',#414,#43);
#28=LINE('',#417,#44);
#29=LINE('',#419,#45);
#30=LINE('',#421,#46);
#31=LINE('',#423,#47);
#32=LINE('',#428,#48);
#33=LINE('',#430,#49);
#34=LINE('',#432,#50);
#35=LINE('',#434,#51);
#36=VECTOR('',#299,1.);
#37=VECTOR('',#302,1.);
#38=VECTOR('',#305,1.);
#39=VECTOR('',#308,1.);
#40=VECTOR('',#331,1.);
#41=VECTOR('',#334,1.);
#42=VECTOR('',#335,1.);
#43=VECTOR('',#338,1.);
#44=VECTOR('',#343,1.);
#45=VECTOR('',#344,1.);
#46=VECTOR('',#347,1.);
#47=VECTOR('',#348,1.);
#48=VECTOR('',#357,1.);
#49=VECTOR('',#358,1.);
#50=VECTOR('',#361,1.);
#51=VECTOR('',#362,1.);
#52=ORIENTED_EDGE('',*,*,#114,.T.);
#53=ORIENTED_EDGE('',*,*,#115,.F.);
#54=ORIENTED_EDGE('',*,*,#116,.F.);
#55=ORIENTED_EDGE('',*,*,#117,.T.);
#56=ORIENTED_EDGE('',*,*,#118,.F.);
#57=ORIENTED_EDGE('',*,*,#119,.F.);
#58=ORIENTED_EDGE('',*,*,#120,.F.);
#59=ORIENTED_EDGE('',*,*,#121,.T.);
#60=ORIENTED_EDGE('',*,*,#122,.F.);
#61=ORIENTED_EDGE('',*,*,#123,.T.);
#62=ORIENTED_EDGE('',*,*,#124,.F.);
#63=ORIENTED_EDGE('',*,*,#125,.T.);
#64=ORIENTED_EDGE('',*,*,#126,.F.);
#65=ORIENTED_EDGE('',*,*,#127,.T.);
#66=ORIENTED_EDGE('',*,*,#128,.F.);
#67=ORIENTED_EDGE('',*,*,#127,.F.);
#68=ORIENTED_EDGE('',*,*,#125,.F.);
#69=ORIENTED_EDGE('',*,*,#123,.F.);
#70=ORIENTED_EDGE('',*,*,#118,.T.);
#71=ORIENTED_EDGE('',*,*,#129,.T.);
#72=ORIENTED_EDGE('',*,*,#130,.F.);
#73=ORIENTED_EDGE('',*,*,#131,.F.);
#74=ORIENTED_EDGE('',*,*,#122,.T.);
#75=ORIENTED_EDGE('',*,*,#132,.F.);
#76=ORIENTED_EDGE('',*,*,#133,.T.);
#77=ORIENTED_EDGE('',*,*,#134,.T.);
#78=ORIENTED_EDGE('',*,*,#128,.T.);
#79=ORIENTED_EDGE('',*,*,#126,.T.);
#80=ORIENTED_EDGE('',*,*,#124,.T.);
#81=ORIENTED_EDGE('',*,*,#114,.F.);
#82=ORIENTED_EDGE('',*,*,#134,.F.);
#83=ORIENTED_EDGE('',*,*,#135,.F.);
#84=ORIENTED_EDGE('',*,*,#136,.T.);
#85=ORIENTED_EDGE('',*,*,#119,.T.);
#86=ORIENTED_EDGE('',*,*,#132,.T.);
#87=ORIENTED_EDGE('',*,*,#121,.F.);
#88=ORIENTED_EDGE('',*,*,#137,.F.);
#89=ORIENTED_EDGE('',*,*,#138,.T.);
#90=ORIENTED_EDGE('',*,*,#133,.F.);
#91=ORIENTED_EDGE('',*,*,#138,.F.);
#92=ORIENTED_EDGE('',*,*,#139,.T.);
#93=ORIENTED_EDGE('',*,*,#135,.T.);
#94=ORIENTED_EDGE('',*,*,#136,.F.);
#95=ORIENTED_EDGE('',*,*,#139,.F.);
#96=ORIENTED_EDGE('',*,*,#137,.T.);
#97=ORIENTED_EDGE('',*,*,#120,.T.);
#98=ORIENTED_EDGE('',*,*,#131,.T.);
#99=ORIENTED_EDGE('',*,*,#140,.F.);
#100=ORIENTED_EDGE('',*,*,#141,.F.);
#101=ORIENTED_EDGE('',*,*,#115,.T.);
#102=ORIENTED_EDGE('',*,*,#129,.F.);
#103=ORIENTED_EDGE('',*,*,#117,.F.);
#104=ORIENTED_EDGE('',*,*,#142,.T.);
#105=ORIENTED_EDGE('',*,*,#143,.T.);
#106=ORIENTED_EDGE('',*,*,#130,.T.);
#107=ORIENTED_EDGE('',*,*,#143,.F.);
#108=ORIENTED_EDGE('',*,*,#144,.F.);
#109=ORIENTED_EDGE('',*,*,#140,.T.);
#110=ORIENTED_EDGE('',*,*,#141,.T.);
#111=ORIENTED_EDGE('',*,*,#144,.T.);
#112=ORIENTED_EDGE('',*,*,#142,.F.);
#113=ORIENTED_EDGE('',*,*,#116,.T.);
#114=EDGE_CURVE('',#145,#145,#168,.T.);
#115=EDGE_CURVE('',#146,#147,#20,.T.);
#116=EDGE_CURVE('',#148,#146,#169,.T.);
#117=EDGE_CURVE('',#148,#149,#21,.T.);
#118=EDGE_CURVE('',#150,#149,#170,.T.);
#119=EDGE_CURVE('',#151,#150,#22,.T.);
#120=EDGE_CURVE('',#152,#151,#171,.T.);
#121=EDGE_CURVE('',#152,#153,#23,.T.);
#122=EDGE_CURVE('',#147,#153,#172,.T.);
#123=EDGE_CURVE('',#154,#154,#173,.T.);
#124=EDGE_CURVE('',#155,#155,#174,.T.);
#125=EDGE_CURVE('',#156,#156,#175,.T.);
#126=EDGE_CURVE('',#157,#157,#176,.T.);
#127=EDGE_CURVE('',#158,#158,#177,.T.);
#128=EDGE_CURVE('',#159,#159,#178,.T.);
#129=EDGE_CURVE('',#149,#160,#24,.T.);
#130=EDGE_CURVE('',#161,#160,#179,.T.);
#131=EDGE_CURVE('',#147,#161,#25,.T.);
#132=EDGE_CURVE('',#162,#153,#26,.T.);
#133=EDGE_CURVE('',#162,#163,#180,.T.);
#134=EDGE_CURVE('',#163,#150,#27,.T.);
#135=EDGE_CURVE('',#164,#163,#28,.T.);
#136=EDGE_CURVE('',#164,#151,#29,.T.);
#137=EDGE_CURVE('',#165,#152,#30,.T.);
#138=EDGE_CURVE('',#165,#162,#31,.T.);
#139=EDGE_CURVE('',#165,#164,#181,.T.);
#140=EDGE_CURVE('',#166,#161,#32,.T.);
#141=EDGE_CURVE('',#146,#166,#33,.T.);
#142=EDGE_CURVE('',#148,#167,#34,.T.);
#143=EDGE_CURVE('',#167,#160,#35,.T.);
#144=EDGE_CURVE('',#166,#167,#182,.T.);
#145=VERTEX_POINT('',#372);
#146=VERTEX_POINT('',#374);
#147=VERTEX_POINT('',#375);
#148=VERTEX_POINT('',#377);
#149=VERTEX_POINT('',#379);
#150=VERTEX_POINT('',#381);
#151=VERTEX_POINT('',#383);
#152=VERTEX_POINT('',#385);
#153=VERTEX_POINT('',#387);
#154=VERTEX_POINT('',#391);
#155=VERTEX_POINT('',#393);
#156=VERTEX_POINT('',#396);
#157=VERTEX_POINT('',#398);
#158=VERTEX_POINT('',#401);
#159=VERTEX_POINT('',#403);
#160=VERTEX_POINT('',#406);
#161=VERTEX_POINT('',#408);
#162=VERTEX_POINT('',#411);
#163=VERTEX_POINT('',#413);
#164=VERTEX_POINT('',#418);
#165=VERTEX_POINT('',#422);
#166=VERTEX_POINT('',#429);
#167=VERTEX_POINT('',#433);
#168=CIRCLE('',#265,0.01);
#169=CIRCLE('',#266,0.01);
#170=CIRCLE('',#267,0.01);
#171=CIRCLE('',#268,0.01);
#172=CIRCLE('',#269,0.01);
#173=CIRCLE('',#271,0.00275);
#174=CIRCLE('',#272,0.00275);
#175=CIRCLE('',#274,0.00275);
#176=CIRCLE('',#275,0.00275);
#177=CIRCLE('',#277,0.00275);
#178=CIRCLE('',#278,0.00275);
#179=CIRCLE('',#280,0.0025);
#180=CIRCLE('',#281,0.0025);
#181=CIRCLE('',#286,0.0025);
#182=CIRCLE('',#291,0.0025);
#183=EDGE_LOOP('',(#52));
#184=EDGE_LOOP('',(#53,#54,#55,#56,#57,#58,#59,#60));
#185=EDGE_LOOP('',(#61));
#186=EDGE_LOOP('',(#62));
#187=EDGE_LOOP('',(#63));
#188=EDGE_LOOP('',(#64));
#189=EDGE_LOOP('',(#65));
#190=EDGE_LOOP('',(#66));
#191=EDGE_LOOP('',(#67));
#192=EDGE_LOOP('',(#68));
#193=EDGE_LOOP('',(#69));
#194=EDGE_LOOP('',(#70,#71,#72,#73,#74,#75,#76,#77));
#195=EDGE_LOOP('',(#78));
#196=EDGE_LOOP('',(#79));
#197=EDGE_LOOP('',(#80));
#198=EDGE_LOOP('',(#81));
#199=EDGE_LOOP('',(#82,#83,#84,#85));
#200=EDGE_LOOP('',(#86,#87,#88,#89));
#201=EDGE_LOOP('',(#90,#91,#92,#93));
#202=EDGE_LOOP('',(#94,#95,#96,#97));
#203=EDGE_LOOP('',(#98,#99,#100,#101));
#204=EDGE_LOOP('',(#102,#103,#104,#105));
#205=EDGE_LOOP('',(#106,#107,#108,#109));
#206=EDGE_LOOP('',(#110,#111,#112,#113));
#207=FACE_BOUND('',#183,.T.);
#208=FACE_BOUND('',#184,.T.);
#209=FACE_BOUND('',#185,.T.);
#210=FACE_BOUND('',#186,.T.);
#211=FACE_BOUND('',#187,.T.);
#212=FACE_BOUND('',#188,.T.);
#213=FACE_BOUND('',#189,.T.);
#214=FACE_BOUND('',#190,.T.);
#215=FACE_BOUND('',#191,.T.);
#216=FACE_BOUND('',#192,.T.);
#217=FACE_BOUND('',#193,.T.);
#218=FACE_BOUND('',#194,.T.);
#219=FACE_BOUND('',#195,.T.);
#220=FACE_BOUND('',#196,.T.);
#221=FACE_BOUND('',#197,.T.);
#222=FACE_BOUND('',#198,.T.);
#223=FACE_BOUND('',#199,.T.);
#224=FACE_BOUND('',#200,.T.);
#225=FACE_BOUND('',#201,.T.);
#226=FACE_BOUND('',#202,.T.);
#227=FACE_BOUND('',#203,.T.);
#228=FACE_BOUND('',#204,.T.);
#229=FACE_BOUND('',#205,.T.);
#230=FACE_BOUND('',#206,.T.);
#231=CYLINDRICAL_SURFACE('',#264,0.01);
#232=CYLINDRICAL_SURFACE('',#270,0.00275);
#233=CYLINDRICAL_SURFACE('',#273,0.00275);
#234=CYLINDRICAL_SURFACE('',#276,0.00275);
#235=CYLINDRICAL_SURFACE('',#285,0.0025);
#236=CYLINDRICAL_SURFACE('',#290,0.0025);
#237=ADVANCED_FACE('',(#207,#208),#231,.T.);
#238=ADVANCED_FACE('',(#209,#210),#232,.F.);
#239=ADVANCED_FACE('',(#211,#212),#233,.F.);
#240=ADVANCED_FACE('',(#213,#214),#234,.F.);
#241=ADVANCED_FACE('',(#215,#216,#217,#218),#12,.T.);
#242=ADVANCED_FACE('',(#219,#220,#221,#222),#13,.F.);
#243=ADVANCED_FACE('',(#223),#14,.T.);
#244=ADVANCED_FACE('',(#224),#15,.F.);
#245=ADVANCED_FACE('',(#225),#235,.T.);
#246=ADVANCED_FACE('',(#226),#16,.F.);
#247=ADVANCED_FACE('',(#227),#17,.F.);
#248=ADVANCED_FACE('',(#228),#18,.T.);
#249=ADVANCED_FACE('',(#229),#236,.T.);
#250=ADVANCED_FACE('',(#230),#19,.F.);
#251=CLOSED_SHELL('',(#237,#238,#239,#240,#241,#242,#243,#244,#245,#246,
#247,#248,#249,#250));
#252=STYLED_ITEM('',(#253),#260);
#253=PRESENTATION_STYLE_ASSIGNMENT((#254));
#254=SURFACE_STYLE_USAGE(.BOTH.,#255);
#255=SURFACE_SIDE_STYLE('',(#256));
#256=SURFACE_STYLE_FILL_AREA(#257);
#257=FILL_AREA_STYLE('',(#258));
#258=FILL_AREA_STYLE_COLOUR('',#259);
#259=COLOUR_RGB('',0.768627450980392,0.886274509803922,0.952941176470588);
#260=MANIFOLD_SOLID_BREP('tilt endstop  triggers',#251);
#261=SHAPE_DEFINITION_REPRESENTATION(#444,#262);
#262=SHAPE_REPRESENTATION('tilt endstop  triggers',(#263),#439);
#263=AXIS2_PLACEMENT_3D('',#369,#293,#294);
#264=AXIS2_PLACEMENT_3D('',#370,#295,#296);
#265=AXIS2_PLACEMENT_3D('',#371,#297,#298);
#266=AXIS2_PLACEMENT_3D('',#376,#300,#301);
#267=AXIS2_PLACEMENT_3D('',#380,#303,#304);
#268=AXIS2_PLACEMENT_3D('',#384,#306,#307);
#269=AXIS2_PLACEMENT_3D('',#388,#309,#310);
#270=AXIS2_PLACEMENT_3D('',#389,#311,#312);
#271=AXIS2_PLACEMENT_3D('',#390,#313,#314);
#272=AXIS2_PLACEMENT_3D('',#392,#315,#316);
#273=AXIS2_PLACEMENT_3D('',#394,#317,#318);
#274=AXIS2_PLACEMENT_3D('',#395,#319,#320);
#275=AXIS2_PLACEMENT_3D('',#397,#321,#322);
#276=AXIS2_PLACEMENT_3D('',#399,#323,#324);
#277=AXIS2_PLACEMENT_3D('',#400,#325,#326);
#278=AXIS2_PLACEMENT_3D('',#402,#327,#328);
#279=AXIS2_PLACEMENT_3D('',#404,#329,#330);
#280=AXIS2_PLACEMENT_3D('',#407,#332,#333);
#281=AXIS2_PLACEMENT_3D('',#412,#336,#337);
#282=AXIS2_PLACEMENT_3D('',#415,#339,#340);
#283=AXIS2_PLACEMENT_3D('',#416,#341,#342);
#284=AXIS2_PLACEMENT_3D('',#420,#345,#346);
#285=AXIS2_PLACEMENT_3D('',#424,#349,#350);
#286=AXIS2_PLACEMENT_3D('',#425,#351,#352);
#287=AXIS2_PLACEMENT_3D('',#426,#353,#354);
#288=AXIS2_PLACEMENT_3D('',#427,#355,#356);
#289=AXIS2_PLACEMENT_3D('',#431,#359,#360);
#290=AXIS2_PLACEMENT_3D('',#435,#363,#364);
#291=AXIS2_PLACEMENT_3D('',#436,#365,#366);
#292=AXIS2_PLACEMENT_3D('',#437,#367,#368);
#293=DIRECTION('',(0.,0.,1.));
#294=DIRECTION('',(1.,0.,0.));
#295=DIRECTION('',(0.,1.,0.));
#296=DIRECTION('',(-1.,0.,0.));
#297=DIRECTION('',(0.,-1.,0.));
#298=DIRECTION('',(1.,0.,0.));
#299=DIRECTION('',(0.,-1.,0.));
#300=DIRECTION('',(0.,-1.,0.));
#301=DIRECTION('',(1.,0.,0.));
#302=DIRECTION('',(0.,-1.,0.));
#303=DIRECTION('',(0.,-1.,0.));
#304=DIRECTION('',(1.,0.,0.));
#305=DIRECTION('',(0.,-1.,0.));
#306=DIRECTION('',(0.,-1.,0.));
#307=DIRECTION('',(1.,0.,0.));
#308=DIRECTION('',(0.,-1.,0.));
#309=DIRECTION('',(0.,-1.,0.));
#310=DIRECTION('',(1.,0.,0.));
#311=DIRECTION('',(0.,1.,0.));
#312=DIRECTION('',(-1.,0.,0.));
#313=DIRECTION('',(0.,-1.,0.));
#314=DIRECTION('',(1.,0.,0.));
#315=DIRECTION('',(0.,-1.,0.));
#316=DIRECTION('',(1.,0.,0.));
#317=DIRECTION('',(0.,1.,0.));
#318=DIRECTION('',(-1.,0.,0.));
#319=DIRECTION('',(0.,-1.,0.));
#320=DIRECTION('',(1.,0.,0.));
#321=DIRECTION('',(0.,-1.,0.));
#322=DIRECTION('',(1.,0.,0.));
#323=DIRECTION('',(0.,1.,0.));
#324=DIRECTION('',(-1.,0.,0.));
#325=DIRECTION('',(0.,-1.,0.));
#326=DIRECTION('',(1.,0.,0.));
#327=DIRECTION('',(0.,-1.,0.));
#328=DIRECTION('',(1.,0.,0.));
#329=DIRECTION('',(0.,-1.,0.));
#330=DIRECTION('',(1.,0.,0.));
#331=DIRECTION('',(1.,0.,0.));
#332=DIRECTION('',(0.,1.,0.));
#333=DIRECTION('',(1.,0.,0.));
#334=DIRECTION('',(1.,0.,0.));
#335=DIRECTION('',(1.,0.,0.));
#336=DIRECTION('',(0.,-1.,0.));
#337=DIRECTION('',(1.,0.,0.));
#338=DIRECTION('',(1.,0.,0.));
#339=DIRECTION('',(0.,-1.,0.));
#340=DIRECTION('',(1.,0.,0.));
#341=DIRECTION('',(0.,0.,-1.));
#342=DIRECTION('',(0.,1.,0.));
#343=DIRECTION('',(0.,-1.,0.));
#344=DIRECTION('',(1.,0.,0.));
#345=DIRECTION('',(0.,0.,-1.));
#346=DIRECTION('',(0.,1.,0.));
#347=DIRECTION('',(1.,0.,0.));
#348=DIRECTION('',(0.,-1.,0.));
#349=DIRECTION('',(0.,-1.,0.));
#350=DIRECTION('',(1.,0.,0.));
#351=DIRECTION('',(0.,-1.,0.));
#352=DIRECTION('',(1.,0.,0.));
#353=DIRECTION('',(0.,-1.,0.));
#354=DIRECTION('',(1.,0.,0.));
#355=DIRECTION('',(0.,0.,-1.));
#356=DIRECTION('',(0.,1.,0.));
#357=DIRECTION('',(0.,-1.,0.));
#358=DIRECTION('',(1.,0.,0.));
#359=DIRECTION('',(0.,0.,-1.));
#360=DIRECTION('',(0.,1.,0.));
#361=DIRECTION('',(1.,0.,0.));
#362=DIRECTION('',(0.,-1.,0.));
#363=DIRECTION('',(0.,-1.,0.));
#364=DIRECTION('',(1.,0.,0.));
#365=DIRECTION('',(0.,1.,0.));
#366=DIRECTION('',(1.,0.,0.));
#367=DIRECTION('',(0.,-1.,0.));
#368=DIRECTION('',(1.,0.,0.));
#369=CARTESIAN_POINT('',(0.,0.,0.));
#370=CARTESIAN_POINT('',(-0.017297218960243,-0.0636623242460077,0.215013783632024));
#371=CARTESIAN_POINT('',(-0.017297218960243,-0.0536623242460077,0.215013783632024));
#372=CARTESIAN_POINT('',(-0.00729721896024305,-0.0536623242460077,0.215013783632024));
#373=CARTESIAN_POINT('',(-0.00761476059472449,-0.0556623242460077,0.217513783632024));
#374=CARTESIAN_POINT('',(-0.00761476059472449,-0.0556623242460077,0.217513783632024));
#375=CARTESIAN_POINT('',(-0.00761476059472449,-0.0636623242460077,0.217513783632024));
#376=CARTESIAN_POINT('',(-0.017297218960243,-0.0556623242460077,0.215013783632024));
#377=CARTESIAN_POINT('',(-0.00761476059472449,-0.0556623242460077,0.212513783632024));
#378=CARTESIAN_POINT('',(-0.00761476059472449,-0.0556623242460077,0.212513783632024));
#379=CARTESIAN_POINT('',(-0.00761476059472449,-0.0636623242460077,0.212513783632024));
#380=CARTESIAN_POINT('',(-0.017297218960243,-0.0636623242460077,0.215013783632024));
#381=CARTESIAN_POINT('',(-0.0269796773257616,-0.0636623242460077,0.212513783632024));
#382=CARTESIAN_POINT('',(-0.0269796773257616,-0.0556623242460077,0.212513783632024));
#383=CARTESIAN_POINT('',(-0.0269796773257616,-0.0556623242460077,0.212513783632024));
#384=CARTESIAN_POINT('',(-0.017297218960243,-0.0556623242460077,0.215013783632024));
#385=CARTESIAN_POINT('',(-0.0269796773257616,-0.0556623242460077,0.217513783632024));
#386=CARTESIAN_POINT('',(-0.0269796773257616,-0.0556623242460077,0.217513783632024));
#387=CARTESIAN_POINT('',(-0.0269796773257616,-0.0636623242460077,0.217513783632024));
#388=CARTESIAN_POINT('',(-0.017297218960243,-0.0636623242460077,0.215013783632024));
#389=CARTESIAN_POINT('',(-0.022797218960243,-0.0636623242460077,0.215013783632024));
#390=CARTESIAN_POINT('',(-0.022797218960243,-0.0636623242460077,0.215013783632024));
#391=CARTESIAN_POINT('',(-0.0200472189602431,-0.0636623242460077,0.215013783632024));
#392=CARTESIAN_POINT('',(-0.022797218960243,-0.0536623242460077,0.215013783632024));
#393=CARTESIAN_POINT('',(-0.0200472189602431,-0.0536623242460077,0.215013783632024));
#394=CARTESIAN_POINT('',(-0.014547218960243,-0.0636623242460077,0.21025064391121));
#395=CARTESIAN_POINT('',(-0.014547218960243,-0.0636623242460077,0.21025064391121));
#396=CARTESIAN_POINT('',(-0.011797218960243,-0.0636623242460077,0.21025064391121));
#397=CARTESIAN_POINT('',(-0.014547218960243,-0.0536623242460077,0.21025064391121));
#398=CARTESIAN_POINT('',(-0.011797218960243,-0.0536623242460077,0.21025064391121));
#399=CARTESIAN_POINT('',(-0.014547218960243,-0.0636623242460077,0.219776923352839));
#400=CARTESIAN_POINT('',(-0.014547218960243,-0.0636623242460077,0.219776923352839));
#401=CARTESIAN_POINT('',(-0.011797218960243,-0.0636623242460077,0.219776923352839));
#402=CARTESIAN_POINT('',(-0.014547218960243,-0.0536623242460077,0.219776923352839));
#403=CARTESIAN_POINT('',(-0.011797218960243,-0.0536623242460077,0.219776923352839));
#404=CARTESIAN_POINT('',(-0.017297218960243,-0.0636623242460077,0.215013783632024));
#405=CARTESIAN_POINT('',(-0.00554721896024303,-0.0636623242460077,0.212513783632024));
#406=CARTESIAN_POINT('',(-0.00379721896024304,-0.0636623242460077,0.212513783632024));
#407=CARTESIAN_POINT('',(-0.00379721896024304,-0.0636623242460077,0.215013783632024));
#408=CARTESIAN_POINT('',(-0.00379721896024304,-0.0636623242460077,0.217513783632024));
#409=CARTESIAN_POINT('',(-0.00554721896024303,-0.0636623242460077,0.217513783632024));
#410=CARTESIAN_POINT('',(-0.0288884481430023,-0.0636623242460077,0.217513783632024));
#411=CARTESIAN_POINT('',(-0.030797218960243,-0.0636623242460077,0.217513783632024));
#412=CARTESIAN_POINT('',(-0.030797218960243,-0.0636623242460077,0.215013783632024));
#413=CARTESIAN_POINT('',(-0.030797218960243,-0.0636623242460077,0.212513783632024));
#414=CARTESIAN_POINT('',(-0.0290472189602431,-0.0636623242460077,0.212513783632024));
#415=CARTESIAN_POINT('',(-0.017297218960243,-0.0536623242460077,0.215013783632024));
#416=CARTESIAN_POINT('',(-0.0290472189602431,-0.0556623242460077,0.212513783632024));
#417=CARTESIAN_POINT('',(-0.030797218960243,-0.0556623242460077,0.212513783632024));
#418=CARTESIAN_POINT('',(-0.030797218960243,-0.0556623242460077,0.212513783632024));
#419=CARTESIAN_POINT('',(-0.0290472189602431,-0.0556623242460077,0.212513783632024));
#420=CARTESIAN_POINT('',(-0.0288884481430023,-0.0556623242460077,0.217513783632024));
#421=CARTESIAN_POINT('',(-0.0288884481430023,-0.0556623242460077,0.217513783632024));
#422=CARTESIAN_POINT('',(-0.030797218960243,-0.0556623242460077,0.217513783632024));
#423=CARTESIAN_POINT('',(-0.030797218960243,-0.0556623242460077,0.217513783632024));
#424=CARTESIAN_POINT('',(-0.030797218960243,-0.0556623242460077,0.215013783632024));
#425=CARTESIAN_POINT('',(-0.030797218960243,-0.0556623242460077,0.215013783632024));
#426=CARTESIAN_POINT('',(-0.0106542412771445,-0.0556623242460077,0.207513783632024));
#427=CARTESIAN_POINT('',(-0.00554721896024303,-0.0556623242460077,0.217513783632024));
#428=CARTESIAN_POINT('',(-0.00379721896024304,-0.0556623242460077,0.217513783632024));
#429=CARTESIAN_POINT('',(-0.00379721896024304,-0.0556623242460077,0.217513783632024));
#430=CARTESIAN_POINT('',(-0.00554721896024303,-0.0556623242460077,0.217513783632024));
#431=CARTESIAN_POINT('',(-0.00554721896024303,-0.0556623242460077,0.212513783632024));
#432=CARTESIAN_POINT('',(-0.00554721896024303,-0.0556623242460077,0.212513783632024));
#433=CARTESIAN_POINT('',(-0.00379721896024304,-0.0556623242460077,0.212513783632024));
#434=CARTESIAN_POINT('',(-0.00379721896024304,-0.0556623242460077,0.212513783632024));
#435=CARTESIAN_POINT('',(-0.00379721896024304,-0.0556623242460077,0.215013783632024));
#436=CARTESIAN_POINT('',(-0.00379721896024304,-0.0556623242460077,0.215013783632024));
#437=CARTESIAN_POINT('',(-0.0106542412771445,-0.0556623242460077,0.207513783632024));
#438=MECHANICAL_DESIGN_GEOMETRIC_PRESENTATION_REPRESENTATION('',(#252),
#439);
#439=(
GEOMETRIC_REPRESENTATION_CONTEXT(3)
GLOBAL_UNCERTAINTY_ASSIGNED_CONTEXT((#440))
GLOBAL_UNIT_ASSIGNED_CONTEXT((#443,#442,#441))
REPRESENTATION_CONTEXT('tilt endstop  triggers',
'TOP_LEVEL_ASSEMBLY_PART')
);
#440=UNCERTAINTY_MEASURE_WITH_UNIT(LENGTH_MEASURE(5.E-6),#443,
'DISTANCE_ACCURACY_VALUE','Maximum Tolerance applied to model');
#441=(
NAMED_UNIT(*)
SI_UNIT($,.STERADIAN.)
SOLID_ANGLE_UNIT()
);
#442=(
NAMED_UNIT(*)
PLANE_ANGLE_UNIT()
SI_UNIT($,.RADIAN.)
);
#443=(
LENGTH_UNIT()
NAMED_UNIT(*)
SI_UNIT($,.METRE.)
);
#444=PRODUCT_DEFINITION_SHAPE('','',#445);
#445=PRODUCT_DEFINITION('','',#447,#446);
#446=PRODUCT_DEFINITION_CONTEXT('',#453,'design');
#447=PRODUCT_DEFINITION_FORMATION_WITH_SPECIFIED_SOURCE('','',#449,
 .NOT_KNOWN.);
#448=PRODUCT_RELATED_PRODUCT_CATEGORY('','',(#449));
#449=PRODUCT('tilt endstop  triggers','tilt endstop  triggers',
'tilt endstop  triggers',(#451));
#450=PRODUCT_CATEGORY('','');
#451=PRODUCT_CONTEXT('',#453,'mechanical');
#452=APPLICATION_PROTOCOL_DEFINITION('international standard',
'ap242_managed_model_based_3d_engineering',2011,#453);
#453=APPLICATION_CONTEXT('managed model based 3d engineering');
ENDSEC;
END-ISO-10303-21;
